<?xml version="1.0" encoding="utf-8"?>
<!-- Generator: Adobe Illustrator 24.2.0, SVG Export Plug-In . SVG Version: 6.00 Build 0)  -->
<svg version="1.1" id="Layer_1" xmlns="http://www.w3.org/2000/svg" xmlns:xlink="http://www.w3.org/1999/xlink" x="0px" y="0px"
	 viewBox="0 0 377.5 311.2" style="enable-background:new 0 0 377.5 311.2;" xml:space="preserve">
<style type="text/css">
	.Drop_x0020_Shadow{fill:none;}
	.Round_x0020_Corners_x0020_2_x0020_pt{fill:#FFFFFF;stroke:#000000;stroke-miterlimit:10;}
	.Live_x0020_Reflect_x0020_X{fill:none;}
	.Bevel_x0020_Soft{fill:url(#SVGID_1_);}
	.Dusk{fill:#FFFFFF;}
	.Foliage_GS{fill:#FFDD00;}
	.Pompadour_GS{fill-rule:evenodd;clip-rule:evenodd;fill:#44ADE2;}
	.st0{fill:#8D6A3F;}
	.st1{fill:#2F3E83;}
	.st2{fill:#3967B1;}
	.st3{fill:#699ED4;}
	.st4{fill:#A7D1F0;}
	.st5{fill:none;}
	.st6{fill:#696E40;}
	.st7{fill:#6D522E;}
	.st8{fill:#4F3928;}
	.st9{fill:#31261E;}
	.st10{fill:#AF9D66;}
	.st11{fill:#666666;}
	.st12{fill:#333333;}
	.st13{fill:#908248;}
</style>
<linearGradient id="SVGID_1_" gradientUnits="userSpaceOnUse" x1="3307.6782" y1="-803.6162" x2="3308.3855" y2="-802.9091">
	<stop  offset="0" style="stop-color:#DEDFE3"/>
	<stop  offset="0.1738" style="stop-color:#D8D9DD"/>
	<stop  offset="0.352" style="stop-color:#C9CACD"/>
	<stop  offset="0.5323" style="stop-color:#B4B5B8"/>
	<stop  offset="0.7139" style="stop-color:#989A9C"/>
	<stop  offset="0.8949" style="stop-color:#797C7E"/>
	<stop  offset="1" style="stop-color:#656B6C"/>
</linearGradient>
<rect x="-0.07" y="0" class="st0" width="377.57" height="311.2"/>
<rect x="-0.07" y="0" class="st2" width="377.57" height="255.04"/>
<rect x="131.87" y="248.35" class="st10" width="45.32" height="19.11"/>
<g>
	<rect x="315.2" y="31.74" class="st1" width="62.3" height="22.28"/>
	<g>
		<path class="st13" d="M377.5,311.2l-0.15-138.47l-45.28,1.84l-6.3-2.41l-9.21-1.04l-7.87,1.6l-5.51,1.25l-19.99,1.76l-13.33,4.04
			l-13.87,10.83l-29.52,33.35l-19.15,15.57c0,0-11.05,13.21-11.44,13.99c-0.39,0.77-6,9.71-6,9.71l-1.56,7.1
			c0,0-1.28,20.79-1.25,21.47c0.03,0.68,1.1,4.06,1.1,4.06l1.99,7.45l1.02,7.9L377.5,311.2z"/>
		<polygon class="st6" points="341.83,162.53 341.6,152.47 333.92,152.65 333.97,154.84 326.47,155.01 326.55,158.48 300.11,159.07 
			300.01,155.61 292.6,155.77 292.53,153.58 282.63,153.81 277.74,159.99 269.42,173.04 260.26,182.2 258.59,180.53 256.2,182.91 
			253.93,180.63 238.32,196.25 240.59,198.52 238.12,200.99 239.79,202.66 230.08,212.38 230.08,212.38 218.56,223.89 
			216.89,222.22 214.5,224.6 212.23,222.33 196.62,237.94 198.89,240.21 196.42,242.68 198.1,244.35 188.57,253.88 192.71,258.49 
			189.97,261.99 194.15,265.26 196.51,262.25 199.93,265.65 205.36,260.22 203.81,258.67 209.12,253.36 206.66,250.91 
			225.36,232.21 227.83,234.65 233.08,229.4 234.64,230.94 241.63,223.95 241.63,223.96 247.06,218.52 245.51,216.97 250.81,211.67 
			248.36,209.22 267.06,190.52 269.53,192.96 280.02,183.98 278.48,180.66 288.45,177.93 289.48,181.38 296.19,180.67 
			296.42,182.85 306.27,181.9 305.98,179.05 310.13,179.05 310.13,175.13 319.92,174.91 328.77,174.91 328.77,179.7 336.47,179.7 
			336.47,183.79 359.51,183.79 359.51,179.7 367.32,179.7 367.32,174.91 377.5,174.91 377.5,162.53 		"/>
		<polygon class="st1" points="55.74,218.56 49.35,234.72 43.1,234.72 41.67,241.01 34.84,241.01 32.86,247.15 23.22,247.15 
			21.34,257.51 21.34,258.07 64.26,257.64 68.45,254.59 75.68,227.36 		"/>
		<polygon class="st4" points="69.07,267.01 71.04,260.04 67.06,258.91 68.87,252.49 66.19,251.73 70.78,235.47 73.47,236.23 
			75.22,230.03 79.19,231.15 81.17,224.14 83.86,224.9 85.54,218.91 77.67,216.69 76.79,219.81 72.81,218.68 71.38,223.76 
			67.4,222.64 64.37,233.38 60.22,232.21 55.5,248.94 59.64,250.11 56.57,261.01 60.55,262.13 58.99,267.65 62.97,268.77 
			62.1,271.85 69.97,274.08 71.75,267.77 		"/>
		<polygon class="st9" points="84.53,271.4 80.61,270.11 81.75,266.64 78.13,265.45 89.46,230.98 93.08,232.17 94.17,228.86 
			98.12,230.15 100.24,223.69 96.29,222.39 93.75,221.55 92.67,221.2 90.01,220.32 82.31,217.79 79.8,225.42 78.54,225 
			77.05,229.54 74.5,228.71 72.46,234.91 68.56,233.63 62.94,250.74 66.84,252.02 64.79,258.24 67.34,259.08 65.2,265.61 
			68.79,266.79 66.75,273.02 82.31,278.13 		"/>
		<path class="st8" d="M103.22,243.47l-6.54,10.41l6.18,0.98l2.35-3.04c0,0,3.93-0.38,4-0.42c0.07-0.04,1.59-4.76,1.65-4.71
			c0.07,0.04-3.57-3.21-3.57-3.21H103.22z"/>
		<g>
			<polygon class="st7" points="114.59,230.88 111.44,229.28 113.09,226.04 113.75,226.37 127,200.2 123.64,198.5 127.99,189.9 
				121.75,186.74 116.14,197.83 112.71,196.1 103.25,214.77 106.68,216.51 104.15,221.51 106.95,222.93 97.92,240.79 101.81,242.76 
				107.23,245.42 			"/>
			
				<rect x="160.92" y="252.98" transform="matrix(0.4516 -0.8922 0.8922 0.4516 -137.5913 284.7174)" class="st0" width="3.82" height="2.63"/>
			
				<rect x="104.75" y="223.11" transform="matrix(0.4516 -0.8922 0.8922 0.4516 -141.4203 218.7338)" class="st8" width="4.96" height="2.6"/>
			
				<rect x="48.51" y="180.04" transform="matrix(0.4516 -0.8922 0.8922 0.4516 -133.4934 177.9311)" class="st1" width="58.98" height="35.05"/>
			<polygon class="st9" points="107.81,179.69 107.81,179.69 103.88,177.69 102.26,180.88 101.14,180.46 94.19,194.18 92.92,193.53 
				84.52,210.14 83.94,211.28 80.46,218.15 82.07,218.96 81.09,220.89 82.4,221.55 77.82,230.61 81.17,232.31 81.17,232.31 
				90.66,237.11 117.29,184.49 			"/>
			<polygon class="st7" points="190.81,222.23 188.97,221.3 184.91,219.25 177.73,233.44 173.57,231.34 171.15,236.11 
				169.41,235.23 161.75,250.37 163.49,251.25 161.01,256.14 165.17,258.25 158.27,271.87 162.33,273.93 164.18,274.86 
				165.04,275.29 168.57,268.32 167.71,267.88 187.28,229.21 188.15,229.65 191.68,222.67 			"/>
			
				<rect x="176.42" y="266.02" transform="matrix(0.4516 -0.8922 0.8922 0.4516 -141.889 304.0662)" class="st5" width="0" height="2.89"/>
			<polygon class="st6" points="187.39,279.3 190.04,279.3 189.92,272.05 188.46,272.21 200.41,246.46 203.51,248 206.86,241.39 
				208.83,242.36 213.3,233.53 198.71,226.14 191.35,240.67 189.24,239.6 187.72,242.61 184.85,241.16 174.88,260.85 177.75,262.31 
				176.17,265.42 178.28,266.49 172.03,278.83 186.66,286.15 			"/>
			<polygon class="st8" points="157.78,223.62 165.29,208.78 162.24,207.24 159.99,211.68 157.73,210.53 152.84,220.11 
				150.13,218.74 147.66,223.69 145.86,222.78 138.2,237.92 140,238.83 137.52,243.72 140.23,245.09 135.58,254.28 137.85,255.42 
				135.6,259.86 138.65,261.41 			"/>
			<polygon class="st10" points="138.08,261.64 139.62,258.6 139.62,262.42 			"/>
			<polygon class="st10" points="183.04,218.3 176.73,230.78 173.82,229.31 172.13,232.65 172.68,233.1 168.67,239.34 
				164.11,250.27 163.48,253.65 142.13,253.64 142.46,252.99 140.95,252.22 144.34,245.51 142.82,244.74 144.42,241.59 
				141.77,240.26 149.43,225.11 152.08,226.45 153.67,223.31 155.19,224.08 158.85,216.85 160.36,217.62 164.72,209.02 
				169.02,211.2 172.49,212.96 			"/>
			<polygon class="st8" points="114.96,249.42 127.84,223.99 125.15,222.63 134.36,204.45 132.35,203.44 134.91,198.39 
				132.42,197.13 134.43,193.16 126.98,189.39 116.5,210.09 118.63,211.17 115.79,216.78 117.37,217.58 111.44,229.28 
				114.55,230.86 110.62,238.63 106.68,236.64 103.22,243.47 107.16,245.46 107.16,245.46 			"/>
			
				<rect x="95" y="231.32" transform="matrix(0.4516 -0.8922 0.8922 0.4516 -154.0909 214.5302)" class="st8" width="4.96" height="2.6"/>
			
				<rect x="111.49" y="188.26" transform="matrix(0.4516 -0.8922 0.8922 0.4516 -106.6337 205.6287)" class="st8" width="4.96" height="2.6"/>
			<polygon class="st2" points="45.03,147.82 18.4,200.45 50.71,216.8 50.77,216.68 50.89,216.74 58.05,202.58 57.94,202.52 
				77.35,164.18 			"/>
			<polygon class="st0" points="164.52,266.26 162.81,265.4 166.17,258.75 164.87,258.1 165.96,255.94 164.91,255.41 166.92,251.44 
				164.55,250.24 171.3,236.89 173.35,238.73 175.03,235.41 176.08,235.95 177.08,233.98 178.38,234.64 182.38,226.73 184.09,227.6 
				187.63,220.62 185.92,219.75 184.92,219.25 184.36,219 180.02,227.57 178.26,226.65 174.59,233.9 173.35,233.28 171.76,236.42 
				169.23,235.14 161.56,250.28 164.1,251.56 162.5,254.71 163.74,255.33 160.39,261.95 162.16,262.85 157.73,271.6 158.28,271.87 
				159.28,272.38 160.99,273.24 			"/>
			<polygon class="st9" points="146.67,199.36 139.98,195.97 139.38,195.66 137.5,194.72 136.67,194.29 134.19,193.04 
				126.67,207.88 129.15,209.14 122.12,223.02 124.83,224.4 116.84,240.17 114.74,239.11 105.05,253.95 118.56,257.8 			"/>
			<polygon class="st8" points="156.86,204.51 130.22,257.13 119.51,251.71 119.51,251.71 117.14,251.71 117.3,253.88 
				112.84,253.88 114.58,249.22 119.32,239.87 121.85,241.16 124.63,235.66 127.15,236.93 138.76,214 136.24,212.72 139.03,207.22 
				136.49,205.94 141.22,196.6 143.76,197.88 144.52,198.26 146.27,199.15 			"/>
			<polygon class="st8" points="119.54,251.71 119.51,251.71 117.88,250.89 117.12,250.5 			"/>
			<g>
				
					<rect x="61.76" y="191.02" transform="matrix(0.4516 -0.8922 0.8922 0.4516 -133.6043 166.9107)" class="st3" width="14.45" height="2.26"/>
				
					<rect x="63.35" y="201.18" transform="matrix(0.4516 -0.8922 0.8922 0.4516 -144.1026 170.1487)" class="st3" width="6.04" height="2.26"/>
				
					<rect x="72.6" y="182.9" transform="matrix(0.4516 -0.8922 0.8922 0.4516 -122.7168 168.3806)" class="st3" width="6.04" height="2.26"/>
				
					<rect x="78.17" y="179.87" transform="matrix(0.4516 -0.8922 0.8922 0.4516 -117.7907 170.3435)" class="st3" width="3.02" height="2.26"/>
				
					<rect x="64.82" y="206.24" transform="matrix(0.4516 -0.8922 0.8922 0.4516 -148.6394 172.8939)" class="st3" width="3.02" height="2.26"/>
			</g>
			
				<rect x="34.15" y="188.86" transform="matrix(-0.4516 0.8922 -0.8922 -0.4516 262.1692 219.4591)" class="st1" width="58.98" height="2.86"/>
			
				<rect x="46.01" y="186.31" transform="matrix(-0.4516 0.8922 -0.8922 -0.4516 257.8042 218.5179)" class="st1" width="31.47" height="4.34"/>
			
				<rect x="50.25" y="185.35" transform="matrix(-0.4516 0.8922 -0.8922 -0.4516 254.1205 218.8665)" class="st1" width="19.09" height="4.34"/>
			
				<rect x="72.81" y="162.6" transform="matrix(-0.4516 0.8922 -0.8922 -0.4516 255.2777 172.6444)" class="st2" width="3.55" height="4.34"/>
			<polygon class="st4" points="83.15,224.93 85.43,220.43 82.85,219.13 85.38,214.12 83.64,213.24 92.46,195.83 94.19,196.71 
				97.04,191.09 99.62,192.4 102.84,186.03 104.55,186.9 108.18,179.72 103.11,177.15 101.75,179.84 99.17,178.53 95.88,185.03 
				93.3,183.72 88.36,193.47 85.68,192.11 78,207.28 80.68,208.64 75.68,218.53 78.26,219.84 76.64,222.98 79.22,224.28 
				76.47,229.77 81.57,232.36 84.89,225.81 			"/>
			
				<rect x="120.77" y="245.76" transform="matrix(-0.4516 0.8922 -0.8922 -0.4516 398.2474 249.1415)" class="st8" width="3.57" height="2.39"/>
			
				<rect x="136.08" y="197.78" transform="matrix(-0.4516 0.8922 -0.8922 -0.4516 377.4691 165.8363)" class="st8" width="3.38" height="2.27"/>
			
				<rect x="182.3" y="225.9" transform="matrix(-0.4516 0.8922 -0.8922 -0.4516 476.4122 162.5718)" class="st7" width="11.9" height="3.58"/>
			<polygon class="st7" points="138.52,254.09 136.26,252.94 140.24,245.08 137.57,243.73 150.13,218.91 152.8,220.26 
				157.05,211.86 159.32,213.01 162.24,207.24 156.62,204.39 154.12,209.35 152.4,208.48 150.55,212.13 148.95,211.32 
				147.09,215.01 145.25,214.08 142.51,219.49 141.5,218.98 132.96,235.86 133.97,236.38 131.08,242.07 132.92,243 131.05,246.69 
				132.65,247.49 130.5,251.73 133.06,253.88 129.98,257.02 135.6,259.86 			"/>
			
				<rect x="161.52" y="268.39" transform="matrix(-0.4516 0.8922 -0.8922 -0.4516 483.8078 242.4481)" class="st7" width="11.76" height="3.02"/>
			
				<rect x="151.05" y="261.37" transform="matrix(0.4516 -0.8922 0.8922 0.4516 -150.4412 280.0624)" class="st0" width="3.13" height="2.1"/>
		</g>
		<g>
			
				<rect x="248.93" y="90" transform="matrix(0.9866 -0.163 0.163 0.9866 -11.5213 42.2076)" class="st8" width="4.96" height="2.6"/>
			
				<rect x="226.3" y="34.33" transform="matrix(0.9866 -0.163 0.163 0.9866 -5.0316 42.3941)" class="st1" width="58.98" height="35.05"/>
			
				<rect x="230.11" y="70.07" transform="matrix(-0.9866 0.163 -0.163 -0.9866 528.0106 107.4318)" class="st9" width="58.98" height="10.63"/>
			<polygon class="st9" points="268.09,62.91 267.86,61.5 249.5,64.54 248.24,64.75 240.64,66 240.93,67.78 238.8,68.13 
				239.04,69.58 229.02,71.23 229.68,75.23 244.67,72.75 244.97,74.54 268.13,70.71 267.83,68.92 277.85,67.27 287.87,65.61 
				286.91,59.8 			"/>
			<polygon class="st8" points="283.05,85.69 282.6,83 290.53,81.69 289.02,72.52 270.91,75.52 270.45,72.71 262.66,73.99 
				262.53,73.19 252.21,74.9 252.81,78.51 247.59,79.37 248.03,82.06 242.22,83.02 241.61,79.36 235.82,80.32 235.32,77.27 
				230.16,78.13 231.27,84.83 232.78,94 			"/>
			
				<rect x="257.58" y="171.11" transform="matrix(0.9866 -0.163 0.163 0.9866 -24.6848 44.3003)" class="st5" width="0" height="2.89"/>
			<polygon class="st8" points="259.41,166.92 262.98,166.33 262.72,164.74 266.36,164.13 265.83,160.91 280.02,158.56 
				280.05,158.56 280.58,161.78 284.2,161.19 284.46,162.78 288.02,162.2 288.03,162.19 288.42,164.52 303.33,162.05 302.42,156.55 
				283.94,159.63 283.41,156.4 281.78,156.66 279.76,157 278.58,157.19 278.17,154.73 276.54,155 266.37,156.68 266.78,159.14 
				265.57,159.34 263.15,159.74 261.92,159.95 262.46,163.18 244.23,166.17 245.15,171.72 259.8,169.3 			"/>
			<polygon class="st9" points="281.93,131.61 298.33,128.89 297.77,125.52 292.86,126.33 292.45,123.82 281.66,125.61 
				281.17,122.61 275.89,123.48 275.56,121.5 258.81,124.26 259.14,126.25 253.74,127.14 254.23,130.14 244.07,131.82 
				244.49,134.33 239.58,135.14 240.14,138.51 			"/>
			<polygon class="st9" points="259.46,173.48 259.07,171.15 262.52,170.58 262.12,168.17 262,167.4 283.78,163.8 284.3,166.98 
				287.63,166.43 288.01,168.76 304,166.12 303.21,161.33 288.3,163.79 288.28,163.79 287.9,161.47 284.34,162.06 284.08,160.46 
				280.46,161.06 280.44,161.06 279.9,157.83 265.71,160.18 266.24,163.41 262.6,164.01 262.86,165.61 259.29,166.2 259.68,168.57 
				245.03,170.99 245.81,175.74 			"/>
			<path class="st10" d="M256.73,157.37l0.81-0.81l3.81-5.19l1.52-2.07l-0.75-2.1l16.74-2.77l0.37,2.25l3.48-0.57l0.4,2.41l3.7-0.61
				l0.53,3.21l12.36-2.28l-0.48-11.67l-0.63-3.84l-0.79-4.76l-9.51,1.57l-0.28-1.67l-7.99,1.32l-0.28-1.68l-3.48,0.57l-0.48-2.93
				l-16.74,2.77l0.48,2.93l-3.48,0.57l0.28,1.68l-7.42,1.23l0.28,1.67l-9.57,1.58l0.79,4.76l0.63,3.84l1.93,11.67L256.73,157.37z"/>
			<polygon class="st7" points="250.54,101.06 249.97,97.57 253.56,96.98 253.68,97.72 282.62,92.93 282,89.22 291.52,87.65 
				290.37,80.74 278.11,82.77 277.48,78.98 256.83,82.39 257.46,86.18 251.92,87.1 252.44,90.2 232.69,93.46 233.4,97.77 
				233.81,100.24 234.39,103.73 			"/>
			<polygon class="st8" points="235.81,112.31 263.93,107.67 263.44,104.7 283.54,101.38 283.17,99.16 288.76,98.24 288.3,95.49 
				292.69,94.76 291.33,86.53 268.43,90.31 268.82,92.67 262.62,93.69 262.91,95.44 249.97,97.57 250.53,101.01 241.94,102.43 
				241.22,98.08 233.66,99.33 234.38,103.68 234.38,103.68 			"/>
			
				<rect x="236.54" y="86.98" transform="matrix(0.9866 -0.163 0.163 0.9866 -11.1949 40.1481)" class="st8" width="4.96" height="2.6"/>
			
				<rect x="281.02" y="74.83" transform="matrix(0.9866 -0.163 0.163 0.9866 -8.619 47.2365)" class="st8" width="4.96" height="2.6"/>
			<polygon class="st2" points="276.43,-4.14 218.23,5.47 224.14,41.21 224.27,41.19 224.3,41.31 239.95,38.73 239.93,38.6 
				282.33,31.59 			"/>
			<polygon class="st9" points="294.93,108.3 293.71,100.9 293.6,100.24 293.25,98.16 293.1,97.24 292.65,94.5 276.23,97.21 
				276.68,99.95 261.33,102.49 261.82,105.49 244.38,108.37 243.99,106.04 235.02,107.53 235.4,109.85 235.51,110.52 236.74,117.92 
							"/>
			<polygon class="st8" points="296.79,119.57 294.85,107.86 294.54,105.92 294.4,105.08 293.93,102.28 283.6,103.98 284.06,106.79 
				277.98,107.79 278.44,110.57 253.08,114.76 252.62,111.98 246.54,112.99 246.07,110.18 235.74,111.89 236.2,114.7 236.34,115.54 
				236.66,117.47 238.6,129.18 			"/>
			<g>
				
					<rect x="246.31" y="38.62" transform="matrix(0.8731 -0.4876 0.4876 0.8731 12.67 128.177)" class="st3" width="12.44" height="2.26"/>
				
					<rect x="243.33" y="44.9" transform="matrix(0.8731 -0.4876 0.4876 0.8731 8.7742 125.7533)" class="st3" width="5.21" height="2.26"/>
				
					<rect x="258.73" y="36.29" transform="matrix(0.8731 -0.4876 0.4876 0.8731 14.9246 132.173)" class="st3" width="5.21" height="2.26"/>
				
					<rect x="264.54" y="36.36" transform="matrix(0.8731 -0.4876 0.4876 0.8731 15.4648 134.3795)" class="st3" width="2.6" height="2.26"/>
				
					<rect x="242.32" y="48.77" transform="matrix(0.8731 -0.4876 0.4876 0.8731 6.593 125.1193)" class="st3" width="2.6" height="2.26"/>
			</g>
			
				<rect x="237.83" y="31.2" transform="matrix(-0.9866 0.163 -0.163 -0.9866 509.2485 25.719)" class="st1" width="31.47" height="5.11"/>
			
				<rect x="243.58" y="29.07" transform="matrix(-0.9866 0.163 -0.163 -0.9866 507.9601 20.7907)" class="st1" width="19.09" height="4.34"/>
			
				<rect x="278.44" y="27.54" transform="matrix(-0.9866 0.163 -0.163 -0.9866 561.5345 13.3437)" class="st2" width="3.55" height="4.34"/>
			<polygon class="st4" points="236.61,72.2 241.58,71.37 241.11,68.52 246.64,67.61 246.67,66.49 265.58,62.51 265.89,64.43 
				272.11,63.4 272.58,66.25 279.62,65.09 279.93,66.98 287.87,65.67 286.94,60.05 283.97,60.55 283.5,57.69 276.31,58.88 
				275.84,56.03 265.06,57.81 264.57,54.84 247.79,57.61 248.28,60.58 243.91,62.59 237.82,65.24 230.71,66.42 231.18,69.27 
				228.75,69.67 229.68,75.29 236.93,74.12 			"/>
			
				<rect x="240.5" y="115.79" transform="matrix(-0.9866 0.163 -0.163 -0.9866 500.3995 192.9103)" class="st8" width="3.57" height="2.39"/>
			
				<rect x="288.33" y="99.73" transform="matrix(-0.9866 0.163 -0.163 -0.9866 592.6111 153.0965)" class="st8" width="3.38" height="2.27"/>
			<polygon class="st7" points="290.49,157.79 302.42,156.55 302.81,159.38 291.07,161.32 			"/>
			<polygon class="st7" points="245.96,134.08 245.55,131.57 254.25,130.14 253.76,127.19 281.2,122.65 281.69,125.6 290.98,124.07 
				291.39,126.58 297.77,125.52 296.75,119.31 291.27,120.21 290.96,118.31 286.92,118.98 286.63,117.21 282.55,117.89 
				282.22,115.86 276.23,116.85 276.04,115.73 257.37,118.82 257.56,119.93 251.26,120.97 251.6,123 247.52,123.68 247.81,125.44 
				243.13,126.22 243.44,128.12 238.55,128.92 239.58,135.14 			"/>
			
				<rect x="244.3" y="165.02" transform="matrix(-0.9866 0.163 -0.163 -0.9866 524.1639 290.0481)" class="st7" width="11.76" height="3.02"/>
			
				<rect x="281.04" y="129.96" transform="matrix(0.9866 -0.163 0.163 0.9866 -17.6082 47.8267)" class="st0" width="3.13" height="2.48"/>
			
				<rect x="258.33" y="135.91" transform="matrix(0.9866 -0.163 0.163 0.9866 -18.8516 44.202)" class="st0" width="3.13" height="2.1"/>
			
				<rect x="246.01" y="149.32" transform="matrix(0.9866 -0.163 0.163 0.9866 -21.2023 42.3732)" class="st0" width="3.13" height="2.1"/>
			
				<rect x="238.36" y="36.75" transform="matrix(0.9866 -0.163 0.163 0.9866 -2.8117 40.7274)" class="st1" width="16.77" height="1.49"/>
			
				<rect x="253.4" y="34.62" transform="matrix(0.9866 -0.163 0.163 0.9866 -2.3512 42.0897)" class="st1" width="3.74" height="1.49"/>
			
				<rect x="256.3" y="33.85" transform="matrix(0.9866 -0.163 0.163 0.9866 -2.1858 42.551)" class="st1" width="3.74" height="1.49"/>
			
				<rect x="257.3" y="33.98" transform="matrix(0.9866 -0.163 0.163 0.9866 -2.194 42.7165)" class="st1" width="3.74" height="1.49"/>
			
				<rect x="257.03" y="33.98" transform="matrix(0.9866 -0.163 0.163 0.9866 -2.1977 42.6718)" class="st1" width="3.74" height="1.49"/>
			
				<rect x="259.62" y="33.73" transform="matrix(0.9866 -0.163 0.163 0.9866 -2.1223 43.0919)" class="st1" width="3.74" height="1.49"/>
			
				<rect x="262.99" y="33.45" transform="matrix(0.9866 -0.163 0.163 0.9866 -2.0314 43.6376)" class="st1" width="3.74" height="1.49"/>
			
				<rect x="265.77" y="33.12" transform="matrix(0.9866 -0.163 0.163 0.9866 -1.9407 44.0855)" class="st1" width="3.74" height="1.49"/>
		</g>
		<g>
			
				<rect x="249.68" y="161.18" transform="matrix(0.8774 -0.4797 0.4797 0.8774 -47.1121 140.6085)" class="st0" width="3.82" height="2.63"/>
			
				<rect x="220.2" y="105.09" transform="matrix(0.8774 -0.4797 0.4797 0.8774 -23.7423 119.8633)" class="st8" width="4.96" height="2.6"/>
			
				<rect x="184.29" y="50.18" transform="matrix(0.8774 -0.4797 0.4797 0.8774 -6.2761 110.856)" class="st1" width="58.98" height="35.05"/>
			
				<rect x="195.66" y="83.34" transform="matrix(-0.8774 0.4797 -0.4797 -0.8774 465.2338 58.439)" class="st9" width="58.98" height="10.63"/>
			<polygon class="st9" points="229.05,74.08 228.36,72.83 212.04,81.76 210.92,82.37 204.16,86.07 205.02,87.64 203.13,88.68 
				203.83,89.97 194.92,94.84 196.86,98.39 210.19,91.1 211.06,92.69 231.66,81.43 230.79,79.84 239.7,74.97 248.61,70.1 
				245.79,64.93 			"/>
			<polygon class="st8" points="250.69,90.64 249.38,88.25 256.43,84.39 251.98,76.25 235.88,85.05 234.51,82.55 227.59,86.33 
				227.2,85.62 218.02,90.64 219.77,93.85 215.13,96.39 216.44,98.78 211.27,101.61 209.49,98.36 204.34,101.17 202.86,98.46 
				198.27,100.97 201.53,106.93 205.99,115.08 			"/>
			
				<rect x="255.33" y="179.6" transform="matrix(0.8774 -0.4797 0.4797 0.8774 -55.5524 144.6799)" class="st5" width="0" height="2.89"/>
			<polygon class="st8" points="255.21,175.13 258.38,173.39 257.6,171.97 260.85,170.2 259.28,167.33 271.9,160.42 271.92,160.41 
				273.49,163.28 276.71,161.52 277.49,162.94 280.65,161.22 280.66,161.21 281.79,163.28 295.05,156.02 292.38,151.13 
				275.95,160.14 274.38,157.26 272.93,158.05 271.14,159.03 270.09,159.61 268.89,157.42 267.44,158.22 258.4,163.16 
				259.59,165.35 258.52,165.94 256.36,167.11 255.27,167.71 256.85,170.59 240.63,179.43 243.33,184.36 256.36,177.24 			"/>
			<polygon class="st8" points="264.79,134.35 279.38,126.38 277.74,123.38 273.38,125.76 272.16,123.53 262.57,128.78 
				261.11,126.11 256.41,128.68 255.45,126.91 240.55,135.06 241.52,136.82 236.71,139.45 238.17,142.12 229.14,147.05 
				230.36,149.28 225.99,151.67 227.63,154.67 			"/>
			<path class="st10" d="M248.7,166.1l-1.56-2.86l3.29-1.8l-1.17-2.14l3.09-1.69l-1.1-2.01l14.89-8.14l1.1,2.01l3.09-1.69l1.17,2.14
				l3.29-1.8l1.56,2.86l10.91-6.23l-4.31-10.85l-1.87-3.41l-2.31-4.23l-8.46,4.62l-0.81-1.49l-7.1,3.88l-0.82-1.5l-3.09,1.69
				l-1.42-2.6L242.17,139l1.42,2.6l-3.09,1.69l0.82,1.5l-6.6,3.61l0.81,1.49l-8.51,4.65l2.31,4.23l1.87,3.41l5.67,10.38L248.7,166.1
				z"/>
			<polygon class="st7" points="225.08,115.88 223.39,112.79 226.58,111.04 226.94,111.69 252.68,97.62 250.87,94.32 259.33,89.69 
				255.97,83.56 245.07,89.52 243.22,86.15 224.86,96.19 226.7,99.56 221.78,102.25 223.28,105.01 205.73,114.61 207.82,118.44 
				209.03,120.64 210.72,123.74 			"/>
			<polygon class="st8" points="214.89,131.38 239.9,117.7 238.46,115.07 256.34,105.29 255.26,103.32 260.22,100.6 258.89,98.15 
				262.79,96.02 258.78,88.7 238.42,99.83 239.57,101.93 234.05,104.94 234.9,106.49 223.39,112.79 225.06,115.84 217.42,120.02 
				215.3,116.15 208.58,119.83 210.7,123.7 210.7,123.7 			"/>
			
				<rect x="207.51" y="106.33" transform="matrix(0.8774 -0.4797 0.4797 0.8774 -25.8928 113.9293)" class="st8" width="4.96" height="2.6"/>
			
				<rect x="245.48" y="80.17" transform="matrix(0.8774 -0.4797 0.4797 0.8774 -8.6904 128.9371)" class="st8" width="4.96" height="2.6"/>
			<polygon class="st2" points="214.77,8.04 163.02,36.33 180.39,68.11 180.52,68.05 180.58,68.16 194.5,60.55 194.44,60.43 
				232.15,39.82 			"/>
			<polygon class="st9" points="269.37,108.07 265.77,101.48 265.45,100.89 264.44,99.05 263.99,98.22 262.66,95.79 248.06,103.77 
				249.39,106.21 235.74,113.67 237.19,116.34 221.68,124.82 220.55,122.75 212.57,127.12 213.7,129.18 214.02,129.78 
				217.62,136.36 			"/>
			<polygon class="st8" points="274.85,118.08 269.16,107.67 268.22,105.95 267.81,105.2 266.44,102.7 257.25,107.73 258.61,110.22 
				253.21,113.18 254.56,115.65 232,127.98 230.65,125.51 225.24,128.47 223.88,125.97 214.69,131 216.05,133.49 216.46,134.24 
				217.4,135.96 223.1,146.38 			"/>
			<g>
				
					<rect x="202.2" y="57.01" transform="matrix(0.8774 -0.4797 0.4797 0.8774 -2.2181 107.5874)" class="st3" width="14.45" height="2.26"/>
				
					<rect x="198.49" y="63.9" transform="matrix(0.8774 -0.4797 0.4797 0.8774 -6.4945 104.639)" class="st3" width="6.04" height="2.26"/>
				
					<rect x="216.47" y="54.07" transform="matrix(0.8774 -0.4797 0.4797 0.8774 0.4248 112.059)" class="st3" width="6.04" height="2.26"/>
				
					<rect x="223.04" y="53.87" transform="matrix(0.8774 -0.4797 0.4797 0.8774 1.1389 114.4623)" class="st3" width="3.02" height="2.26"/>
				
					<rect x="197.1" y="68.05" transform="matrix(0.8774 -0.4797 0.4797 0.8774 -8.8421 103.7591)" class="st3" width="3.02" height="2.26"/>
			</g>
			
				<rect x="176.57" y="52.16" transform="matrix(-0.8774 0.4797 -0.4797 -0.8774 412.5755 1.7519)" class="st1" width="58.98" height="2.86"/>
			
				<rect x="189.79" y="48.85" transform="matrix(-0.8774 0.4797 -0.4797 -0.8774 410.341 -2.8082)" class="st1" width="31.47" height="4.34"/>
			
				<rect x="194.92" y="46.96" transform="matrix(-0.8774 0.4797 -0.4797 -0.8774 407.4348 -5.8515)" class="st1" width="19.09" height="4.34"/>
			
				<rect x="227.76" y="36.57" transform="matrix(-0.8774 0.4797 -0.4797 -0.8774 449.5168 -37.3787)" class="st2" width="3.55" height="4.34"/>
			
				<rect x="220.76" y="132.45" transform="matrix(-0.8774 0.4797 -0.4797 -0.8774 481.9333 144.151)" class="st8" width="3.57" height="2.39"/>
			<polygon class="st7" points="281.52,156.24 292.38,151.13 293.68,153.67 283.24,159.38 			"/>
			<polygon class="st7" points="231.67,148.57 230.45,146.34 238.18,142.11 236.75,139.49 261.16,126.14 262.59,128.76 
				270.85,124.25 272.07,126.48 277.74,123.38 274.72,117.85 269.85,120.51 268.93,118.82 265.34,120.79 264.48,119.22 
				262.99,121.2 260.87,118.39 254.54,122.31 254,121.31 237.4,130.39 237.94,131.38 232.34,134.45 233.33,136.25 229.7,138.23 
				230.56,139.8 226.39,142.08 227.31,143.77 222.97,146.15 225.99,151.67 			"/>
			
				<rect x="240.49" y="176.29" transform="matrix(-0.8774 0.4797 -0.4797 -0.8774 547.8279 215.6263)" class="st7" width="11.76" height="3.02"/>
			
				<rect x="263.73" y="132.51" transform="matrix(0.8774 -0.4797 0.4797 0.8774 -31.6413 143.6618)" class="st0" width="3.13" height="2.48"/>
			
				<rect x="244.2" y="145.64" transform="matrix(0.8774 -0.4797 0.4797 0.8774 -40.2423 135.879)" class="st0" width="3.13" height="2.1"/>
			
				<rect x="237" y="162.36" transform="matrix(0.8774 -0.4797 0.4797 0.8774 -49.1475 134.4758)" class="st0" width="3.13" height="2.1"/>
		</g>
		<g>
			<g>
				
					<rect x="185.3" y="226.63" transform="matrix(0.7071 -0.7071 0.7071 0.7071 -106.3513 199.1439)" class="st0" width="3.82" height="2.63"/>
				
					<rect x="141.21" y="180.94" transform="matrix(0.7071 -0.7071 0.7071 0.7071 -86.7771 154.9829)" class="st8" width="4.96" height="2.6"/>
				
					<rect x="94.79" y="130.09" transform="matrix(0.7071 -0.7071 0.7071 0.7071 -67.9827 131.1169)" class="st1" width="58.98" height="35.05"/>
				<polygon class="st9" points="158.17,139.92 158.17,139.92 155.06,136.8 152.53,139.32 151.59,138.57 140.72,149.45 
					139.71,148.44 126.55,161.6 125.65,162.5 120.21,167.94 121.48,169.22 119.95,170.74 120.99,171.78 113.81,178.96 
					123.98,189.14 165.69,147.43 				"/>
				
					<rect x="196.02" y="243.25" transform="matrix(0.7071 -0.7071 0.7071 0.7071 -115.6137 210.2812)" class="st5" width="0" height="2.89"/>
				<polygon class="st8" points="194.24,239.05 196.8,236.5 195.65,235.35 198.26,232.74 195.95,230.43 206.12,220.25 
					206.14,220.23 208.46,222.55 211.05,219.95 212.19,221.1 214.74,218.55 214.75,218.54 216.42,220.21 227.11,209.52 
					223.16,205.57 209.93,218.84 207.62,216.52 206.45,217.69 205,219.13 204.15,219.98 202.39,218.22 201.22,219.39 193.93,226.67 
					195.7,228.44 194.83,229.31 193.09,231.04 192.22,231.92 194.54,234.24 181.46,247.28 185.44,251.26 195.94,240.75 				"/>
				<polygon class="st8" points="191.97,197.23 203.73,185.47 201.31,183.06 197.8,186.57 196,184.78 188.27,192.51 186.12,190.36 
					182.33,194.14 180.91,192.72 168.91,204.72 170.33,206.15 166.46,210.02 168.61,212.17 161.33,219.45 163.12,221.24 
					159.61,224.76 162.02,227.18 				"/>
				
					<rect x="129.39" y="185.7" transform="matrix(0.7071 -0.7071 0.7071 0.7071 -93.6058 148.0145)" class="st8" width="4.96" height="2.6"/>
				
					<rect x="158.47" y="149.92" transform="matrix(0.7071 -0.7071 0.7071 0.7071 -59.7885 158.0977)" class="st8" width="4.96" height="2.6"/>
				<polygon class="st2" points="108.45,90.08 66.74,131.79 92.35,157.4 92.45,157.3 92.54,157.39 103.76,146.17 103.67,146.08 
					134.06,115.69 				"/>
				<g>
					
						<rect x="110.17" y="138.53" transform="matrix(0.7071 -0.7071 0.7071 0.7071 -64.37 123.918)" class="st3" width="14.45" height="2.26"/>
					
						<rect x="108.73" y="147.37" transform="matrix(0.7071 -0.7071 0.7071 0.7071 -72.2752 122.5121)" class="st3" width="6.04" height="2.26"/>
					
						<rect x="123.21" y="132.88" transform="matrix(0.7071 -0.7071 0.7071 0.7071 -57.786 128.5137)" class="st3" width="6.04" height="2.26"/>
					
						<rect x="129.53" y="131.27" transform="matrix(0.7071 -0.7071 0.7071 0.7071 -55.241 131.4364)" class="st3" width="3.02" height="2.26"/>
					
						<rect x="108.63" y="152.17" transform="matrix(0.7071 -0.7071 0.7071 0.7071 -76.1414 122.7792)" class="st3" width="3.02" height="2.26"/>
				</g>
				
					<rect x="83.41" y="134.81" transform="matrix(-0.7071 0.7071 -0.7071 -0.7071 289.0673 152.7436)" class="st1" width="58.98" height="2.86"/>
				
					<rect x="95.93" y="131.76" transform="matrix(-0.7071 0.7071 -0.7071 -0.7071 285.3251 149.6703)" class="st1" width="31.47" height="4.34"/>
				
					<rect x="100.56" y="130.24" transform="matrix(-0.7071 0.7071 -0.7071 -0.7071 281.6001 148.1789)" class="st1" width="19.09" height="4.34"/>
				
					<rect x="129.47" y="113.22" transform="matrix(-0.7071 0.7071 -0.7071 -0.7071 305.6481 104.182)" class="st2" width="3.55" height="4.34"/>
				
					<rect x="149.45" y="207.24" transform="matrix(-0.7071 0.7071 -0.7071 -0.7071 405.5585 248.8782)" class="st8" width="3.57" height="2.39"/>
				
					<rect x="178.96" y="166.39" transform="matrix(-0.7071 0.7071 -0.7071 -0.7071 426.8525 158.2399)" class="st8" width="3.38" height="2.27"/>
				
					<rect x="190.72" y="195.27" transform="matrix(0.7071 -0.7071 0.7071 0.7071 -82.6327 193.5216)" class="st0" width="3.13" height="2.48"/>
				
					<rect x="175.62" y="213.37" transform="matrix(0.7071 -0.7071 0.7071 0.7071 -99.7198 188.0877)" class="st0" width="3.13" height="2.1"/>
			</g>
			<g>
				
					<rect x="227" y="184.94" transform="matrix(0.7071 -0.7071 0.7071 0.7071 -64.6576 216.4171)" class="st0" width="3.82" height="2.63"/>
				
					<rect x="182.91" y="139.25" transform="matrix(0.7071 -0.7071 0.7071 0.7071 -45.0834 172.2561)" class="st8" width="4.96" height="2.6"/>
				
					<rect x="136.49" y="88.4" transform="matrix(0.7071 -0.7071 0.7071 0.7071 -26.289 148.3901)" class="st1" width="58.98" height="35.05"/>
				
					<rect x="153.29" y="117.52" transform="matrix(-0.7071 0.7071 -0.7071 -0.7071 398.8763 80.4513)" class="st9" width="58.98" height="10.63"/>
				<polygon class="st9" points="182.42,107.75 181.41,106.75 168.25,119.9 167.35,120.81 161.9,126.25 163.17,127.52 
					161.65,129.05 162.69,130.09 155.51,137.27 158.37,140.13 169.11,129.39 170.39,130.67 186.99,114.07 185.71,112.79 
					192.89,105.61 200.07,98.43 195.91,94.26 				"/>
				<polygon class="st7" points="266.18,165.19 260.65,170.72 259.96,170.04 232.05,197.95 231.29,197.19 222.98,205.5 
					222.6,205.11 214.18,213.53 215.32,214.67 190.4,239.6 191.92,241.11 183.61,249.43 182.77,248.59 182.09,247.91 180.63,246.45 
					177.41,243.23 188.21,232.43 184.91,229.14 188.79,225.27 187.41,223.89 199.41,211.89 200.79,213.26 204.57,209.48 
					207.87,212.77 219.12,201.53 229.91,190.74 226.61,187.45 230.49,183.57 229.11,182.19 241.11,170.19 242.49,171.57 
					246.27,167.79 249.57,171.08 260.82,159.83 264.03,163.05 265.49,164.51 				"/>
				<polygon class="st8" points="211.6,109.95 205.03,103.38 192.05,116.36 190.04,114.34 184.46,119.92 183.89,119.35 
					176.49,126.74 179.08,129.33 175.34,133.07 177.27,135 173.1,139.17 170.47,136.55 166.33,140.7 164.14,138.51 160.44,142.21 
					163.32,145.08 150.36,158.05 148.34,156.03 142.76,161.61 142.19,161.04 134.79,168.44 137.38,171.02 133.64,174.76 
					135.57,176.69 131.4,180.86 128.78,178.24 124.63,182.39 122.44,180.2 118.75,183.9 123.55,188.71 130.12,195.28 166.15,159.25 
					164.22,157.32 169.89,151.65 171.82,153.58 207.84,117.56 205.91,115.63 				"/>
				
					<rect x="237.72" y="201.56" transform="matrix(0.7071 -0.7071 0.7071 0.7071 -73.92 227.5544)" class="st5" width="0" height="2.89"/>
				<polygon class="st8" points="233.67,155.54 245.43,143.78 243.01,141.36 239.49,144.88 237.7,143.08 229.96,150.82 
					227.82,148.67 224.03,152.45 222.61,151.03 210.61,163.03 212.03,164.45 208.16,168.33 210.3,170.48 203.02,177.75 
					204.82,179.55 201.3,183.07 203.72,185.49 				"/>
				<polygon class="st10" points="250.97,149.99 248.22,147.24 244.81,143.83 237.99,150.65 236.79,149.45 231.07,155.17 
					229.86,153.96 227.37,156.46 225.27,154.36 213.27,166.36 215.37,168.46 212.87,170.95 214.08,172.16 208.76,177.48 
					209.96,178.68 203.11,185.52 203.11,185.52 196.29,192.34 195.09,191.14 189.37,196.86 188.16,195.66 185.67,198.15 
					183.57,196.05 171.57,208.05 173.67,210.15 171.18,212.64 172.38,213.85 167.06,219.17 168.26,220.37 161.4,227.23 
					164.82,230.64 167.57,233.39 175.93,241.75 185.46,232.22 183.16,229.92 185.8,227.27 184.08,225.55 186.57,223.05 
					184.95,221.44 196.96,209.44 198.57,211.05 201.06,208.56 202.79,210.29 205.44,207.64 207.74,209.94 217.62,200.06 
					217.62,200.06 227.15,190.53 224.85,188.23 227.5,185.58 225.77,183.85 228.27,181.36 226.65,179.74 238.65,167.74 
					240.27,169.36 242.76,166.87 244.49,168.59 247.14,165.94 249.44,168.25 258.15,159.2 				"/>
				<polygon class="st7" points="215.87,114.22 210.92,109.27 202.13,118.06 199.41,115.35 184.61,130.15 187.33,132.86 
					183.36,136.83 185.58,139.05 171.45,153.19 169.22,150.96 160.43,159.75 157.72,157.04 142.91,171.84 145.63,174.56 
					141.66,178.52 143.89,180.74 129.74,194.89 132.82,197.98 134.6,199.75 137.09,202.25 148.67,190.67 146.17,188.18 
					148.75,185.61 149.27,186.13 170.01,165.39 167.35,162.73 174.16,155.92 174.52,156.29 176.3,158.06 178.79,160.56 
					190.37,148.98 187.87,146.49 190.44,143.91 190.97,144.44 211.71,123.7 209.05,121.04 				"/>
				<polygon class="st8" points="217.82,122.46 220.96,119.32 215.06,113.42 198.65,129.83 200.34,131.51 195.9,135.96 
					197.15,137.21 187.87,146.49 190.34,148.95 184.17,155.11 181.05,151.99 175.65,157.39 173.36,155.11 156.95,171.52 
					158.64,173.21 154.2,177.65 155.45,178.9 146.17,188.18 148.64,190.64 142.48,196.8 139.36,193.68 133.94,199.1 137.06,202.22 
					137.06,202.22 143.25,208.41 163.4,188.25 161.28,186.13 175.68,171.72 174.1,170.13 178.1,166.13 176.12,164.15 179.26,161.02 
					184.95,166.71 205.1,146.56 202.97,144.44 217.38,130.03 215.79,128.44 219.79,124.44 				"/>
				
					<rect x="171.08" y="144.01" transform="matrix(0.7071 -0.7071 0.7071 0.7071 -51.9121 165.2877)" class="st8" width="4.96" height="2.6"/>
				
					<rect x="200.16" y="108.23" transform="matrix(0.7071 -0.7071 0.7071 0.7071 -18.0948 175.3709)" class="st8" width="4.96" height="2.6"/>
				<polygon class="st2" points="150.15,48.39 108.44,90.1 134.05,115.71 134.15,115.61 134.24,115.7 145.46,104.48 145.37,104.39 
					175.76,74 				"/>
				<polygon class="st9" points="230.67,129.02 225.37,123.72 224.89,123.24 223.4,121.76 222.74,121.09 220.78,119.13 
					209.01,130.9 210.97,132.86 199.97,143.86 202.12,146.01 189.61,158.52 187.95,156.85 181.53,163.27 181.04,162.79 
					179.08,160.82 167.31,172.59 169.28,174.55 158.27,185.56 160.42,187.7 147.92,200.21 146.25,198.54 139.82,204.97 
					141.48,206.64 141.96,207.12 147.27,212.42 188.96,170.73 188.96,170.73 				"/>
				<polygon class="st8" points="238.74,137.1 230.35,128.7 228.97,127.32 228.36,126.71 226.35,124.7 218.94,132.11 220.95,134.12 
					216.59,138.48 218.59,140.47 200.41,158.65 198.42,156.65 194.06,161.01 192.05,159 184.66,166.4 184.65,166.4 177.25,173.8 
					179.26,175.81 174.9,180.17 176.89,182.16 158.71,200.34 156.72,198.35 152.36,202.71 150.35,200.7 142.95,208.1 144.96,210.11 
					145.56,210.72 146.95,212.1 155.34,220.5 197.03,178.8 197.04,178.8 				"/>
				<g>
					
						<rect x="151.87" y="96.84" transform="matrix(0.7071 -0.7071 0.7071 0.7071 -22.6763 141.1912)" class="st3" width="14.45" height="2.26"/>
					
						<rect x="150.42" y="105.68" transform="matrix(0.7071 -0.7071 0.7071 0.7071 -30.5815 139.7853)" class="st3" width="6.04" height="2.26"/>
					
						<rect x="164.91" y="91.19" transform="matrix(0.7071 -0.7071 0.7071 0.7071 -16.0923 145.7869)" class="st3" width="6.04" height="2.26"/>
					
						<rect x="171.22" y="89.58" transform="matrix(0.7071 -0.7071 0.7071 0.7071 -13.5473 148.7096)" class="st3" width="3.02" height="2.26"/>
					
						<rect x="150.32" y="110.48" transform="matrix(0.7071 -0.7071 0.7071 0.7071 -34.4477 140.0524)" class="st3" width="3.02" height="2.26"/>
				</g>
				
					<rect x="125.11" y="93.12" transform="matrix(-0.7071 0.7071 -0.7071 -0.7071 330.7685 52.0861)" class="st1" width="58.98" height="2.86"/>
				
					<rect x="137.63" y="90.06" transform="matrix(-0.7071 0.7071 -0.7071 -0.7071 327.0264 49.0128)" class="st1" width="31.47" height="4.34"/>
				
					<rect x="142.26" y="88.55" transform="matrix(-0.7071 0.7071 -0.7071 -0.7071 323.3013 47.5214)" class="st1" width="19.09" height="4.34"/>
				
					<rect x="171.17" y="71.53" transform="matrix(-0.7071 0.7071 -0.7071 -0.7071 347.3493 3.5245)" class="st2" width="3.55" height="4.34"/>
				<polygon class="st4" points="245.93,64.73 243.15,66.37 241.87,64.07 235.48,67.56 234.09,65.03 224.51,70.27 223.06,67.62 
					208.14,75.78 209.59,78.43 199.86,83.74 201.25,86.28 194.92,89.74 196.31,92.27 194.15,93.45 195.04,95.09 193.86,96.27 
					191.91,94.54 186.76,99.69 184.71,97.64 176.99,105.37 174.85,103.24 162.83,115.26 164.96,117.39 157.12,125.23 159.17,127.27 
					154.07,132.37 156.12,134.42 154.37,136.16 154.38,136.16 152.37,138.17 150.32,136.13 145.17,141.28 143.13,139.23 
					135.4,146.96 133.27,144.83 121.25,156.85 123.38,158.98 115.54,166.82 117.58,168.86 112.49,173.96 114.53,176.01 
					112.72,177.87 116.76,181.92 122.03,176.6 120.65,175.22 124.21,171.66 122.17,169.62 126.13,165.65 124.76,164.27 
					138.55,150.48 139.93,151.85 144.39,147.4 146.43,149.44 151.47,144.4 152.83,145.75 158.41,140.17 163.61,135.01 
					162.23,133.63 165.8,130.07 163.75,128.03 167.72,124.06 166.34,122.68 180.14,108.89 181.51,110.26 185.97,105.81 
					188.02,107.85 193.06,102.81 194.41,104.16 200.19,98.39 199.07,97.26 203.34,94.95 202.4,93.24 206.82,90.83 205.43,88.29 
					210.36,85.6 209.42,83.89 226.54,74.53 227.48,76.24 233.01,73.22 234.39,75.75 240.65,72.33 241.57,74.01 248.63,70.15 				"/>
				
					<rect x="191.15" y="165.54" transform="matrix(-0.7071 0.7071 -0.7071 -0.7071 447.2597 148.2207)" class="st8" width="3.57" height="2.39"/>
				
					<rect x="221.68" y="125.71" transform="matrix(-0.7071 0.7071 -0.7071 -0.7071 471.0039 58.5973)" class="st8" width="3.38" height="2.27"/>
				<polygon class="st7" points="238.56,136.91 234.63,140.83 233.27,139.47 230.38,142.37 229.11,141.1 226.19,144.02 
					224.74,142.57 220.44,146.86 219.64,146.06 206.27,159.44 207.07,160.24 202.55,164.75 204.01,166.21 201.08,169.13 
					202.35,170.4 198.99,173.75 200.35,175.11 196.86,178.6 196.86,178.6 192.94,182.52 191.58,181.16 188.68,184.06 187.42,182.79 
					184.49,185.71 183.04,184.26 178.75,188.55 177.95,187.75 164.57,201.13 165.37,201.93 160.85,206.45 162.31,207.9 
					159.39,210.82 160.65,212.09 157.29,215.45 158.65,216.81 155.15,220.31 159.61,224.76 164.18,220.19 162.38,218.39 
					168.62,212.16 166.5,210.04 186.17,190.37 188.29,192.49 194.94,185.83 196.74,187.63 201.3,183.07 201.3,183.07 205.88,178.5 
					204.08,176.7 210.31,170.46 208.2,168.35 227.87,148.68 229.98,150.8 236.64,144.14 238.44,145.94 243.01,141.36 				"/>
				<polygon class="st7" points="225.12,207.64 225.13,207.65 216.71,216.06 214.18,213.53 222.6,205.11 222.98,205.5 
					231.29,197.19 233.43,199.33 				"/>
				
					<rect x="232.42" y="153.57" transform="matrix(0.7071 -0.7071 0.7071 0.7071 -40.939 210.7948)" class="st0" width="3.13" height="2.48"/>
				
					<rect x="217.32" y="171.68" transform="matrix(0.7071 -0.7071 0.7071 0.7071 -58.0261 205.3609)" class="st0" width="3.13" height="2.1"/>
				
					<rect x="215.11" y="189.75" transform="matrix(0.7071 -0.7071 0.7071 0.7071 -71.4518 209.0955)" class="st0" width="3.13" height="2.1"/>
			</g>
		</g>
		<g>
			<polygon class="st9" points="377.5,157.65 319.32,157.65 319.32,163.65 325.64,163.65 325.64,168.23 332.63,168.23 
				332.63,172.16 363.35,172.16 363.35,168.23 370.29,168.23 370.29,163.65 377.5,163.65 			"/>
			<polygon class="st8" points="377.5,149.01 319.32,149.01 319.32,157.65 324.93,157.65 324.93,161.48 332.7,161.48 332.7,165.37 
				363.45,165.37 363.45,161.48 371.23,161.48 371.23,157.65 377.5,157.65 			"/>
			<polygon class="st7" points="377.5,142.3 319.32,142.3 319.32,149.01 324.74,149.01 324.74,152.84 333.49,152.84 333.49,157.65 
				362.52,157.65 362.52,152.84 371.15,152.84 371.15,149.01 377.5,149.01 			"/>
			<polygon class="st0" points="377.5,137.34 319.32,137.34 319.32,142.3 328.6,142.3 328.6,146.07 336.47,146.07 336.47,150.02 
				359.51,150.02 359.51,146.07 367.44,146.07 367.44,142.3 377.5,142.3 			"/>
			<polygon class="st8" points="319.32,78.1 319.32,97.48 319.32,98.87 319.32,102.64 319.32,103.91 319.32,105.26 319.32,106.48 
				321.61,106.48 321.61,102.64 325.77,102.64 325.77,98.87 370.1,98.87 370.1,102.64 375.21,102.64 375.21,106.48 377.5,106.48 
				377.5,78.1 			"/>
			<polygon class="st8" points="356.64,101.74 356.64,97.87 339.26,97.87 339.26,101.74 331.63,101.74 331.63,106.48 364.4,106.48 
				364.4,101.74 			"/>
			<polygon class="st7" points="377.5,130.59 319.32,130.59 319.32,137.34 332.56,137.34 332.56,141.28 338.38,141.28 
				338.38,145.21 357.64,145.21 357.64,141.28 363.48,141.28 363.48,137.34 377.5,137.34 			"/>
			<path class="st1" d="M323.37,36.34h14.02v-4.13h2.64V27.9h16.85v4.31h11.17v4.13h4.47v4.13h4.99V8.36h-7.16V4.18h-11.1V0h-22.22
				v4.18h-11.29v4.18h-6.41v32.12h4.05V36.34z M333.34,25.12h3.09v-3.23h6.18v-3.23h14.76v3.23h6.18v3.23h3.09v3.23h-3.09v-3.23
				h-6.18v-3.23h-14.76v3.23h-6.18v3.23h-3.09V25.12z"/>
			<rect x="342.61" y="18.62" class="st3" width="14.76" height="3.23"/>
			<rect x="336.43" y="21.81" class="st3" width="6.18" height="3.23"/>
			<rect x="357.37" y="21.81" class="st3" width="6.18" height="3.23"/>
			<rect x="333.34" y="25.03" class="st3" width="3.09" height="3.23"/>
			<rect x="363.55" y="25.03" class="st3" width="3.09" height="3.23"/>
			<rect x="339.26" y="89.11" class="st0" width="17.38" height="4.75"/>
			<polygon class="st9" points="375.21,106.48 375.21,102.64 370.1,102.64 370.1,101.75 370.1,97.74 359.08,97.74 359.08,95.58 
				356.64,95.58 356.64,93.86 339.26,93.86 339.26,95.58 336.82,95.58 336.82,97.74 325.77,97.74 325.77,101.75 325.77,102.64 
				321.61,102.64 321.61,106.48 319.32,106.48 319.32,110.25 323.76,110.25 323.76,108.37 325.6,108.37 325.6,106.48 331.63,106.48 
				331.63,101.75 339.26,101.75 339.26,97.87 356.64,97.87 356.64,101.75 364.4,101.75 364.4,106.48 371.22,106.48 371.22,108.37 
				373.06,108.37 373.06,110.25 377.5,110.25 377.5,106.48 			"/>
			<rect x="366.69" y="121.77" class="st0" width="4.95" height="4.13"/>
			<rect x="324.39" y="121.77" class="st0" width="4.95" height="4.13"/>
			<g>
				<rect x="339.74" y="126.01" class="st0" width="4.28" height="4.28"/>
				<rect x="352.07" y="126.01" class="st0" width="4.28" height="4.28"/>
				<rect x="344.03" y="121.44" class="st0" width="7.68" height="4.28"/>
			</g>
		</g>
		<g>
			<path class="st1" d="M280.84,40.13h17.89v4.31h11.17v4.13h4.47v4.13h4.99V15.42h-7.16v-4.18h-11.1V7.06h-22.22v4.18h-11.29
				l0.88,21.68 M275.2,25.63h3.09v-3.23h6.18v-3.23h14.76v3.23h6.18v3.23h3.09v3.23h-3.09v-3.23h-6.18v-3.23h-14.76v3.23h-6.18v3.23
				h-3.09V25.63z"/>
			<polygon class="st8" points="264.68,149.32 264,153.22 262.96,161.98 264.83,163.91 251.63,177.15 249.31,174.83 248.15,175.99 
				246.7,177.44 245.85,178.29 244.09,176.53 242.92,177.69 235.63,184.98 237.39,186.75 236.53,187.61 234.79,189.35 
				233.92,190.23 236.23,192.54 223.15,205.59 227.13,209.57 237.64,199.06 235.94,197.36 238.49,194.8 237.35,193.66 
				239.96,191.05 237.65,188.73 247.82,178.56 247.84,178.54 250.15,180.85 252.75,178.26 253.89,179.41 256.44,176.86 
				256.45,176.85 258.11,178.51 268.8,167.82 268.28,167.3 274.59,165.37 305.33,165.37 305.33,161.48 313.11,161.48 313.11,157.65 
				319.38,157.65 319.38,149.01 			"/>
			<polygon class="st7" points="319.38,142.3 261.2,142.3 261.2,149.01 266.63,149.01 266.63,152.84 275.37,152.84 275.37,157.65 
				304.4,157.65 304.4,152.84 313.04,152.84 313.04,149.01 319.38,149.01 			"/>
			<polygon class="st0" points="319.38,137.34 261.2,137.34 261.2,142.3 270.48,142.3 270.48,146.07 278.35,146.07 278.35,150.02 
				301.39,150.02 301.39,146.07 309.32,146.07 309.32,142.3 319.38,142.3 			"/>
			<polygon class="st8" points="261.2,78.1 261.2,97.48 261.2,98.87 261.2,102.64 261.2,103.91 261.2,105.26 261.2,106.48 
				263.49,106.48 263.49,102.64 267.65,102.64 267.65,98.87 311.99,98.87 311.99,102.64 317.09,102.64 317.09,106.48 319.38,106.48 
				319.38,78.1 			"/>
			<rect x="305.4" y="25.63" class="st3" width="3.09" height="3.23"/>
			<rect x="275.2" y="25.63" class="st3" width="3.09" height="3.23"/>
			<rect x="284.46" y="19.18" class="st3" width="14.76" height="3.23"/>
			<rect x="299.23" y="22.41" class="st3" width="6.18" height="3.23"/>
			<rect x="278.29" y="22.41" class="st3" width="6.18" height="3.23"/>
			<polygon class="st8" points="298.52,101.74 298.52,97.87 281.14,97.87 281.14,101.74 273.51,101.74 273.51,106.48 306.28,106.48 
				306.28,101.74 			"/>
			<polygon class="st7" points="319.38,130.59 261.2,130.59 261.2,137.34 274.45,137.34 274.45,141.28 280.26,141.28 280.26,145.21 
				299.52,145.21 299.52,141.28 305.36,141.28 305.36,137.34 319.38,137.34 			"/>
			<polygon class="st4" points="373.37,52.71 373.37,48.58 368.1,48.58 368.1,44.44 356.93,44.44 356.93,40.13 339.55,40.13 
				339.55,44.44 328.23,44.44 328.23,48.58 322.49,48.58 322.49,52.71 319.38,52.71 319.32,52.71 315.26,52.71 315.26,48.58 
				309.98,48.58 309.98,44.44 298.81,44.44 298.81,40.13 281.43,40.13 281.43,44.44 270.11,44.44 270.11,48.58 264.37,48.58 
				264.37,52.71 260.2,52.71 260.2,60.89 267.73,60.89 267.73,58.11 274.98,58.11 274.98,53.97 281.65,53.97 281.65,51.19 
				298.55,51.19 298.55,53.97 304.99,53.97 304.99,58.11 312.28,58.11 312.28,60.89 319.32,60.89 319.38,60.89 325.85,60.89 
				325.85,58.11 333.09,58.11 333.09,53.97 339.77,53.97 339.77,51.19 356.67,51.19 356.67,53.97 363.11,53.97 363.11,58.11 
				370.39,58.11 370.39,60.89 377.5,60.89 377.5,52.71 			"/>
			<polygon class="st9" points="368.53,57.87 368.53,56.54 363.75,56.54 363.75,53.85 357.22,53.85 357.22,49.75 339.21,49.75 
				339.21,53.85 332.66,53.85 332.66,56.54 325.79,56.54 325.79,60.32 319.38,60.32 319.38,57.87 310.41,57.87 310.41,56.54 
				305.63,56.54 305.63,53.85 299.1,53.85 299.1,49.75 281.09,49.75 281.09,53.85 274.55,53.85 274.55,56.54 267.67,56.54 
				267.67,60.32 261.2,60.32 261.2,93.86 261.2,97.74 265.73,97.74 265.73,93.86 274.23,93.86 274.23,86.05 278.19,86.05 
				278.19,82.24 301.57,82.24 301.57,86.05 306.42,86.05 306.42,93.86 314.06,93.86 314.06,97.74 318.32,97.74 319.38,97.74 
				323.85,97.74 323.85,93.86 332.34,93.86 332.34,86.05 336.31,86.05 336.31,82.24 359.69,82.24 359.69,86.05 364.53,86.05 
				364.53,93.86 372.18,93.86 372.18,97.74 377.5,97.74 377.5,57.87 			"/>
			<rect x="281.14" y="89.11" class="st0" width="17.38" height="4.75"/>
		</g>
		<g>
			<rect x="24.06" y="263.8" class="st3" width="3.23" height="3.09"/>
			<g>
				<polygon class="st6" points="190.02,273.38 190.02,268.3 191.32,268.3 191.32,253.88 190.02,253.88 189.26,253.88 
					185.79,253.88 185.79,270.82 179.46,270.82 179.46,297.61 185.79,297.61 185.79,311.2 190.02,311.2 190.02,311.2 191.32,311.2 
					191.32,296.87 190.02,296.87 190.02,294.38 188.47,294.38 188.47,275.58 				"/>
				<rect x="176.26" y="294.42" class="st5" width="0.77" height="0.03"/>
				<polygon class="st7" points="169.68,270.23 169.68,266.5 173.73,266.5 173.73,253.88 168.84,253.88 158.98,253.88 
					158.98,262.52 156.18,262.52 156.18,296.13 158.98,296.13 158.98,305.24 165.62,305.24 165.62,311.2 171.49,311.2 173.73,311.2 
					173.73,300.42 169.68,300.42 169.68,294.51 166.88,294.51 166.88,270.23 				"/>
				<polygon class="st10" points="158.8,267.82 158.8,293.11 161.52,293.11 161.52,296.74 164.18,296.74 164.18,299.3 166.89,299.3 
					166.89,311.2 139.62,311.2 139.62,258.6 142.13,253.64 163.48,253.65 166.89,253.65 166.89,262.88 164.18,262.88 164.18,265.36 
					161.52,265.36 161.52,267.82 				"/>
				<polygon class="st10" points="142.13,253.64 139.62,258.6 139.62,253.64 				"/>
				<polygon class="st0" points="146.66,275.34 146.66,289.82 145.25,289.82 145.25,294.84 141.21,294.84 141.21,298.43 
					140.1,298.43 140.1,311.2 132.6,311.2 132.6,253.99 139.96,253.64 140.1,266.77 141.21,266.77 141.21,270.09 145.25,270.09 
					145.25,275.34 				"/>
				<polygon class="st8" points="133.06,299.24 135.77,299.24 135.77,296.73 139.84,296.73 139.84,293.19 141.23,293.19 
					141.23,290.71 142.56,290.71 142.56,288.31 143.94,288.31 143.94,276.32 142.56,276.32 142.56,273.9 141.23,273.9 
					141.23,271.54 139.84,271.54 139.84,267.98 135.77,267.98 135.77,264.25 133.06,264.25 133.06,253.88 129.34,249.42 
					129.34,311.2 133.06,311.2 				"/>
				<g>
					<rect x="143.94" y="293.36" class="st10" width="9.31" height="12.68"/>
					<rect x="143.8" y="264.43" class="st10" width="4.3" height="7.25"/>
				</g>
				<polygon class="st7" points="127.56,267.88 127.56,296.84 125.04,296.84 125.04,311.2 112.84,311.2 112.84,253.88 
					117.12,253.88 117.14,251.71 119.54,251.71 119.49,247.96 121.9,247.96 121.9,251.71 123.79,251.71 123.79,253.88 
					125.04,253.88 125.04,267.88 				"/>
				<polygon class="st2" points="26.45,304.71 22.27,304.71 22.27,293.42 18.09,293.42 18.09,271.26 22.27,271.26 22.27,260.15 
					26.45,260.15 26.45,253.88 -0.07,253.88 -0.07,311.2 26.45,311.2 				"/>
				<path class="st1" d="M48.27,307.07v-14.02h-4.13v-2.64h-4.31v-16.85h4.31V262.4h4.13v-4.47h4.13v-4.04H8.29v6.22H4.11v11.1
					h-4.18v22.22h4.18v11.29h4.18v6.5H52.4v-4.14H48.27z M24.05,297.09v-3.09h-3.23v-6.18H17.6v-14.76h3.23v-6.18h3.23v-3.09h3.23
					v3.09h-3.23v6.18h-3.23v14.76h3.23v6.18h3.23v3.09H24.05z"/>
				<rect x="17.6" y="273.07" class="st3" width="3.23" height="14.82"/>
				<rect x="20.82" y="287.83" class="st3" width="3.23" height="6.23"/>
				<rect x="20.78" y="266.89" class="st3" width="3.27" height="6.23"/>
				<rect x="24.05" y="294.01" class="st3" width="3.23" height="3.14"/>
				<g>
					<polygon class="st8" points="116.78,275.22 116.78,271.68 112.84,271.68 112.84,253.88 104.81,253.88 104.81,271.48 
						108.78,271.48 108.78,275.24 112.84,275.24 112.84,289.52 108.78,289.52 108.78,300.52 104.81,300.52 104.81,311.2 
						112.84,311.2 112.84,296.81 116.78,296.81 116.78,289.56 120.84,289.56 120.84,275.22 					"/>
					<rect x="96.68" y="300.55" class="st8" width="0.65" height="10.66"/>
					<polygon class="st8" points="97.33,268 97.33,253.91 101.87,253.91 101.87,253.88 96.68,253.88 96.68,268 					"/>
					<polygon class="st8" points="97.33,268 100.69,268 100.69,272.7 101.87,272.7 101.87,253.91 97.33,253.91 					"/>
					<polygon class="st8" points="101.87,295.51 100.69,295.51 100.69,300.55 97.33,300.55 97.33,311.2 101.87,311.2 					"/>
					<polygon class="st8" points="118.98,194.34 121.41,195.57 98.4,241.03 97.92,240.78 88.57,253.94 88.57,268.11 84.64,268.11 
						84.64,275.22 81.47,275.22 81.47,289.61 84.64,289.61 84.64,296.95 88.57,296.95 88.57,311.2 67.11,311.2 67.11,296.95 
						68.13,296.95 68.13,290.52 64.96,290.52 64.96,274.55 68.13,274.55 68.13,268.11 67.11,268.11 67.11,253.88 76.44,253.88 
						73.04,253.08 79.03,234.24 83.34,235.64 84.05,233.76 86.41,229.1 89.17,230.49 91.82,225.26 95.13,226.93 97.79,221.67 
						95.35,220.44 97.74,215.72 94.48,214.07 99.2,204.73 99.93,205.1 103.49,198.06 106.03,199.35 114.35,182.92 122.6,187.17 
											"/>
					<polygon class="st8" points="88.57,253.88 88.57,253.91 80.46,253.91 77.75,253.89 77.62,254.29 76.07,253.88 					"/>
				</g>
				<polygon class="st9" points="76.4,304.12 72.28,304.12 72.28,300.46 68.47,300.46 68.47,264.18 72.28,264.18 72.28,260.69 
					76.44,260.69 76.44,253.88 72.28,253.88 69.61,253.88 68.47,253.88 65.67,253.88 57.56,253.88 57.56,261.91 56.23,261.91 
					56.23,266.69 53.54,266.69 53.54,273.22 49.44,273.22 49.44,291.23 53.54,291.23 53.54,297.77 56.23,297.77 56.23,304.65 
					60.01,304.65 60.01,311.2 76.4,311.2 				"/>
				<polygon class="st4" points="57.8,304.65 57.8,297.4 53.66,297.4 53.66,290.72 50.88,290.72 50.88,273.83 53.66,273.83 
					53.66,267.39 57.8,267.39 57.8,260.1 60.59,260.1 60.59,253.77 52.4,253.88 52.4,257.12 48.27,257.12 48.27,262.4 44.13,262.4 
					44.13,273.56 39.82,273.56 39.82,290.94 44.13,290.94 44.13,302.27 48.27,302.27 48.27,308 52.4,308 52.4,311.2 60.59,311.2 
					60.59,304.65 				"/>
			</g>
		</g>
		<polygon class="st7" points="264.58,148.34 262.96,161.98 264.83,163.91 255.88,171.84 258.41,174.37 266.82,165.96 268.8,148.02 
					"/>
		
			<rect x="241.25" y="138.35" transform="matrix(0.7553 -0.6554 0.6554 0.7553 -33.4548 194.1825)" class="st8" width="4.08" height="7.07"/>
		
			<rect x="242.58" y="136.76" transform="matrix(0.846 -0.5332 0.5332 0.846 -36.0401 151.7357)" class="st8" width="4.08" height="2.98"/>
		<g>
			<polygon class="st10" points="377.5,113.82 377.5,130.59 359.51,130.59 359.51,133.61 354.74,133.61 354.74,139.29 
				341.32,139.29 341.32,133.61 336.47,133.61 336.47,130.59 301.39,130.59 301.39,133.61 296.62,133.61 296.62,139.29 
				283.2,139.29 283.2,133.61 278.36,133.61 278.36,130.59 261.2,130.59 261.2,113.83 261.21,113.83 261.21,113.82 271.03,113.82 
				271.03,111.58 273.52,111.58 273.52,109.01 306.28,109.01 306.28,111.58 308.77,111.58 308.77,113.82 329.15,113.82 
				329.15,111.58 331.63,111.58 331.63,109.01 364.4,109.01 364.4,111.58 366.89,111.58 366.89,113.82 			"/>
			<rect x="331.63" y="108.98" class="st10" width="32.77" height="0.03"/>
			<polygon class="st0" points="377.5,110.24 377.5,113.82 366.89,113.82 366.89,111.58 364.4,111.58 364.4,109.01 331.63,109.01 
				331.63,111.58 329.15,111.58 329.15,113.82 308.77,113.82 308.77,111.58 306.28,111.58 306.28,108.98 273.52,108.98 
				273.52,111.58 271.03,111.58 271.03,113.82 261.2,113.82 261.2,113.83 260.16,113.84 260.15,112.74 261.2,112.73 261.2,110.24 
				265.64,110.24 265.64,108.36 267.49,108.36 267.49,106.48 313.1,106.48 313.1,108.36 314.94,108.36 314.94,110.24 323.76,110.24 
				323.76,108.36 325.6,108.36 325.6,106.48 371.22,106.48 371.22,108.36 373.06,108.36 373.06,110.24 			"/>
			<rect x="261.2" y="113.82" class="st0" width="0.01" height="0.01"/>
			<rect x="273.51" y="108.99" class="st0" width="32.77" height="0.03"/>
		</g>
		<polygon class="st9" points="261.08,97.57 261.1,99.52 262.96,99.51 262.97,97.55 		"/>
		<polygon class="st9" points="317.13,106.45 317.13,102.61 312.02,102.61 312.02,101.72 312.02,97.7 301,97.7 301,95.55 
			298.56,95.55 298.56,93.83 281.18,93.83 281.18,95.55 278.74,95.55 278.74,97.7 267.69,97.7 267.69,101.72 267.69,102.61 
			263.53,102.61 263.53,106.45 261.24,106.45 261.17,111.59 262.56,111.6 262.56,110.22 265.68,110.22 265.68,108.37 267.52,108.37 
			267.52,106.48 273.55,106.48 273.55,101.72 281.18,101.72 281.18,97.84 298.56,97.84 298.56,101.72 306.32,101.72 306.32,106.45 
			313.14,106.45 313.14,108.33 314.98,108.33 314.98,110.22 319.42,110.22 319.42,106.45 		"/>
		<g>
			<polygon class="st0" points="261.08,113.76 261.08,113.83 258.69,113.85 258.72,117.39 260.15,117.37 260.18,120.45 
				261.21,120.44 261.2,116.95 264.8,116.92 264.82,113.73 			"/>
			<polygon class="st0" points="261.21,121.45 261.21,121.45 261.21,121.04 			"/>
		</g>
		<polygon class="st7" points="257.92,121.79 257.95,124.7 260.46,124.68 260.47,121.77 		"/>
		<polygon class="st7" points="257.92,121.79 257.95,124.7 260.46,124.68 260.47,121.77 		"/>
		<polygon class="st10" points="257.73,132.91 259.16,135 260.67,133.97 259.33,131.99 		"/>
		
			<rect x="259.36" y="123.51" transform="matrix(1 -8.151235e-03 8.151235e-03 1 -1.027 2.1276)" class="st10" width="2.27" height="7.08"/>
		
			<rect x="260.48" y="136.83" transform="matrix(1 -8.150318e-03 8.150318e-03 1 -1.1232 2.1404)" class="st10" width="3.15" height="4.1"/>
		
			<rect x="259.78" y="134.77" transform="matrix(1 -8.150141e-03 8.150141e-03 1 -1.1016 2.1319)" class="st10" width="2.48" height="2.91"/>
		
			<rect x="260.83" y="146.39" transform="matrix(1 -8.149319e-03 8.149319e-03 1 -1.1961 2.1454)" class="st10" width="3.65" height="2.91"/>
		
			<rect x="247.28" y="144.11" transform="matrix(0.7553 -0.6554 0.6554 0.7553 -35.9452 199.0239)" class="st10" width="2.48" height="7.07"/>
		
			<rect x="246.96" y="71.85" transform="matrix(0.9068 -0.4216 0.4216 0.9068 -8.1508 115.1428)" class="st9" width="18.67" height="8.3"/>
		
			<rect x="254.4" y="76.01" transform="matrix(0.9068 -0.4216 0.4216 0.9068 -9.4946 117.3796)" class="st9" width="12.57" height="8.3"/>
		
			<rect x="259.07" y="83.16" transform="matrix(0.9677 -0.2523 0.2523 0.9677 -13.5241 69.7719)" class="st9" width="12.57" height="8.94"/>
		<polygon class="st10" points="257.9,123.51 257.94,127.7 262.67,127.67 262.69,123.47 		"/>
		<polygon class="st10" points="260.14,122.06 260.17,126.25 264.96,126.21 264.98,122.02 		"/>
		<polygon class="st10" points="258.14,126.66 258.61,127.5 260.81,126.28 260.36,125.42 		"/>
		<polygon class="st10" points="284.35,132.17 278.88,132.24 279.07,130.01 260.57,130.24 260.6,132.47 260.99,132.47 
			261.06,138.56 270.66,138.44 270.67,135.09 284.21,134.92 		"/>
		<rect x="258.56" y="87.6" transform="matrix(0.866 -0.5 0.5 0.866 -10.1514 142.7361)" class="st8" width="5.42" height="5.42"/>
		
			<rect x="259.86" y="83.95" transform="matrix(0.9297 -0.3683 0.3683 0.9297 -13.2978 102.7776)" class="st9" width="5.42" height="4.55"/>
		
			<rect x="254.33" y="86.3" transform="matrix(0.9068 -0.4216 0.4216 0.9068 -13.2424 116.9832)" class="st8" width="7.16" height="4.28"/>
		
			<rect x="264.01" y="88.97" transform="matrix(0.9297 -0.3683 0.3683 0.9297 -14.3164 104.5551)" class="st8" width="5.42" height="1.62"/>
		<polygon class="st9" points="205.91,100.32 203,102.47 200.88,99.25 203.9,97.27 		"/>
		<polygon class="st1" points="175.76,74 181.21,68.38 194.15,92.57 		"/>
		<polygon class="st8" points="213.18,108.65 210.63,111.2 208.06,108.34 210.75,105.93 		"/>
		<polygon class="st8" points="222.44,117.85 219.88,119.13 217.31,116.26 220.55,114.75 		"/>
		<polygon class="st9" points="227.35,122.7 224.79,123.99 222.23,121.12 225.46,119.6 		"/>
		<polygon class="st7" points="217.46,114.18 214.58,116.27 212.1,114.47 214.61,111.93 		"/>
		<polygon class="st7" points="266.8,145.21 261.2,144.7 261.2,147.74 263.19,147.74 262.96,149.18 257.54,156.56 257.54,156.56 
			250.74,163.36 249.38,161.99 243.63,167.74 241.91,166.01 239.41,168.5 238.14,167.24 226.14,179.24 227.41,180.5 224.92,183 
			226.65,184.72 221.4,189.97 222.77,191.33 215.84,198.26 215.84,198.25 209.05,205.05 207.68,203.68 201.93,209.43 200.21,207.7 
			197.72,210.2 196.45,208.93 184.45,220.93 185.71,222.2 183.22,224.69 184.95,226.42 179.7,231.66 181.07,233.03 173.87,240.22 
			177.42,243.24 188.21,232.44 186.39,230.62 188.1,228.91 188.05,228.86 190.22,226.7 187.41,223.89 199.41,211.89 201.69,214.17 
			203.83,212.04 204.4,212.61 205.51,211.51 207.33,213.33 219.11,201.55 219.11,201.55 229.91,190.75 228.09,188.93 229.8,187.22 
			229.75,187.17 231.92,185.01 229.1,182.2 241.11,170.2 243.39,172.48 245.53,170.35 246.1,170.92 247.21,169.82 249.03,171.64 
			260.38,159.42 260.37,159.41 264.5,149.29 264.48,147.74 265.84,147.74 		"/>
		
			<rect x="259.19" y="144.24" transform="matrix(1 -8.150135e-03 8.150135e-03 1 -1.1843 2.1319)" class="st10" width="3.58" height="4.27"/>
		<polygon class="st8" points="183.61,249.43 177.94,253.88 174.74,253.88 174.74,267.53 170.42,267.53 170.42,271.68 
			168.13,271.68 168.13,293.96 170.42,293.96 170.42,299.05 175.72,299.05 175.72,311.2 184.47,311.2 184.47,311.2 184.47,298.07 
			180.44,298.07 180.44,294.45 177.03,294.45 176.26,294.45 176.26,294.42 176.26,293.96 176.26,277.57 179.16,277.57 
			179.16,274.97 181.69,274.97 181.69,270.19 184.47,270.19 184.47,253.88 184.91,250.74 		"/>
		<polygon class="st7" points="179.56,245.38 177.94,253.88 183.61,249.43 		"/>
		<g>
			<polygon class="st0" points="264.5,149.29 260.36,159.43 262.96,161.98 			"/>
			<polygon class="st0" points="252.18,164.8 246.44,170.54 245.46,169.57 242.97,172.06 240.96,170.05 228.96,182.05 
				230.97,184.06 228.47,186.55 229.45,187.53 224.21,192.77 225.61,194.18 218.68,201.11 218.85,201.28 218.67,201.12 
				211.87,207.91 210.48,206.49 204.74,212.23 203.76,211.26 201.27,213.75 199.26,211.74 187.26,223.74 189.27,225.75 
				186.78,228.24 187.75,229.22 182.51,234.46 183.92,235.87 176.98,242.81 173.73,253.88 173.73,266.5 169.68,266.5 169.68,270.23 
				166.88,270.23 166.88,294.51 169.68,294.51 169.68,300.42 173.73,300.42 173.73,311.2 177.94,311.2 177.94,298.04 173.73,298.04 
				173.73,296.78 172.36,296.78 172.36,294.57 170.95,294.57 170.95,292.08 169.55,292.08 169.55,275.28 170.96,275.28 
				170.96,273.96 173.53,273.96 173.53,269.16 174.92,269.16 174.92,267.94 177.94,267.94 177.94,253.88 179.56,245.38 
				185.09,239.85 183.74,238.5 189,233.23 187.97,232.2 189.68,230.49 188.85,229.66 191.99,226.51 190.11,224.63 200.18,214.56 
				202.06,216.44 204.69,213.81 205.52,214.65 207.09,213.09 208.12,214.12 214.38,207.85 215.73,209.21 221.25,203.69 
				221.26,203.69 226.79,198.16 225.43,196.81 230.7,191.54 229.67,190.51 231.38,188.8 230.54,187.96 233.69,184.82 231.81,182.94 
				241.88,172.87 243.76,174.75 246.39,172.12 247.22,172.95 248.78,171.39 249.82,172.42 256.08,166.16 257.43,167.52 
				262.96,161.98 260.36,159.43 253.57,166.22 			"/>
		</g>
		<polygon class="st9" points="305.33,161.48 305.33,165.37 270.27,165.32 257.59,177.99 257.58,178 255.92,176.34 253.37,178.88 
			252.23,177.74 249.63,180.33 249.61,180.35 247.3,178.04 237.13,188.21 239.44,190.53 236.83,193.14 237.97,194.28 235.42,196.84 
			237.12,198.54 215.9,219.68 215.89,219.69 214.22,218.03 211.67,220.58 210.53,219.43 207.93,222.03 207.92,222.04 205.6,219.73 
			195.43,229.9 197.74,232.22 195.13,234.83 196.28,235.98 193.72,238.53 195.42,240.23 184.48,250.9 184.47,270.19 181.69,270.19 
			181.69,274.97 179.16,274.97 179.16,277.57 176.26,277.57 176.26,293.96 176.26,294.42 177.03,294.42 177.03,294.45 
			180.44,294.45 180.44,298.07 184.47,298.07 184.47,311.2 188.46,311.2 188.46,298.05 185.76,298.05 185.76,296.86 184.47,296.86 
			184.47,294.42 181.77,294.42 181.77,293.21 180.44,293.21 180.44,278.74 181.77,278.74 181.77,277.52 184.47,277.52 
			184.47,271.51 185.79,271.51 185.79,270.32 188.47,270.32 188.57,253.88 198.1,244.35 196.42,242.68 198.89,240.21 197.17,238.49 
			196.62,237.94 212.23,222.33 214.5,224.6 216.89,222.22 218.56,223.89 239.79,202.66 238.12,200.99 240.59,198.52 238.86,196.79 
			238.32,196.25 253.93,180.63 256.2,182.91 258.59,180.53 260.26,182.2 272.58,171.13 305.24,171.13 305.24,168.23 312.17,168.23 
			312.17,163.65 319.38,163.65 319.32,157.65 313.11,157.65 313.11,161.48 		"/>
		<polygon class="st7" points="178.13,237.86 174.54,241.45 171.22,237.05 172.6,234.27 		"/>
		<polygon class="st8" points="136.26,252.94 136.26,255.48 139.98,255.48 139.98,253.05 		"/>
		<polygon class="st8" points="137.81,252.51 137.81,255.04 140.44,255.04 140.44,252.62 		"/>
		<polygon class="st8" points="138.66,252.51 138.66,255.04 141.3,255.04 141.3,252.62 		"/>
		<polygon class="st7" points="165.8,253.65 165.85,256.18 173.41,256.18 173.73,253.72 		"/>
		<rect x="165.94" y="253.56" class="st7" width="1.17" height="0.25"/>
		
			<rect x="163.36" y="250.83" transform="matrix(0.888 0.4599 -0.4599 0.888 134.6366 -47.4584)" class="st0" width="2.76" height="3.65"/>
		
			<rect x="171.58" y="234.04" transform="matrix(0.8348 0.5505 -0.5505 0.8348 158.1739 -56.3278)" class="st10" width="2.76" height="2.81"/>
		
			<rect x="165.5" y="232.1" transform="matrix(0.8348 0.5505 -0.5505 0.8348 156.1018 -53.3037)" class="st10" width="2.76" height="2.81"/>
		<rect x="138.12" y="255.48" class="st8" width="1.86" height="2.6"/>
		
			<rect x="158.85" y="219.44" transform="matrix(0.7071 0.7071 -0.7071 0.7071 205.2761 -49.0786)" class="st10" width="6.07" height="7.62"/>
		<polygon class="st8" points="157.5,223.37 155.56,221.18 161.1,216.2 162.89,217.98 		"/>
		<polygon class="st7" points="155.67,221.09 151.81,218.27 156.98,213.77 159.34,216.12 		"/>
		
			<rect x="123.81" y="189.39" transform="matrix(0.834 0.5518 -0.5518 0.834 127.4337 -38.507)" class="st7" width="7.8" height="6.26"/>
		
			<rect x="120.85" y="193.41" transform="matrix(0.834 0.5518 -0.5518 0.834 128.9087 -35.3703)" class="st7" width="4.76" height="6.26"/>
		<polygon class="st8" points="118.75,183.9 114.35,182.92 121.35,187.12 122.6,185.72 		"/>
		<polygon class="st9" points="116.76,181.92 114.07,182.92 113.79,183.28 115.63,185.54 118.75,183.9 		"/>
		<path class="st9" d="M113.24,183.35c0.09,0.01,1.64,0,1.64,0v0.79h-2.18L113.24,183.35z"/>
		
			<rect x="150.1" y="214.46" transform="matrix(0.6624 -0.7492 0.7492 0.6624 -110.6199 186.9309)" class="st7" width="3.97" height="3.47"/>
		
			<rect x="138.6" y="208.68" transform="matrix(0.6624 -0.7492 0.7492 0.6624 -109.3162 177.1018)" class="st9" width="6.47" height="2.32"/>
		
			<rect x="135.99" y="200.31" transform="matrix(0.6624 -0.7492 0.7492 0.6624 -104.4173 171.2329)" class="st9" width="3.57" height="2.32"/>
		<polygon class="st9" points="115.59,184.61 114.09,185.69 112.36,185.1 114.33,183.07 		"/>
		<polygon class="st4" points="105.93,178.95 108.45,176.43 112.72,177.87 116.76,181.92 114.07,182.92 108.02,180.04 
			105.93,180.02 		"/>
		<polygon class="st1" points="96.16,175.7 102.95,177.4 106.13,178.75 108.45,176.43 112.72,177.87 113.56,176.61 99.04,156.79 
			82.98,168.75 		"/>
		<polygon class="st0" points="136.32,272.7 136.32,270.41 134.33,270.41 134.33,267.68 132.13,267.68 132.13,265.65 130.41,265.65 
			130.41,253.88 128.65,253.88 128.65,251.71 124.31,251.71 124.31,249.42 121.9,249.42 121.82,255.98 125.04,255.95 125.04,267.89 
			127.56,267.89 127.56,296.84 125.04,296.84 125.04,311.2 130.41,311.2 130.41,299.02 132.13,299.02 132.13,297 134.33,297 
			134.33,294.37 136.32,294.37 136.32,292 138.92,292 138.92,272.7 		"/>
		<path class="st0" d="M104.16,272.7h-2.29h-1.19V268h-3.36h-0.65v-14.12l6.65-10.58l-3.03-1.31c0,0-7.19,11.46-7.67,11.92v16.61
			h2.69v2.61h2.85v18.6h-2.92v2.59h-2.62v16.88h3.55h0.5v-10.66h0.65h3.36v-5.04h1.19h2.29h0.64V272.7H104.16z"/>
		<polygon class="st7" points="96.18,273.13 96.18,270.52 92.63,270.52 92.63,253.94 100.85,242.06 97.92,240.79 88.57,253.94 
			88.57,268.11 84.64,268.11 84.64,275.22 81.47,275.22 81.47,289.61 84.64,289.61 84.64,296.95 88.57,296.95 88.57,311.2 
			80.46,311.2 80.46,311.2 92.63,311.23 92.63,311.2 92.63,294.32 96.18,294.32 97.33,294.32 97.33,291.73 98.17,291.73 
			98.17,273.13 97.33,273.13 		"/>
		
			<rect x="73.85" y="227.92" transform="matrix(0.9179 0.3967 -0.3967 0.9179 97.3396 -11.0382)" class="st4" width="3.01" height="3.74"/>
		
			<rect x="65.94" y="221.87" transform="matrix(0.9179 0.3967 -0.3967 0.9179 95.4038 -8.6124)" class="st1" width="5.17" height="8.9"/>
		
			<rect x="38.64" y="231.89" transform="matrix(0.9179 0.3967 -0.3967 0.9179 100.063 2.696)" class="st1" width="9.74" height="22.7"/>
		
			<rect x="53.55" y="208.76" transform="matrix(0.9179 0.3967 -0.3967 0.9179 90.5312 -5.4429)" class="st1" width="9.74" height="14.73"/>
		<rect x="189.52" y="263.66" class="st6" width="2.16" height="12.92"/>
		<polyline class="st6" points="274.66,181.5 274,177.5 279.46,176.6 		"/>
		<rect x="261.14" y="8.04" class="st2" width="10.1" height="12.76"/>
	</g>
	<rect x="339.52" y="27.04" class="st1" width="23.4" height="6.33"/>
	<rect x="258.04" y="23.28" class="st1" width="11.91" height="9.97"/>
	<rect x="264" y="16.87" class="st1" width="8.67" height="9.97"/>
</g>
<rect x="178.67" y="205.43" transform="matrix(0.7071 -0.7071 0.7071 0.7071 -93.2147 187.9214)" class="st0" width="3.13" height="2.1"/>
<rect x="176.47" y="223.51" transform="matrix(0.7071 -0.7071 0.7071 0.7071 -106.6404 191.656)" class="st0" width="3.13" height="2.1"/>
<rect x="366.69" y="121.77" class="st0" width="4.95" height="4.13"/>
<rect x="324.39" y="121.77" class="st0" width="4.95" height="4.13"/>
<g>
	<rect x="339.74" y="126.01" class="st0" width="4.28" height="4.28"/>
	<rect x="352.07" y="126.01" class="st0" width="4.28" height="4.28"/>
	<rect x="344.03" y="121.44" class="st0" width="7.68" height="4.28"/>
</g>
<rect x="308.58" y="121.77" class="st0" width="4.95" height="4.13"/>
<rect x="266.27" y="121.77" class="st0" width="4.95" height="4.13"/>
<g>
	<rect x="281.63" y="126.01" class="st0" width="4.28" height="4.28"/>
	<rect x="293.96" y="126.01" class="st0" width="4.28" height="4.28"/>
	<rect x="285.91" y="121.44" class="st0" width="7.68" height="4.28"/>
</g>
<polygon class="st8" points="119.54,251.71 119.51,251.71 117.88,250.89 117.12,250.5 "/>
<rect x="15.7" y="250.56" class="st1" width="32.13" height="8.41"/>
<polygon class="st9" points="108.78,275.24 108.78,271.62 109.96,271.62 109.96,253.23 106.83,253.23 106.83,253.19 105.95,253.19 
	108.13,249.22 104.26,248.35 102.34,251.55 101.88,253.91 101.87,253.91 101.87,272.7 104.16,272.7 104.81,272.7 104.81,295.51 
	104.16,295.51 101.87,295.51 101.87,311.2 97.33,311.2 97.33,311.2 104.81,311.23 104.81,311.2 104.81,300.52 108.78,300.52 
	108.78,289.52 112.84,289.52 112.84,275.24 "/>
</svg>
