<?xml version="1.0" encoding="utf-8"?>
<!-- Generator: Adobe Illustrator 24.2.0, SVG Export Plug-In . SVG Version: 6.00 Build 0)  -->
<svg version="1.1" id="Layer_1" xmlns="http://www.w3.org/2000/svg" xmlns:xlink="http://www.w3.org/1999/xlink" x="0px" y="0px"
	 viewBox="0 0 377.42 383.71" style="enable-background:new 0 0 377.42 383.71;" xml:space="preserve">
<style type="text/css">
	.Drop_x0020_Shadow{fill:none;}
	.Round_x0020_Corners_x0020_2_x0020_pt{fill:#FFFFFF;stroke:#000000;stroke-miterlimit:10;}
	.Live_x0020_Reflect_x0020_X{fill:none;}
	.Bevel_x0020_Soft{fill:url(#SVGID_1_);}
	.Dusk{fill:#FFFFFF;}
	.Foliage_GS{fill:#FFDD00;}
	.Pompadour_GS{fill-rule:evenodd;clip-rule:evenodd;fill:#44ADE2;}
	.st0{fill:#8D6A3F;}
	.st1{fill:#2F3E83;}
	.st2{fill:#3967B1;}
	.st3{fill:#699ED4;}
	.st4{fill:#A7D1F0;}
	.st5{fill:none;}
	.st6{fill:#696E40;}
	.st7{fill:#6D522E;}
	.st8{fill:#4F3928;}
	.st9{fill:#31261E;}
	.st10{fill:#AF9D66;}
	.st11{fill:#666666;}
	.st12{fill:#333333;}
	.st13{fill:#908248;}
</style>
<linearGradient id="SVGID_1_" gradientUnits="userSpaceOnUse" x1="2852.834" y1="-1150.2164" x2="2853.5413" y2="-1149.5093">
	<stop  offset="0" style="stop-color:#DEDFE3"/>
	<stop  offset="0.1738" style="stop-color:#D8D9DD"/>
	<stop  offset="0.352" style="stop-color:#C9CACD"/>
	<stop  offset="0.5323" style="stop-color:#B4B5B8"/>
	<stop  offset="0.7139" style="stop-color:#989A9C"/>
	<stop  offset="0.8949" style="stop-color:#797C7E"/>
	<stop  offset="1" style="stop-color:#656B6C"/>
</linearGradient>
<rect x="-0.15" y="0" class="st0" width="377.57" height="383.71"/>
<g>
	
		<rect x="121.64" y="325.99" transform="matrix(-1 -4.483626e-11 4.483626e-11 -1 267.708 676.3961)" class="st1" width="24.42" height="24.42"/>
	
		<rect x="111.03" y="333.12" transform="matrix(-1 -4.487711e-11 4.487711e-11 -1 244.888 687.4662)" class="st1" width="22.82" height="21.22"/>
	<polygon class="st2" points="377.57,271.91 377.42,383.71 -0.15,383.71 0,271.91 	"/>
	<rect x="227.05" y="163.5" class="st2" width="150.49" height="111.81"/>
	<rect x="311.32" y="0.12" class="st2" width="66.24" height="219.29"/>
	
		<rect x="171.67" y="313.4" transform="matrix(-1 -4.500368e-11 4.500368e-11 -1 352.6798 643.3252)" class="st3" width="9.34" height="16.52"/>
	
		<rect x="157.66" y="320.69" transform="matrix(-0.1968 -0.9804 0.9804 -0.1968 -131.7133 557.0641)" class="st3" width="9.34" height="23.58"/>
	<path class="st1" d="M126.71,320.78l-2.18,1.45l22.87,34.32l6.43-4.29l2.17,3.25l9.75-6.5l2.17,3.25l19.2-12.79l-2.17-3.25
		l9.59-6.39l-2.17-3.25l7.11-4.74l-22.87-34.32l-2.66,1.77l2.14,3.22l-6.43,4.29l2.14,3.22l-9.65,6.43l2.23,3.35l-15.02,10.01
		l-2.23-3.35l-9.79,6.52l-2.14-3.22l-6.36,4.24L126.71,320.78z M150.57,333.11l2.67-1.78l1.67,2.51l5.34-3.56l1.67,2.51l12.76-8.5
		l-1.67-2.51l5.34-3.56l-1.67-2.51l2.67-1.78l1.67,2.51l-2.67,1.78l1.67,2.51l-5.34,3.56l1.67,2.51l-12.76,8.5l-1.67-2.51
		l-5.34,3.56l-1.67-2.51l-2.67,1.78L150.57,333.11z"/>
	<polygon class="st4" points="125.02,334.66 131.94,329.33 126.09,320.97 118.8,326.08 	"/>
	<g>
		
			<rect x="35.01" y="155.1" transform="matrix(0.8268 -0.5624 0.5624 0.8268 -82.2405 46.8747)" class="st5" width="0" height="3.8"/>
		<polygon class="st6" points="12.12,141.28 14.13,144.22 20.6,139.82 22.77,143.01 32.31,136.52 38.34,132.42 41.84,130.04 
			45.61,127.47 43.91,124.98 43.93,124.96 43.46,124.27 49.87,119.91 48.73,118.24 48.75,118.22 47.88,116.95 52.65,113.71 
			56.43,111.14 67.72,127.75 63.26,130.78 60.32,132.78 53.73,137.26 55.91,140.48 53,142.46 55.14,145.6 45.61,152.09 
			36.07,158.57 33.94,155.43 33.94,155.43 30.92,157.48 28.74,154.26 19.79,160.35 16.79,162.39 5.49,145.79 7.36,144.52 		"/>
		<polygon class="st0" points="45.02,176.86 50.36,173.22 52.55,176.44 67.2,166.47 65.02,163.26 70.31,159.65 68.95,157.65 
			82.01,148.76 85.56,153.98 73.48,162.2 75.69,165.44 72.46,167.64 74.6,170.79 71.55,172.86 73.55,175.8 58.9,185.77 56.9,182.83 
			53.85,184.9 51.71,181.75 48.48,183.95 46.27,180.71 34.63,188.62 31.08,183.4 43.66,174.85 		"/>
		<polygon class="st7" points="40.68,167.59 40.68,167.6 42.72,166.21 44.85,169.34 45.92,168.61 48.04,167.17 49.1,166.45 
			51.28,169.66 60.18,163.61 61.61,162.64 59.42,159.42 60.46,158.72 62.23,157.52 63.65,156.55 61.52,153.42 63.34,152.18 
			61.86,150 76.22,140.24 82.01,148.76 68.95,157.65 70.31,159.65 65.02,163.26 67.2,166.47 52.55,176.44 50.36,173.22 
			45.02,176.86 43.66,174.85 31.08,183.4 25.28,174.88 39.2,165.42 		"/>
		
			<rect x="40.47" y="166.9" transform="matrix(0.8268 -0.5624 0.5624 0.8268 -86.6526 52.3558)" class="st8" width="2.46" height="0"/>
		<polygon class="st8" points="36.05,163.12 39.17,161 40.59,163.08 43.78,160.91 46.65,165.13 59.07,156.68 59.1,156.66 
			56.23,152.45 59.4,150.29 57.98,148.21 61.09,146.09 61.1,146.08 59.04,143.05 72.09,134.17 76.22,140.24 61.86,150 63.34,152.18 
			61.52,153.42 63.65,156.55 62.23,157.52 60.46,158.72 59.42,159.42 61.61,162.64 60.18,163.61 51.28,169.66 49.1,166.45 
			48.04,167.17 45.92,168.61 44.85,169.34 42.72,166.21 42.72,166.21 40.68,167.59 39.2,165.42 25.28,174.88 21.11,168.75 
			33.94,160.02 		"/>
		
			<rect x="57.64" y="152.01" transform="matrix(0.8268 -0.5624 0.5624 0.8268 -76.9496 59.19)" class="st9" width="0.03" height="5.1"/>
		
			<rect x="60.06" y="142.74" transform="matrix(0.8268 -0.5624 0.5624 0.8268 -70.9115 58.8159)" class="st9" width="0.01" height="3.67"/>
		<polygon class="st9" points="28.74,154.26 30.92,157.48 33.94,155.43 36.07,158.57 36.07,158.57 45.61,152.09 55.14,145.6 
			53,142.46 55.91,140.48 53.73,137.26 60.32,132.78 63.26,130.78 67.72,127.75 72.09,134.17 59.04,143.05 59.03,143.06 
			61.09,146.09 57.98,148.21 59.4,150.29 56.23,152.45 56.21,152.46 59.07,156.68 46.65,165.13 43.78,160.91 40.59,163.08 
			39.17,161 36.05,163.12 33.94,160.02 21.11,168.75 16.79,162.39 19.79,160.35 		"/>
		<polygon class="st7" points="57.34,203.91 60.56,201.72 58.42,198.57 61.66,196.37 65.69,193.6 64.2,191.41 76.82,182.83 
			78.34,185.06 84.76,180.69 86.88,183.82 90.96,181.04 93.13,184.24 102.03,178.19 108.34,187.46 104.56,190.03 102.45,186.93 
			96.2,191.18 94.11,188.1 87.77,192.41 85.67,189.32 85.63,189.34 66.8,202.15 66.84,202.21 66.8,202.24 68.86,205.27 62.7,209.47 
			62.78,209.58 62.73,209.61 64.75,212.58 58.64,216.73 58.68,216.79 58.65,216.81 60,218.79 60.03,218.78 60.75,219.83 
			57.41,222.11 51.1,212.83 59.51,207.11 		"/>
		<path class="st10" d="M46.27,180.71l-11.64,7.92l1.6,2.36l1.61-1.09l1.84,2.7l-1.61,1.09l13.03,19.15l8.41-5.72l-2.17-3.2
			l3.22-2.19l-2.14-3.15l3.23-2.2l4.03-2.78l-1.49-2.19l12.61-8.58l1.52,2.23l6.42-4.37l2.12,3.12l4.07-2.77l2.17,3.2l8.9-6.05
			l-12.96-19.06l-3.42,2.32l-1.84-2.7l3.42-2.32l-1.67-2.45l-12.08,8.22l2.21,3.25l-3.23,2.2l2.14,3.15l-3.04,2.07l2,2.94
			l-14.66,9.97l-2-2.94l-3.04,2.07l-2.14-3.15l-3.23,2.2L46.27,180.71z M80.88,168.11l2.7-1.84l1.84,2.7l-2.7,1.84L80.88,168.11z
			 M49.52,193.4l-2.7,1.84l-1.84-2.7l2.7-1.84L49.52,193.4z"/>
		<polygon class="st8" points="80.12,248.32 80.14,248.3 80.19,248.37 83.2,246.32 85.17,249.22 85.18,249.22 85.27,249.37 
			88.53,247.15 90.71,250.35 96.93,246.12 99.03,249.2 117.91,236.35 115.81,233.27 121.94,229.11 121.92,229.09 122.13,228.94 
			119.96,225.75 123.05,223.65 120.94,220.55 123.93,218.52 124.14,218.38 121.94,215.14 125.52,212.71 131.98,222.22 
			125.07,226.92 127.19,230.04 124.11,232.14 126.26,235.29 94.84,256.66 92.69,253.51 89.55,255.65 87.42,252.53 81.05,256.86 
			74.61,247.4 77.95,245.13 		"/>
		
			<rect x="115.16" y="231.17" transform="matrix(0.8268 -0.5624 0.5624 0.8268 -109.4431 106.8885)" class="st11" width="7.41" height="0.03"/>
		<path class="st0" d="M60.75,219.83l-3.34,2.27l8.63,12.68l3.25-2.21l2.14,3.15l3.11-2.12l2.14,3.15l3.21-2.19l3.89,5.72l2.55,3.75
			l3.06-2.08l2.13,3.13l5.32-3.62l0.01,0.01l1.09-0.74l-2.18-3.21l3.15-2.14l-2.09-3.08l6.29-4.28l2.09,3.08l9.5-6.46l-2.16-3.17
			l6.18-4.2l-0.35-0.51l-3.93-5.78l-2.16-3.17l2.48-1.68l-2.12-3.12l0.56-0.38l3.04-2.07l0.7-0.47l-8.59-12.63l-3.78,2.57l-2.11-3.1
			l-6.25,4.25l-2.09-3.08l-6.34,4.31l-2.11-3.1l-0.04,0.03l2.12,3.12l6.38-4.25l2.08,3.05l6.25-4.25l1.35,1.99l-6.42,4.37
			l-6.25,4.25l-2.77-4.07l-18.85,12.82l2.76,4.06l-6.12,4.21l-0.01-0.01l-6.11,4.16L60.75,219.83z M94.9,206.86l5.61-3.82l3.82,5.61
			l-5.61,3.82L94.9,206.86z M77.9,209.14l2.7-1.84l1.84,2.7l-2.7,1.84L77.9,209.14z M83.89,226.95l2.7-1.84l1.84,2.7l-2.7,1.84
			L83.89,226.95z"/>
		
			<rect x="58.02" y="214.65" transform="matrix(0.8268 -0.5624 0.5624 0.8268 -110.0613 71.8855)" class="st0" width="7.39" height="0.07"/>
		<polygon class="st0" points="81.17,192.46 71.13,199.29 66.84,202.21 66.8,202.15 85.63,189.34 82.41,191.62 		"/>
		<polygon class="st0" points="62.78,209.58 62.7,209.47 68.86,205.27 68.92,205.36 		"/>
		<polygon class="st11" points="77.95,245.13 80.14,248.3 80.12,248.32 		"/>
		<polygon class="st11" points="83.2,246.32 83.22,246.31 85.18,249.22 85.17,249.22 		"/>
		<polygon class="st12" points="124.14,218.38 123.93,218.52 121.72,215.26 125.5,212.69 125.52,212.71 121.94,215.14 		"/>
		
			<rect x="79.85" y="247.27" transform="matrix(0.8268 -0.5624 0.5624 0.8268 -124.9566 88.7622)" class="st12" width="3.64" height="0.08"/>
		<polygon class="st12" points="119.96,225.75 122.13,228.94 121.92,229.09 119.66,225.76 122.83,223.61 120.81,220.64 
			120.94,220.55 123.05,223.65 		"/>
		
			<rect x="74.24" y="246.19" transform="matrix(0.8268 -0.5624 0.5624 0.8268 -125.2858 85.5306)" class="st12" width="4.04" height="0.08"/>
		<polygon class="st12" points="99.03,249.2 96.93,246.12 97,246.07 99.02,249.04 117.57,236.42 115.56,233.45 115.81,233.27 
			117.91,236.35 		"/>
		
			<rect x="84.88" y="248.1" transform="matrix(0.8268 -0.5624 0.5624 0.8268 -124.5513 91.8267)" class="st12" width="3.94" height="0.18"/>
		
			<rect x="96.22" y="204.37" transform="matrix(0.8268 -0.5624 0.5624 0.8268 -99.6036 92.0031)" class="st7" width="6.78" height="6.78"/>
		
			<rect x="84.52" y="225.75" transform="matrix(0.8268 -0.5624 0.5624 0.8268 -112.9729 87.832)" class="st7" width="3.27" height="3.27"/>
		
			<rect x="78.54" y="207.93" transform="matrix(0.8268 -0.5624 0.5624 0.8268 -103.9871 81.3802)" class="st7" width="3.27" height="3.27"/>
		
			<rect x="81.52" y="166.91" transform="matrix(0.8268 -0.5624 0.5624 0.8268 -80.3982 75.9547)" class="st0" width="3.27" height="3.27"/>
		
			<rect x="45.62" y="191.33" transform="matrix(0.8268 -0.5624 0.5624 0.8268 -100.3487 59.9926)" class="st0" width="3.27" height="3.27"/>
		
			<rect x="84.37" y="157.31" transform="matrix(0.8268 -0.5624 0.5624 0.8268 -74.4256 76.1395)" class="st0" width="4.13" height="3.27"/>
		
			<rect x="36.99" y="190.15" transform="matrix(0.8268 -0.5624 0.5624 0.8268 -101.2958 54.5598)" class="st0" width="1.95" height="3.27"/>
		<polygon class="st7" points="71.43,235.72 74.54,233.6 76.68,236.75 79.89,234.56 83.78,240.28 86.33,244.03 89.39,241.95 
			91.52,245.09 96.84,241.47 96.85,241.48 97.94,240.74 95.75,237.53 98.9,235.38 96.81,232.3 103.1,228.03 105.19,231.1 
			114.69,224.64 112.53,221.48 118.71,217.27 118.36,216.76 114.43,210.98 112.28,207.81 114.75,206.13 112.63,203.01 
			113.19,202.63 116.23,200.56 116.93,200.08 125.5,212.69 121.72,215.26 123.93,218.52 120.94,220.55 120.81,220.64 122.83,223.61 
			119.66,225.76 121.92,229.09 115.8,233.25 115.81,233.27 115.56,233.45 117.57,236.42 99.02,249.04 97,246.07 96.93,246.12 
			90.71,250.35 88.53,247.15 88.43,247.01 85.18,249.22 83.22,246.31 83.2,246.32 83.16,246.26 80.14,248.3 77.95,245.13 
			77.91,245.06 74.57,247.33 66.03,234.79 69.29,232.57 		"/>
		<polygon class="st0" points="93.81,261.92 96.96,259.78 99.08,262.9 105.42,258.59 107.55,261.73 126.27,249 124.14,245.86 
			133.58,239.44 131.46,236.32 138.37,231.61 142.62,237.85 132.66,244.63 134.78,247.75 128.38,252.1 130.52,255.24 114.9,265.87 
			112.76,262.73 103.35,269.13 101.23,266.01 91.69,272.5 87.44,266.26 92.58,262.76 		"/>
		<polygon class="st7" points="89.55,255.65 92.69,253.51 94.84,256.66 126.26,235.29 124.11,232.14 127.19,230.04 125.07,226.92 
			131.98,222.22 138.37,231.61 131.46,236.32 133.58,239.44 124.14,245.86 105.42,258.59 99.08,262.9 96.96,259.78 93.81,261.92 
			92.58,262.76 87.44,266.26 81.05,256.86 87.42,252.53 		"/>
		<polygon class="st7" points="107.8,289.16 110.91,287.05 113.03,290.18 119.32,285.9 117.2,282.77 120.39,280.6 118.25,277.46 
			130.76,268.95 132.9,272.09 136.07,269.93 138.19,273.06 150.62,264.61 148.5,261.48 151.69,259.31 149.55,256.17 153.33,253.6 
			162.01,266.36 151.9,273.23 149.71,270.02 118.43,291.3 120.62,294.51 111.08,301 102.4,288.24 105.67,286.02 		"/>
		
			<rect x="104.52" y="251.9" transform="matrix(0.8268 -0.5624 0.5624 0.8268 -122.686 109.1044)" class="st0" width="22.64" height="3.8"/>
		<path class="st0" d="M101.23,266.01l-9.54,6.49l10.71,15.75l3.27-2.23l2.14,3.14l3.1-2.11l2.13,3.13l6.29-4.28l-2.13-3.13
			l3.19-2.17l-2.14-3.14l12.51-8.51l2.14,3.14l3.17-2.15l2.13,3.13l12.43-8.46l-2.13-3.13l3.19-2.17l-2.14-3.14l3.78-2.57
			l-10.71-15.75l-9.96,6.78l2.12,3.12l-6.4,4.35l2.14,3.14l-15.62,10.63l-2.14-3.14l-9.41,6.4L101.23,266.01z M136.12,262.17
			l4.37-2.97l2.97,4.37l-4.37,2.97L136.12,262.17z M105.38,272.72l3.67-2.49l2.49,3.67l-3.67,2.49L105.38,272.72z"/>
		<polygon class="st8" points="118.43,291.3 149.71,270.02 151.9,273.23 162.01,266.36 170.44,278.76 159.43,286.25 157.24,283.04 
			155.29,284.37 153.25,281.38 149.95,283.63 147.77,280.42 128.82,293.31 131,296.52 127.92,298.61 129.96,301.6 126.7,303.82 
			128.81,306.92 114.22,316.79 105.86,304.5 120.62,294.51 		"/>
		<polygon class="st7" points="152.07,302.11 149.19,297.87 143.65,301.64 146.53,305.87 140.21,310.17 135.16,302.76 138.34,300.6 
			136.2,297.44 136.14,297.36 136.11,297.31 148.73,288.72 148.82,288.85 148.82,288.85 150.97,292.01 154.14,289.85 154.15,289.85 
			154.28,289.76 159.32,297.17 		"/>
		
			<rect x="137.72" y="310.91" transform="matrix(0.8268 -0.5624 0.5624 0.8268 -152.3934 131.7271)" class="st7" width="0.01" height="4.9"/>
		
			<rect x="133.07" y="304.58" transform="matrix(0.8268 -0.5624 0.5624 0.8268 -149.3485 127.9213)" class="st7" width="0.01" height="3.84"/>
		
			<rect x="132.2" y="309.83" transform="matrix(0.8268 -0.5624 0.5624 0.8268 -152.4664 128.3494)" class="st7" width="0.01" height="3.91"/>
		<path class="st9" d="M128.81,306.92l-9.37,6.38l4.78,12.21l8.75-5.95l1.44,2.12l6.12-4.17l2.14,3.15l5.46-3.72l1.44,2.12
			l14.45-9.83l-1.44-2.12l5.44-3.7l-2.14-3.15l6.16-4.19l-1.44-2.12l6.95-4.73l-7.12-10.46l-11.02,7.49l-2.18-3.21l-1.96,1.33
			l-2.03-2.99l-3.3,2.25l-2.18-3.21l-18.95,12.89l2.18,3.21l-3.08,2.09l2.03,2.99l-3.26,2.22L128.81,306.92z M131.1,310.17
			l0.01-0.01l3.03-2.06l-2.16-3.18l0.01-0.01l3.17-2.15l-2.15-3.16l-0.05-0.08l3.18-2.16l-0.04-0.06l-2.07-3.04l5.22-3.55l2.19-1.49
			l5.22-3.55l0,0l2.07,3.04l0,0l0.09,0.13l0,0l-0.05-0.08l3.18-2.16l2.2,3.23l0.13-0.09l3.04-2.07l2.16,3.18l3.04-2.07l2.2,3.23
			l-3.04,2.07l2.75,4.05l-2.53,1.72l-0.52,0.35l-0.13,0.09l-3.18,2.16l-1.05,0.71l-3.18,2.16l-0.99,0.68l-2.19,1.49l-0.99,0.68
			l-3.18,2.16l-1.05,0.71l-3.18,2.16l-0.18,0.12l-2.99,2.03l-0.01,0.01l-2.75-4.05l-3.03,2.06l-0.01,0.01L131.1,310.17z"/>
		<polygon class="st8" points="134.15,308.1 134.16,308.09 132,304.91 135.16,302.76 140.21,310.17 146.53,305.87 143.65,301.64 
			149.19,297.87 152.07,302.11 159.32,297.17 154.28,289.76 157.32,287.69 159.48,290.86 162.53,288.79 164.73,292.03 161.68,294.1 
			164.44,298.15 161.91,299.87 161.39,300.22 161.26,300.31 158.08,302.47 157.03,303.18 153.86,305.35 152.86,306.02 
			150.68,307.51 149.68,308.18 146.51,310.35 145.46,311.06 142.28,313.22 142.1,313.34 139.11,315.37 136.36,311.33 136.35,311.33 
			133.31,313.4 131.11,310.16 		"/>
		
			<rect x="149.56" y="287.44" transform="matrix(0.8268 -0.5624 0.5624 0.8268 -136.5112 135.3049)" class="st8" width="3.84" height="3.82"/>
		<polygon class="st8" points="152,286.69 148.82,288.85 148.77,288.77 151.95,286.61 154.15,289.85 154.14,289.85 		"/>
		
			<rect x="133.76" y="298.19" transform="matrix(0.8268 -0.5624 0.5624 0.8268 -145.2933 128.2785)" class="st8" width="3.84" height="3.82"/>
		
			<rect x="132.66" y="298.43" transform="matrix(0.8268 -0.5624 0.5624 0.8268 -144.5742 127.3798)" class="st8" width="3.84" height="0.09"/>
		<polygon class="st8" points="134.03,294.26 139.25,290.71 141.44,289.22 146.66,285.68 148.73,288.72 136.11,297.31 		"/>
		
			<rect x="147.69" y="285.35" transform="matrix(0.8268 -0.5624 0.5624 0.8268 -135.9564 132.8007)" class="st8" width="0.01" height="3.68"/>
		
			<rect x="137.14" y="260.22" transform="matrix(0.8268 -0.5624 0.5624 0.8268 -123.6407 124.1409)" class="st7" width="5.29" height="5.29"/>
		
			<rect x="106.24" y="271.09" transform="matrix(0.8268 -0.5624 0.5624 0.8268 -134.9392 108.3293)" class="st7" width="4.43" height="4.43"/>
		<polygon class="st10" points="94.13,188.21 96.2,191.27 102.45,187.02 103.8,189 97.38,193.37 91.13,197.62 88.36,193.55 
			69.51,206.37 72.27,210.43 66.15,214.63 66.14,214.62 60.03,218.78 60,218.79 58.65,216.81 58.68,216.79 64.79,212.64 
			64.75,212.58 62.73,209.61 62.78,209.58 68.92,205.36 68.86,205.27 66.8,202.24 66.84,202.21 71.13,199.29 81.17,192.46 
			82.41,191.62 85.63,189.34 87.75,192.46 		"/>
	</g>
	
		<rect x="329.88" y="140.07" transform="matrix(0.4678 -0.8838 0.8838 0.4678 51.2355 368.0534)" class="st3" width="2.71" height="2.83"/>
	<g>
		
			<rect x="163.62" y="70.71" transform="matrix(-0.4678 0.8838 -0.8838 -0.4678 350.4643 -44.8448)" class="st13" width="50.22" height="24.77"/>
		<polygon class="st6" points="185.02,109.54 208.51,65.15 211.79,66.89 204.87,79.97 209.78,82.57 198.79,103.34 193.88,100.74 
			188.3,111.27 		"/>
		<polygon class="st9" points="191.62,100 193.71,101.11 194.2,100.19 195.2,100.72 196.2,98.83 198.29,99.94 198.79,99 
			199.82,99.54 205.75,88.33 204.73,87.78 205.23,86.84 203.13,85.73 205.6,81.07 204.57,80.53 205.06,79.61 202.99,78.51 
			209.72,65.79 213.39,67.73 207.81,78.28 209.88,79.38 209.21,80.65 210.23,81.19 208,85.42 211.12,87.07 202.99,102.43 
			201.96,101.88 200.83,104.03 198.73,102.92 198.38,103.58 198.39,103.59 193,113.79 186.22,110.2 		"/>
		<polygon class="st8" points="194.71,101.64 197.83,103.29 199.32,100.49 202.56,102.2 202.76,101.82 209.49,89.11 207.24,87.92 
			208.3,85.91 206.34,84.87 208.3,81.16 206.15,80.02 212.82,67.43 214.97,68.57 219.6,71.02 221.45,72 215.87,82.53 218.13,83.73 
			216.43,86.95 218.2,87.88 209.06,105.15 207.29,104.22 205.2,108.16 201.09,105.99 196.09,115.42 189.31,111.84 		"/>
		<polygon class="st7" points="199.79,104.29 203.05,106.02 203.56,105.04 204.63,105.61 205.53,103.89 206.63,104.47 
			207.65,102.54 208.73,103.11 215.63,90.09 214.54,89.51 215.08,88.49 213.09,87.44 215.05,83.72 213.97,83.15 214.47,82.2 
			212.14,80.97 217.88,70.11 224.93,73.84 220.16,82.85 222.69,84.19 219.25,90.7 218.98,90.55 211.54,104.6 211.81,104.74 
			208.37,111.25 207.27,110.67 206.25,112.6 202.77,110.76 199.39,117.14 194.39,114.5 		"/>
		<polygon class="st10" points="197.65,116.22 202.05,107.9 205.19,109.57 207.62,104.99 209.78,106.14 219.74,87.32 217.58,86.17 
			219.11,83.28 215.96,81.62 221.14,71.84 224.28,73.5 227.43,75.16 232.57,77.89 211.5,117.7 206.36,114.97 203.93,119.55 		"/>
		<polygon class="st10" points="209.24,122.33 202.97,119.01 207.8,109.89 209.9,111 210.94,109.02 213.01,110.11 214.49,107.31 
			216.17,108.31 226.5,88.79 224.82,87.79 225.83,85.89 223.76,84.8 224.78,82.88 222.68,81.77 226.45,74.65 240.29,81.97 
			240.28,81.99 247.58,85.85 224.09,130.22 209.22,122.35 		"/>
		<polygon class="st0" points="222.87,129.53 223.73,129.98 228.98,120.08 228.12,119.62 229.59,116.84 226.46,115.19 236.61,96.01 
			239.74,97.66 241.11,95.08 241.96,95.54 247.21,85.63 253.02,88.71 229.54,133.07 222.87,129.54 		"/>
		<polygon class="st8" points="234.06,123.67 231.96,122.56 232.99,120.62 229.84,118.95 231.29,116.2 230.21,115.63 231.22,113.72 
			230.19,113.17 231.18,111.3 230.11,110.74 235.03,101.45 236.1,102.01 237.09,100.14 238.12,100.69 239.09,98.86 240.17,99.43 
			241.63,96.67 244.78,98.34 246.31,95.45 248.41,96.56 252.66,88.52 255.55,90.05 232.07,134.41 229.18,132.88 		"/>
		<g>
			
				<rect x="216.3" y="113.54" transform="matrix(0.4678 -0.8838 0.8838 0.4678 14.1145 258.6762)" class="st10" width="11.12" height="8.16"/>
			
				<rect x="233.71" y="92.29" transform="matrix(0.4678 -0.8838 0.8838 0.4678 42.8322 259.4856)" class="st10" width="6.36" height="3.77"/>
		</g>
		<polygon class="st0" points="236.2,124.6 234.86,123.89 235.69,122.32 233.99,121.42 235.08,119.38 233.53,118.56 234.5,116.73 
			232.48,115.66 240.4,100.7 242.42,101.77 243.36,99.99 244.9,100.81 246.02,98.7 247.72,99.59 248.56,98.02 249.9,98.73 
			254.72,89.61 259.97,92.39 255.14,101.5 241.45,127.38 236.47,136.79 231.22,134.02 		"/>
		<polygon class="st7" points="241.26,125.11 239.31,124.07 251.18,101.63 253.14,102.67 258.88,91.81 268.34,96.82 244.83,141.22 
			235.38,136.22 		"/>
		<path class="st1" d="M293.36,162.83l-1.66,3.14l27.65,19.77l9.17-6.65l3.24,1.71l4.63-8.75l3.24,1.71l9.12-17.22l-3.24-1.71
			l4.55-8.6l-3.24-1.71l11.29-18.9l-42.13-11.64l-2.46,10.76l3.2,1.7l-1.83,3.47l3.2,1.7l-4.58,8.65l3.34,1.77l-6.91,13.06
			l-3.34-1.77l-1.08,2.04l-3.2-1.7l-5.75,10.86L293.36,162.83z M316.93,165.41l1.27-2.39l2.5,1.32l2.53-4.79l2.5,1.32l6.06-11.44
			l-2.5-1.32l2.53-4.79l-2.5-1.32l1.27-2.39l2.5,1.32l-1.27,2.39l2.5,1.32l-2.53,4.79l2.5,1.32l-6.06,11.44l-2.5-1.32l-2.53,4.79
			l-2.5-1.32l-1.27,2.39L316.93,165.41z"/>
		<polygon class="st8" points="251.36,130.34 247.14,128.38 249.81,122.61 245.45,120.59 250.75,109.18 255.11,111.21 
			256.42,108.39 260.64,110.35 267.19,96.26 276.51,100.59 255.37,146.12 246.05,141.79 		"/>
		
			<rect x="323.54" y="154.4" transform="matrix(0.4678 -0.8838 0.8838 0.4678 37.9117 374.5978)" class="st3" width="12.95" height="2.83"/>
		
			<rect x="320.51" y="161.2" transform="matrix(0.4678 -0.8838 0.8838 0.4678 28.2924 372.2064)" class="st3" width="5.42" height="2.83"/>
		
			<rect x="329.13" y="144.98" transform="matrix(0.4678 -0.8838 0.8838 0.4678 47.2112 371.1985)" class="st3" width="5.42" height="2.83"/>
		
			<rect x="317.46" y="163.46" transform="matrix(0.4678 -0.8838 0.8838 0.4678 23.9463 369.5236)" class="st3" width="2.71" height="2.83"/>
		<polygon class="st0" points="261.72,139.62 258.61,137.97 260.68,134.07 256.32,130.86 270.91,110.09 274.86,110.98 
			278.82,111.88 279.34,116.64 265.98,141.87 261.62,150.11 257.36,147.85 		"/>
		<polygon class="st7" points="260.5,149.51 267.42,136.43 262.68,133.92 272.9,115.71 276.82,117.61 280.64,105.08 285.37,106.01 
			286.62,122.97 287.86,123.63 278.1,142.08 276.86,141.42 269.93,154.51 		"/>
		<polygon class="st8" points="269.48,140.15 272.53,141.77 275.54,136.08 277.99,137.38 283.9,126.23 281.44,124.93 284.36,119.41 
			281.31,117.8 285.37,106.01 305.17,110.45 297.94,126.6 297.16,126.19 294.51,131.18 296.97,132.48 290.41,144.86 287.96,143.56 
			285.32,148.54 286.11,148.96 280.28,159.98 263.64,151.18 		"/>
		<polygon class="st9" points="275.97,150.7 279.17,152.39 280.67,149.56 283.62,151.13 298.51,123 295.55,121.44 296.72,119 
			293.34,117.55 295.69,108.75 306.95,108.56 313.57,110.66 307.89,125.72 308.92,126.26 306.96,129.97 309.04,131.07 
			306.36,136.13 309.54,137.81 302.15,151.77 298.98,150.09 296.29,155.16 296.52,156.37 293.7,161.7 288.46,157.84 285.8,162.85 
			281.42,160.53 279.25,159.38 278.37,158.92 276.29,157.82 273.1,156.13 		"/>
		
			<rect x="224.88" y="104.63" transform="matrix(-0.4678 0.8838 -0.8838 -0.4678 432.7295 -49.3679)" class="st0" width="12.7" height="1.93"/>
		
			<rect x="199.06" y="69.7" transform="matrix(-0.4678 0.8838 -0.8838 -0.4678 363.8354 -77.864)" class="st6" width="12.6" height="1.81"/>
		
			<rect x="181.45" y="102.98" transform="matrix(-0.4678 0.8838 -0.8838 -0.4678 367.3929 -13.4574)" class="st6" width="12.6" height="1.81"/>
		
			<rect x="187.92" y="88.49" transform="matrix(-0.4678 0.8838 -0.8838 -0.4678 366.9592 -42.1253)" class="st13" width="16.49" height="1.86"/>
		<polygon class="st4" points="291.59,159.63 294.56,154.01 296.52,154.94 299.26,149.76 301.42,150.91 308.35,137.81 
			306.19,136.67 308.83,131.68 305.63,129.98 308.62,124.33 306.46,123.19 309.22,112.54 316.15,114.4 314.02,124.24 317.23,125.93 
			315.06,130.02 318.27,131.72 313.69,140.37 317.03,142.14 309.9,155.61 306.56,153.84 301.91,162.62 298.71,160.92 296.35,165.37 
			293.15,163.68 291.85,166.13 285.5,162.78 288.18,157.72 		"/>
	</g>
	<g>
		
			<rect x="133.22" y="141.75" transform="matrix(0.7071 -0.7071 0.7071 0.7071 -61.7534 137.5269)" class="st0" width="3.82" height="3.11"/>
		
			<rect x="197.94" y="205.05" transform="matrix(0.7071 -0.7071 0.7071 0.7071 -87.7224 202.3703)" class="st8" width="4.96" height="4.04"/>
		
			<rect x="216.21" y="219.73" transform="matrix(0.7071 -0.7071 0.7071 0.7071 -95.7993 243.2231)" class="st1" width="58.98" height="35.05"/>
		<polygon class="st9" points="208.43,241.69 242.96,207.17 242.96,207.17 250.14,199.99 256.2,206.05 242.71,219.54 244.68,221.51 
			230.62,235.58 228.65,233.6 229.55,232.7 231.52,234.67 225.18,241.02 223.2,239.05 221.67,240.57 220.06,238.96 212.88,246.14 		
			"/>
		<g>
			<polygon class="st8" points="236.09,214.66 250.45,200.3 242.44,192.29 229.47,205.26 232.59,208.39 227.02,213.97 
				229.76,216.71 226.06,220.41 222.36,224.11 216.49,218.24 212.75,221.98 209.75,218.98 205.58,223.15 209.66,227.23 
				205.51,231.37 208.9,234.77 205.2,238.47 208.75,242.01 219.49,231.26 223.1,234.87 227.41,230.56 229.55,232.7 239.05,223.19 
				236.92,221.06 239.7,218.27 			"/>
		</g>
		
			<rect x="121.84" y="127.61" transform="matrix(0.7071 -0.7071 0.7071 0.7071 -55.5699 123.9511)" class="st5" width="0" height="2.89"/>
		
			<rect x="195.14" y="218.84" transform="matrix(0.7071 -0.7071 0.7071 0.7071 -98.2887 204.4251)" class="st8" width="4.96" height="4.04"/>
		
			<rect x="232.77" y="191.61" transform="matrix(0.7071 -0.7071 0.7071 0.7071 -68.0144 223.062)" class="st8" width="4.96" height="4.04"/>
		
			<rect x="240.09" y="243.02" transform="matrix(-0.7071 0.7071 -0.7071 -0.7071 644.8464 255.1609)" class="st2" width="58.98" height="36.22"/>
		<g>
			<polygon class="st8" points="161.39,194.65 161.09,194.35 163.89,197.15 163.55,196.81 			"/>
			<polygon class="st8" points="202.6,152.45 202.6,152.45 203.1,152.95 			"/>
			<polygon class="st8" points="209.31,159.16 205.25,155.1 206.19,156.04 			"/>
			<polygon class="st7" points="164.49,197.75 165.76,199.03 163.89,197.15 			"/>
		</g>
		<g>
			
				<rect x="249.29" y="240.16" transform="matrix(0.7071 -0.7071 0.7071 0.7071 -95.4833 252.0493)" class="st3" width="14.45" height="2.26"/>
			
				<rect x="244.65" y="245.81" transform="matrix(0.7071 -0.7071 0.7071 0.7071 -102.0673 247.4537)" class="st3" width="6.04" height="2.26"/>
			
				<rect x="259.14" y="231.32" transform="matrix(0.7071 -0.7071 0.7071 0.7071 -87.5781 253.4553)" class="st3" width="6.04" height="2.26"/>
			
				<rect x="262.26" y="226.52" transform="matrix(0.7071 -0.7071 0.7071 0.7071 -83.7119 253.1882)" class="st3" width="3.02" height="2.26"/>
			
				<rect x="241.36" y="247.42" transform="matrix(0.7071 -0.7071 0.7071 0.7071 -104.6123 244.531)" class="st3" width="3.02" height="2.26"/>
		</g>
		
			<rect x="227.59" y="247.2" transform="matrix(-0.7071 0.7071 -0.7071 -0.7071 614.6695 242.6612)" class="st1" width="58.98" height="2.86"/>
		
			<rect x="248.45" y="242.9" transform="matrix(-0.7071 0.7071 -0.7071 -0.7071 624.2813 231.5639)" class="st1" width="31.47" height="4.34"/>
		
			<rect x="256.15" y="244.46" transform="matrix(-0.7071 0.7071 -0.7071 -0.7071 627.9699 233.1433)" class="st1" width="19.09" height="4.34"/>
		
			<rect x="276.15" y="228.11" transform="matrix(-0.7071 0.7071 -0.7071 -0.7071 637.2833 196.5986)" class="st2" width="3.55" height="4.34"/>
		
			<rect x="235.15" y="262.81" transform="matrix(-0.7071 0.7071 -0.7071 -0.7071 602.4427 280.7112)" class="st2" width="15.87" height="4.63"/>
		
			<rect x="157.98" y="182.98" transform="matrix(-0.7071 0.7071 -0.7071 -0.7071 403.1241 201.8181)" class="st8" width="3.57" height="2.84"/>
		
			<rect x="200.04" y="154.7" transform="matrix(-0.7071 0.7071 -0.7071 -0.7071 454.7147 123.729)" class="st8" width="3.38" height="2.68"/>
		
			<rect x="111.55" y="140.59" transform="matrix(-0.7071 0.7071 -0.7071 -0.7071 301.1345 160.0175)" class="st7" width="11.76" height="3.58"/>
		
			<rect x="168.46" y="131.55" transform="matrix(0.7071 -0.7071 0.7071 0.7071 -44.0995 159.123)" class="st0" width="3.13" height="2.48"/>
		
			<rect x="149.27" y="154.27" transform="matrix(0.7071 -0.7071 0.7071 0.7071 -65.7818 152.2059)" class="st0" width="3.13" height="2.48"/>
		
			<rect x="129.74" y="155.01" transform="matrix(0.7071 -0.7071 0.7071 0.7071 -72.0287 138.6091)" class="st0" width="3.13" height="2.48"/>
	</g>
	
		<rect x="266.15" y="140.73" transform="matrix(-1 -4.501833e-11 4.501833e-11 -1 538.2845 287.4371)" class="st7" width="5.98" height="5.98"/>
	<g>
		<polygon class="st1" points="118.28,367.62 152.32,347.96 130.17,330.7 121.95,330.43 		"/>
		
			<rect x="92.26" y="182.72" transform="matrix(0.7071 -0.7071 0.7071 0.7071 -102.72 120.558)" class="st0" width="3.82" height="3.11"/>
		
			<rect x="156.98" y="246.02" transform="matrix(0.7071 -0.7071 0.7071 0.7071 -128.689 185.4014)" class="st8" width="4.96" height="4.04"/>
		
			<rect x="175.24" y="260.69" transform="matrix(0.7071 -0.7071 0.7071 0.7071 -136.7659 226.2542)" class="st1" width="58.98" height="35.05"/>
		<polygon class="st9" points="167.47,282.66 201.99,248.14 201.99,248.14 209.17,240.95 215.23,247.01 201.74,260.51 
			203.72,262.48 189.65,276.54 187.68,274.57 188.58,273.66 190.56,275.64 184.21,281.99 182.23,280.01 180.71,281.54 
			179.09,279.92 171.91,287.1 		"/>
		
			<rect x="153.3" y="248.02" transform="matrix(-0.7071 0.7071 -0.7071 -0.7071 493.267 308.2457)" class="st8" width="58.98" height="16.52"/>
		
			<rect x="175.82" y="260.6" transform="matrix(-0.7071 0.7071 -0.7071 -0.7071 507.3237 319.1859)" class="st8" width="23.47" height="8.13"/>
		
			<rect x="184.8" y="264.53" transform="matrix(-0.7071 0.7071 -0.7071 -0.7071 515.8071 320.5352)" class="st8" width="13.44" height="5.14"/>
		<polygon class="st7" points="77.56,181.69 78.37,182.5 109.01,151.86 108.2,151.05 113.73,145.51 114.54,146.33 116.27,148.05 
			120.08,151.86 108.83,163.11 112.73,167.01 108.95,170.8 110.58,172.43 98.58,184.43 96.95,182.8 93.07,186.67 89.17,182.77 
			78.38,193.57 74.56,189.76 72.84,188.03 72.03,187.22 		"/>
		<polygon class="st7" points="182.59,225.74 185.59,228.73 191.27,223.05 201.47,233.26 188.5,246.23 191.63,249.36 186.05,254.94 
			188.79,257.68 181.39,265.07 175.52,259.21 171.78,262.95 168.79,259.95 164.62,264.12 168.69,268.19 164.54,272.34 
			167.94,275.73 164.24,279.43 156.77,271.96 146.57,261.76 		"/>
		
			<rect x="80.87" y="168.58" transform="matrix(0.7071 -0.7071 0.7071 0.7071 -96.5364 106.9822)" class="st5" width="0" height="2.89"/>
		<polygon class="st13" points="97.35,135.32 93.45,139.22 94.49,140.26 94.47,140.28 95.85,141.65 90.6,146.9 91.17,147.46 
			91.15,147.48 93.2,149.52 90.11,152.61 87.24,155.47 82.3,160.42 74.5,168.22 71.88,165.61 66.58,170.91 64.17,168.5 
			60.27,172.41 58.74,173.94 38.93,154.12 80.63,112.42 100.45,132.23 		"/>
		<polygon class="st6" points="60.05,164.38 61.6,165.93 66.9,160.63 69.35,163.08 88.05,144.38 85.61,141.91 90.86,136.66 
			89.33,135.1 96.32,128.1 107.84,139.62 104.19,143.27 101.78,145.68 96.38,151.08 98.07,152.77 95.69,155.15 97.99,157.46 
			82.38,173.07 80.08,170.76 80.08,170.76 77.61,173.23 75.92,171.54 68.59,178.86 66.13,181.33 54.62,169.81 		"/>
		<polygon class="st8" points="81.39,175.58 83.95,173.02 85.3,174.37 87.92,171.76 90.66,174.5 100.83,164.33 100.85,164.31 
			98.11,161.57 100.7,158.98 99.35,157.62 101.89,155.07 101.9,155.06 99.93,153.09 110.62,142.4 115.29,147.07 102.02,160.3 
			104.77,163.04 103.6,164.21 102.16,165.65 101.31,166.5 103.4,168.59 102.23,169.76 94.94,177.05 92.85,174.96 91.98,175.83 
			90.25,177.56 89.37,178.44 86.63,175.69 73.58,188.78 68.87,184.07 79.38,173.56 		"/>
		<polygon class="st7" points="126.95,182.25 138.71,170.49 142.47,174.25 138.95,177.77 141.74,180.56 134.01,188.29 
			137.35,191.63 133.56,195.41 135.77,197.62 123.77,209.62 121.56,207.41 117.69,211.29 114.35,207.95 107.07,215.23 
			104.28,212.44 100.76,215.95 97,212.2 		"/>
		<polygon class="st9" points="75.25,170.87 77.23,172.85 79.7,170.38 81.74,172.43 82.39,173.08 98,157.47 95.31,154.77 
			97.69,152.39 95.71,150.41 107.17,138.95 111.24,143.02 100.55,153.71 100.54,153.72 102.51,155.69 99.96,158.24 101.32,159.59 
			98.73,162.19 98.71,162.2 101.45,164.94 91.27,175.12 88.53,172.38 85.92,174.99 84.57,173.64 82.01,176.19 79.99,174.18 
			69.49,184.68 65.46,180.66 		"/>
		<path class="st10" d="M80.13,195.33l9.9,9.9l3.26,3.26l4.04,4.04l6.86-6.86l1.42,1.42l5.32-5.32l1.43,1.43l2.49-2.49l2.48,2.48
			l12-12l-2.48-2.48l2.49-2.49l-1.43-1.43l5.72-5.72l-1.42-1.42l6.82-6.82l-4.04-4.04l-3.26-3.26l-9.9-9.9l-9.89,9.89l2.73,2.73
			l-2.65,2.65l2.04,2.04l-2.49,2.49l1.91,1.91l-12,12l-1.91-1.91l-2.49,2.49l-2.04-2.04l-2.65,2.65l-2.73-2.73L80.13,195.33z"/>
		<polygon class="st0" points="147.31,239.35 151.19,243.23 153.76,240.66 152.94,239.84 173.68,219.1 177.82,223.23 184.64,216.42 
			192.32,224.1 183.53,232.89 187.75,237.11 172.95,251.91 168.73,247.7 164.76,251.66 161.31,248.21 147.16,262.36 142.37,257.56 
			139.61,254.81 135.73,250.93 		"/>
		<polygon class="st8" points="89.17,182.77 91.32,184.92 93.03,183.21 93.09,183.27 95.25,181.11 98.58,184.43 110.58,172.43 
			107.88,169.73 110.01,167.59 109.33,166.91 110.44,165.81 108.28,163.65 120.08,151.86 123.96,155.74 117.16,162.54 
			118.78,164.15 113.04,169.9 115.08,171.95 112.59,174.44 114.09,175.94 102.09,187.94 100.59,186.44 98.09,188.93 96.05,186.89 
			90.81,192.13 89.19,190.51 82.25,197.45 78.37,193.56 		"/>
		<polygon class="st7" points="259.38,125.82 256.24,128.97 253.17,125.9 249.17,129.9 246.7,127.43 232.29,141.84 228.99,138.54 
			208.84,158.69 217.68,167.53 214.53,170.67 211.47,167.6 207.47,171.61 205,169.14 190.59,183.55 187.28,180.24 167.13,200.39 
			175.97,209.24 173.57,211.64 170.51,208.58 166.5,212.58 164.03,210.11 149.62,224.52 146.32,221.21 126.17,241.37 135.78,250.98 
			135.78,250.98 140.63,255.82 146.04,250.41 141.2,245.56 147.36,239.4 151.19,243.23 160.46,233.95 162.41,235.9 166.85,231.45 
			169.48,234.08 185.89,217.67 182.33,214.12 187.01,209.44 182.16,204.59 188.32,198.43 192.15,202.26 201.43,192.98 
			203.37,194.93 207.81,190.48 210.44,193.11 226.85,176.7 225.6,175.45 223.3,173.15 228.71,167.74 223.86,162.89 230.03,156.73 
			233.86,160.55 243.13,151.28 245.08,153.22 249.52,148.78 252.14,151.4 264.71,131.15 		"/>
		
			<rect x="154.17" y="259.8" transform="matrix(0.7071 -0.7071 0.7071 0.7071 -139.2552 187.4562)" class="st8" width="4.96" height="4.04"/>
		
			<rect x="191.81" y="232.58" transform="matrix(0.7071 -0.7071 0.7071 0.7071 -108.981 206.0931)" class="st8" width="4.96" height="4.04"/>
		<polygon class="st0" points="81.36,185.49 82.97,187.1 88.23,181.83 89.45,183.05 91.16,181.34 92.15,182.33 95.29,179.19 
			97.52,181.42 107.6,171.34 105.37,169.11 107.99,166.49 107.01,165.5 108.57,163.94 107.35,162.72 113.61,156.45 112.01,154.85 
			117.54,149.32 119.14,150.92 120.08,151.86 120.57,152.39 113.78,159.19 115.46,160.83 109.71,166.58 110.87,167.74 
			108.38,170.23 110.76,172.61 98.76,184.61 96.38,182.23 93.88,184.72 92.73,183.57 87.48,188.81 85.82,187.14 78.88,194.08 
			78.37,193.56 77.43,192.63 75.83,191.03 		"/>
		
			<rect x="199.12" y="283.99" transform="matrix(-0.7071 0.7071 -0.7071 -0.7071 603.8798 354.063)" class="st2" width="58.98" height="36.22"/>
		<g>
			
				<rect x="208.32" y="281.12" transform="matrix(0.7071 -0.7071 0.7071 0.7071 -136.4499 235.0804)" class="st3" width="14.45" height="2.26"/>
			
				<rect x="203.68" y="286.77" transform="matrix(0.7071 -0.7071 0.7071 0.7071 -143.0339 230.4848)" class="st3" width="6.04" height="2.26"/>
			
				<rect x="218.17" y="272.28" transform="matrix(0.7071 -0.7071 0.7071 0.7071 -128.5447 236.4864)" class="st3" width="6.04" height="2.26"/>
			
				<rect x="221.29" y="267.48" transform="matrix(0.7071 -0.7071 0.7071 0.7071 -124.6785 236.2193)" class="st3" width="3.02" height="2.26"/>
			
				<rect x="200.39" y="288.38" transform="matrix(0.7071 -0.7071 0.7071 0.7071 -145.5788 227.5621)" class="st3" width="3.02" height="2.26"/>
		</g>
		
			<rect x="186.62" y="288.17" transform="matrix(-0.7071 0.7071 -0.7071 -0.7071 573.7029 341.5633)" class="st1" width="58.98" height="2.86"/>
		
			<rect x="207.48" y="283.87" transform="matrix(-0.7071 0.7071 -0.7071 -0.7071 583.3147 330.466)" class="st1" width="31.47" height="4.34"/>
		
			<rect x="215.19" y="285.42" transform="matrix(-0.7071 0.7071 -0.7071 -0.7071 587.0034 332.0454)" class="st1" width="19.09" height="4.34"/>
		
			<rect x="119.19" y="361.93" transform="matrix(-0.866 0.5 -0.5 -0.866 415.844 620.3965)" class="st1" width="11.22" height="7.95"/>
		
			<rect x="235.18" y="269.08" transform="matrix(-0.7071 0.7071 -0.7071 -0.7071 596.3167 295.5007)" class="st2" width="3.55" height="4.34"/>
		
			<rect x="194.18" y="303.78" transform="matrix(-0.7071 0.7071 -0.7071 -0.7071 561.4761 379.6133)" class="st2" width="15.87" height="4.63"/>
		
			<rect x="117.01" y="223.95" transform="matrix(-0.7071 0.7071 -0.7071 -0.7071 362.1574 300.7202)" class="st8" width="3.57" height="2.84"/>
		
			<rect x="159.08" y="195.66" transform="matrix(-0.7071 0.7071 -0.7071 -0.7071 413.7481 222.6311)" class="st8" width="3.38" height="2.68"/>
		
			<rect x="103.86" y="148.21" transform="matrix(-0.7071 0.7071 -0.7071 -0.7071 293.5122 178.4194)" class="st7" width="11.9" height="3.58"/>
		<g>
			<polygon class="st0" points="113.29,221.48 116.65,218.13 118.62,220.09 121.54,217.17 123.8,219.43 128.31,214.92 
				129.56,216.16 142.93,202.78 141.69,201.54 145.98,197.24 143.73,194.99 146.65,192.06 144.68,190.1 147.58,187.2 145.46,185.09 
				149.39,181.17 149.1,180.88 148.36,181.62 107.39,222.58 107.68,222.87 111.18,219.37 			"/>
		</g>
		
			<rect x="118.91" y="199.81" transform="matrix(-0.7071 0.7071 -0.7071 -0.7071 361.6984 253.3767)" class="st7" width="18.92" height="3.58"/>
		
			<rect x="70.58" y="181.55" transform="matrix(-0.7071 0.7071 -0.7071 -0.7071 260.1679 258.9196)" class="st7" width="11.76" height="3.58"/>
		
			<rect x="127.5" y="172.52" transform="matrix(0.7071 -0.7071 0.7071 0.7071 -85.0661 142.1541)" class="st0" width="3.13" height="2.48"/>
		
			<rect x="108.31" y="195.23" transform="matrix(0.7071 -0.7071 0.7071 0.7071 -106.7484 135.2369)" class="st0" width="3.13" height="2.48"/>
		
			<rect x="88.77" y="195.98" transform="matrix(0.7071 -0.7071 0.7071 0.7071 -112.9952 121.6402)" class="st0" width="3.13" height="2.48"/>
	</g>
	<g>
		
			<rect x="348.61" y="80.44" transform="matrix(0.2209 -0.9753 0.9753 0.2209 192.7483 405.3971)" class="st3" width="3.02" height="3.23"/>
		<g>
			
				<rect x="147.94" y="45.71" transform="matrix(-0.2209 0.9753 -0.9753 -0.2209 273.181 -98.5621)" class="st13" width="56.03" height="28.24"/>
			<polygon class="st6" points="179.88,89.44 192.25,34.8 196.38,35.73 192.73,51.84 198.91,53.24 193.12,78.81 186.94,77.41 
				184.01,90.38 			"/>
			<polygon class="st7" points="184.24,77.26 186.87,77.86 187.13,76.72 188.39,77.01 188.91,74.69 191.55,75.28 191.81,74.12 
				193.11,74.41 195.44,61.83 196.23,60.61 194.94,60.31 195.2,59.15 193.54,57.98 193.87,52.82 192.57,52.53 192.83,51.39 
				190.23,50.8 193.77,35.14 198.39,36.19 195.45,49.18 198.06,49.77 197.7,51.33 198.99,51.62 197.82,56.83 201.74,57.72 
				197.46,76.62 196.17,76.33 195.57,78.98 192.93,78.38 192.75,79.19 192.77,79.19 189.92,91.75 181.39,89.81 			"/>
			<polygon class="st8" points="188.13,78.14 192.06,79.03 192.84,75.58 196.92,76.5 197.03,76.03 200.95,60.39 197.74,59.75 
				198.3,57.27 195.83,56.71 196.87,52.14 194.16,51.53 197.67,36.03 200.38,36.64 206.2,37.96 208.53,38.48 205.59,51.45 
				208.44,52.1 207.54,56.06 209.77,56.57 204.95,77.82 202.73,77.32 201.62,82.18 196.45,81.01 193.82,92.63 185.29,90.7 			"/>
			<polygon class="st7" points="194.51,79.55 198.61,80.48 198.88,79.28 200.22,79.58 200.7,77.47 202.07,77.78 202.61,75.41 
				203.98,75.72 207.61,59.68 206.24,59.37 206.52,58.11 204.02,57.55 205.05,52.97 203.69,52.66 203.95,51.5 201.02,50.83 
				204.04,37.47 212.91,39.48 210.4,50.57 213.58,51.29 211.77,59.3 211.43,59.23 207.51,76.52 207.85,76.59 206.04,84.6 
				204.66,84.29 204.12,86.67 199.74,85.68 197.95,93.54 191.67,92.11 			"/>
			<polygon class="st10" points="195.77,93.04 198.09,82.8 202.04,83.7 203.32,78.06 206.04,78.68 211.29,55.51 208.57,54.89 
				209.37,51.34 205.42,50.44 208.14,38.4 212.1,39.29 216.05,40.19 222.53,41.66 211.43,90.67 204.95,89.2 203.68,94.83 			"/>
			<polygon class="st10" points="210.34,96.31 202.45,94.53 205,83.3 207.64,83.89 208.19,81.46 210.79,82.05 211.57,78.6 
				213.71,79.2 219.16,55.17 217.01,54.57 217.54,52.23 214.94,51.64 215.48,49.28 212.84,48.68 214.83,39.91 232.24,43.85 
				232.23,43.88 241.42,45.96 229.04,100.58 210.33,96.34 			"/>
			<polygon class="st0" points="225.07,91.69 230.81,88.37 230.17,88.13 230.94,84.7 227.01,83.81 232.35,60.2 236.29,61.09 
				237.01,57.92 238.09,58.16 240.85,45.97 248.17,47.62 235.8,102.24 			"/>
			<polygon class="st8" points="238.01,90.66 235.37,90.06 235.91,87.67 231.94,86.77 232.71,83.39 231.35,83.08 231.88,80.72 
				230.58,80.43 231.1,78.13 229.76,77.83 232.35,66.39 233.69,66.69 234.22,64.39 235.52,64.68 236.03,62.43 237.39,62.74 
				238.16,59.34 242.12,60.24 242.93,56.68 245.57,57.28 247.81,47.38 251.44,48.2 239.07,102.82 235.44,102.43 			"/>
			<g>
				<polygon class="st10" points="219.6,80.54 228.68,82.6 227.36,89.42 216.86,92.64 				"/>
				
					<rect x="228.64" y="55.86" transform="matrix(0.2209 -0.9753 0.9753 0.2209 124.3245 271.6474)" class="st10" width="7.1" height="4.3"/>
			</g>
			<polygon class="st0" points="240.64,91.04 238.96,90.66 239.39,88.74 237.26,88.25 237.83,85.73 235.89,85.29 236.4,83.04 
				233.85,82.46 238.02,64.05 240.57,64.62 241.06,62.43 243,62.87 243.59,60.27 245.73,60.75 246.17,58.81 247.86,59.19 
				250.4,47.97 257,49.46 254.46,60.69 247.25,92.54 244.62,104.13 238.02,106.01 			"/>
			<polygon class="st7" points="246.35,90.14 243.89,89.59 250.15,61.96 252.61,62.52 255.64,49.15 267.53,51.85 255.15,106.52 
				243.25,103.83 			"/>
			<path class="st1" d="M314.98,115.95l-0.88,3.87l43.03,9.75l1.39-6.12l4.08,0.92l2.44-10.77l4.08,0.92l4.8-21.2l-4.08-0.92
				l2.4-10.59l-4.08-0.92l4.02-23.64l-47.13-0.5l0.55,12.32l4.03,0.91l-0.97,4.27l4.03,0.91l-2.41,10.66l4.2,0.95l-3.64,16.08
				l-4.2-0.95l-0.57,2.52l-4.03-0.91l-3.03,13.37L314.98,115.95z M341.64,111.99l0.67-2.95l3.15,0.71l1.34-5.89l3.15,0.71
				l3.19-14.09l-3.15-0.71l1.34-5.89l-3.15-0.71l0.67-2.95l3.15,0.71l-0.67,2.95l3.15,0.71l-1.34,5.89l3.15,0.71l-3.19,14.09
				l-3.15-0.71l-1.34,5.89l-3.15-0.71l-0.67,2.95L341.64,111.99z"/>
			<polygon class="st8" points="258.27,92.73 254.43,91.86 256,84.94 252.04,84.05 255.14,70.37 259.1,71.26 259.86,67.88 
				263.7,68.75 267.53,51.85 275.99,53.77 263.62,108.38 255.16,106.47 			"/>
			
				<rect x="345.88" y="96.27" transform="matrix(0.2209 -0.9753 0.9753 0.2209 179.639 420.6421)" class="st3" width="14.44" height="3.23"/>
			
				<rect x="344.68" y="105.55" transform="matrix(0.2209 -0.9753 0.9753 0.2209 166.376 422.5954)" class="st3" width="6.04" height="3.23"/>
			
				<rect x="349.24" y="85.57" transform="matrix(0.2209 -0.9753 0.9753 0.2209 189.4126 411.4881)" class="st3" width="6.04" height="3.23"/>
			<polygon class="st9" points="265.29,98.1 261.41,97.22 263.79,86.73 259.83,85.83 262.92,72.2 266.88,73.1 267.69,69.51 
				271.57,70.39 273.11,53.16 282.66,55.28 270.28,109.95 262.98,108.29 			"/>
			
				<rect x="342.04" y="109.26" transform="matrix(0.2209 -0.9753 0.9753 0.2209 159.5283 421.4396)" class="st3" width="3.02" height="3.23"/>
			<polygon class="st8" points="271.36,110.19 283.75,55.52 275.99,54.07 275.46,71.96 267.02,109.21 			"/>
			<polygon class="st0" points="273.21,99.95 269.3,99.06 270.39,94.26 266.37,93.35 271.3,71.58 275.32,72.49 276.33,68 
				280.24,68.89 280.74,57.29 284.87,57.29 285.61,70.1 278.57,101.16 276.28,111.31 270.91,110.09 			"/>
			<polygon class="st7" points="274.86,110.98 278.51,94.87 273.11,93.65 278.25,70.94 283.65,72.16 284.96,56.87 289.02,56.89 
				295.53,74.85 297.08,75.2 291.94,97.92 290.38,97.56 286.73,113.67 			"/>
			<polygon class="st8" points="281.89,98.31 285.73,99.17 287.31,92.18 290.4,92.88 293.52,79.14 290.42,78.44 291.96,71.65 
				288.12,70.79 289.02,56.89 312.1,56.02 309.05,75.53 308.06,75.3 306.67,81.46 309.76,82.16 306.31,97.39 303.22,96.69 
				301.83,102.82 302.82,103.05 299.75,116.62 278.82,111.88 			"/>
			<polygon class="st9" points="292.22,107.84 296.23,108.75 297.02,105.26 300.74,106.1 308.58,71.48 304.87,70.63 305.62,67.31 
				301.56,66.39 301.18,56.89 313.49,53.47 321.4,53.84 319.71,71.72 321.01,72.01 319.98,76.57 322.59,77.17 321.18,83.4 
				325.18,84.31 321.29,101.49 317.29,100.59 315.88,106.83 313.26,106.24 311.77,112.79 308.08,111.96 306.48,118.34 290.5,114.72 
							"/>
			
				<rect x="278.05" y="71" transform="matrix(-0.2209 0.9753 -0.9753 -0.2209 411.7065 -183.9666)" class="st0" width="2.57" height="2.92"/>
			
				<rect x="273.53" y="91.27" transform="matrix(-0.2209 0.9753 -0.9753 -0.2209 425.962 -154.8085)" class="st0" width="2.57" height="2.92"/>
			
				<rect x="222.35" y="70.85" transform="matrix(-0.2209 0.9753 -0.9753 -0.2209 350.296 -135.9109)" class="st0" width="14.17" height="2.21"/>
			
				<rect x="183.42" y="40.56" transform="matrix(-0.2209 0.9753 -0.9753 -0.2209 273.0768 -134.9563)" class="st6" width="14.05" height="2.07"/>
			
				<rect x="174.14" y="81.52" transform="matrix(-0.2209 0.9753 -0.9753 -0.2209 301.7013 -75.892)" class="st6" width="14.05" height="2.07"/>
			
				<rect x="176.83" y="63.47" transform="matrix(-0.2209 0.9753 -0.9753 -0.2209 290.0628 -102.6446)" class="st13" width="18.4" height="2.12"/>
			<polygon class="st4" points="310.53,112.5 312.1,105.57 316.13,106.49 317.57,100.11 320.29,100.73 323.94,84.61 321.22,83.99 
				322.62,77.84 318.58,76.93 320.16,69.98 317.44,69.36 317.25,57.06 325.42,57.1 326.06,68.33 330.1,69.24 328.96,74.28 
				332.99,75.19 330.58,85.84 334.78,86.8 331.02,103.38 326.82,102.43 324.37,113.23 320.34,112.32 319.1,117.8 315.07,116.88 
				314.38,119.91 306.4,118.1 307.81,111.87 			"/>
		</g>
	</g>
	<rect x="80.82" y="132.54" class="st5" width="0" height="3.86"/>
	<polygon class="st13" points="120.38,108.19 114.52,108.19 114.52,109.75 114.5,109.75 114.5,111.81 106.63,111.81 106.63,112.66 
		106.6,112.66 106.6,115.73 101.97,115.73 97.67,115.73 90.26,115.73 78.54,115.73 78.54,111.81 70.58,111.81 70.58,108.19 
		64.73,108.19 62.43,108.19 62.43,78.45 125.02,78.45 125.02,107.41 	"/>
	<rect x="79.53" y="146.62" class="st8" width="2.5" height="0"/>
	<rect x="101.22" y="142.78" class="st9" width="0.03" height="5.18"/>
	<rect x="108.97" y="136.49" class="st9" width="0.01" height="3.73"/>
	<rect x="105.12" y="244.7" class="st11" width="7.52" height="0.03"/>
	<rect x="66.54" y="198.16" class="st0" width="7.51" height="0.07"/>
	<polygon class="st0" points="99.34,190.65 87,190.65 81.72,190.65 81.72,190.57 104.87,190.57 100.86,190.65 	"/>
	<polygon class="st0" points="74.1,194.52 74.1,194.38 81.68,194.38 81.68,194.48 	"/>
	<polygon class="st11" points="66.54,233.05 66.57,236.97 66.54,236.97 	"/>
	<polygon class="st11" points="70.27,237.05 70.29,237.05 70.27,240.62 70.27,240.62 	"/>
	<polygon class="st12" points="120.63,236.97 120.37,236.97 120.37,232.97 125.02,232.97 125.02,233 120.63,233 	"/>
	<rect x="66.57" y="236.97" class="st12" width="3.7" height="0.08"/>
	<polygon class="st12" points="112.9,240.78 112.9,244.7 112.64,244.7 112.64,240.62 116.53,240.62 116.53,236.97 116.7,236.97 
		116.7,240.78 	"/>
	<rect x="62.43" y="232.97" class="st12" width="4.1" height="0.08"/>
	<polygon class="st12" points="81.92,248.51 81.92,244.73 82,244.73 82,248.38 104.8,248.38 104.8,244.73 105.12,244.73 
		105.12,248.51 	"/>
	<rect x="70.27" y="240.62" class="st12" width="4" height="0.18"/>
	<rect x="102.64" y="210.59" class="st7" width="6.89" height="6.89"/>
	<rect x="81.91" y="221.18" class="st7" width="3.32" height="3.32"/>
	<rect x="125.07" y="251.25" class="st10" width="3.32" height="6.88"/>
	<rect x="87.06" y="202.79" class="st7" width="3.32" height="3.32"/>
	<rect x="113.01" y="170.03" class="st0" width="3.32" height="3.32"/>
	<rect x="68.9" y="170.03" class="st0" width="3.32" height="3.32"/>
	<rect x="120.82" y="163.84" class="st0" width="4.2" height="3.32"/>
	<rect x="81.92" y="260.06" class="st0" width="23" height="3.86"/>
	<polygon class="st7" points="96.24,323.27 96.24,318.07 89.44,318.07 89.44,323.27 81.67,323.27 81.67,314.16 85.57,314.16 
		85.57,310.28 85.57,310.19 85.57,310.12 101.08,310.12 101.08,310.28 101.09,310.28 101.09,314.16 104.99,314.16 104.99,314.16 
		105.15,314.16 105.15,323.27 	"/>
	<rect x="77.76" y="322.04" class="st7" width="0.01" height="4.97"/>
	<rect x="77.76" y="314.16" class="st7" width="0.01" height="3.91"/>
	<rect x="74.02" y="318.07" class="st7" width="0.01" height="3.97"/>
	<polygon class="st8" points="77.76,318.07 77.78,318.07 77.78,314.16 81.67,314.16 81.67,323.27 89.44,323.27 89.44,318.07 
		96.24,318.07 96.24,323.27 105.15,323.27 105.15,314.16 108.9,314.16 108.9,318.07 112.64,318.07 112.64,322.04 108.9,322.04 
		108.9,327.02 105.79,327.02 105.15,327.02 104.99,327.02 101.08,327.02 99.8,327.02 95.89,327.02 94.67,327.02 91.99,327.02 
		90.77,327.02 86.86,327.02 85.57,327.02 81.67,327.02 81.45,327.02 77.78,327.02 77.78,322.04 77.76,322.04 74.04,322.04 
		74.04,318.07 	"/>
	<rect x="101.09" y="310.28" class="st8" width="3.9" height="3.88"/>
	<polygon class="st8" points="104.99,310.28 101.09,310.28 101.09,310.19 104.99,310.19 104.99,314.16 104.99,314.16 	"/>
	<rect x="81.67" y="310.28" class="st8" width="3.91" height="3.88"/>
	<rect x="81.67" y="310.19" class="st8" width="3.91" height="0.1"/>
	<polygon class="st8" points="85.57,306.38 91.99,306.38 94.67,306.38 101.08,306.38 101.08,310.12 85.57,310.12 	"/>
	<rect x="101.08" y="306.38" class="st8" width="0.01" height="3.74"/>
	<rect x="105.66" y="280.6" class="st7" width="5.37" height="5.37"/>
	<rect x="73.81" y="271.91" class="st7" width="4.51" height="4.51"/>
	<rect x="87.69" y="364.18" class="st3" width="15.33" height="3.02"/>
	<rect x="81.27" y="361.17" class="st3" width="6.41" height="3.01"/>
	<rect x="103.02" y="361.17" class="st3" width="6.41" height="3.01"/>
	<rect x="109.43" y="358.15" class="st3" width="3.21" height="3.02"/>
	<rect x="78.07" y="358.15" class="st3" width="3.21" height="3.02"/>
	<polygon class="st10" points="112.65,194.48 112.65,198.23 120.33,198.23 120.33,200.67 112.43,200.67 104.75,200.67 
		104.75,195.67 81.59,195.67 81.59,200.65 74.05,200.69 74.05,200.67 66.54,200.67 66.51,200.67 66.51,198.23 66.54,198.23 
		74.05,198.23 74.05,198.16 74.05,194.52 74.1,194.52 81.68,194.48 81.68,194.38 81.68,190.65 81.72,190.65 87,190.65 99.34,190.65 
		100.86,190.65 104.87,190.57 104.87,194.41 	"/>
	<rect x="18.24" y="132.54" class="st5" width="0" height="3.86"/>
	<polygon class="st13" points="57.79,108.19 51.94,108.19 51.94,109.75 51.91,109.75 51.91,111.81 44.04,111.81 44.04,112.66 
		44.02,112.66 44.02,115.73 39.38,115.73 35.09,115.73 27.67,115.73 15.96,115.73 15.96,111.81 8,111.81 8,108.19 2.14,108.19 
		-0.15,108.19 -0.15,78.45 62.43,78.45 62.43,108.19 	"/>
	<polygon class="st6" points="8,108.19 8,111.81 15.96,111.81 15.96,115.73 27.67,115.73 35.09,115.73 39.38,115.73 44.02,115.73 
		44.02,112.66 44.04,112.66 44.04,111.81 51.91,111.81 51.91,109.75 51.94,109.75 51.94,108.19 57.79,108.19 62.43,108.19 
		62.43,128.59 56.95,128.59 53.34,128.59 45.24,128.59 45.24,132.54 41.66,132.54 41.66,136.41 29.95,136.41 18.24,136.41 
		18.24,132.54 18.24,132.54 14.53,132.54 14.53,128.59 3.54,128.59 -0.15,128.59 -0.15,108.19 2.14,108.19 	"/>
	<polygon class="st0" points="108.97,154.41 108.97,156.88 102.46,156.88 102.46,160.83 84.45,160.83 84.45,156.88 77.89,156.88 
		77.89,154.41 62.43,154.41 46.38,154.41 46.38,156.88 39.87,156.88 39.87,160.83 21.86,160.83 21.86,156.88 15.3,156.88 
		15.3,154.41 -0.15,154.41 -0.15,160.83 14.15,160.83 14.15,164.82 18.12,164.82 18.12,168.68 21.86,168.68 21.86,172.3 
		39.87,172.3 39.87,168.68 43.61,168.68 43.61,164.82 47.59,164.82 47.59,160.83 62.43,160.83 76.74,160.83 76.74,164.82 
		80.71,164.82 80.71,168.68 84.45,168.68 84.45,172.3 102.46,172.3 102.46,168.68 106.2,168.68 106.2,164.82 110.18,164.82 
		110.18,160.83 125.02,160.83 125.02,154.41 	"/>
	<polygon class="st7" points="107.38,143.94 107.38,146.62 105.14,146.62 105.14,150.47 103.39,150.47 101.22,150.47 99.95,150.47 
		99.95,154.41 98.2,154.41 87.26,154.41 87.26,150.47 85.96,150.47 83.35,150.47 82.04,150.47 82.04,146.62 79.53,146.62 
		79.53,146.62 79.53,143.94 62.43,143.94 44.79,143.94 44.79,146.62 42.56,146.62 42.56,150.47 40.8,150.47 38.64,150.47 
		37.36,150.47 37.36,154.41 35.61,154.41 24.67,154.41 24.67,150.47 23.37,150.47 20.77,150.47 19.45,150.47 19.45,146.62 
		16.95,146.62 16.95,146.62 16.95,143.94 -0.15,143.94 -0.15,154.41 15.3,154.41 15.3,156.88 21.86,156.88 21.86,160.83 
		39.87,160.83 39.87,156.88 46.38,156.88 46.38,154.41 62.43,154.41 77.89,154.41 77.89,156.88 84.45,156.88 84.45,160.83 
		102.46,160.83 102.46,156.88 108.97,156.88 108.97,154.41 125.02,154.41 125.02,143.94 	"/>
	<rect x="16.95" y="146.62" class="st8" width="2.5" height="0"/>
	<polygon class="st8" points="108.98,136.49 108.98,140.22 108.97,140.22 105.14,140.22 105.14,142.78 101.25,142.78 101.25,147.96 
		101.22,147.96 85.96,147.96 85.96,142.78 82.04,142.78 82.04,140.22 78.2,140.22 78.2,136.41 62.43,136.41 62.43,136.49 
		46.39,136.49 46.39,140.22 46.38,140.22 42.56,140.22 42.56,142.78 38.66,142.78 38.66,147.96 38.64,147.96 23.37,147.96 
		23.37,142.78 19.45,142.78 19.45,140.22 15.61,140.22 15.61,136.41 -0.15,136.41 -0.15,143.94 16.95,143.94 16.95,146.62 
		19.45,146.62 19.45,146.62 19.45,150.47 20.77,150.47 23.37,150.47 24.67,150.47 24.67,154.41 35.61,154.41 37.36,154.41 
		37.36,150.47 38.64,150.47 40.8,150.47 42.56,150.47 42.56,146.62 44.79,146.62 44.79,143.94 62.43,143.94 79.53,143.94 
		79.53,146.62 82.04,146.62 82.04,146.62 82.04,150.47 83.35,150.47 85.96,150.47 87.26,150.47 87.26,154.41 98.2,154.41 
		99.95,154.41 99.95,150.47 101.22,150.47 103.39,150.47 105.14,150.47 105.14,146.62 107.38,146.62 107.38,143.94 125.02,143.94 
		125.02,136.49 	"/>
	<rect x="38.64" y="142.78" class="st9" width="0.03" height="5.18"/>
	<rect x="46.38" y="136.49" class="st9" width="0.01" height="3.73"/>
	<polygon class="st7" points="114.09,190.57 114.09,186.65 109.08,186.65 109.08,182.81 101.19,182.81 101.19,180.07 85.68,180.07 
		85.68,182.76 80.71,182.78 76.74,182.78 76.74,186.65 72.77,186.65 72.77,190.57 62.43,190.57 51.5,190.57 51.5,186.65 
		46.49,186.65 46.49,182.81 38.6,182.81 38.6,180.07 23.1,180.07 23.1,182.76 18.12,182.78 14.15,182.78 14.15,186.65 10.19,186.65 
		10.19,190.57 -0.15,190.57 -0.15,201.97 3.95,201.97 3.95,200.67 3.92,200.67 3.92,198.23 3.95,198.23 3.95,198.16 11.46,198.16 
		11.46,194.52 11.52,194.52 11.52,194.38 19.09,194.38 19.09,190.65 19.14,190.65 19.14,190.57 42.28,190.57 42.33,190.57 
		42.33,194.38 50.11,194.38 50.11,198.16 57.79,198.16 57.79,201.97 62.43,201.97 66.54,201.97 66.54,200.67 66.51,200.67 
		66.51,198.23 66.54,198.23 66.54,198.16 74.05,198.16 74.05,194.52 74.1,194.52 74.1,194.38 81.68,194.38 81.68,190.65 
		81.72,190.65 81.72,190.57 104.87,190.57 104.91,190.57 104.91,194.38 112.7,194.38 112.7,198.16 120.37,198.16 120.37,201.97 
		125.02,201.97 125.02,190.57 	"/>
	<path class="st10" d="M125.02,163.84v-3.01h-14.85v3.99h-3.97v3.86h-3.74v3.62H84.45v-3.62h-3.74v-3.86h-3.97v-3.99h-14.3H47.59
		v3.99h-3.97v3.86h-3.74v3.62H21.86v-3.62h-3.74v-3.86h-3.97v-3.99h-14.3v2.9h1.98v3.32h-1.98v23.53h10.34v-3.93h3.96v-3.86h3.97
		l4.97-0.03v-2.69h15.5v2.74h7.89v3.84h5.01v3.93h10.94h10.34v-3.93h3.96v-3.86h3.97l4.98-0.03v-2.69h15.5v2.74h7.89v3.84h5.01v3.93
		h10.94v-23.42h-4.2v-3.32H125.02z M9.63,173.35H6.31v-3.32h3.32V173.35z M53.74,173.35h-3.32v-3.32h3.32V173.35z M64.41,167.05
		h-1.98v0.11h-4.2v-3.32h4.2v-0.11h1.98V167.05z M72.22,173.35H68.9v-3.32h3.32V173.35z M116.33,173.35h-3.32v-3.32h3.32V173.35z"/>
	<polygon class="st8" points="120.63,233 120.63,236.97 120.37,236.97 116.7,236.97 116.7,240.78 112.9,240.78 112.9,244.7 
		112.64,244.7 112.64,244.73 105.12,244.73 105.12,248.51 81.92,248.51 81.92,244.73 74.27,244.73 74.27,240.8 70.27,240.8 
		70.27,240.62 70.27,240.62 70.27,237.05 66.57,237.05 66.57,236.97 66.54,236.97 66.54,233.05 62.43,233.05 62.43,233 58.04,233 
		58.04,236.97 57.79,236.97 54.11,236.97 54.11,240.78 50.32,240.78 50.32,244.7 50.06,244.7 50.06,244.73 42.53,244.73 
		42.53,248.51 19.33,248.51 19.33,244.73 11.68,244.73 11.68,240.8 7.68,240.8 7.68,240.62 7.68,240.62 7.68,237.05 3.98,237.05 
		3.98,236.97 3.95,236.97 3.95,233.05 -0.15,233.05 -0.15,244.68 7.68,244.68 7.68,248.51 11.54,248.51 11.54,252.39 50.15,252.39 
		50.15,248.51 53.93,248.51 53.93,244.68 62.43,244.68 70.27,244.68 70.27,248.51 74.13,248.51 74.13,252.39 112.74,252.39 
		112.74,248.51 116.52,248.51 116.52,244.68 125.02,244.68 125.02,233 	"/>
	<rect x="42.53" y="244.7" class="st11" width="7.52" height="0.03"/>
	<g>
		<rect x="81.91" y="221.18" class="st5" width="3.32" height="3.32"/>
		<rect x="87.06" y="202.79" class="st5" width="3.32" height="3.32"/>
		<rect x="102.64" y="210.59" class="st5" width="6.89" height="6.89"/>
		<rect x="40.06" y="210.59" class="st5" width="6.89" height="6.89"/>
		<rect x="24.48" y="202.79" class="st5" width="3.32" height="3.32"/>
		<rect x="19.32" y="221.18" class="st5" width="3.32" height="3.32"/>
		<polygon class="st5" points="119.74,217.48 119.74,218.97 121.23,217.48 120.43,217.48 		"/>
		<path class="st0" d="M120.37,201.97v-3.81h-7.67v-3.78h-7.78v-3.8h-0.05v3.83l7.78,0.07v3.75h7.67v2.44h-7.89l-7.68,0v-5.01H81.59
			v4.98l-7.54,0.04v-0.02h-7.51v1.3h-4.1h-4.65v-3.81h-7.67v-3.78h-7.78v-3.8h-0.05v3.83l7.78,0.07v3.75h7.67v2.44h-7.89l-7.68,0
			v-5.01H19v4.98l-7.54,0.04v-0.02H3.95v1.3h-4.1v15.58h4v3.86h3.82v3.86h3.95v7.03v4.61h3.76v3.85h6.54v0.01h1.34v-3.95h3.87v-3.78
			h7.73v3.78h11.67v-3.89h7.59v-0.63v-7.1v-3.89h3.04v-3.84h0.69h3.74h0.86v0.07h4v3.86h3.82v3.86h3.95v7.03v4.61h3.76v3.85h6.54
			v0.01h1.34v-3.95h3.87v-3.78h7.73v3.78h11.67v-3.89h7.59v-0.63v-0.42v-6.68v-3.89h3.04v-2.35v-1.49h0.69h0.8l0.31-0.31l0.31,0.31
			h2.31h0.86v-15.51H120.37z M22.64,224.49h-3.32v-3.32h3.32V224.49z M27.8,206.1h-3.32v-3.32h3.32V206.1z M46.95,217.48h-6.89
			v-6.89h6.89V217.48z M85.23,224.49h-3.32v-3.32h3.32V224.49z M90.38,206.1h-3.32v-3.32h3.32V206.1z M102.64,210.59h6.89v6.89
			h-6.89V210.59z"/>
		<polygon class="st0" points="121.23,217.48 121.85,217.48 121.54,217.17 		"/>
	</g>
	<rect x="3.95" y="198.16" class="st0" width="7.51" height="0.07"/>
	<polygon class="st0" points="36.75,190.65 24.42,190.65 19.14,190.65 19.14,190.57 42.28,190.57 38.27,190.65 	"/>
	<polygon class="st0" points="11.52,194.52 11.52,194.38 19.09,194.38 19.09,194.48 	"/>
	<polygon class="st11" points="3.95,233.05 3.98,236.97 3.95,236.97 	"/>
	<polygon class="st11" points="7.68,237.05 7.71,237.05 7.68,240.62 7.68,240.62 	"/>
	<polygon class="st12" points="58.04,236.97 57.79,236.97 57.79,232.97 62.43,232.97 62.43,233 58.04,233 	"/>
	<rect x="3.98" y="236.97" class="st12" width="3.7" height="0.08"/>
	<polygon class="st12" points="50.32,240.78 50.32,244.7 50.06,244.7 50.06,240.62 53.95,240.62 53.95,236.97 54.11,236.97 
		54.11,240.78 	"/>
	<rect x="-0.15" y="232.97" class="st12" width="4.1" height="0.08"/>
	<polygon class="st12" points="19.33,248.51 19.33,244.73 19.41,244.73 19.41,248.38 42.22,248.38 42.22,244.73 42.53,244.73 
		42.53,248.51 	"/>
	<rect x="7.68" y="240.62" class="st12" width="4" height="0.18"/>
	<rect x="40.06" y="210.59" class="st7" width="6.89" height="6.89"/>
	<rect x="19.32" y="221.18" class="st7" width="3.32" height="3.32"/>
	<rect x="24.48" y="202.79" class="st7" width="3.32" height="3.32"/>
	<rect x="50.42" y="170.03" class="st0" width="3.32" height="3.32"/>
	<rect x="6.31" y="170.03" class="st0" width="3.32" height="3.32"/>
	<polygon class="st0" points="62.43,163.73 62.43,163.84 58.24,163.84 58.24,167.15 62.43,167.15 62.43,167.05 64.41,167.05 
		64.41,163.73 	"/>
	<rect x="-0.15" y="163.73" class="st0" width="1.98" height="3.32"/>
	<polygon class="st10" points="116.52,256.23 116.52,260.06 104.92,260.06 104.92,263.92 81.92,263.92 81.92,260.06 74.13,260.06 
		74.13,256.23 70.27,256.23 68.75,256.23 62.43,256.23 53.93,256.23 53.93,260.06 42.33,260.06 42.33,263.92 19.33,263.92 
		19.33,260.06 11.54,260.06 11.54,256.23 7.68,256.23 6.16,256.23 -0.15,256.23 -0.15,263.89 11.57,263.89 11.57,267.73 
		23.14,267.73 23.14,271.59 42.33,271.59 42.33,267.73 50.19,267.73 50.19,263.89 62.43,263.89 74.16,263.89 74.16,267.73 
		85.73,267.73 85.73,271.59 104.92,271.59 104.92,267.73 112.78,267.73 112.78,263.89 125.02,263.89 125.02,256.23 	"/>
	<polygon class="st7" points="116.52,246.72 116.52,248.51 112.74,248.51 112.74,252.39 74.13,252.39 74.13,248.51 70.27,248.51 
		70.27,244.68 62.43,244.68 53.93,244.68 53.93,248.51 50.15,248.51 50.15,252.39 11.54,252.39 11.54,248.51 7.68,248.51 
		7.68,244.68 -0.15,244.68 -0.15,256.23 6.16,256.23 7.68,256.23 11.54,256.23 11.54,260.06 19.33,260.06 42.33,260.06 
		53.93,260.06 53.93,256.23 62.43,256.23 68.75,256.23 70.27,256.23 74.13,256.23 74.13,260.06 81.92,260.06 104.92,260.06 
		116.52,260.06 116.52,256.23 125.02,256.23 125.02,246.72 	"/>
	<polygon class="st7" points="120.38,283.24 120.38,287.1 116.46,287.1 116.46,290.94 101.19,290.94 101.19,287.1 97.29,287.1 
		97.29,283.24 81.92,283.24 81.92,287.1 78,287.1 78,290.94 70.27,290.94 70.27,287.1 66.46,287.1 66.46,283.24 62.43,283.24 
		57.79,283.24 57.79,287.1 53.87,287.1 53.87,290.94 38.6,290.94 38.6,287.1 34.71,287.1 34.71,283.24 19.33,283.24 19.33,287.1 
		15.41,287.1 15.41,290.94 7.68,290.94 7.68,287.1 3.87,287.1 3.87,283.24 -0.15,283.24 -0.15,298.92 11.57,298.92 11.57,294.97 
		50.01,294.97 50.01,298.92 62.43,298.92 74.16,298.92 74.16,294.97 112.6,294.97 112.6,298.92 125.02,298.92 125.02,283.24 	"/>
	<rect x="19.33" y="260.06" class="st0" width="23" height="3.86"/>
	<path class="st0" d="M112.78,263.89v3.83h-7.86v3.86H85.73v-3.86H74.16v-3.83H62.43H50.19v3.83h-7.86v3.86H23.14v-3.86H11.57v-3.83
		H-0.15v19.35h4.02v3.86h3.81v3.84h7.73v-3.84h3.92v-3.86h15.38v3.86h3.89v3.84h15.27v-3.84h3.92v-3.86h4.64h4.02v3.86h3.81v3.84H78
		v-3.84h3.92v-3.86h15.38v3.86h3.89v3.84h15.27v-3.84h3.92v-3.86h4.64v-19.35H112.78z M15.73,276.41h-4.51v-4.51h4.51V276.41z
		 M48.45,285.97h-5.37v-5.37h5.37V285.97z M78.32,276.41h-4.51v-4.51h4.51V276.41z M111.03,285.97h-5.37v-5.37h5.37V285.97z"/>
	<polygon class="st8" points="112.6,298.92 112.6,294.97 74.16,294.97 74.16,298.92 62.43,298.92 50.01,298.92 50.01,294.97 
		11.57,294.97 11.57,298.92 -0.15,298.92 -0.15,314.02 11.36,314.02 11.36,310.21 15.37,310.21 15.37,306.54 19.15,306.54 
		19.15,302.59 42.44,302.59 42.44,306.54 46.49,306.54 46.49,310.21 48.9,310.21 48.9,314.16 62.43,314.16 62.43,314.02 
		73.95,314.02 73.95,310.21 77.95,310.21 77.95,306.54 81.73,306.54 81.73,302.59 105.02,302.59 105.02,306.54 109.08,306.54 
		109.08,310.21 111.48,310.21 111.48,309.71 124.35,309.71 124.35,298.92 	"/>
	<polygon class="st7" points="33.65,323.27 33.65,318.07 26.85,318.07 26.85,323.27 19.08,323.27 19.08,314.16 22.99,314.16 
		22.99,310.28 22.99,310.19 22.99,310.12 38.5,310.12 38.5,310.28 38.5,310.28 38.5,314.16 42.4,314.16 42.41,314.16 42.57,314.16 
		42.57,323.27 	"/>
	<rect x="15.18" y="322.04" class="st7" width="0.01" height="4.97"/>
	<rect x="15.18" y="314.16" class="st7" width="0.01" height="3.91"/>
	<rect x="11.43" y="318.07" class="st7" width="0.01" height="3.97"/>
	<polygon class="st4" points="116.48,327.02 116.48,329.62 108.91,329.62 108.91,333.48 102.23,333.48 102.23,336.09 84.46,336.09 
		84.46,333.48 77.75,333.48 77.75,329.62 70.23,329.62 70.23,327.02 62.43,327.02 53.89,327.02 53.89,329.62 46.33,329.62 
		46.33,333.48 39.64,333.48 39.64,336.09 21.88,336.09 21.88,333.48 15.16,333.48 15.16,329.62 7.64,329.62 7.64,327.02 
		-0.15,327.02 -0.15,334.66 2.46,334.66 2.46,338.53 10.11,338.53 10.11,342.39 21.87,342.39 21.87,346.42 39.91,346.42 
		39.91,342.39 51.51,342.39 51.51,338.53 59.24,338.53 59.24,334.66 62.43,334.66 65.05,334.66 65.05,338.53 72.7,338.53 
		72.7,342.39 84.46,342.39 84.46,346.42 102.5,346.42 102.5,342.39 114.1,342.39 114.1,338.53 121.82,338.53 121.82,334.66 
		126.83,334.66 126.83,327.02 	"/>
	<path class="st9" d="M111.48,312.22v-2.01h-2.41v-3.67h-4.06v-3.95H81.73v3.95h-3.78v3.67h-4v3.81H62.43v0.14H48.9v-3.95h-2.41
		v-3.67h-4.06v-3.95H19.15v3.95h-3.78v3.67h-4v3.81H-0.15v12.99h7.79v2.6h7.52v3.86h6.72v2.6h17.76v-2.6h6.69v-3.86h7.57v-2.6h8.54
		h7.79v2.6h7.52v3.86h6.72v2.6h17.76v-2.6h6.69v-3.86h7.57v-2.6h8.54v-14.79H111.48z M50.05,322.04h-3.74v4.97H43.2h-0.64H42.4H38.5
		h-1.29h-3.91h-1.22H29.4h-1.22h-3.91h-1.29h-3.91h-0.22h-3.67h-0.01v-4.97h-3.73h-0.01v-3.97h0.01h3.73v-3.91h0.01h3.89v-3.88v-0.1
		h3.91v-0.07v-3.74h6.41h2.69h6.41h0.01v3.74H38.5v0.16h0.01v-0.1h3.91v3.97h0.16h3.74v3.91h3.74V322.04z M112.64,322.04h-3.74v4.97
		h-3.11h-0.64h-0.16h-3.91H99.8h-3.91h-1.22h-2.69h-1.22h-3.91h-1.29h-3.91h-0.22h-3.67h-0.01v-4.97h-3.73h-0.01v-3.97h0.01h3.73
		v-3.91h0.01h3.89v-3.88v-0.1h3.91v-0.07v-3.74h6.41h2.69h6.41h0.01v3.74h-0.01v0.16h0.01v-0.1h3.91v3.97h0.16h3.74v3.91h3.74
		V322.04z"/>
	<path class="st1" d="M121.82,334.66v3.86h-7.73v3.86H102.5v4.03H84.46v-4.03H72.7v-3.86h-7.65v-3.86h-2.61h-3.2v3.86h-7.73v3.86
		H39.91v4.03H21.87v-4.03H10.11v-3.86H2.46v-3.86h-2.61v41.24h7.73v3.91h11.72v3.91h23.07v-3.91h11.53v-3.91h8.54h7.73v3.91h11.72
		v3.91h23.07v-3.91h11.53v-3.91h8.54v-41.24H121.82z M50.05,361.17h-3.21v3.01h-6.41v3.02H25.1v-3.02h-6.41v-3.01h-3.21v-3.02h3.21
		v3.02h6.41v3.01h15.33v-3.01h6.41v-3.02h3.21V361.17z M112.64,361.17h-3.21v3.01h-6.41v3.02H87.69v-3.02h-6.41v-3.01h-3.21v-3.02
		h3.21v3.02h6.41v3.01h15.33v-3.01h6.41v-3.02h3.21V361.17z"/>
	<polygon class="st8" points="15.18,318.07 15.19,318.07 15.19,314.16 19.08,314.16 19.08,323.27 26.85,323.27 26.85,318.07 
		33.65,318.07 33.65,323.27 42.57,323.27 42.57,314.16 46.31,314.16 46.31,318.07 50.05,318.07 50.05,322.04 46.31,322.04 
		46.31,327.02 43.2,327.02 42.57,327.02 42.4,327.02 38.5,327.02 37.21,327.02 33.31,327.02 32.09,327.02 29.4,327.02 28.18,327.02 
		24.27,327.02 22.99,327.02 19.08,327.02 18.86,327.02 15.19,327.02 15.19,322.04 15.18,322.04 11.45,322.04 11.45,318.07 	"/>
	<rect x="38.5" y="310.28" class="st8" width="3.9" height="3.88"/>
	<polygon class="st8" points="42.4,310.28 38.5,310.28 38.5,310.19 42.41,310.19 42.41,314.16 42.4,314.16 	"/>
	<rect x="19.08" y="310.28" class="st8" width="3.91" height="3.88"/>
	<rect x="19.08" y="310.19" class="st8" width="3.91" height="0.1"/>
	<polygon class="st8" points="22.99,306.38 29.4,306.38 32.09,306.38 38.5,306.38 38.5,310.12 22.99,310.12 	"/>
	<rect x="38.5" y="306.38" class="st8" width="0.01" height="3.74"/>
	<rect x="43.08" y="280.6" class="st7" width="5.37" height="5.37"/>
	<rect x="11.22" y="271.91" class="st7" width="4.51" height="4.51"/>
	<rect x="25.1" y="364.18" class="st3" width="15.33" height="3.02"/>
	<rect x="18.69" y="361.17" class="st3" width="6.41" height="3.01"/>
	<rect x="40.43" y="361.17" class="st3" width="6.41" height="3.01"/>
	<rect x="46.84" y="358.15" class="st3" width="3.21" height="3.02"/>
	<rect x="15.48" y="358.15" class="st3" width="3.21" height="3.02"/>
	<polygon class="st10" points="50.06,194.48 50.06,198.23 57.74,198.23 57.74,200.67 49.85,200.67 42.17,200.67 42.17,195.67 
		19,195.67 19,200.65 11.46,200.69 11.46,200.67 3.95,200.67 3.92,200.67 3.92,198.23 3.95,198.23 11.46,198.23 11.46,198.16 
		11.46,194.52 11.52,194.52 19.09,194.48 19.09,194.38 19.09,190.65 19.14,190.65 24.42,190.65 36.75,190.65 38.27,190.65 
		42.28,190.57 42.28,194.41 	"/>
	<g>
		<polygon class="st13" points="183.12,49.56 163.31,29.74 121.6,71.45 121.6,71.45 79.89,113.16 99.71,132.97 101.24,131.44 
			105.14,127.54 107.55,129.95 112.85,124.64 115.46,127.26 123.27,119.45 128.21,114.51 131.07,111.64 134.16,108.56 
			132.12,106.51 132.14,106.5 131.57,105.93 136.81,100.68 135.44,99.31 135.46,99.3 134.42,98.26 138.32,94.36 141.41,91.26 
			141.41,91.26 142.94,89.74 146.84,85.83 149.25,88.24 154.56,82.94 157.17,85.55 164.97,77.75 169.92,72.8 172.78,69.94 
			175.87,66.85 173.83,64.81 173.84,64.79 173.27,64.22 178.52,58.98 177.15,57.61 177.16,57.59 176.12,56.55 180.03,52.65 		"/>
		<polygon class="st6" points="179.61,46.05 172.62,53.05 173.53,53.99 168.29,59.24 170.72,61.71 152.02,80.41 149.57,77.95 
			144.27,83.26 142.72,81.71 137.29,87.14 137.29,87.14 130.29,94.13 131.83,95.7 126.58,100.94 129.02,103.41 124.24,108.19 
			120.38,108.19 114.52,108.19 114.52,109.75 114.5,109.75 114.5,111.81 106.63,111.81 106.63,112.66 106.6,112.66 106.6,115.73 
			101.97,115.73 97.67,115.73 90.26,115.73 78.54,115.73 78.54,111.81 70.58,111.81 70.58,108.19 64.73,108.19 62.43,108.19 
			62.43,128.59 66.13,128.59 77.12,128.59 77.12,132.54 80.82,132.54 80.82,132.54 80.82,136.41 104.25,136.41 104.25,132.97 
			123.35,132.1 138.96,116.49 136.65,114.19 139.04,111.8 137.35,110.11 142.74,104.72 145.15,102.31 148.8,98.66 148.8,98.66 
			151.27,96.19 158.59,88.87 160.28,90.56 162.75,88.09 165.05,90.4 180.66,74.79 178.36,72.48 180.74,70.1 179.05,68.41 
			184.45,63.01 186.86,60.6 190.51,56.95 		"/>
		
			<rect x="174.93" y="100.04" transform="matrix(0.7071 -0.7071 0.7071 0.7071 -20.0484 154.8024)" class="st0" width="3.82" height="3.11"/>
		
			<rect x="239.65" y="163.35" transform="matrix(0.7071 -0.7071 0.7071 0.7071 -46.0174 219.6457)" class="st8" width="4.96" height="4.04"/>
		
			<rect x="257.91" y="178.02" transform="matrix(0.7071 -0.7071 0.7071 0.7071 -54.0943 260.4985)" class="st1" width="58.98" height="35.05"/>
		<polygon class="st9" points="250.14,199.99 281.59,162.39 287.02,153.45 297.9,164.34 284.41,177.83 286.39,179.81 272.33,193.87 
			270.35,191.9 271.25,190.99 273.23,192.97 266.88,199.32 264.91,197.34 263.38,198.87 261.76,197.25 254.58,204.43 		"/>
		<polygon class="st8" points="250.45,200.3 288.94,155.38 280.48,146.92 238.77,188.62 		"/>
		
			<rect x="258.49" y="177.92" transform="matrix(-0.7071 0.7071 -0.7071 -0.7071 589.9968 119.5991)" class="st8" width="23.47" height="8.13"/>
		
			<rect x="267.47" y="181.86" transform="matrix(-0.7071 0.7071 -0.7071 -0.7071 598.4802 120.9483)" class="st8" width="13.44" height="5.14"/>
		<polygon class="st7" points="191.5,80.44 202.75,69.19 198.94,65.38 197.22,63.65 196.41,62.84 190.87,68.37 191.69,69.18 
			161.04,99.83 160.23,99.02 154.7,104.55 154.7,104.55 149.17,110.08 149.98,110.89 119.33,141.53 118.52,140.72 112.99,146.25 
			113.8,147.07 115.53,148.79 119.34,152.6 130.14,141.81 134.04,145.71 137.91,141.83 139.55,143.47 151.55,131.47 149.92,129.83 
			153.7,126.05 149.8,122.15 161.05,110.9 161.05,110.9 171.85,100.1 175.75,104 179.62,100.13 181.25,101.76 193.26,89.76 
			191.62,88.13 195.41,84.34 		"/>
		<polygon class="st7" points="271.17,163.56 283.98,150.42 273.35,140.19 267.81,145.61 265.26,143.06 229.24,179.09 
			232.24,182.09 226.56,187.77 223.56,184.77 187.53,220.79 197.74,231 202.03,235.29 205.2,238.47 208.9,234.77 205.51,231.37 
			209.66,227.23 205.58,223.15 209.75,218.98 212.75,221.98 216.49,218.24 222.36,224.11 229.76,216.71 227.02,213.97 
			232.59,208.39 229.47,205.26 242.44,192.29 246.91,196.76 250.61,193.06 247.21,189.67 251.36,185.52 247.29,181.45 
			251.46,177.28 254.46,180.28 258.2,176.54 264.07,182.4 271.46,175.01 268.72,172.27 274.3,166.69 		"/>
		
			<rect x="163.54" y="85.9" transform="matrix(0.7071 -0.7071 0.7071 0.7071 -13.8649 141.2265)" class="st5" width="0" height="2.89"/>
		<polygon class="st8" points="197.96,64.4 193.29,59.73 182.6,70.42 184.58,72.39 184.57,72.4 182.02,74.95 183.37,76.3 
			180.78,78.9 183.52,81.64 183.5,81.66 173.33,91.83 170.59,89.09 167.98,91.7 166.62,90.35 164.06,92.9 162.05,90.89 
			151.54,101.39 151.59,101.44 140.9,112.12 142.87,114.1 142.86,114.11 140.31,116.65 141.67,118.01 139.08,120.6 141.82,123.34 
			141.8,123.36 131.62,133.54 128.88,130.8 126.27,133.41 124.92,132.05 122.36,134.61 120.34,132.59 109.84,143.1 114.55,147.81 
			127.59,134.73 130.34,137.47 131.21,136.6 132.95,134.86 133.82,133.99 135.91,136.08 143.19,128.79 144.36,127.63 142.27,125.54 
			143.12,124.69 144.57,123.24 145.74,122.08 142.99,119.33 169.3,93.02 172.04,95.77 172.92,94.89 174.66,93.16 175.52,92.29 
			177.61,94.38 184.9,87.09 186.07,85.92 183.98,83.83 184.83,82.98 186.27,81.54 187.44,80.37 184.69,77.62 		"/>
		<polygon class="st7" points="221.74,95.21 230.97,89.96 230.93,86.79 230.92,84.73 222.85,87.47 209.62,99.58 179.68,129.53 
			179.68,129.52 167.92,141.28 137.97,171.23 141.73,174.99 145.24,171.47 148.04,174.26 155.32,166.98 158.65,170.32 
			162.15,166.82 163.92,168.59 164.29,168.21 164.74,168.66 176.74,156.66 176.29,156.21 177.29,155.21 175.53,153.44 
			178.31,150.66 174.98,147.32 182.71,139.59 179.92,136.8 183.43,133.28 183.43,133.28 186.95,129.77 189.74,132.56 197.02,125.28 
			200.36,128.61 204.23,124.74 206.44,126.95 218.45,114.95 216.23,112.74 220.02,108.96 216.68,105.62 224.41,97.89 		"/>
		<polygon class="st10" points="214.89,94.97 221.71,88.15 217.67,84.11 214.41,80.85 204.51,70.95 194.62,80.84 197.34,83.57 
			194.7,86.22 196.74,88.26 194.25,90.75 196.16,92.67 184.16,104.67 182.25,102.75 179.75,105.25 177.71,103.2 175.06,105.85 
			172.33,103.13 162.81,112.65 162.8,112.65 152.91,122.55 155.64,125.27 152.99,127.92 155.03,129.96 152.54,132.46 154.45,134.37 
			142.45,146.37 140.54,144.46 138.05,146.95 136,144.91 133.35,147.56 130.63,144.83 121.1,154.36 131,164.26 134.26,167.52 
			138.3,171.56 145.16,164.7 146.58,166.12 151.9,160.8 153.33,162.23 155.82,159.74 158.3,162.22 170.3,150.22 167.82,147.74 
			170.31,145.25 168.89,143.82 174.61,138.09 173.19,136.67 180,129.86 180.01,129.86 186.87,123 188.29,124.42 193.6,119.1 
			195.03,120.53 197.53,118.03 200.01,120.52 212.01,108.52 209.53,106.03 212.02,103.54 210.59,102.11 216.32,96.39 		"/>
		<polygon class="st0" points="271.83,138.27 264.37,130.81 252.14,151.4 246.65,157.79 233.86,160.56 229.98,156.68 218.41,168.26 
			226.85,176.7 210.44,193.11 207.81,190.48 203.37,194.93 201.43,192.98 192.15,202.26 188.32,198.43 182.16,204.59 187.01,209.44 
			181.59,214.85 188.13,221.39 202.28,207.24 205.73,210.69 209.7,206.73 213.92,210.95 228.72,196.15 224.5,191.93 233.29,183.14 
			229.84,179.68 243.98,165.54 247.44,168.99 251.4,165.02 255.62,169.24 270.42,154.44 265.74,149.3 		"/>
		<polygon class="st8" points="199.84,79.87 204.94,71.38 202.75,69.19 190.95,80.98 193.11,83.13 192,84.24 192.68,84.92 
			190.55,87.06 193.26,89.76 181.25,101.76 177.93,98.43 175.76,100.6 175.7,100.54 173.99,102.25 171.84,100.09 149.25,122.68 
			151.4,124.84 150.3,125.94 150.98,126.63 148.84,128.76 151.55,131.47 140.06,142.96 136.3,139.37 120.86,154.12 123.22,156.48 
			130.16,149.55 131.77,151.16 137.02,145.92 139.06,147.97 141.55,145.47 143.06,146.98 155.06,134.98 153.55,133.47 
			156.05,130.98 154,128.93 159.75,123.19 158.13,121.57 171.86,107.84 173.48,109.46 178.72,104.22 180.77,106.26 183.26,103.77 
			184.76,105.27 196.76,93.27 195.26,91.77 197.75,89.27 195.71,87.23 201.45,81.48 		"/>
		
			<rect x="236.84" y="177.13" transform="matrix(0.7071 -0.7071 0.7071 0.7071 -56.5837 221.7005)" class="st8" width="4.96" height="4.04"/>
		<polygon class="st8" points="272.11,148.96 275.17,141.61 284.11,150.55 278.91,155.76 		"/>
		<polyline class="st0" points="120.86,154.12 133.5,142.4 134.85,143.76 137.34,141.26 139.73,143.64 151.73,131.64 149.34,129.26 
			151.84,126.77 150.68,125.61 156.43,119.87 154.74,118.22 168.49,104.47 170.16,106.14 175.4,100.89 176.56,102.05 179.05,99.56 
			181.43,101.94 193.43,89.94 191.05,87.56 193.54,85.06 192.39,83.91 198.13,78.16 196.45,76.52 203.24,69.72 202.75,69.19 
			201.81,68.25 200.21,66.65 194.68,72.18 196.28,73.78 190.02,80.04 191.24,81.27 189.68,82.83 190.67,83.82 188.04,86.44 
			190.27,88.67 180.19,98.74 177.97,96.52 174.82,99.66 173.84,98.67 172.13,100.38 170.9,99.16 165.64,104.43 164.03,102.82 
			152.97,113.88 154.58,115.49 148.31,121.75 149.54,122.97 147.97,124.53 148.96,125.52 146.34,128.15 148.56,130.37 
			138.49,140.45 136.26,138.22 133.12,141.36 132.13,140.38 130.42,142.09 129.2,140.86 123.93,146.13 118.31,151.58 		"/>
		<polygon class="st8" points="256.63,123.07 255.6,122.04 253.29,119.73 252.55,118.99 244.31,110.75 202.6,152.45 209.31,159.16 
			201.91,166.57 198.79,163.45 194.43,167.81 191.33,164.71 173.16,182.89 176.25,185.98 171.89,190.34 175.01,193.46 
			168.35,200.13 161.64,193.42 119.93,235.12 125.07,247.01 127.07,247.01 131.5,246.7 137.93,240.26 135.34,237.68 147.85,225.17 
			151.19,228.51 162.19,217.5 165.24,220.55 177.01,208.79 173.96,205.74 173.21,204.99 178.9,199.3 176.31,196.71 188.82,184.21 
			192.15,187.54 203.16,176.54 206.21,179.59 217.97,167.82 214.17,164.02 220.6,157.59 218.02,155.01 230.52,142.5 233.86,145.84 
			244.86,134.83 247.91,137.88 259.68,126.12 		"/>
		
			<rect x="281.79" y="201.32" transform="matrix(-0.7071 0.7071 -0.7071 -0.7071 686.553 154.4762)" class="st2" width="58.98" height="36.22"/>
		<polygon class="st7" points="247.9,114.34 246.96,113.4 244.8,111.24 231.77,98.21 190.06,139.91 190.06,139.91 149.1,180.88 
			149.39,181.17 145.46,185.09 147.58,187.2 144.68,190.1 146.65,192.06 143.73,194.99 145.98,197.24 141.69,201.54 142.93,202.78 
			129.56,216.16 128.31,214.92 125.02,218.21 125.02,217.48 124.16,217.48 121.85,217.48 121.23,217.48 120.43,217.48 
			119.74,217.48 119.74,218.97 119.74,221.32 116.7,221.32 116.7,225.21 116.7,231.89 116.7,232.31 116.7,232.94 109.11,232.94 
			109.11,236.84 97.44,236.84 97.44,233.05 89.71,233.05 89.71,236.84 85.84,236.84 85.84,240.78 84.5,240.78 84.5,240.77 
			77.96,240.77 77.96,236.92 74.2,236.92 74.2,232.31 74.2,225.28 70.26,225.28 70.26,221.42 66.43,221.42 66.43,217.55 
			62.43,217.55 62.43,217.48 61.58,217.48 57.84,217.48 57.15,217.48 57.15,221.32 54.11,221.32 54.11,225.21 54.11,232.31 
			54.11,232.94 46.52,232.94 46.52,236.84 34.85,236.84 34.85,233.05 27.12,233.05 27.12,236.84 23.25,236.84 23.25,240.78 
			21.91,240.78 21.91,240.77 15.37,240.77 15.37,236.92 11.62,236.92 11.62,232.31 11.62,225.28 7.67,225.28 7.67,221.42 
			3.85,221.42 3.85,217.55 -0.15,217.55 -0.15,233.05 3.95,233.05 3.95,237.05 7.68,237.05 7.68,240.8 11.68,240.8 11.68,244.73 
			19.33,244.73 19.33,248.51 42.53,248.51 42.53,244.73 42.53,244.7 50.32,244.7 50.32,240.78 54.11,240.78 54.11,236.97 
			58.04,236.97 58.04,232.97 62.43,232.97 62.43,233.05 66.54,233.05 66.57,237.05 70.27,237.05 70.29,237.05 70.27,240.78 
			74.27,240.78 74.27,240.8 74.27,244.73 81.92,244.73 81.92,248.51 105.12,248.51 105.12,244.73 112.93,244.7 112.93,240.78 
			116.7,240.78 116.7,236.97 120.65,236.97 120.65,235.85 126.64,241.84 134.05,234.43 130.93,231.31 135.28,226.95 132.19,223.85 
			150.37,205.68 153.46,208.77 157.82,204.41 160.94,207.54 167.61,200.87 167.61,200.87 175.01,193.46 171.89,190.34 
			176.25,185.98 173.16,182.89 191.33,164.71 194.43,167.81 198.79,163.45 201.91,166.57 209.31,159.16 209.31,159.16 
			216.72,151.76 213.6,148.64 217.96,144.28 214.86,141.18 233.04,123.01 236.13,126.1 240.49,121.74 243.61,124.86 251.02,117.46 
					"/>
		<g>
			
				<rect x="290.99" y="198.45" transform="matrix(0.7071 -0.7071 0.7071 0.7071 -53.7784 269.3247)" class="st3" width="14.45" height="2.26"/>
			
				<rect x="286.35" y="204.1" transform="matrix(0.7071 -0.7071 0.7071 0.7071 -60.3623 264.7291)" class="st3" width="6.04" height="2.26"/>
			
				<rect x="300.84" y="189.61" transform="matrix(0.7071 -0.7071 0.7071 0.7071 -45.8731 270.7307)" class="st3" width="6.04" height="2.26"/>
			
				<rect x="303.96" y="184.81" transform="matrix(0.7071 -0.7071 0.7071 0.7071 -42.0069 270.4637)" class="st3" width="3.02" height="2.26"/>
			
				<rect x="283.06" y="205.71" transform="matrix(0.7071 -0.7071 0.7071 0.7071 -62.9073 261.8064)" class="st3" width="3.02" height="2.26"/>
		</g>
		
			<rect x="269.29" y="205.5" transform="matrix(-0.7071 0.7071 -0.7071 -0.7071 656.376 141.9765)" class="st1" width="58.98" height="2.86"/>
		
			<rect x="290.15" y="201.2" transform="matrix(-0.7071 0.7071 -0.7071 -0.7071 665.9879 130.8792)" class="st1" width="31.47" height="4.34"/>
		
			<rect x="297.86" y="202.75" transform="matrix(-0.7071 0.7071 -0.7071 -0.7071 669.6765 132.4586)" class="st1" width="19.09" height="4.34"/>
		
			<rect x="317.85" y="186.41" transform="matrix(-0.7071 0.7071 -0.7071 -0.7071 678.9899 95.9138)" class="st2" width="3.55" height="4.34"/>
		
			<rect x="276.86" y="221.11" transform="matrix(-0.7071 0.7071 -0.7071 -0.7071 644.1492 180.0265)" class="st2" width="15.87" height="4.63"/>
		
			<rect x="199.68" y="141.28" transform="matrix(-0.7071 0.7071 -0.7071 -0.7071 444.8306 101.1334)" class="st8" width="3.57" height="2.84"/>
		
			<rect x="241.75" y="112.99" transform="matrix(-0.7071 0.7071 -0.7071 -0.7071 496.4212 23.0443)" class="st8" width="3.38" height="2.68"/>
		
			<rect x="200.03" y="68.79" transform="matrix(-0.7071 0.7071 -0.7071 -0.7071 393.9539 -22.9168)" class="st8" width="3.38" height="2.68"/>
		
			<rect x="236.58" y="105.15" transform="matrix(-0.7071 0.7071 -0.7071 -0.7071 482.5577 14.0126)" class="st0" width="3.6" height="3.6"/>
		
			<rect x="186.53" y="65.54" transform="matrix(-0.7071 0.7071 -0.7071 -0.7071 376.1853 -21.1675)" class="st7" width="11.9" height="3.58"/>
		<polygon class="st0" points="228.13,102.42 232.06,98.5 225.48,91.92 220.56,96.15 223.36,98.94 216.7,105.6 219.99,108.88 
			200.32,128.55 197.03,125.27 190.8,131.5 188.01,128.71 183.43,133.28 183.43,133.28 178.86,137.85 181.65,140.65 175,147.3 
			178.28,150.59 158.61,170.26 155.33,166.97 149.09,173.21 146.3,170.41 141.73,174.99 148.65,181.91 152.15,178.41 154.26,180.52 
			157.62,177.16 159.59,179.13 162.51,176.2 164.77,178.46 169.28,173.95 170.52,175.19 183.9,161.81 182.66,160.57 186.95,156.28 
			184.69,154.02 187.61,151.1 185.65,149.13 188.54,146.24 186.43,144.12 190.35,140.2 190.35,140.2 193.85,136.7 195.97,138.81 
			199.32,135.45 201.29,137.42 204.21,134.5 206.47,136.76 210.99,132.25 212.23,133.49 225.61,120.11 224.36,118.87 228.66,114.57 
			226.4,112.31 229.32,109.39 227.35,107.43 230.25,104.53 		"/>
		
			<rect x="201.59" y="117.14" transform="matrix(-0.7071 0.7071 -0.7071 -0.7071 444.3715 53.7898)" class="st7" width="18.92" height="3.58"/>
		
			<rect x="143.56" y="102.89" transform="matrix(0.7071 -0.7071 0.7071 0.7071 -28.9734 140.7298)" class="st7" width="23.65" height="4.89"/>
		
			<rect x="210.17" y="89.85" transform="matrix(0.7071 -0.7071 0.7071 0.7071 -2.3946 176.3984)" class="st0" width="3.13" height="2.48"/>
		
			<rect x="190.98" y="112.56" transform="matrix(0.7071 -0.7071 0.7071 0.7071 -24.0768 169.4813)" class="st0" width="3.13" height="2.48"/>
		
			<rect x="171.44" y="113.3" transform="matrix(0.7071 -0.7071 0.7071 0.7071 -30.3237 155.8845)" class="st0" width="3.13" height="2.48"/>
	</g>
	<polygon class="st13" points="191.23,57.27 191.23,0 162.99,0 162.99,57.27 176.78,46.79 	"/>
	<polygon class="st6" points="187.47,57.27 187.47,0 191.71,0 191.71,16.88 198.04,16.88 198.04,43.68 191.71,43.68 191.71,57.27 	
		"/>
	<polygon class="st9" points="189.03,44.14 191.74,44.14 191.74,42.95 193.03,42.95 193.03,40.51 195.73,40.51 195.73,39.3 
		197.05,39.3 197.05,24.83 195.73,24.83 195.73,23.61 193.03,23.61 193.03,17.6 191.7,17.6 191.7,16.41 189.03,16.41 189.03,0 
		193.77,0 193.77,13.61 196.44,13.61 196.44,15.25 197.76,15.25 197.76,20.7 201.79,20.7 201.79,40.51 200.47,40.51 200.47,43.29 
		197.76,43.29 197.76,44.14 197.78,44.14 197.78,57.29 189.03,57.29 	"/>
	<polygon class="st8" points="193.03,44.14 197.06,44.14 197.06,40.51 201.24,40.51 201.24,40.02 201.24,23.63 198.34,23.63 
		198.34,21.04 195.8,21.04 195.8,16.25 193.03,16.25 193.03,0 195.8,0 201.77,0 204.16,0 204.16,13.59 207.08,13.59 207.08,17.74 
		209.36,17.74 209.36,40.02 207.08,40.02 207.08,45.11 201.77,45.11 201.77,57.29 193.03,57.29 	"/>
	<polygon class="st0" points="199.56,44.1 203.77,44.1 203.77,42.85 205.14,42.85 205.14,40.63 206.55,40.63 206.55,38.14 
		207.94,38.14 207.94,21.34 206.54,21.34 206.54,20.02 203.97,20.02 203.97,15.22 202.57,15.22 202.57,14 199.56,14 199.56,0 
		208.65,0 208.65,11.62 211.92,11.62 211.92,20.02 211.57,20.02 211.57,38.14 211.92,38.14 211.92,46.54 210.51,46.54 210.51,49.03 
		206.01,49.03 206.01,57.27 199.56,57.27 	"/>
	<polygon class="st7" points="203.77,57.27 203.77,46.54 207.82,46.54 207.82,40.63 210.62,40.63 210.62,16.35 207.82,16.35 
		207.82,12.62 203.77,12.62 203.77,0 207.82,0 211.88,0 218.52,0 218.52,8.64 221.31,8.64 221.31,42.25 218.52,42.25 218.52,51.36 
		211.88,51.36 211.88,57.27 	"/>
	<polygon class="st10" points="218.7,57.24 210.87,57.37 210.62,45.47 213.32,45.47 213.32,42.92 215.99,42.92 215.99,39.3 
		218.7,39.3 218.7,14.12 215.99,14.12 215.99,11.66 213.32,11.66 213.32,9.19 210.62,9.19 210.62,0 228.47,0 228.47,0 237.89,0 
		237.89,57.27 218.7,57.27 	"/>
	<polygon class="st0" points="237.4,57.22 237.4,44.44 236.29,44.44 236.29,40.85 232.25,40.85 232.25,16.11 236.29,16.11 
		236.29,12.78 237.4,12.78 237.4,0 244.9,0 244.9,57.24 237.4,57.24 	"/>
	<polygon class="st8" points="244.44,45.35 241.73,45.35 241.73,42.85 237.66,42.85 237.66,39.3 236.27,39.3 236.27,36.83 
		234.94,36.83 234.94,34.42 233.56,34.42 233.56,22.44 234.94,22.44 234.94,20.02 236.27,20.02 236.27,17.66 237.66,17.66 
		237.66,14.1 241.73,14.1 241.73,10.37 244.44,10.37 244.44,0 248.16,0 248.16,57.24 244.44,55.89 	"/>
	<g>
		<rect x="224.25" y="39.42" class="st10" width="9.31" height="12.68"/>
		<rect x="229.4" y="10.49" class="st10" width="4.3" height="7.25"/>
	</g>
	<polygon class="st0" points="247.09,45.14 245.36,45.14 245.36,43.12 243.17,43.12 243.17,40.48 241.18,40.48 241.18,38.12 
		238.57,38.12 238.57,18.82 241.18,18.82 241.18,16.52 243.17,16.52 243.17,13.8 245.36,13.8 245.36,11.76 247.09,11.76 247.09,0 
		253.86,0 253.86,11.76 253.86,45.14 253.86,57.29 247.09,57.29 	"/>
	<polygon class="st7" points="252.46,42.96 249.94,42.96 249.94,14 252.46,14 252.46,0 264.66,0 264.66,57.29 252.46,55.95 	"/>
	<path class="st1" d="M325.09,53.18v4.05h43.09l1.03-6.41h4.18V39.54h4.18V17.32h-4.18V6.22h-4.18V0l-44.12,0v4.04h4.13v4.47h4.13
		v11.17h4.31v16.85h-4.31v2.64h-4.13v14.02H325.09z M350.22,43.21v-3.09h3.23v-6.18h3.23V19.18h-3.23v-6.18h-3.23V9.92h3.23v3.09
		h3.23v6.18h3.23v14.76h-3.23v6.18h-3.23v3.09H350.22z"/>
	<polygon class="st9" points="183.21,71.05 183.22,71.04 193.91,60.35 193.01,57.05 189.84,56.28 178.38,67.74 180.36,69.72 
		177.98,72.1 180.67,74.8 165.06,90.41 164.41,89.76 162.37,87.71 159.9,90.18 157.92,88.2 136.68,109.44 138.66,111.42 
		136.27,113.81 138.97,116.5 125.02,130.23 107.83,130.23 107.83,132.54 104.25,132.54 104.25,136.41 92.54,136.41 80.82,136.41 
		80.82,136.41 80.82,132.54 77.12,132.54 77.12,128.59 45.24,128.59 45.24,132.54 41.66,132.54 41.66,136.41 18.24,136.41 
		18.23,136.41 18.23,132.54 14.53,132.54 14.53,128.59 3.54,128.59 -0.15,128.59 -0.15,136.41 15.61,136.41 15.61,140.22 
		19.45,140.22 19.45,142.78 23.37,142.78 23.37,147.96 38.64,147.96 38.64,142.78 38.66,142.78 42.56,142.78 42.56,140.22 
		46.38,140.22 46.39,136.85 78.2,136.77 78.2,140.22 82.04,140.22 82.04,142.78 85.96,142.78 85.96,147.96 101.22,147.96 
		101.22,142.78 101.25,142.78 105.14,142.78 105.14,140.22 108.97,140.22 108.97,136.49 108.98,136.49 123.35,136.54 128.97,130.88 
		132.24,134.15 142.43,123.96 139.69,121.22 142.29,118.63 140.93,117.27 143.48,114.72 141.51,112.75 141.52,112.74 162.67,91.51 
		164.68,93.52 167.24,90.96 168.59,92.32 171.21,89.71 173.95,92.45 184.12,82.27 181.38,79.53 181.4,79.52 183.99,76.92 
		182.64,75.57 185.18,73.02 	"/>
	<polygon class="st8" points="264.66,42.85 260.72,42.85 260.72,35.59 256.66,35.59 256.66,21.26 260.72,21.26 260.72,17.71 
		264.66,17.71 264.66,0 273.33,0 273.33,57.24 264.66,56.01 	"/>
	<rect x="356.67" y="19.18" class="st3" width="3.23" height="14.76"/>
	<rect x="353.45" y="33.95" class="st3" width="3.23" height="6.18"/>
	<rect x="353.45" y="13.01" class="st3" width="3.23" height="6.18"/>
	<polygon class="st9" points="272.69,46.61 268.71,46.61 268.71,35.61 264.66,35.61 264.66,21.33 268.71,21.33 268.71,17.57 
		272.69,17.57 272.69,0 280.17,0 280.17,57.29 272.69,57.29 	"/>
	<rect x="350.22" y="40.12" class="st3" width="3.23" height="3.09"/>
	
		<rect x="249.79" y="25.8" transform="matrix(-4.489405e-11 1 -1 -4.489405e-11 307.0832 -249.7904)" class="st8" width="57.29" height="5.69"/>
	<polygon class="st0" points="280.82,46.66 276.81,46.66 276.81,41.63 272.69,41.63 272.69,18.82 276.81,18.82 276.81,14.12 
		280.82,14.12 280.82,0 286.32,0 286.32,14.12 286.32,46.66 286.32,57.29 280.74,57.29 	"/>
	<polygon class="st7" points="284.87,57.29 284.87,40.41 279.33,40.41 279.33,16.61 284.87,16.61 284.87,0 297.04,0 297.04,16.61 
		298.64,16.61 298.64,40.41 297.04,40.41 297.04,57.29 	"/>
	<polygon class="st8" points="288.92,43.07 292.86,43.07 292.86,35.73 296.03,35.73 296.03,21.34 292.86,21.34 292.86,14.23 
		288.92,14.23 288.92,0 310.38,0 310.38,14.23 309.37,14.23 309.37,20.68 312.54,20.68 312.54,36.65 309.37,36.65 309.37,43.07 
		310.38,43.07 310.38,57.29 288.92,57.29 	"/>
	<polygon class="st9" points="301.1,50.24 305.22,50.24 305.22,46.58 309.03,46.58 309.03,10.3 305.22,10.3 305.22,6.81 
		301.06,6.81 301.06,0 305.22,0 307.89,0 309.03,0 311.83,0 319.94,0 319.94,8.03 321.27,8.03 321.27,12.81 323.95,12.81 
		323.95,19.34 328.05,19.34 328.05,37.35 323.95,37.35 323.95,43.89 321.27,43.89 321.27,50.76 317.49,50.76 317.49,57.48 
		301.1,57.48 	"/>
	
		<rect x="279.41" y="16.42" transform="matrix(-4.465691e-11 1 -1 -4.465691e-11 298.5977 -262.8401)" class="st0" width="2.63" height="2.92"/>
	
		<rect x="279.48" y="37.65" transform="matrix(-4.465691e-11 1 -1 -4.465691e-11 319.898 -241.6833)" class="st0" width="2.63" height="2.92"/>
	
		<rect x="224.7" y="27.54" transform="matrix(-4.489938e-11 1 -1 -4.489938e-11 260.5883 -203.2953)" class="st0" width="14.48" height="2.21"/>
	<polygon class="st6" points="188.24,57.29 188.24,42.93 186.17,42.93 181.16,57.29 	"/>
	
		<rect x="178.57" y="29.99" transform="matrix(-4.493668e-11 1 -1 -4.493668e-11 219.0156 -156.9251)" class="st13" width="18.8" height="2.12"/>
	<polygon class="st4" points="319.7,50.71 319.7,43.46 323.83,43.46 323.83,36.78 326.62,36.78 326.62,19.89 323.83,19.89 
		323.83,13.45 319.7,13.45 319.7,6.16 316.91,6.16 316.91,0 325.09,0 325.09,3.18 329.23,3.18 329.23,8.46 333.36,8.46 
		333.36,19.62 337.67,19.62 337.67,37 333.36,37 333.36,48.33 329.23,48.33 329.23,54.07 325.09,54.07 325.09,58.2 316.91,58.2 
		316.91,50.71 	"/>
	
		<rect x="283.84" y="153.8" transform="matrix(0.7071 -0.7071 0.7071 0.7071 -26.319 248.0966)" class="st9" width="4.96" height="4.04"/>
	<polygon class="st0" points="263.34,134.06 264.74,131.13 262.48,128.65 260.41,131.32 	"/>
	<polygon class="st0" points="264.99,128.65 263.59,131.58 265.85,134.06 267.92,131.4 	"/>
	<polygon class="st7" points="272.9,115.71 276.92,118.02 278.85,111.57 274.99,110.42 	"/>
	
		<rect x="251.82" y="104.87" transform="matrix(-0.8838 -0.4678 0.4678 -0.8838 432.9469 324.2691)" class="st8" width="9.84" height="7.02"/>
	
		<rect x="241.6" y="102.03" transform="matrix(-0.866 -0.5 0.5 -0.866 405.0769 322.3763)" class="st7" width="8.26" height="9.77"/>
	
		<rect x="267.45" y="99.3" transform="matrix(-0.9753 -0.2209 0.2209 -0.9753 509.8277 266.0213)" class="st9" width="4.67" height="10.4"/>
	
		<rect x="265.72" y="108.34" transform="matrix(-0.8144 -0.5803 0.5803 -0.8144 418.4571 360.925)" class="st9" width="2.45" height="10.4"/>
	
		<rect x="266.95" y="101.1" transform="matrix(-0.9575 -0.2883 0.2883 -0.9575 494.3101 285.4123)" class="st9" width="2.45" height="10.4"/>
	<polygon class="st8" points="236.65,106.15 238.28,104.52 236.36,102.74 234.85,104.28 	"/>
	<polygon class="st7" points="199.86,79.84 201.48,81.46 207.2,73.59 204.96,71.36 	"/>
	
		<rect x="198.79" y="64.16" transform="matrix(-0.7071 0.7071 -0.7071 -0.7071 388.5582 -29.9403)" class="st0" width="3.38" height="2.68"/>
	
		<rect x="199.51" y="62.1" transform="matrix(-0.7071 0.7071 -0.7071 -0.7071 388.3234 -33.9609)" class="st0" width="3.38" height="2.68"/>
	
		<rect x="200.05" y="59.96" transform="matrix(-0.7071 0.7071 -0.7071 -0.7071 387.7446 -38.0083)" class="st0" width="3.38" height="2.68"/>
	
		<rect x="199.81" y="57.77" transform="matrix(-0.7071 0.7071 -0.7071 -0.7071 386.3463 -41.2928)" class="st0" width="3.83" height="3.19"/>
	
		<rect x="200.08" y="55.78" transform="matrix(-0.7071 0.7071 -0.7071 -0.7071 384.5988 -45.0034)" class="st0" width="3.07" height="2.75"/>
	
		<rect x="200.97" y="56.57" transform="matrix(0.5304 0.8477 -0.8477 0.5304 143.9612 -143.7589)" class="st0" width="1.55" height="3"/>
	<polygon class="st8" points="193.93,60.38 195.44,61.83 197.74,59.75 198.62,56.93 193.03,57.29 	"/>
	<polygon class="st4" points="296.76,167.58 298.89,165.45 294.86,161.43 289.17,167.12 290.53,168.48 285.48,173.52 286.96,174.99 
		282.5,179.45 284.45,181.4 270.65,195.19 269.28,193.81 265.31,197.78 263.27,195.74 259.7,199.3 258.33,197.92 253.13,203.11 
		253.14,203.12 247.56,208.71 248.92,210.06 243.88,215.1 245.92,217.15 241.46,221.6 242.84,222.98 229.04,236.78 227.67,235.4 
		223.7,239.36 221.66,237.32 218.09,240.88 216.72,239.51 211.52,244.7 211.55,244.72 206.6,249.67 207.95,251.03 202.91,256.07 
		204.95,258.11 200.5,262.57 201.87,263.95 188.08,277.74 186.7,276.36 182.73,280.33 180.69,278.29 177.13,281.85 175.75,280.47 
		170.56,285.66 173.04,288.15 171.02,289.75 173.04,292.3 170.61,293.95 172.05,296.07 165.9,300.26 168.03,303.4 162.59,307.1 
		164.03,309.22 149.58,319.06 148.14,316.94 142.67,320.65 140.53,317.51 134.41,321.67 132.97,319.55 126.63,323.87 130.86,330.09 
		132.99,328.64 135.13,331.79 141.35,327.55 143.49,330.7 153.06,324.19 155.29,327.47 169.98,317.48 167.75,314.2 177.18,307.78 
		175.04,304.64 181.33,300.36 179.19,297.21 181.79,295.44 179.84,292.57 180.41,292.12 178.59,289.81 183.49,284.91 185.53,286.96 
		193.37,279.12 195.5,281.25 207.52,269.23 205.39,267.1 213.12,259.37 211.07,257.33 216.22,252.18 214.18,250.13 216.31,248 
		217.31,247 219.36,249.04 224.45,243.95 226.5,245.99 234.33,238.16 236.46,240.29 248.49,228.26 246.36,226.13 254.08,218.41 
		252.04,216.36 257.19,211.21 255.15,209.17 257.17,207.15 257.18,207.16 258.92,205.42 260.97,207.46 266.06,202.36 268.11,204.41 
		275.94,196.57 278.07,198.7 290.1,186.68 287.97,184.55 295.69,176.82 293.65,174.78 298.8,169.63 	"/>
	<rect x="121.45" y="295.12" class="st8" width="4.96" height="4.04"/>
	
		<rect x="122.98" y="273.01" transform="matrix(0.8268 -0.5624 0.5624 0.8268 -133.2876 118.3887)" class="st7" width="5.29" height="5.29"/>
	
		<rect x="120.71" y="244.08" transform="matrix(-1 -4.471369e-11 4.471369e-11 -1 248.7851 495.5293)" class="st8" width="7.36" height="7.36"/>
	
		<rect x="127.11" y="244.08" transform="matrix(-1 -4.462887e-11 4.462887e-11 -1 258.7911 492.731)" class="st8" width="4.56" height="4.56"/>
	<rect x="120.87" y="157.93" class="st10" width="4.2" height="2.98"/>
	<rect x="122.19" y="141.49" class="st7" width="2.88" height="2.53"/>
	<rect x="120.87" y="190.57" class="st10" width="4.2" height="5.06"/>
	
		<rect x="183.1" y="296.49" transform="matrix(-0.7071 0.7071 -0.7071 -0.7071 541.8835 382.3477)" class="st1" width="17.32" height="13.82"/>
	
		<rect x="185.66" y="308.33" transform="matrix(-0.7603 0.6496 -0.6496 -0.7603 545.3163 419.7816)" class="st1" width="19.09" height="4.34"/>
	
		<rect x="180.63" y="47.36" transform="matrix(-0.6347 0.7727 -0.7727 -0.6347 337.6118 -60.1089)" class="st6" width="4.76" height="4.76"/>
	<polygon class="st0" points="271.6,123.51 275.12,116.84 272.9,115.42 269.05,122.29 	"/>
	<polygon class="st13" points="171.07,0.01 168.55,31.12 122.37,86.39 -0.15,101.17 -0.15,0 	"/>
	<rect x="350.22" y="9.92" class="st3" width="3.23" height="3.09"/>
</g>
<rect x="195.86" y="154.62" transform="matrix(-0.7071 0.7071 -0.7071 -0.7071 447.7429 126.6168)" class="st8" width="3.57" height="2.84"/>
<rect x="160.53" y="183.77" transform="matrix(-0.7071 0.7071 -0.7071 -0.7071 408.0397 201.3529)" class="st8" width="3.57" height="2.84"/>
<rect x="156.71" y="197.11" transform="matrix(-0.7071 0.7071 -0.7071 -0.7071 410.952 226.8364)" class="st8" width="3.57" height="2.84"/>
<rect x="218.76" y="165.97" transform="matrix(0.7071 -0.7071 0.7071 0.7071 -53.9856 205.6418)" class="st7" width="4.96" height="4.04"/>
<rect x="196.15" y="217.09" transform="matrix(0.7071 -0.7071 0.7071 0.7071 -96.7588 204.625)" class="st8" width="4.96" height="4.04"/>
<rect x="233.28" y="190.27" transform="matrix(0.7071 -0.7071 0.7071 0.7071 -66.9172 223.0268)" class="st8" width="4.96" height="4.04"/>
</svg>
