<?xml version="1.0" encoding="utf-8"?>
<!-- Generator: Adobe Illustrator 24.2.0, SVG Export Plug-In . SVG Version: 6.00 Build 0)  -->
<svg version="1.1" id="Layer_1" xmlns="http://www.w3.org/2000/svg" xmlns:xlink="http://www.w3.org/1999/xlink" x="0px" y="0px"
	 viewBox="0 0 377.72 383.71" style="enable-background:new 0 0 377.72 383.71;" xml:space="preserve">
<style type="text/css">
	.Drop_x0020_Shadow{fill:none;}
	.Round_x0020_Corners_x0020_2_x0020_pt{fill:#FFFFFF;stroke:#000000;stroke-miterlimit:10;}
	.Live_x0020_Reflect_x0020_X{fill:none;}
	.Bevel_x0020_Soft{fill:url(#SVGID_1_);}
	.Dusk{fill:#FFFFFF;}
	.Foliage_GS{fill:#FFDD00;}
	.Pompadour_GS{fill-rule:evenodd;clip-rule:evenodd;fill:#44ADE2;}
	.st0{fill:#8D6A3F;}
	.st1{fill:#2F3E83;}
	.st2{fill:#3967B1;}
	.st3{fill:#699ED4;}
	.st4{fill:#A7D1F0;}
	.st5{fill:none;}
	.st6{fill:#696E40;}
	.st7{fill:#6D522E;}
	.st8{fill:#4F3928;}
	.st9{fill:#31261E;}
	.st10{fill:#AF9D66;}
	.st11{fill:#666666;}
	.st12{fill:#333333;}
	.st13{fill:#908248;}
</style>
<linearGradient id="SVGID_1_" gradientUnits="userSpaceOnUse" x1="3307.6782" y1="-1150.2164" x2="3308.3855" y2="-1149.5093">
	<stop  offset="0" style="stop-color:#DEDFE3"/>
	<stop  offset="0.1738" style="stop-color:#D8D9DD"/>
	<stop  offset="0.352" style="stop-color:#C9CACD"/>
	<stop  offset="0.5323" style="stop-color:#B4B5B8"/>
	<stop  offset="0.7139" style="stop-color:#989A9C"/>
	<stop  offset="0.8949" style="stop-color:#797C7E"/>
	<stop  offset="1" style="stop-color:#656B6C"/>
</linearGradient>
<rect x="0.15" y="0" transform="matrix(-1 -4.489576e-11 4.489576e-11 -1 377.8718 383.715)" class="st0" width="377.57" height="383.71"/>
<g>
	<rect x="231.5" y="325.99" class="st1" width="24.42" height="24.42"/>
	<rect x="243.71" y="333.12" class="st1" width="22.82" height="21.22"/>
	<polygon class="st2" points="0,271.91 0,383.71 377.72,383.71 377.57,271.91 	"/>
	<rect x="0.03" y="163.5" class="st2" width="150.49" height="111.81"/>
	<rect x="0.01" y="0" class="st2" width="66.24" height="219.29"/>
	<rect x="196.56" y="313.41" class="st3" width="9.34" height="16.52"/>
	
		<rect x="210.58" y="320.69" transform="matrix(0.1968 -0.9804 0.9804 0.1968 -153.097 478.0887)" class="st3" width="9.34" height="23.58"/>
	<path class="st1" d="M248.72,324l-6.36-4.24l-2.14,3.22l-9.79-6.52l-2.23,3.35l-15.02-10.01l2.23-3.35l-9.65-6.43l2.14-3.22
		l-6.43-4.29l2.14-3.22l-2.66-1.77l-22.87,34.32l7.11,4.74l-2.17,3.25l9.59,6.39l-2.17,3.25l19.2,12.79l2.17-3.25l9.75,6.5
		l2.17-3.25l6.43,4.29l22.87-34.32l-2.18-1.45L248.72,324z M225.33,335.62l-2.67-1.78l-1.67,2.51l-5.34-3.56l-1.67,2.51l-12.76-8.5
		l1.67-2.51l-5.34-3.56l1.67-2.51l-2.67-1.78l1.67-2.51l2.67,1.78l-1.67,2.51l5.34,3.56l-1.67,2.51l12.76,8.5l1.67-2.51l5.34,3.56
		l1.67-2.51l2.67,1.78L225.33,335.62z"/>
	<polygon class="st4" points="252.55,334.66 245.63,329.33 251.48,320.97 258.77,326.08 	"/>
	<g>
		<rect x="340.66" y="157" transform="matrix(0.5624 -0.8268 0.8268 0.5624 20.079 351.9396)" class="st5" width="3.8" height="0"/>
		<polygon class="st6" points="365.44,141.28 363.44,144.22 356.96,139.82 354.79,143.01 345.26,136.52 339.23,132.42 
			335.73,130.04 331.96,127.47 333.65,124.98 333.64,124.96 334.11,124.27 327.7,119.91 328.84,118.24 328.82,118.22 329.69,116.95 
			324.92,113.71 321.14,111.14 309.85,127.75 314.31,130.78 317.25,132.78 323.84,137.27 321.66,140.48 324.57,142.46 322.43,145.6 
			331.96,152.09 341.49,158.57 343.63,155.43 343.63,155.43 346.65,157.48 348.83,154.27 357.77,160.35 360.78,162.39 
			372.08,145.79 370.21,144.52 		"/>
		<polygon class="st0" points="332.55,176.86 327.21,173.22 325.02,176.44 310.37,166.47 312.55,163.26 307.25,159.65 
			308.62,157.65 295.56,148.76 292,153.98 304.09,162.2 301.88,165.44 305.11,167.64 302.97,170.79 306.02,172.86 304.02,175.8 
			318.67,185.77 320.67,182.83 323.72,184.9 325.86,181.75 329.09,183.95 331.3,180.71 342.94,188.62 346.49,183.41 333.91,174.85 
					"/>
		<polygon class="st7" points="336.89,167.6 336.88,167.6 334.85,166.21 332.72,169.34 331.65,168.61 329.53,167.17 328.47,166.45 
			326.29,169.66 317.38,163.61 315.96,162.64 318.14,159.43 317.11,158.72 315.34,157.52 313.92,156.55 316.04,153.42 
			314.23,152.19 315.71,150 301.35,140.24 295.56,148.76 308.62,157.65 307.25,159.65 312.55,163.26 310.37,166.47 325.02,176.44 
			327.21,173.22 332.55,176.86 333.91,174.85 346.49,183.41 352.28,174.88 338.37,165.42 		"/>
		
			<rect x="335.87" y="165.67" transform="matrix(0.5624 -0.8268 0.8268 0.5624 8.9589 350.738)" class="st8" width="0" height="2.46"/>
		<polygon class="st8" points="341.52,163.12 338.4,161 336.98,163.08 333.79,160.91 330.92,165.13 318.49,156.68 318.47,156.66 
			321.34,152.45 318.17,150.29 319.59,148.21 316.48,146.09 316.47,146.08 318.53,143.05 305.48,134.17 301.35,140.24 315.71,150 
			314.23,152.19 316.04,153.42 313.92,156.55 315.34,157.52 317.11,158.72 318.14,159.43 315.96,162.64 317.38,163.61 
			326.29,169.66 328.47,166.45 329.53,167.17 331.65,168.61 332.72,169.34 334.85,166.21 334.85,166.21 336.89,167.6 338.37,165.42 
			352.28,174.88 356.46,168.75 343.63,160.02 		"/>
		
			<rect x="317.37" y="154.55" transform="matrix(0.5624 -0.8268 0.8268 0.5624 12.1835 332.1499)" class="st9" width="5.1" height="0.03"/>
		
			<rect x="315.67" y="144.56" transform="matrix(0.5624 -0.8268 0.8268 0.5624 19.3909 325.7834)" class="st9" width="3.67" height="0.01"/>
		<polygon class="st9" points="348.83,154.27 346.65,157.48 343.63,155.43 341.49,158.57 341.49,158.57 331.96,152.09 322.43,145.6 
			324.57,142.46 321.66,140.48 323.84,137.27 317.25,132.78 314.31,130.78 309.85,127.75 305.48,134.17 318.53,143.05 
			318.54,143.06 316.48,146.09 319.59,148.21 318.17,150.29 321.34,152.45 321.36,152.46 318.49,156.68 330.92,165.13 
			333.79,160.91 336.98,163.08 338.4,161 341.52,163.12 343.63,160.02 356.46,168.75 360.78,162.39 357.77,160.35 		"/>
		<polygon class="st7" points="320.23,203.91 317.01,201.72 319.15,198.58 315.91,196.38 311.88,193.6 313.36,191.41 300.75,182.83 
			299.23,185.06 292.81,180.69 290.68,183.82 286.61,181.05 284.44,184.24 275.54,178.19 269.23,187.46 273.01,190.03 
			275.12,186.93 281.37,191.18 283.46,188.1 289.8,192.41 291.9,189.32 291.94,189.34 310.77,202.15 310.73,202.21 310.77,202.24 
			308.71,205.28 314.87,209.47 314.79,209.58 314.84,209.61 312.82,212.58 318.93,216.73 318.89,216.79 318.91,216.81 
			317.56,218.79 317.54,218.78 316.82,219.83 320.16,222.11 326.47,212.83 318.06,207.11 		"/>
		<path class="st10" d="M329.09,183.95l-3.23-2.2l-2.14,3.15l-3.04-2.07l-2,2.94l-14.66-9.97l2-2.94l-3.04-2.07l2.14-3.15l-3.23-2.2
			l2.21-3.25L292,153.98l-1.67,2.45l3.42,2.32l-1.84,2.7l-3.42-2.32l-12.96,19.06l8.9,6.05l2.17-3.2l4.07,2.77l2.12-3.12l6.42,4.37
			l1.52-2.23l12.61,8.58l-1.49,2.19l4.03,2.78l3.23,2.2l-2.14,3.15l3.22,2.19l-2.17,3.2l8.41,5.72l13.03-19.15l-1.61-1.09l1.84-2.7
			l1.61,1.09l1.6-2.36l-11.64-7.92L329.09,183.95z M294.85,170.82l-2.7-1.84l1.84-2.7l2.7,1.84L294.85,170.82z M329.88,190.7
			l2.7,1.84l-1.84,2.7l-2.7-1.84L329.88,190.7z"/>
		<polygon class="st8" points="297.45,248.32 297.42,248.31 297.38,248.37 294.37,246.32 292.39,249.22 292.39,249.22 
			292.29,249.37 289.04,247.15 286.86,250.35 280.64,246.12 278.54,249.2 259.66,236.36 261.76,233.28 255.63,229.11 255.65,229.09 
			255.43,228.95 257.6,225.76 254.52,223.65 256.62,220.55 253.64,218.52 253.43,218.38 255.63,215.14 252.05,212.71 245.59,222.22 
			252.5,226.92 250.38,230.04 253.46,232.14 251.31,235.29 282.73,256.66 284.88,253.51 288.02,255.65 290.15,252.53 296.52,256.86 
			302.95,247.4 299.62,245.13 		"/>
		
			<rect x="258.69" y="227.48" transform="matrix(0.5624 -0.8268 0.8268 0.5624 -77.9539 315.059)" class="st11" width="0.03" height="7.41"/>
		<path class="st0" d="M317.54,218.78l-6.11-4.16l-0.01,0.01l-6.12-4.21l2.76-4.06l-18.85-12.82l-2.77,4.07l-6.25-4.25l-6.42-4.37
			l1.35-1.99l6.25,4.25l2.08-3.05l6.38,4.25l2.12-3.12l-0.04-0.03l-2.11,3.1l-6.34-4.31l-2.09,3.08l-6.25-4.25l-2.11,3.1l-3.78-2.57
			l-8.59,12.63l0.7,0.47l3.04,2.07l0.56,0.38l-2.12,3.12l2.48,1.68l-2.16,3.17l-3.93,5.78l-0.35,0.51l6.18,4.2l-2.16,3.17l9.5,6.46
			l2.09-3.08l6.29,4.28l-2.09,3.08l3.15,2.14l-2.18,3.21l1.09,0.74l0.01-0.01l5.32,3.62l2.13-3.13l3.06,2.08l2.55-3.75l3.89-5.72
			l3.21,2.19l2.14-3.15l3.11,2.12l2.14-3.15l3.25,2.21l8.63-12.68l-3.34-2.27L317.54,218.78z M278.85,212.47l-5.61-3.82l3.82-5.61
			l5.61,3.82L278.85,212.47z M297.83,211.84l-2.7-1.84l1.84-2.7l2.7,1.84L297.83,211.84z M291.85,229.66l-2.7-1.84l1.84-2.7
			l2.7,1.84L291.85,229.66z"/>
		
			<rect x="315.82" y="210.99" transform="matrix(0.5624 -0.8268 0.8268 0.5624 -39.3047 355.098)" class="st0" width="0.07" height="7.39"/>
		<polygon class="st0" points="296.4,192.46 306.44,199.29 310.73,202.21 310.77,202.15 291.94,189.34 295.16,191.62 		"/>
		<polygon class="st0" points="314.79,209.58 314.87,209.47 308.71,205.28 308.65,205.36 		"/>
		<polygon class="st11" points="299.62,245.13 297.42,248.31 297.45,248.32 		"/>
		<polygon class="st11" points="294.37,246.32 294.34,246.31 292.39,249.22 292.39,249.22 		"/>
		<polygon class="st12" points="253.43,218.38 253.64,218.52 255.85,215.26 252.07,212.69 252.05,212.71 255.63,215.14 		"/>
		
			<rect x="295.85" y="245.49" transform="matrix(0.5624 -0.8268 0.8268 0.5624 -75.017 352.8709)" class="st12" width="0.08" height="3.64"/>
		<polygon class="st12" points="257.6,225.76 255.43,228.95 255.65,229.09 257.91,225.76 254.74,223.61 256.76,220.64 
			256.62,220.55 254.52,223.65 		"/>
		
			<rect x="301.27" y="244.21" transform="matrix(0.5624 -0.8268 0.8268 0.5624 -71.7547 356.8734)" class="st12" width="0.08" height="4.04"/>
		<polygon class="st12" points="278.54,249.2 280.64,246.12 280.57,246.07 278.55,249.04 259.99,236.42 262.01,233.45 
			261.76,233.28 259.66,236.36 		"/>
		
			<rect x="290.63" y="246.22" transform="matrix(0.5624 -0.8268 0.8268 0.5624 -78.0061 348.9709)" class="st12" width="0.18" height="3.94"/>
		
			<rect x="274.56" y="204.37" transform="matrix(0.5624 -0.8268 0.8268 0.5624 -50.1627 320.7308)" class="st7" width="6.78" height="6.78"/>
		
			<rect x="289.78" y="225.75" transform="matrix(0.5624 -0.8268 0.8268 0.5624 -60.5016 340.4465)" class="st7" width="3.27" height="3.27"/>
		
			<rect x="295.77" y="207.93" transform="matrix(0.5624 -0.8268 0.8268 0.5624 -43.1495 337.5983)" class="st7" width="3.27" height="3.27"/>
		
			<rect x="292.78" y="166.91" transform="matrix(0.5624 -0.8268 0.8268 0.5624 -10.5366 317.1823)" class="st0" width="3.27" height="3.27"/>
		
			<rect x="328.68" y="191.33" transform="matrix(0.5624 -0.8268 0.8268 0.5624 -15.0197 357.5488)" class="st0" width="3.27" height="3.27"/>
		
			<rect x="289.5" y="156.87" transform="matrix(0.5624 -0.8268 0.8268 0.5624 -4.031 310.2612)" class="st0" width="3.27" height="4.13"/>
		
			<rect x="337.98" y="190.81" transform="matrix(0.5624 -0.8268 0.8268 0.5624 -9.9776 364.7199)" class="st0" width="3.27" height="1.95"/>
		<polygon class="st7" points="306.14,235.72 303.03,233.6 300.89,236.75 297.68,234.56 293.79,240.28 291.24,244.03 288.18,241.95 
			286.05,245.09 280.73,241.47 280.72,241.48 279.63,240.74 281.82,237.53 278.67,235.38 280.76,232.31 274.47,228.03 
			272.38,231.11 262.88,224.64 265.03,221.48 258.86,217.27 259.2,216.76 263.13,210.98 265.29,207.81 262.81,206.13 264.94,203.01 
			264.38,202.63 261.34,200.56 260.64,200.09 252.07,212.69 255.85,215.26 253.64,218.52 256.62,220.55 256.76,220.64 
			254.74,223.61 257.91,225.76 255.65,229.09 261.77,233.26 261.76,233.28 262.01,233.45 259.99,236.42 278.55,249.04 
			280.57,246.07 280.64,246.12 286.86,250.35 289.04,247.15 289.14,247.01 292.39,249.22 294.34,246.31 294.37,246.32 
			294.41,246.26 297.42,248.31 299.62,245.13 299.66,245.06 303,247.34 311.54,234.79 308.28,232.58 		"/>
		<polygon class="st0" points="283.75,261.92 280.61,259.78 278.49,262.9 272.15,258.59 270.02,261.73 251.3,249 253.43,245.86 
			243.99,239.44 246.11,236.32 239.19,231.61 234.95,237.85 244.91,244.63 242.79,247.75 249.19,252.1 247.05,255.24 262.67,265.87 
			264.81,262.73 274.22,269.13 276.34,266.01 285.88,272.5 290.13,266.26 284.99,262.77 		"/>
		<polygon class="st7" points="288.02,255.65 284.88,253.51 282.73,256.66 251.31,235.29 253.46,232.14 250.38,230.04 252.5,226.92 
			245.59,222.22 239.19,231.61 246.11,236.32 243.99,239.44 253.43,245.86 272.15,258.59 278.49,262.9 280.61,259.78 283.75,261.92 
			284.99,262.77 290.13,266.26 296.52,256.86 290.15,252.53 		"/>
		<polygon class="st7" points="269.76,289.16 266.66,287.05 264.54,290.18 258.24,285.9 260.37,282.77 257.18,280.6 259.32,277.46 
			246.8,268.95 244.67,272.09 241.5,269.93 239.37,273.06 226.94,264.61 229.07,261.48 225.88,259.31 228.02,256.17 224.24,253.6 
			215.56,266.36 225.67,273.23 227.85,270.02 259.14,291.3 256.95,294.51 266.49,301 275.17,288.24 271.9,286.02 		"/>
		
			<rect x="259.83" y="242.48" transform="matrix(0.5624 -0.8268 0.8268 0.5624 -95.33 327.4537)" class="st0" width="3.8" height="22.64"/>
		<path class="st0" d="M274.22,269.13l-9.41-6.4l-2.14,3.14l-15.62-10.63l2.14-3.14l-6.4-4.35l2.12-3.12l-9.96-6.78l-10.71,15.75
			l3.78,2.57l-2.14,3.14l3.19,2.17l-2.13,3.13l12.43,8.46l2.13-3.13l3.17,2.15l2.14-3.14l12.51,8.51l-2.14,3.14l3.19,2.17
			l-2.13,3.13l6.29,4.28l2.13-3.13l3.1,2.11l2.14-3.14l3.27,2.23l10.71-15.75l-9.54-6.49L274.22,269.13z M238.48,266.54l-4.37-2.97
			l2.97-4.37l4.37,2.97L238.48,266.54z M269.7,276.39l-3.67-2.49l2.49-3.67l3.67,2.49L269.7,276.39z"/>
		<polygon class="st8" points="259.14,291.3 227.85,270.02 225.67,273.23 215.56,266.36 207.12,278.76 218.14,286.25 220.33,283.04 
			222.28,284.37 224.32,281.38 227.62,283.63 229.8,280.42 248.75,293.31 246.57,296.52 249.65,298.61 247.61,301.6 250.87,303.82 
			248.76,306.92 263.35,316.79 271.71,304.5 256.95,294.51 		"/>
		<polygon class="st7" points="225.5,302.11 228.38,297.87 233.92,301.64 231.04,305.88 237.36,310.18 242.4,302.76 239.23,300.6 
			241.37,297.44 241.43,297.36 241.46,297.31 228.84,288.72 228.75,288.85 228.75,288.85 226.6,292.01 223.43,289.85 223.42,289.85 
			223.29,289.76 218.25,297.17 		"/>
		
			<rect x="237.39" y="313.35" transform="matrix(0.5624 -0.8268 0.8268 0.5624 -154.1501 335.417)" class="st7" width="4.9" height="0.01"/>
		
			<rect x="242.57" y="306.5" transform="matrix(0.5624 -0.8268 0.8268 0.5624 -146.4497 336.2722)" class="st7" width="3.84" height="0.01"/>
		
			<rect x="243.4" y="311.78" transform="matrix(0.5624 -0.8268 0.8268 0.5624 -150.4356 339.2957)" class="st7" width="3.91" height="0.01"/>
		<path class="st9" d="M250.87,303.82l-3.26-2.22l2.03-2.99l-3.08-2.09l2.18-3.21l-18.95-12.89l-2.18,3.21l-3.3-2.25l-2.03,2.99
			l-1.96-1.33l-2.18,3.21l-11.02-7.49l-7.12,10.46l6.95,4.73l-1.44,2.12l6.16,4.19l-2.14,3.15l5.44,3.7l-1.44,2.12l14.45,9.83
			l1.44-2.12l5.46,3.72l2.14-3.15l6.12,4.17l1.44-2.12l8.75,5.95l4.78-12.21l-9.37-6.37L250.87,303.82z M244.27,313.41l-0.01-0.01
			l-3.03-2.06l-2.75,4.05l-0.01-0.01l-2.99-2.03l-0.18-0.12l-3.18-2.16l-1.05-0.71l-3.18-2.16l-0.99-0.68l-2.19-1.49l-0.99-0.68
			l-3.18-2.16l-1.05-0.71l-3.18-2.16l-0.13-0.09l-0.52-0.35l-2.53-1.72l2.75-4.05l-3.04-2.07l2.2-3.23l3.04,2.07l2.16-3.18
			l3.04,2.07l0.13,0.09l2.2-3.23l3.18,2.16l-0.05,0.08l0,0l0.09-0.13l0,0l2.07-3.04l0,0l5.22,3.55l2.19,1.49l5.22,3.55l-2.07,3.04
			l-0.04,0.06l3.18,2.16l-0.05,0.08l-2.15,3.16l3.17,2.15l0.01,0.01l-2.16,3.18l3.03,2.06l0.01,0.01L244.27,313.41z"/>
		<polygon class="st8" points="243.42,308.1 243.41,308.09 245.57,304.91 242.4,302.76 237.36,310.18 231.04,305.88 233.92,301.64 
			228.38,297.87 225.5,302.11 218.25,297.17 223.29,289.76 220.25,287.69 218.08,290.87 215.04,288.79 212.84,292.03 215.88,294.1 
			213.13,298.15 215.66,299.87 216.18,300.22 216.31,300.31 219.49,302.47 220.53,303.18 223.71,305.35 224.71,306.02 
			226.89,307.51 227.88,308.18 231.06,310.35 232.11,311.06 235.29,313.22 235.47,313.34 238.45,315.37 241.21,311.33 
			241.22,311.33 244.25,313.4 246.45,310.16 		"/>
		
			<rect x="224.18" y="287.43" transform="matrix(0.5624 -0.8268 0.8268 0.5624 -140.3197 313.5436)" class="st8" width="3.82" height="3.84"/>
		<polygon class="st8" points="225.57,286.69 228.75,288.85 228.8,288.77 225.62,286.61 223.42,289.85 223.43,289.85 		"/>
		
			<rect x="239.98" y="298.18" transform="matrix(0.5624 -0.8268 0.8268 0.5624 -142.2932 331.3127)" class="st8" width="3.82" height="3.84"/>
		
			<rect x="242.94" y="296.56" transform="matrix(0.5624 -0.8268 0.8268 0.5624 -140.4747 331.5146)" class="st8" width="0.09" height="3.84"/>
		<polygon class="st8" points="243.53,294.26 238.32,290.71 236.13,289.23 230.91,285.68 228.84,288.72 241.46,297.31 		"/>
		
			<rect x="228.03" y="287.19" transform="matrix(0.5624 -0.8268 0.8268 0.5624 -136.8813 315.7347)" class="st8" width="3.68" height="0.01"/>
		
			<rect x="235.14" y="260.22" transform="matrix(0.5624 -0.8268 0.8268 0.5624 -113.3045 311.6254)" class="st7" width="5.29" height="5.29"/>
		
			<rect x="266.89" y="271.09" transform="matrix(0.5624 -0.8268 0.8268 0.5624 -108.2315 342.0978)" class="st7" width="4.43" height="4.43"/>
		<polygon class="st10" points="283.44,188.21 281.36,191.27 275.12,187.02 273.77,189 280.19,193.37 286.44,197.63 289.21,193.55 
			308.06,206.37 305.3,210.43 311.42,214.64 311.43,214.62 317.54,218.78 317.56,218.79 318.91,216.81 318.89,216.79 312.78,212.64 
			312.82,212.58 314.84,209.61 314.79,209.58 308.65,205.36 308.71,205.28 310.77,202.24 310.73,202.21 306.44,199.29 296.4,192.46 
			295.16,191.62 291.94,189.34 289.82,192.46 		"/>
	</g>
	
		<rect x="44.92" y="140.13" transform="matrix(0.8838 -0.4678 0.4678 0.8838 -60.8051 38.1099)" class="st3" width="2.83" height="2.71"/>
	<g>
		
			<rect x="163.73" y="70.71" transform="matrix(0.4678 0.8838 -0.8838 0.4678 173.9357 -122.6765)" class="st13" width="50.22" height="24.77"/>
		<polygon class="st6" points="192.55,109.54 169.05,65.15 165.77,66.89 172.7,79.98 167.79,82.57 178.78,103.34 183.69,100.74 
			189.27,111.27 		"/>
		<polygon class="st9" points="185.95,100 183.86,101.11 183.37,100.19 182.37,100.72 181.37,98.83 179.28,99.94 178.78,99 
			177.75,99.54 171.81,88.33 172.84,87.78 172.34,86.84 174.44,85.73 171.97,81.07 173,80.53 172.51,79.61 174.58,78.51 
			167.85,65.79 164.18,67.73 169.76,78.28 167.69,79.38 168.36,80.65 167.34,81.19 169.57,85.42 166.45,87.07 174.58,102.43 
			175.6,101.89 176.74,104.03 178.84,102.93 179.19,103.58 179.17,103.59 184.57,113.79 191.35,110.2 		"/>
		<polygon class="st8" points="182.86,101.64 179.73,103.29 178.25,100.49 175.01,102.2 174.81,101.82 168.08,89.12 170.33,87.92 
			169.27,85.91 171.23,84.87 169.26,81.16 171.42,80.02 164.75,67.43 162.6,68.57 157.97,71.02 156.12,72 161.7,82.53 159.43,83.73 
			161.14,86.95 159.37,87.89 168.51,105.15 170.28,104.22 172.37,108.16 176.48,105.99 181.48,115.43 188.25,111.84 		"/>
		<polygon class="st7" points="177.78,104.29 174.52,106.02 174,105.04 172.94,105.61 172.03,103.89 170.94,104.47 169.92,102.54 
			168.84,103.11 161.94,90.09 163.03,89.51 162.49,88.49 164.48,87.44 162.51,83.72 163.6,83.15 163.1,82.2 165.43,80.97 
			159.69,70.11 152.64,73.84 157.41,82.85 154.88,84.19 158.32,90.7 158.59,90.55 166.03,104.6 165.76,104.74 169.2,111.25 
			170.29,110.67 171.32,112.6 174.8,110.76 178.18,117.14 183.18,114.5 		"/>
		<polygon class="st10" points="179.92,116.22 175.52,107.91 172.38,109.57 169.95,104.99 167.79,106.14 157.82,87.32 159.99,86.17 
			158.46,83.28 161.6,81.62 156.43,71.84 153.28,73.5 150.14,75.16 144.99,77.89 166.06,117.7 171.21,114.97 173.63,119.55 		"/>
		<polygon class="st10" points="168.33,122.33 174.6,119.01 169.77,109.89 167.67,111 166.63,109.02 164.56,110.12 163.08,107.31 
			161.4,108.31 151.07,88.79 152.75,87.79 151.74,85.89 153.8,84.8 152.79,82.88 154.89,81.77 151.12,74.65 137.28,81.97 
			137.29,81.99 129.99,85.86 153.47,130.22 168.34,122.35 		"/>
		<polygon class="st0" points="154.7,129.53 153.84,129.98 148.59,120.08 149.45,119.62 147.98,116.84 151.11,115.19 140.96,96.01 
			137.83,97.66 136.46,95.08 135.6,95.54 130.36,85.63 124.55,88.71 148.03,133.07 154.7,129.54 		"/>
		<polygon class="st8" points="143.51,123.67 145.61,122.56 144.58,120.62 147.73,118.95 146.28,116.2 147.36,115.63 146.35,113.72 
			147.38,113.17 146.39,111.3 147.45,110.74 142.54,101.45 141.47,102.01 140.48,100.14 139.45,100.69 138.48,98.86 137.4,99.43 
			135.94,96.67 132.79,98.34 131.26,95.45 129.16,96.56 124.9,88.52 122.02,90.05 145.5,134.41 148.39,132.88 		"/>
		<g>
			
				<rect x="151.63" y="112.06" transform="matrix(0.8838 -0.4678 0.4678 0.8838 -36.9337 86.5086)" class="st10" width="8.16" height="11.12"/>
			
				<rect x="138.8" y="91" transform="matrix(0.8838 -0.4678 0.4678 0.8838 -27.7137 76.7537)" class="st10" width="3.77" height="6.36"/>
		</g>
		<polygon class="st0" points="141.37,124.6 142.7,123.89 141.88,122.32 143.58,121.43 142.49,119.38 144.03,118.56 143.07,116.73 
			145.09,115.66 137.17,100.7 135.15,101.77 134.21,99.99 132.66,100.81 131.54,98.7 129.85,99.6 129.01,98.02 127.67,98.73 
			122.85,89.61 117.6,92.39 122.42,101.51 136.12,127.38 141.1,136.79 146.35,134.02 		"/>
		<polygon class="st7" points="136.31,125.11 138.26,124.07 126.38,101.63 124.43,102.67 118.68,91.81 109.23,96.82 132.74,141.22 
			142.19,136.22 		"/>
		<path class="st1" d="M81,164.53l-5.75-10.86l-3.2,1.7l-1.08-2.04l-3.34,1.77l-6.91-13.06l3.34-1.77l-4.58-8.65l3.2-1.7l-1.83-3.47
			l3.2-1.7l-2.46-10.76l-42.13,11.64l11.29,18.9l-3.24,1.71l4.55,8.6l-3.24,1.71l9.12,17.22l3.24-1.71l4.63,8.75l3.24-1.71
			l9.17,6.65l27.65-19.77l-1.66-3.14L81,164.53z M58.14,166.74l-1.27-2.39l-2.5,1.32l-2.53-4.79l-2.5,1.32l-6.06-11.44l2.5-1.32
			l-2.53-4.79l2.5-1.32l-1.27-2.39l2.5-1.32l1.27,2.39l-2.5,1.32l2.53,4.79l-2.5,1.32l6.06,11.44l2.5-1.32l2.53,4.79l2.5-1.32
			l1.27,2.39L58.14,166.74z"/>
		<polygon class="st8" points="126.2,130.34 130.43,128.38 127.76,122.61 132.12,120.59 126.82,109.18 122.46,111.21 121.15,108.39 
			116.92,110.35 110.38,96.26 101.06,100.59 122.19,146.12 131.52,141.79 		"/>
		
			<rect x="46.14" y="149.35" transform="matrix(0.8838 -0.4678 0.4678 0.8838 -67.369 40.3496)" class="st3" width="2.83" height="12.95"/>
		
			<rect x="52.94" y="159.9" transform="matrix(0.8838 -0.4678 0.4678 0.8838 -69.7568 44.3176)" class="st3" width="2.83" height="5.42"/>
		
			<rect x="44.32" y="143.69" transform="matrix(0.8838 -0.4678 0.4678 0.8838 -63.1737 38.4004)" class="st3" width="2.83" height="5.42"/>
		
			<rect x="57.34" y="163.52" transform="matrix(0.8838 -0.4678 0.4678 0.8838 -70.3063 46.6398)" class="st3" width="2.83" height="2.71"/>
		<polygon class="st0" points="115.85,139.62 118.96,137.97 116.89,134.07 121.25,130.86 106.66,110.09 102.71,110.98 98.75,111.88 
			98.23,116.65 111.58,141.87 115.94,150.11 120.21,147.85 		"/>
		<polygon class="st7" points="117.07,149.51 110.15,136.43 114.88,133.92 104.67,115.71 100.75,117.61 96.93,105.08 92.2,106.01 
			90.94,122.97 89.7,123.63 99.47,142.08 100.71,141.42 107.64,154.51 		"/>
		<polygon class="st8" points="108.09,140.15 105.04,141.77 102.03,136.08 99.57,137.38 93.67,126.23 96.13,124.93 93.21,119.41 
			96.26,117.8 92.2,106.01 72.4,110.45 79.62,126.6 80.41,126.19 83.06,131.18 80.6,132.48 87.15,144.86 89.61,143.56 92.24,148.54 
			91.46,148.96 97.29,159.98 113.93,151.18 		"/>
		<polygon class="st9" points="101.59,150.7 98.4,152.39 96.9,149.56 93.95,151.13 79.06,123 82.02,121.44 80.85,119 84.23,117.55 
			81.88,108.75 70.61,108.57 64,110.66 69.68,125.72 68.65,126.26 70.61,129.97 68.53,131.07 71.2,136.13 68.03,137.81 
			75.42,151.77 78.59,150.09 81.28,155.16 81.05,156.37 83.87,161.7 89.11,157.84 91.77,162.85 96.15,160.53 98.32,159.39 
			99.2,158.92 101.27,157.82 104.47,156.13 		"/>
		
			<rect x="139.99" y="104.63" transform="matrix(0.4678 0.8838 -0.8838 0.4678 171.2121 -73.1413)" class="st0" width="12.7" height="1.93"/>
		
			<rect x="165.91" y="69.7" transform="matrix(0.4678 0.8838 -0.8838 0.4678 154.0535 -114.6253)" class="st6" width="12.6" height="1.81"/>
		
			<rect x="183.52" y="102.98" transform="matrix(0.4678 0.8838 -0.8838 0.4678 192.8353 -112.4831)" class="st6" width="12.6" height="1.81"/>
		
			<rect x="173.16" y="88.49" transform="matrix(0.4678 0.8838 -0.8838 0.4678 175.5732 -112.7443)" class="st13" width="16.49" height="1.86"/>
		<polygon class="st4" points="85.98,159.63 83.01,154.02 81.05,154.94 78.31,149.76 76.15,150.91 69.22,137.81 71.38,136.67 
			68.73,131.68 71.94,129.98 68.95,124.33 71.11,123.19 68.35,112.54 61.42,114.4 63.55,124.24 60.34,125.93 62.51,130.02 
			59.3,131.72 63.88,140.37 60.54,142.14 67.67,155.61 71.01,153.84 75.66,162.62 78.86,160.92 81.22,165.37 84.42,163.68 
			85.72,166.13 92.06,162.78 89.38,157.72 		"/>
	</g>
	<g>
		
			<rect x="240.88" y="141.4" transform="matrix(0.7071 -0.7071 0.7071 0.7071 -30.3258 213.4015)" class="st0" width="3.11" height="3.82"/>
		
			<rect x="175.13" y="204.6" transform="matrix(0.7071 -0.7071 0.7071 0.7071 -94.5399 185.9131)" class="st8" width="4.04" height="4.96"/>
		
			<rect x="114.35" y="207.76" transform="matrix(0.7071 -0.7071 0.7071 0.7071 -129.1384 162.737)" class="st1" width="35.05" height="58.98"/>
		<polygon class="st9" points="169.14,241.7 134.61,207.17 134.61,207.17 127.43,199.99 121.37,206.05 134.86,219.54 132.89,221.51 
			146.95,235.58 148.92,233.6 148.02,232.7 146.04,234.67 152.39,241.02 154.37,239.05 155.89,240.57 157.51,238.96 164.69,246.14 
					"/>
		<g>
			<polygon class="st8" points="141.48,214.67 127.12,200.3 135.13,192.29 148.1,205.27 144.97,208.39 150.55,213.97 147.81,216.71 
				151.51,220.41 155.21,224.11 161.08,218.24 164.82,221.98 167.82,218.98 171.99,223.15 167.91,227.23 172.06,231.38 
				168.67,234.77 172.36,238.47 168.82,242.01 158.08,231.26 154.47,234.87 150.16,230.56 148.02,232.7 138.52,223.19 
				140.65,221.06 137.87,218.27 			"/>
		</g>
		
			<rect x="254.29" y="129.06" transform="matrix(0.7071 -0.7071 0.7071 0.7071 -16.3538 218.6286)" class="st5" width="2.89" height="0"/>
		
			<rect x="177.93" y="218.38" transform="matrix(0.7071 -0.7071 0.7071 0.7071 -103.4643 191.9316)" class="st8" width="4.04" height="4.96"/>
		
			<rect x="140.29" y="191.15" transform="matrix(0.7071 -0.7071 0.7071 0.7071 -95.2355 157.3462)" class="st8" width="4.04" height="4.96"/>
		
			<rect x="78.5" y="243.02" transform="matrix(0.7071 0.7071 -0.7071 0.7071 216.2789 0.1232)" class="st2" width="58.98" height="36.22"/>
		<g>
			<polygon class="st8" points="216.18,194.65 216.48,194.35 213.68,197.15 214.02,196.81 			"/>
			<polygon class="st8" points="174.97,152.45 174.97,152.45 174.47,152.95 			"/>
			<polygon class="st8" points="168.25,159.16 172.32,155.1 171.38,156.04 			"/>
			<polygon class="st7" points="213.08,197.75 211.8,199.03 213.68,197.15 			"/>
		</g>
		<g>
			
				<rect x="119.93" y="234.06" transform="matrix(0.7071 -0.7071 0.7071 0.7071 -135.1561 156.2726)" class="st3" width="2.26" height="14.45"/>
			
				<rect x="128.77" y="243.91" transform="matrix(0.7071 -0.7071 0.7071 0.7071 -136.562 164.1777)" class="st3" width="2.26" height="6.04"/>
			
				<rect x="114.28" y="229.42" transform="matrix(0.7071 -0.7071 0.7071 0.7071 -130.5604 149.6885)" class="st3" width="2.26" height="6.04"/>
			
				<rect x="112.67" y="226.13" transform="matrix(0.7071 -0.7071 0.7071 0.7071 -127.6377 147.1435)" class="st3" width="2.26" height="3.02"/>
			
				<rect x="133.57" y="247.03" transform="matrix(0.7071 -0.7071 0.7071 0.7071 -136.2949 168.0439)" class="st3" width="2.26" height="3.02"/>
		</g>
		
			<rect x="91" y="247.2" transform="matrix(0.7071 0.7071 -0.7071 0.7071 211.1013 -12.3765)" class="st1" width="58.98" height="2.86"/>
		
			<rect x="97.65" y="242.9" transform="matrix(0.7071 0.7071 -0.7071 0.7071 206.5047 -8.3952)" class="st1" width="31.47" height="4.34"/>
		
			<rect x="102.32" y="244.46" transform="matrix(0.7071 0.7071 -0.7071 0.7071 207.1589 -6.8673)" class="st1" width="19.09" height="4.34"/>
		
			<rect x="97.87" y="228.11" transform="matrix(0.7071 0.7071 -0.7071 0.7071 192.0216 -3.0096)" class="st2" width="3.55" height="4.34"/>
		
			<rect x="126.55" y="262.81" transform="matrix(0.7071 0.7071 -0.7071 0.7071 226.8622 -17.441)" class="st2" width="15.87" height="4.63"/>
		
			<rect x="216.02" y="182.98" transform="matrix(0.7071 0.7071 -0.7071 0.7071 194.1836 -100.0015)" class="st8" width="3.57" height="2.84"/>
		
			<rect x="174.15" y="154.7" transform="matrix(0.7071 0.7071 -0.7071 0.7071 161.838 -78.632)" class="st8" width="3.38" height="2.68"/>
		
			<rect x="254.26" y="140.59" transform="matrix(0.7071 0.7071 -0.7071 0.7071 176.8692 -142.247)" class="st7" width="11.76" height="3.58"/>
		
			<rect x="206.3" y="131.23" transform="matrix(0.7071 -0.7071 0.7071 0.7071 -33.1134 185.6476)" class="st0" width="2.48" height="3.13"/>
		
			<rect x="225.49" y="153.95" transform="matrix(0.7071 -0.7071 0.7071 0.7071 -43.5539 205.8704)" class="st0" width="2.48" height="3.13"/>
		
			<rect x="245.03" y="154.69" transform="matrix(0.7071 -0.7071 0.7071 0.7071 -38.3567 219.902)" class="st0" width="2.48" height="3.13"/>
	</g>
	<rect x="105.44" y="140.73" class="st7" width="5.98" height="5.98"/>
	<g>
		<polygon class="st1" points="259.29,367.62 225.24,347.96 247.4,330.7 255.62,330.43 		"/>
		
			<rect x="281.85" y="182.36" transform="matrix(0.7071 -0.7071 0.7071 0.7071 -47.2947 254.368)" class="st0" width="3.11" height="3.82"/>
		
			<rect x="216.09" y="245.56" transform="matrix(0.7071 -0.7071 0.7071 0.7071 -111.5088 226.8797)" class="st8" width="4.04" height="4.96"/>
		
			<rect x="155.31" y="248.73" transform="matrix(0.7071 -0.7071 0.7071 0.7071 -146.1073 203.7036)" class="st1" width="35.05" height="58.98"/>
		<polygon class="st9" points="210.1,282.66 175.58,248.14 175.58,248.14 168.39,240.96 162.34,247.01 175.83,260.51 173.85,262.48 
			187.91,276.54 189.89,274.57 188.99,273.66 187.01,275.64 193.36,281.99 195.33,280.01 196.86,281.54 198.48,279.92 
			205.66,287.11 		"/>
		
			<rect x="165.28" y="248.03" transform="matrix(0.7071 0.7071 -0.7071 0.7071 238.2673 -62.6631)" class="st8" width="58.98" height="16.52"/>
		
			<rect x="178.28" y="260.6" transform="matrix(0.7071 0.7071 -0.7071 0.7071 242.7989 -56.8406)" class="st8" width="23.47" height="8.13"/>
		
			<rect x="179.33" y="264.53" transform="matrix(0.7071 0.7071 -0.7071 0.7071 243.3578 -53.3267)" class="st8" width="13.44" height="5.14"/>
		<polygon class="st7" points="300.01,181.69 299.2,182.5 268.56,151.86 269.37,151.05 263.84,145.52 263.02,146.33 261.3,148.05 
			257.49,151.86 268.74,163.11 264.83,167.02 268.62,170.8 266.99,172.43 278.99,184.44 280.62,182.8 284.49,186.68 288.4,182.77 
			299.19,193.57 303,189.76 304.73,188.03 305.54,187.22 		"/>
		<polygon class="st7" points="194.98,225.74 191.98,228.73 186.3,223.05 176.09,233.26 189.07,246.23 185.94,249.36 191.52,254.94 
			188.78,257.68 196.18,265.08 202.04,259.21 205.78,262.95 208.78,259.95 212.95,264.12 208.88,268.19 213.03,272.34 
			209.63,275.73 213.33,279.43 220.8,271.97 231,261.76 		"/>
		
			<rect x="295.25" y="170.02" transform="matrix(0.7071 -0.7071 0.7071 0.7071 -33.3227 259.5952)" class="st5" width="2.89" height="0"/>
		<polygon class="st13" points="280.21,135.32 284.12,139.23 283.08,140.26 283.09,140.28 281.72,141.65 286.97,146.9 286.4,147.46 
			286.42,147.48 284.37,149.52 287.46,152.61 290.33,155.48 295.27,160.42 303.07,168.22 305.68,165.61 310.99,170.92 313.4,168.51 
			317.3,172.41 318.83,173.94 338.64,154.12 296.93,112.42 277.12,132.23 		"/>
		<polygon class="st6" points="317.52,164.38 315.97,165.93 310.67,160.63 308.22,163.08 289.52,144.38 291.95,141.91 
			286.71,136.67 288.24,135.1 281.25,128.1 269.73,139.62 273.38,143.28 275.79,145.68 281.19,151.08 279.5,152.77 281.88,155.15 
			279.58,157.46 295.19,173.07 297.49,170.77 297.49,170.77 299.96,173.23 301.65,171.54 308.97,178.87 311.44,181.33 
			322.95,169.81 		"/>
		<polygon class="st8" points="296.18,175.58 293.62,173.02 292.26,174.37 289.65,171.76 286.91,174.5 276.74,164.33 276.72,164.31 
			279.46,161.57 276.87,158.98 278.22,157.62 275.67,155.07 275.66,155.06 277.64,153.09 266.95,142.4 262.28,147.07 275.55,160.3 
			272.8,163.04 273.97,164.21 275.41,165.66 276.26,166.5 274.17,168.59 275.34,169.76 282.63,177.05 284.72,174.96 285.59,175.83 
			287.32,177.56 288.2,178.44 290.94,175.7 303.99,188.78 308.7,184.07 298.19,173.56 		"/>
		<polygon class="st7" points="250.62,182.25 238.86,170.49 235.1,174.25 238.62,177.77 235.83,180.56 243.56,188.29 240.22,191.63 
			244.01,195.41 241.8,197.62 253.8,209.63 256.01,207.41 259.88,211.29 263.22,207.95 270.5,215.23 273.29,212.44 276.81,215.96 
			280.57,212.2 		"/>
		<polygon class="st9" points="302.32,170.87 300.34,172.85 297.87,170.39 295.83,172.43 295.18,173.08 279.57,157.47 
			282.26,154.77 279.88,152.39 281.86,150.41 270.4,138.95 266.33,143.02 277.02,153.71 277.03,153.72 275.06,155.69 277.6,158.24 
			276.25,159.59 278.84,162.19 278.86,162.21 276.12,164.95 286.29,175.12 289.04,172.38 291.65,174.99 293,173.64 295.56,176.19 
			297.58,174.18 308.08,184.68 312.11,180.66 		"/>
		<path class="st10" d="M287.91,185.8l-2.73,2.73l-2.65-2.65l-2.04,2.04l-2.49-2.49l-1.91,1.91l-12-12l1.91-1.91l-2.49-2.49
			l2.04-2.04l-2.65-2.65l2.73-2.73l-9.89-9.89l-9.9,9.9l-3.26,3.26l-4.04,4.04l6.82,6.82l-1.42,1.42l5.72,5.72l-1.43,1.43l2.49,2.49
			l-2.48,2.48l12,12l2.48-2.48l2.49,2.49l1.43-1.43l5.32,5.32l1.42-1.42l6.86,6.86l4.04-4.04l3.26-3.26l9.9-9.9L287.91,185.8z"/>
		<polygon class="st0" points="230.26,239.35 226.38,243.23 223.81,240.66 224.63,239.84 203.89,219.1 199.75,223.24 192.93,216.42 
			185.25,224.1 194.04,232.89 189.82,237.11 204.62,251.92 208.84,247.7 212.8,251.66 216.26,248.21 230.41,262.36 235.2,257.57 
			237.96,254.81 241.83,250.93 		"/>
		<polygon class="st8" points="288.4,182.77 286.25,184.92 284.54,183.21 284.48,183.27 282.31,181.11 278.99,184.44 266.99,172.43 
			269.69,169.73 267.56,167.59 268.24,166.91 267.13,165.81 269.29,163.65 257.49,151.86 253.61,155.74 260.4,162.54 258.79,164.16 
			264.53,169.9 262.49,171.95 264.98,174.44 263.48,175.94 275.48,187.94 276.98,186.44 279.47,188.93 281.52,186.89 286.76,192.13 
			288.38,190.51 295.31,197.45 299.2,193.56 		"/>
		<polygon class="st7" points="118.18,125.82 121.32,128.97 124.39,125.9 128.39,129.9 130.86,127.43 145.27,141.84 148.57,138.54 
			168.72,158.69 159.88,167.53 163.03,170.67 166.09,167.6 170.09,171.61 172.56,169.14 186.97,183.55 190.28,180.24 210.43,200.39 
			201.6,209.24 204,211.64 207.06,208.58 211.06,212.58 213.53,210.11 227.94,224.52 231.25,221.21 251.4,241.37 241.79,250.98 
			241.79,250.98 236.94,255.83 231.52,250.41 236.37,245.56 230.21,239.4 226.38,243.23 217.1,233.95 215.16,235.9 210.72,231.45 
			208.09,234.08 191.68,217.67 195.23,214.12 190.55,209.44 195.4,204.59 189.24,198.43 185.41,202.26 176.13,192.98 174.19,194.93 
			169.75,190.48 167.12,193.11 150.71,176.7 151.97,175.45 154.26,173.15 148.85,167.74 153.7,162.89 147.53,156.73 143.7,160.55 
			134.43,151.28 132.48,153.22 128.04,148.78 125.42,151.4 112.85,131.15 		"/>
		
			<rect x="218.9" y="259.35" transform="matrix(0.7071 -0.7071 0.7071 0.7071 -120.4332 232.8982)" class="st8" width="4.04" height="4.96"/>
		
			<rect x="181.26" y="232.12" transform="matrix(0.7071 -0.7071 0.7071 0.7071 -112.2044 198.3128)" class="st8" width="4.04" height="4.96"/>
		<polygon class="st0" points="296.21,185.49 294.6,187.1 289.34,181.83 288.12,183.05 286.41,181.34 285.42,182.33 282.28,179.19 
			280.05,181.42 269.97,171.34 272.2,169.11 269.57,166.49 270.56,165.5 269,163.94 270.22,162.72 263.96,156.45 265.56,154.85 
			260.03,149.32 258.43,150.92 257.49,151.86 257,152.39 263.79,159.19 262.11,160.83 267.85,166.58 266.7,167.74 269.19,170.23 
			266.81,172.61 278.81,184.61 281.19,182.23 283.68,184.72 284.84,183.57 290.08,188.81 291.75,187.14 298.69,194.08 299.2,193.56 
			300.13,192.63 301.74,191.03 		"/>
		
			<rect x="119.47" y="283.99" transform="matrix(0.7071 0.7071 -0.7071 0.7071 257.2455 -16.8457)" class="st2" width="58.98" height="36.22"/>
		<g>
			
				<rect x="160.9" y="275.03" transform="matrix(0.7071 -0.7071 0.7071 0.7071 -152.125 197.2392)" class="st3" width="2.26" height="14.45"/>
			
				<rect x="169.74" y="284.88" transform="matrix(0.7071 -0.7071 0.7071 0.7071 -153.5309 205.1443)" class="st3" width="2.26" height="6.04"/>
			
				<rect x="155.25" y="270.39" transform="matrix(0.7071 -0.7071 0.7071 0.7071 -147.5293 190.6551)" class="st3" width="2.26" height="6.04"/>
			
				<rect x="153.64" y="267.1" transform="matrix(0.7071 -0.7071 0.7071 0.7071 -144.6066 188.1101)" class="st3" width="2.26" height="3.02"/>
			
				<rect x="174.54" y="288" transform="matrix(0.7071 -0.7071 0.7071 0.7071 -153.2638 209.0105)" class="st3" width="2.26" height="3.02"/>
		</g>
		
			<rect x="131.97" y="288.17" transform="matrix(0.7071 0.7071 -0.7071 0.7071 252.0679 -29.3454)" class="st1" width="58.98" height="2.86"/>
		
			<rect x="138.62" y="283.87" transform="matrix(0.7071 0.7071 -0.7071 0.7071 247.4713 -25.3641)" class="st1" width="31.47" height="4.34"/>
		
			<rect x="143.29" y="285.42" transform="matrix(0.7071 0.7071 -0.7071 0.7071 248.1255 -23.8362)" class="st1" width="19.09" height="4.34"/>
		
			<rect x="247.15" y="361.93" transform="matrix(0.866 0.5 -0.5 0.866 216.8197 -77.359)" class="st1" width="11.22" height="7.95"/>
		
			<rect x="138.83" y="269.08" transform="matrix(0.7071 0.7071 -0.7071 0.7071 232.9882 -19.9785)" class="st2" width="3.55" height="4.34"/>
		
			<rect x="167.52" y="303.78" transform="matrix(0.7071 0.7071 -0.7071 0.7071 267.8288 -34.4099)" class="st2" width="15.87" height="4.63"/>
		
			<rect x="256.98" y="223.95" transform="matrix(0.7071 0.7071 -0.7071 0.7071 235.1502 -116.9704)" class="st8" width="3.57" height="2.84"/>
		
			<rect x="215.11" y="195.66" transform="matrix(0.7071 0.7071 -0.7071 0.7071 202.8046 -95.6009)" class="st8" width="3.38" height="2.68"/>
		
			<rect x="261.82" y="148.21" transform="matrix(0.7071 0.7071 -0.7071 0.7071 184.4915 -145.4042)" class="st7" width="11.9" height="3.58"/>
		<g>
			<polygon class="st0" points="264.28,221.49 260.92,218.13 258.95,220.09 256.03,217.17 253.77,219.43 249.26,214.92 
				248.01,216.16 234.63,202.78 235.88,201.54 231.58,197.25 233.84,194.99 230.92,192.06 232.89,190.1 229.99,187.2 232.11,185.09 
				228.18,181.17 228.47,180.88 229.21,181.62 270.18,222.58 269.89,222.87 266.39,219.37 			"/>
		</g>
		
			<rect x="239.74" y="199.81" transform="matrix(0.7071 0.7071 -0.7071 0.7071 215.5398 -117.1606)" class="st7" width="18.92" height="3.58"/>
		
			<rect x="295.23" y="181.55" transform="matrix(0.7071 0.7071 -0.7071 0.7071 217.8358 -159.2159)" class="st7" width="11.76" height="3.58"/>
		
			<rect x="247.26" y="172.2" transform="matrix(0.7071 -0.7071 0.7071 0.7071 -50.0823 226.6142)" class="st0" width="2.48" height="3.13"/>
		
			<rect x="266.46" y="194.91" transform="matrix(0.7071 -0.7071 0.7071 0.7071 -60.5228 246.837)" class="st0" width="2.48" height="3.13"/>
		
			<rect x="285.99" y="195.65" transform="matrix(0.7071 -0.7071 0.7071 0.7071 -55.3256 260.8686)" class="st0" width="2.48" height="3.13"/>
	</g>
	<g>
		
			<rect x="25.84" y="80.54" transform="matrix(0.9753 -0.2209 0.2209 0.9753 -17.4485 8.0909)" class="st3" width="3.23" height="3.02"/>
		<g>
			
				<rect x="173.6" y="45.71" transform="matrix(0.2209 0.9753 -0.9753 0.2209 215.4269 -150.0156)" class="st13" width="56.03" height="28.24"/>
			<polygon class="st6" points="197.69,89.44 185.31,34.8 181.19,35.73 184.83,51.85 178.66,53.24 184.45,78.81 190.63,77.41 
				193.56,90.38 			"/>
			<polygon class="st7" points="193.33,77.26 190.7,77.86 190.44,76.73 189.18,77.01 188.65,74.69 186.02,75.28 185.75,74.12 
				184.46,74.41 182.13,61.83 181.34,60.61 182.63,60.31 182.36,59.15 184.03,57.98 183.7,52.82 184.99,52.53 184.74,51.4 
				187.34,50.8 183.8,35.14 179.18,36.19 182.12,49.18 179.51,49.77 179.87,51.33 178.57,51.63 179.75,56.83 175.82,57.72 
				180.11,76.62 181.4,76.33 182,78.98 184.63,78.38 184.82,79.19 184.8,79.19 187.65,91.75 196.18,89.81 			"/>
			<polygon class="st8" points="189.44,78.14 185.51,79.03 184.72,75.58 180.65,76.5 180.54,76.03 176.61,60.39 179.83,59.75 
				179.27,57.27 181.74,56.71 180.7,52.14 183.41,51.53 179.9,36.03 177.19,36.64 171.37,37.96 169.04,38.49 171.98,51.46 
				169.13,52.1 170.03,56.06 167.8,56.57 172.62,77.83 174.84,77.32 175.94,82.18 181.12,81.01 183.75,92.63 192.28,90.7 			"/>
			<polygon class="st7" points="183.06,79.55 178.96,80.48 178.68,79.28 177.35,79.59 176.87,77.47 175.49,77.78 174.96,75.41 
				173.59,75.72 169.96,59.68 171.33,59.37 171.05,58.12 173.55,57.55 172.51,52.97 173.88,52.66 173.61,51.5 176.55,50.83 
				173.53,37.47 164.66,39.48 167.17,50.57 163.99,51.29 165.8,59.3 166.14,59.23 170.06,76.52 169.72,76.59 171.53,84.6 
				172.91,84.29 173.45,86.67 177.83,85.68 179.61,93.54 185.9,92.11 			"/>
			<polygon class="st10" points="181.8,93.04 179.48,82.8 175.53,83.7 174.25,78.07 171.52,78.68 166.28,55.51 169,54.89 
				168.2,51.34 172.15,50.44 169.42,38.4 165.47,39.29 161.51,40.19 155.04,41.66 166.14,90.67 172.62,89.2 173.89,94.83 			"/>
			<polygon class="st10" points="167.23,96.32 175.11,94.53 172.57,83.3 169.93,83.89 169.38,81.46 166.78,82.05 166,78.6 
				163.85,79.2 158.41,55.17 160.56,54.57 160.03,52.23 162.63,51.64 162.09,49.28 164.73,48.68 162.74,39.91 145.33,43.86 
				145.34,43.88 136.15,45.96 148.52,100.58 167.23,96.34 			"/>
			<polygon class="st0" points="152.5,91.69 146.76,88.37 147.4,88.13 146.62,84.71 150.56,83.81 145.21,60.2 141.28,61.09 
				140.56,57.92 139.48,58.16 136.71,45.97 129.4,47.62 141.77,102.24 			"/>
			<polygon class="st8" points="139.56,90.66 142.2,90.06 141.66,87.67 145.63,86.77 144.86,83.39 146.22,83.08 145.69,80.72 
				146.99,80.43 146.46,78.13 147.8,77.83 145.21,66.39 143.87,66.69 143.35,64.39 142.05,64.68 141.54,62.43 140.18,62.74 
				139.41,59.34 135.45,60.24 134.64,56.68 132,57.28 129.76,47.38 126.13,48.2 138.5,102.82 142.13,102.43 			"/>
			<g>
				<polygon class="st10" points="157.97,80.54 148.88,82.6 150.21,89.42 160.71,92.64 				"/>
				
					<rect x="143.23" y="54.46" transform="matrix(0.9753 -0.2209 0.2209 0.9753 -9.2228 33.5482)" class="st10" width="4.3" height="7.1"/>
			</g>
			<polygon class="st0" points="136.93,91.04 138.61,90.66 138.17,88.74 140.31,88.25 139.74,85.73 141.68,85.29 141.17,83.04 
				143.72,82.46 139.54,64.05 137,64.62 136.5,62.43 134.56,62.87 133.97,60.27 131.84,60.75 131.4,58.81 129.71,59.19 
				127.17,47.97 120.57,49.46 123.11,60.69 130.32,92.54 132.95,104.14 139.55,106.01 			"/>
			<polygon class="st7" points="131.22,90.15 133.68,89.59 127.42,61.96 124.96,62.52 121.93,49.16 110.04,51.85 122.42,106.52 
				134.32,103.83 			"/>
			<path class="st1" d="M58.56,116.86l-3.03-13.37l-4.03,0.91l-0.57-2.52l-4.2,0.95l-3.64-16.08l4.2-0.95l-2.41-10.66l4.03-0.91
				l-0.97-4.27l4.03-0.91l0.55-12.32l-47.13,0.5l4.02,23.64L5.33,81.8l2.4,10.59l-4.08,0.92l4.8,21.2l4.08-0.92l2.44,10.77
				l4.08-0.92l1.39,6.12l43.03-9.75l-0.88-3.87L58.56,116.86z M32.78,112.7l-0.67-2.95l-3.15,0.71l-1.34-5.89l-3.15,0.71L21.29,91.2
				l3.15-0.71l-1.34-5.89l3.15-0.71l-0.67-2.95l3.15-0.71l0.67,2.95l-3.15,0.71l1.34,5.89l-3.15,0.71l3.19,14.09l3.15-0.71
				l1.34,5.89l3.15-0.71l0.67,2.95L32.78,112.7z"/>
			<polygon class="st8" points="119.3,92.73 123.14,91.86 121.57,84.94 125.53,84.05 122.43,70.37 118.47,71.26 117.71,67.88 
				113.87,68.75 110.04,51.85 101.58,53.77 113.95,108.38 122.41,106.47 			"/>
			
				<rect x="22.85" y="90.66" transform="matrix(0.9753 -0.2209 0.2209 0.9753 -21.0188 7.822)" class="st3" width="3.23" height="14.44"/>
			
				<rect x="28.26" y="104.14" transform="matrix(0.9753 -0.2209 0.2209 0.9753 -22.9348 9.2461)" class="st3" width="3.23" height="6.04"/>
			
				<rect x="23.69" y="84.17" transform="matrix(0.9753 -0.2209 0.2209 0.9753 -18.6355 7.744)" class="st3" width="3.23" height="6.04"/>
			<polygon class="st9" points="112.28,98.1 116.15,97.22 113.78,86.73 117.74,85.83 114.65,72.2 110.69,73.1 109.88,69.51 
				106,70.39 104.46,53.16 94.91,55.28 107.29,109.95 114.59,108.29 			"/>
			
				<rect x="32.4" y="109.36" transform="matrix(0.9753 -0.2209 0.2209 0.9753 -23.6515 10.2539)" class="st3" width="3.23" height="3.02"/>
			<polygon class="st8" points="106.21,110.19 93.82,55.52 101.58,54.07 102.11,71.96 110.55,109.21 			"/>
			<polygon class="st0" points="104.36,99.95 108.27,99.06 107.18,94.26 111.2,93.35 106.27,71.58 102.25,72.49 101.23,68 
				97.32,68.89 96.83,57.29 92.7,57.29 91.96,70.11 98.99,101.16 101.29,111.31 106.66,110.09 			"/>
			<polygon class="st7" points="102.71,110.98 99.06,94.87 104.46,93.65 99.31,70.94 93.92,72.16 92.61,56.87 88.55,56.89 
				82.04,74.85 80.48,75.2 85.63,97.92 87.19,97.56 90.84,113.67 			"/>
			<polygon class="st8" points="95.68,98.31 91.84,99.18 90.25,92.18 87.16,92.88 84.05,79.14 87.14,78.44 85.61,71.66 89.44,70.79 
				88.55,56.89 65.47,56.02 68.51,75.53 69.51,75.3 70.9,81.46 67.81,82.16 71.26,97.4 74.35,96.69 75.74,102.82 74.75,103.05 
				77.82,116.62 98.75,111.88 			"/>
			<polygon class="st9" points="85.35,107.84 81.33,108.75 80.55,105.26 76.83,106.1 68.98,71.48 72.7,70.64 71.95,67.31 
				76.01,66.39 76.39,56.9 64.07,53.47 56.17,53.84 57.86,71.72 56.56,72.01 57.59,76.58 54.97,77.17 56.39,83.4 52.39,84.31 
				56.28,101.49 60.28,100.59 61.69,106.83 64.31,106.24 65.8,112.8 69.49,111.96 71.09,118.34 87.07,114.72 			"/>
			
				<rect x="96.95" y="71" transform="matrix(0.2209 0.9753 -0.9753 0.2209 147.2036 -39.3577)" class="st0" width="2.57" height="2.92"/>
			
				<rect x="101.47" y="91.27" transform="matrix(0.2209 0.9753 -0.9753 0.2209 170.4958 -27.9701)" class="st0" width="2.57" height="2.92"/>
			
				<rect x="141.05" y="70.86" transform="matrix(0.2209 0.9753 -0.9753 0.2209 185.5917 -88.4141)" class="st0" width="14.17" height="2.21"/>
			
				<rect x="180.1" y="40.56" transform="matrix(0.2209 0.9753 -0.9753 0.2209 186.3542 -150.0988)" class="st6" width="14.05" height="2.07"/>
			
				<rect x="189.38" y="81.52" transform="matrix(0.2209 0.9753 -0.9753 0.2209 233.5364 -127.2328)" class="st6" width="14.05" height="2.07"/>
			
				<rect x="182.34" y="63.47" transform="matrix(0.2209 0.9753 -0.9753 0.2209 212.1657 -136.53)" class="st13" width="18.4" height="2.12"/>
			<polygon class="st4" points="67.04,112.5 65.47,105.57 61.44,106.49 60,100.11 57.28,100.73 53.63,84.61 56.35,83.99 
				54.95,77.85 58.99,76.93 57.41,69.98 60.13,69.36 60.32,57.06 52.15,57.1 51.5,68.33 47.47,69.24 48.61,74.28 44.58,75.19 
				46.99,85.85 42.79,86.8 46.55,103.38 50.75,102.43 53.2,113.23 57.23,112.32 58.47,117.8 62.5,116.88 63.19,119.91 71.17,118.1 
				69.76,111.87 			"/>
		</g>
	</g>
	<rect x="296.75" y="132.54" class="st5" width="0" height="3.86"/>
	<polygon class="st13" points="257.19,108.19 263.05,108.19 263.05,109.75 263.07,109.75 263.07,111.81 270.94,111.81 
		270.94,112.66 270.96,112.66 270.96,115.73 275.6,115.73 279.9,115.73 287.31,115.73 299.03,115.73 299.03,111.81 306.98,111.81 
		306.98,108.19 312.84,108.19 315.13,108.19 315.13,78.45 252.55,78.45 252.55,107.41 	"/>
	<rect x="295.53" y="146.62" class="st8" width="2.5" height="0"/>
	<rect x="276.32" y="142.78" class="st9" width="0.03" height="5.18"/>
	<rect x="268.59" y="136.49" class="st9" width="0.01" height="3.73"/>
	<rect x="264.93" y="244.71" class="st11" width="7.52" height="0.03"/>
	<rect x="303.52" y="198.16" class="st0" width="7.51" height="0.07"/>
	<polygon class="st0" points="278.23,190.65 290.56,190.65 295.84,190.65 295.84,190.58 272.7,190.58 276.71,190.65 	"/>
	<polygon class="st0" points="303.46,194.52 303.46,194.38 295.89,194.38 295.89,194.48 	"/>
	<polygon class="st11" points="311.03,233.05 311,236.97 311.03,236.97 	"/>
	<polygon class="st11" points="307.3,237.06 307.27,237.06 307.3,240.62 307.3,240.62 	"/>
	<polygon class="st12" points="256.94,236.97 257.2,236.97 257.2,232.97 252.55,232.97 252.55,233 256.94,233 	"/>
	<rect x="307.3" y="236.97" class="st12" width="3.7" height="0.08"/>
	<polygon class="st12" points="264.67,240.79 264.67,244.71 264.93,244.71 264.93,240.62 261.03,240.62 261.03,236.97 
		260.87,236.97 260.87,240.79 	"/>
	<rect x="311.03" y="232.97" class="st12" width="4.1" height="0.08"/>
	<polygon class="st12" points="295.65,248.52 295.65,244.73 295.57,244.73 295.57,248.38 272.77,248.38 272.77,244.73 
		272.45,244.73 272.45,248.52 	"/>
	<rect x="303.3" y="240.62" class="st12" width="4" height="0.18"/>
	<rect x="268.03" y="210.59" class="st7" width="6.89" height="6.89"/>
	<rect x="292.34" y="221.18" class="st7" width="3.32" height="3.32"/>
	<rect x="249.18" y="251.25" class="st10" width="3.32" height="6.88"/>
	<rect x="287.19" y="202.79" class="st7" width="3.32" height="3.32"/>
	<rect x="261.24" y="170.03" class="st0" width="3.32" height="3.32"/>
	<rect x="305.35" y="170.03" class="st0" width="3.32" height="3.32"/>
	<rect x="252.55" y="163.84" class="st0" width="4.2" height="3.32"/>
	<rect x="272.65" y="260.06" class="st0" width="23" height="3.86"/>
	<polygon class="st7" points="281.33,323.27 281.33,318.07 288.13,318.07 288.13,323.27 295.9,323.27 295.9,314.16 291.99,314.16 
		291.99,310.28 291.99,310.19 291.99,310.12 276.48,310.12 276.48,310.28 276.48,310.28 276.48,314.16 272.58,314.16 272.57,314.16 
		272.41,314.16 272.41,323.27 	"/>
	<rect x="299.79" y="322.04" class="st7" width="0.01" height="4.97"/>
	<rect x="299.79" y="314.16" class="st7" width="0.01" height="3.91"/>
	<rect x="303.53" y="318.07" class="st7" width="0.01" height="3.97"/>
	<polygon class="st8" points="299.81,318.07 299.79,318.07 299.79,314.16 295.9,314.16 295.9,323.27 288.13,323.27 288.13,318.07 
		281.33,318.07 281.33,323.27 272.41,323.27 272.41,314.16 268.67,314.16 268.67,318.07 264.93,318.07 264.93,322.04 268.67,322.04 
		268.67,327.02 271.78,327.02 272.41,327.02 272.58,327.02 276.48,327.02 277.77,327.02 281.68,327.02 282.9,327.02 285.58,327.02 
		286.8,327.02 290.71,327.02 291.99,327.02 295.9,327.02 296.12,327.02 299.79,327.02 299.79,322.04 299.81,322.04 303.53,322.04 
		303.53,318.07 	"/>
	<rect x="272.58" y="310.28" class="st8" width="3.9" height="3.88"/>
	<polygon class="st8" points="272.58,310.28 276.48,310.28 276.48,310.19 272.57,310.19 272.57,314.16 272.58,314.16 	"/>
	<rect x="291.99" y="310.28" class="st8" width="3.91" height="3.88"/>
	<rect x="291.99" y="310.19" class="st8" width="3.91" height="0.1"/>
	<polygon class="st8" points="291.99,306.38 285.58,306.38 282.9,306.38 276.48,306.38 276.48,310.12 291.99,310.12 	"/>
	<rect x="276.48" y="306.38" class="st8" width="0.01" height="3.74"/>
	<rect x="266.53" y="280.6" class="st7" width="5.37" height="5.37"/>
	<rect x="299.25" y="271.91" class="st7" width="4.51" height="4.51"/>
	<rect x="274.55" y="364.18" class="st3" width="15.33" height="3.02"/>
	<rect x="289.88" y="361.17" class="st3" width="6.41" height="3.01"/>
	<rect x="268.14" y="361.17" class="st3" width="6.41" height="3.01"/>
	<rect x="264.93" y="358.15" class="st3" width="3.21" height="3.02"/>
	<rect x="296.29" y="358.15" class="st3" width="3.21" height="3.02"/>
	<polygon class="st10" points="264.92,194.48 264.92,198.23 257.24,198.23 257.24,200.67 265.13,200.67 272.82,200.67 
		272.82,195.67 295.98,195.67 295.98,200.65 303.52,200.69 303.52,200.67 311.03,200.67 311.06,200.67 311.06,198.23 311.03,198.23 
		303.52,198.23 303.52,198.16 303.52,194.52 303.46,194.52 295.89,194.48 295.89,194.38 295.89,190.65 295.84,190.65 290.56,190.65 
		278.23,190.65 276.71,190.65 272.7,190.58 272.7,194.41 	"/>
	<rect x="359.33" y="132.54" class="st5" width="0" height="3.86"/>
	<polygon class="st13" points="319.78,108.19 325.63,108.19 325.63,109.75 325.66,109.75 325.66,111.81 333.53,111.81 
		333.53,112.66 333.55,112.66 333.55,115.73 338.19,115.73 342.48,115.73 349.9,115.73 361.61,115.73 361.61,111.81 369.57,111.81 
		369.57,108.19 375.43,108.19 377.72,108.19 377.72,78.45 315.13,78.45 315.13,108.19 	"/>
	<polygon class="st6" points="369.57,108.19 369.57,111.81 361.61,111.81 361.61,115.73 349.9,115.73 342.48,115.73 338.19,115.73 
		333.55,115.73 333.55,112.66 333.53,112.66 333.53,111.81 325.66,111.81 325.66,109.75 325.63,109.75 325.63,108.19 319.78,108.19 
		315.13,108.19 315.13,128.59 320.62,128.59 324.23,128.59 332.33,128.59 332.33,132.54 335.91,132.54 335.91,136.41 347.62,136.41 
		359.33,136.41 359.33,132.54 359.33,132.54 363.04,132.54 363.04,128.59 374.03,128.59 377.72,128.59 377.72,108.19 375.43,108.19 
			"/>
	<polygon class="st0" points="268.6,154.41 268.6,156.88 275.11,156.88 275.11,160.83 293.12,160.83 293.12,156.88 299.68,156.88 
		299.68,154.41 315.13,154.41 331.19,154.41 331.19,156.88 337.7,156.88 337.7,160.83 355.7,160.83 355.7,156.88 362.27,156.88 
		362.27,154.41 377.72,154.41 377.72,160.83 363.42,160.83 363.42,164.82 359.45,164.82 359.45,168.68 355.7,168.68 355.7,172.3 
		337.7,172.3 337.7,168.68 333.95,168.68 333.95,164.82 329.98,164.82 329.98,160.83 315.13,160.83 300.83,160.83 300.83,164.82 
		296.86,164.82 296.86,168.68 293.12,168.68 293.12,172.3 275.11,172.3 275.11,168.68 271.37,168.68 271.37,164.82 267.39,164.82 
		267.39,160.83 252.55,160.83 252.55,154.41 	"/>
	<polygon class="st7" points="270.19,143.94 270.19,146.62 272.42,146.62 272.42,150.47 274.18,150.47 276.34,150.47 277.62,150.47 
		277.62,154.41 279.37,154.41 290.31,154.41 290.31,150.47 291.61,150.47 294.22,150.47 295.53,150.47 295.53,146.62 298.03,146.62 
		298.03,146.62 298.03,143.94 315.13,143.94 332.78,143.94 332.78,146.62 335.01,146.62 335.01,150.47 336.76,150.47 338.93,150.47 
		340.21,150.47 340.21,154.41 341.96,154.41 352.9,154.41 352.9,150.47 354.2,150.47 356.8,150.47 358.12,150.47 358.12,146.62 
		360.62,146.62 360.62,146.62 360.62,143.94 377.72,143.94 377.72,154.41 362.27,154.41 362.27,156.88 355.7,156.88 355.7,160.83 
		337.7,160.83 337.7,156.88 331.19,156.88 331.19,154.41 315.13,154.41 299.68,154.41 299.68,156.88 293.12,156.88 293.12,160.83 
		275.11,160.83 275.11,156.88 268.6,156.88 268.6,154.41 252.55,154.41 252.55,143.94 	"/>
	<rect x="358.12" y="146.62" class="st8" width="2.5" height="0"/>
	<polygon class="st8" points="268.59,136.49 268.59,140.22 268.6,140.22 272.42,140.22 272.42,142.78 276.32,142.78 276.32,147.96 
		276.34,147.96 291.61,147.96 291.61,142.78 295.53,142.78 295.53,140.22 299.37,140.22 299.37,136.41 315.13,136.41 315.13,136.49 
		331.17,136.49 331.17,140.22 331.19,140.22 335.01,140.22 335.01,142.78 338.9,142.78 338.9,147.96 338.93,147.96 354.2,147.96 
		354.2,142.78 358.12,142.78 358.12,140.22 361.96,140.22 361.96,136.41 377.72,136.41 377.72,143.94 360.62,143.94 360.62,146.62 
		358.12,146.62 358.12,146.62 358.12,150.47 356.8,150.47 354.2,150.47 352.9,150.47 352.9,154.41 341.96,154.41 340.21,154.41 
		340.21,150.47 338.93,150.47 336.76,150.47 335.01,150.47 335.01,146.62 332.78,146.62 332.78,143.94 315.13,143.94 298.03,143.94 
		298.03,146.62 295.53,146.62 295.53,146.62 295.53,150.47 294.22,150.47 291.61,150.47 290.31,150.47 290.31,154.41 279.37,154.41 
		277.62,154.41 277.62,150.47 276.34,150.47 274.18,150.47 272.42,150.47 272.42,146.62 270.19,146.62 270.19,143.94 252.55,143.94 
		252.55,136.49 	"/>
	<rect x="338.9" y="142.78" class="st9" width="0.03" height="5.18"/>
	<rect x="331.17" y="136.49" class="st9" width="0.01" height="3.73"/>
	<polygon class="st7" points="263.48,190.58 263.48,186.65 268.49,186.65 268.49,182.81 276.38,182.81 276.38,180.07 291.88,180.07 
		291.88,182.76 296.86,182.78 300.83,182.78 300.83,186.65 304.8,186.65 304.8,190.58 315.13,190.58 326.07,190.58 326.07,186.65 
		331.08,186.65 331.08,182.81 338.97,182.81 338.97,180.07 354.47,180.07 354.47,182.76 359.45,182.78 363.42,182.78 363.42,186.65 
		367.38,186.65 367.38,190.58 377.72,190.58 377.72,201.97 373.62,201.97 373.62,200.67 373.65,200.67 373.65,198.23 373.62,198.23 
		373.62,198.16 366.11,198.16 366.11,194.52 366.05,194.52 366.05,194.38 358.48,194.38 358.48,190.65 358.43,190.65 358.43,190.58 
		335.29,190.58 335.24,190.58 335.24,194.38 327.46,194.38 327.46,198.16 319.78,198.16 319.78,201.97 315.13,201.97 311.03,201.97 
		311.03,200.67 311.06,200.67 311.06,198.23 311.03,198.23 311.03,198.16 303.52,198.16 303.52,194.52 303.46,194.52 303.46,194.38 
		295.89,194.38 295.89,190.65 295.84,190.65 295.84,190.58 272.7,190.58 272.66,190.58 272.66,194.38 264.87,194.38 264.87,198.16 
		257.2,198.16 257.2,201.97 252.55,201.97 252.55,190.58 	"/>
	<path class="st10" d="M256.75,163.84v3.32h-4.2v23.42h10.94v-3.93h5.01v-3.84h7.89v-2.74h15.5v2.69l4.98,0.03h3.97v3.86h3.96v3.93
		h10.34h10.94v-3.93h5.01v-3.84h7.89v-2.74h15.5v2.69l4.97,0.03h3.97v3.86h3.96v3.93h10.34v-23.53h-1.98v-3.32h1.98v-2.9h-14.3v3.99
		h-3.97v3.86h-3.74v3.62H337.7v-3.62h-3.74v-3.86h-3.97v-3.99h-14.85h-14.3v3.99h-3.97v3.86h-3.74v3.62h-18.01v-3.62h-3.74v-3.86
		h-3.97v-3.99h-14.85v3.01H256.75z M367.94,170.03h3.32v3.32h-3.32V170.03z M323.82,170.03h3.32v3.32h-3.32V170.03z M313.16,163.73
		h1.98v0.11h4.2v3.32h-4.2v-0.11h-1.98V163.73z M305.35,170.03h3.32v3.32h-3.32V170.03z M261.24,170.03h3.32v3.32h-3.32V170.03z"/>
	<polygon class="st8" points="256.94,233 256.94,236.97 257.2,236.97 260.87,236.97 260.87,240.79 264.67,240.79 264.67,244.71 
		264.93,244.71 264.93,244.73 272.45,244.73 272.45,248.52 295.65,248.52 295.65,244.73 303.3,244.73 303.3,240.8 307.3,240.8 
		307.3,240.62 307.3,240.62 307.3,237.06 311,237.06 311,236.97 311.03,236.97 311.03,233.05 315.13,233.05 315.13,233 319.53,233 
		319.53,236.97 319.78,236.97 323.46,236.97 323.46,240.79 327.25,240.79 327.25,244.71 327.51,244.71 327.51,244.73 335.04,244.73 
		335.04,248.52 358.24,248.52 358.24,244.73 365.89,244.73 365.89,240.8 369.89,240.8 369.89,240.62 369.89,240.62 369.89,237.06 
		373.59,237.06 373.59,236.97 373.62,236.97 373.62,233.05 377.72,233.05 377.72,244.68 369.89,244.68 369.89,248.52 366.02,248.52 
		366.02,252.39 327.42,252.39 327.42,248.52 323.63,248.52 323.63,244.68 315.13,244.68 307.3,244.68 307.3,248.52 303.44,248.52 
		303.44,252.39 264.83,252.39 264.83,248.52 261.05,248.52 261.05,244.68 252.55,244.68 252.55,233 	"/>
	<rect x="327.51" y="244.71" class="st11" width="7.52" height="0.03"/>
	<g>
		<rect x="292.34" y="221.18" class="st5" width="3.32" height="3.32"/>
		<rect x="287.19" y="202.79" class="st5" width="3.32" height="3.32"/>
		<rect x="268.03" y="210.59" class="st5" width="6.89" height="6.89"/>
		<rect x="330.62" y="210.59" class="st5" width="6.89" height="6.89"/>
		<rect x="349.77" y="202.79" class="st5" width="3.32" height="3.32"/>
		<rect x="354.93" y="221.18" class="st5" width="3.32" height="3.32"/>
		<polygon class="st5" points="257.83,217.49 257.83,218.97 256.34,217.49 257.14,217.49 		"/>
		<path class="st0" d="M252.55,201.97v15.51h0.86h2.31l0.31-0.31l0.31,0.31h0.8h0.69v1.49v2.35h3.04v3.89v6.68v0.42v0.63h7.59v3.89
			h11.67v-3.78h7.73v3.78h3.87v3.95h1.34v-0.01h6.54v-3.85h3.76v-4.61v-7.03h3.95v-3.86h3.82v-3.86h4v-0.07h0.86h3.74h0.69v3.84
			h3.04v3.89v7.1v0.63h7.59v3.89h11.67v-3.78h7.73v3.78h3.87v3.95h1.34v-0.01h6.54v-3.85h3.76v-4.61v-7.03h3.95v-3.86h3.82v-3.86h4
			v-15.58h-4.1v-1.3h-7.51v0.02l-7.54-0.04v-4.98H335.4v5.01l-7.68,0h-7.89v-2.44h7.67v-3.75l7.78-0.07v-3.83h-0.05v3.8h-7.78v3.78
			h-7.67v3.81h-4.65h-4.1v-1.3h-7.51v0.02l-7.54-0.04v-4.98h-23.16v5.01l-7.68,0h-7.89v-2.44h7.67v-3.75l7.78-0.07v-3.83h-0.05v3.8
			h-7.78v3.78h-7.67v3.81H252.55z M354.93,221.18h3.32v3.32h-3.32V221.18z M349.77,202.79h3.32v3.32h-3.32V202.79z M330.62,210.59
			h6.89v6.89h-6.89V210.59z M292.34,221.18h3.32v3.32h-3.32V221.18z M287.19,202.79h3.32v3.32h-3.32V202.79z M274.93,217.49h-6.89
			v-6.89h6.89V217.49z"/>
		<polygon class="st0" points="256.34,217.49 255.71,217.49 256.03,217.17 		"/>
	</g>
	<rect x="366.11" y="198.16" class="st0" width="7.51" height="0.07"/>
	<polygon class="st0" points="340.82,190.65 353.15,190.65 358.43,190.65 358.43,190.58 335.29,190.58 339.3,190.65 	"/>
	<polygon class="st0" points="366.05,194.52 366.05,194.38 358.48,194.38 358.48,194.48 	"/>
	<polygon class="st11" points="373.62,233.05 373.59,236.97 373.62,236.97 	"/>
	<polygon class="st11" points="369.89,237.06 369.86,237.06 369.89,240.62 369.89,240.62 	"/>
	<polygon class="st12" points="319.53,236.97 319.78,236.97 319.78,232.97 315.13,232.97 315.13,233 319.53,233 	"/>
	<rect x="369.89" y="236.97" class="st12" width="3.7" height="0.08"/>
	<polygon class="st12" points="327.25,240.79 327.25,244.71 327.51,244.71 327.51,240.62 323.62,240.62 323.62,236.97 
		323.46,236.97 323.46,240.79 	"/>
	<rect x="373.62" y="232.97" class="st12" width="4.1" height="0.08"/>
	<polygon class="st12" points="358.24,248.52 358.24,244.73 358.16,244.73 358.16,248.38 335.35,248.38 335.35,244.73 
		335.04,244.73 335.04,248.52 	"/>
	<rect x="365.89" y="240.62" class="st12" width="4" height="0.18"/>
	<rect x="330.62" y="210.59" class="st7" width="6.89" height="6.89"/>
	<rect x="354.93" y="221.18" class="st7" width="3.32" height="3.32"/>
	<rect x="349.77" y="202.79" class="st7" width="3.32" height="3.32"/>
	<rect x="323.82" y="170.03" class="st0" width="3.32" height="3.32"/>
	<rect x="367.94" y="170.03" class="st0" width="3.32" height="3.32"/>
	<polygon class="st0" points="315.13,163.73 315.13,163.84 319.33,163.84 319.33,167.16 315.13,167.16 315.13,167.05 313.16,167.05 
		313.16,163.73 	"/>
	<rect x="375.74" y="163.73" class="st0" width="1.98" height="3.32"/>
	<polygon class="st10" points="261.05,256.23 261.05,260.06 272.65,260.06 272.65,263.92 295.65,263.92 295.65,260.06 
		303.44,260.06 303.44,256.23 307.3,256.23 308.82,256.23 315.13,256.23 323.63,256.23 323.63,260.06 335.24,260.06 335.24,263.92 
		358.24,263.92 358.24,260.06 366.02,260.06 366.02,256.23 369.89,256.23 371.41,256.23 377.72,256.23 377.72,263.89 366,263.89 
		366,267.73 354.43,267.73 354.43,271.59 335.24,271.59 335.24,267.73 327.38,267.73 327.38,263.89 315.13,263.89 303.41,263.89 
		303.41,267.73 291.84,267.73 291.84,271.59 272.65,271.59 272.65,267.73 264.79,267.73 264.79,263.89 252.55,263.89 252.55,256.23 
			"/>
	<polygon class="st7" points="261.05,246.73 261.05,248.52 264.83,248.52 264.83,252.39 303.44,252.39 303.44,248.52 307.3,248.52 
		307.3,244.68 315.13,244.68 323.63,244.68 323.63,248.52 327.42,248.52 327.42,252.39 366.02,252.39 366.02,248.52 369.89,248.52 
		369.89,244.68 377.72,244.68 377.72,256.23 371.41,256.23 369.89,256.23 366.02,256.23 366.02,260.06 358.24,260.06 335.24,260.06 
		323.63,260.06 323.63,256.23 315.13,256.23 308.82,256.23 307.3,256.23 303.44,256.23 303.44,260.06 295.65,260.06 272.65,260.06 
		261.05,260.06 261.05,256.23 252.55,256.23 252.55,246.73 	"/>
	<polygon class="st7" points="257.19,283.24 257.19,287.1 261.11,287.1 261.11,290.94 276.38,290.94 276.38,287.1 280.28,287.1 
		280.28,283.24 295.65,283.24 295.65,287.1 299.57,287.1 299.57,290.94 307.3,290.94 307.3,287.1 311.11,287.1 311.11,283.24 
		315.13,283.24 319.78,283.24 319.78,287.1 323.7,287.1 323.7,290.94 338.97,290.94 338.97,287.1 342.86,287.1 342.86,283.24 
		358.24,283.24 358.24,287.1 362.16,287.1 362.16,290.94 369.89,290.94 369.89,287.1 373.7,287.1 373.7,283.24 377.72,283.24 
		377.72,298.92 366,298.92 366,294.97 327.56,294.97 327.56,298.92 315.13,298.92 303.41,298.92 303.41,294.97 264.97,294.97 
		264.97,298.92 252.55,298.92 252.55,283.24 	"/>
	<rect x="335.24" y="260.06" class="st0" width="23" height="3.86"/>
	<path class="st0" d="M252.55,263.89v19.35h4.64v3.86h3.92v3.84h15.27v-3.84h3.89v-3.86h15.38v3.86h3.92v3.84h7.73v-3.84h3.81v-3.86
		h4.02h4.64v3.86h3.92v3.84h15.27v-3.84h3.89v-3.86h15.38v3.86h3.92v3.84h7.73v-3.84h3.81v-3.86h4.02v-19.35H366v3.83h-11.57v3.86
		h-19.19v-3.86h-7.86v-3.83h-12.24h-11.72v3.83h-11.57v3.86h-19.19v-3.86h-7.86v-3.83H252.55z M361.84,271.91h4.51v4.51h-4.51
		V271.91z M329.12,280.6h5.37v5.37h-5.37V280.6z M299.25,271.91h4.51v4.51h-4.51V271.91z M266.53,280.6h5.37v5.37h-5.37V280.6z"/>
	<polygon class="st8" points="264.97,298.92 264.97,294.97 303.41,294.97 303.41,298.92 315.13,298.92 327.56,298.92 327.56,294.97 
		366,294.97 366,298.92 377.72,298.92 377.72,314.02 366.2,314.02 366.2,310.21 362.2,310.21 362.2,306.54 358.42,306.54 
		358.42,302.59 335.13,302.59 335.13,306.54 331.08,306.54 331.08,310.21 328.67,310.21 328.67,314.16 315.13,314.16 315.13,314.02 
		303.62,314.02 303.62,310.21 299.62,310.21 299.62,306.54 295.83,306.54 295.83,302.59 272.55,302.59 272.55,306.54 268.49,306.54 
		268.49,310.21 266.08,310.21 266.08,309.71 253.22,309.71 253.22,298.92 	"/>
	<polygon class="st7" points="343.91,323.27 343.91,318.07 350.72,318.07 350.72,323.27 358.49,323.27 358.49,314.16 354.58,314.16 
		354.58,310.28 354.58,310.19 354.58,310.12 339.07,310.12 339.07,310.28 339.07,310.28 339.07,314.16 335.17,314.16 335.16,314.16 
		335,314.16 335,323.27 	"/>
	<rect x="362.38" y="322.04" class="st7" width="0.01" height="4.97"/>
	<rect x="362.38" y="314.16" class="st7" width="0.01" height="3.91"/>
	<rect x="366.12" y="318.07" class="st7" width="0.01" height="3.97"/>
	<polygon class="st4" points="261.09,327.02 261.09,329.62 268.65,329.62 268.65,333.49 275.34,333.49 275.34,336.09 293.1,336.09 
		293.1,333.49 299.82,333.49 299.82,329.62 307.34,329.62 307.34,327.02 315.13,327.02 323.68,327.02 323.68,329.62 331.24,329.62 
		331.24,333.49 337.93,333.49 337.93,336.09 355.69,336.09 355.69,333.49 362.41,333.49 362.41,329.62 369.93,329.62 369.93,327.02 
		377.72,327.02 377.72,334.66 375.11,334.66 375.11,338.53 367.46,338.53 367.46,342.39 355.7,342.39 355.7,346.42 337.65,346.42 
		337.65,342.39 326.06,342.39 326.06,338.53 318.33,338.53 318.33,334.66 315.13,334.66 312.52,334.66 312.52,338.53 304.87,338.53 
		304.87,342.39 293.11,342.39 293.11,346.42 275.07,346.42 275.07,342.39 263.47,342.39 263.47,338.53 255.74,338.53 255.74,334.66 
		250.74,334.66 250.74,327.02 	"/>
	<path class="st9" d="M252.55,312.22v14.79h8.54v2.6h7.57v3.86h6.69v2.6h17.76v-2.6h6.72v-3.86h7.52v-2.6h7.79h8.54v2.6h7.57v3.86
		h6.69v2.6h17.76v-2.6h6.72v-3.86h7.52v-2.6h7.79v-12.99H366.2v-3.81h-4v-3.67h-3.78v-3.95h-23.29v3.95h-4.06v3.67h-2.41v3.95
		h-13.54v-0.14h-11.52v-3.81h-4v-3.67h-3.78v-3.95h-23.29v3.95h-4.06v3.67h-2.41v2.01H252.55z M327.52,318.07h3.74v-3.91H335h0.16
		v-3.97h3.91v0.1h0.01v-0.16h-0.01v-3.74h0.01h6.41h2.69h6.41v3.74v0.07h3.91v0.1v3.88h3.89h0.01v3.91h3.73h0.01v3.97h-0.01h-3.73
		v4.97h-0.01h-3.67h-0.22h-3.91h-1.29h-3.91h-1.22h-2.69h-1.22h-3.91h-1.29h-3.91H335h-0.64h-3.11v-4.97h-3.74V318.07z
		 M264.93,318.07h3.74v-3.91h3.74h0.16v-3.97h3.91v0.1h0.01v-0.16h-0.01v-3.74h0.01h6.41h2.69h6.41v3.74v0.07h3.91v0.1v3.88h3.89
		h0.01v3.91h3.73h0.01v3.97h-0.01h-3.73v4.97h-0.01h-3.67h-0.22h-3.91h-1.29h-3.91h-1.22h-2.69h-1.22h-3.91h-1.29h-3.91h-0.16h-0.64
		h-3.11v-4.97h-3.74V318.07z"/>
	<path class="st1" d="M252.55,334.66v41.24h8.54v3.91h11.53v3.91h23.07v-3.91h11.72v-3.91h7.73h8.54v3.91h11.53v3.91h23.07v-3.91
		h11.72v-3.91h7.73v-41.24h-2.61v3.86h-7.65v3.86H355.7v4.03h-18.04v-4.03h-11.59v-3.86h-7.73v-3.86h-3.2h-2.61v3.86h-7.65v3.86
		h-11.76v4.03h-18.04v-4.03h-11.59v-3.86h-7.73v-3.86H252.55z M327.52,358.15h3.21v3.02h6.41v3.01h15.33v-3.01h6.41v-3.02h3.21v3.02
		h-3.21v3.01h-6.41v3.02h-15.33v-3.02h-6.41v-3.01h-3.21V358.15z M264.93,358.15h3.21v3.02h6.41v3.01h15.33v-3.01h6.41v-3.02h3.21
		v3.02h-3.21v3.01h-6.41v3.02h-15.33v-3.02h-6.41v-3.01h-3.21V358.15z"/>
	<polygon class="st8" points="362.39,318.07 362.38,318.07 362.38,314.16 358.49,314.16 358.49,323.27 350.72,323.27 350.72,318.07 
		343.91,318.07 343.91,323.27 335,323.27 335,314.16 331.26,314.16 331.26,318.07 327.52,318.07 327.52,322.04 331.26,322.04 
		331.26,327.02 334.37,327.02 335,327.02 335.17,327.02 339.07,327.02 340.36,327.02 344.26,327.02 345.48,327.02 348.17,327.02 
		349.39,327.02 353.29,327.02 354.58,327.02 358.49,327.02 358.71,327.02 362.38,327.02 362.38,322.04 362.39,322.04 366.12,322.04 
		366.12,318.07 	"/>
	<rect x="335.17" y="310.28" class="st8" width="3.9" height="3.88"/>
	<polygon class="st8" points="335.17,310.28 339.07,310.28 339.07,310.19 335.16,310.19 335.16,314.16 335.17,314.16 	"/>
	<rect x="354.58" y="310.28" class="st8" width="3.91" height="3.88"/>
	<rect x="354.58" y="310.19" class="st8" width="3.91" height="0.1"/>
	<polygon class="st8" points="354.58,306.38 348.17,306.38 345.48,306.38 339.07,306.38 339.07,310.12 354.58,310.12 	"/>
	<rect x="339.07" y="306.38" class="st8" width="0.01" height="3.74"/>
	<rect x="329.12" y="280.6" class="st7" width="5.37" height="5.37"/>
	<rect x="361.84" y="271.91" class="st7" width="4.51" height="4.51"/>
	<rect x="337.14" y="364.18" class="st3" width="15.33" height="3.02"/>
	<rect x="352.47" y="361.17" class="st3" width="6.41" height="3.01"/>
	<rect x="330.72" y="361.17" class="st3" width="6.41" height="3.01"/>
	<rect x="327.52" y="358.15" class="st3" width="3.21" height="3.02"/>
	<rect x="358.88" y="358.15" class="st3" width="3.21" height="3.02"/>
	<polygon class="st10" points="327.5,194.48 327.5,198.23 319.83,198.23 319.83,200.67 327.72,200.67 335.4,200.67 335.4,195.67 
		358.56,195.67 358.56,200.65 366.11,200.69 366.11,200.67 373.62,200.67 373.65,200.67 373.65,198.23 373.62,198.23 366.11,198.23 
		366.11,198.16 366.11,194.52 366.05,194.52 358.48,194.48 358.48,194.38 358.48,190.65 358.43,190.65 353.15,190.65 340.82,190.65 
		339.3,190.65 335.29,190.58 335.29,194.41 	"/>
	<g>
		<polygon class="st13" points="194.45,49.56 214.26,29.75 255.97,71.45 255.97,71.45 297.67,113.16 277.86,132.97 276.33,131.44 
			272.43,127.54 270.02,129.95 264.72,124.65 262.11,127.26 254.3,119.45 249.36,114.51 246.5,111.65 243.41,108.56 245.45,106.51 
			245.43,106.5 246,105.93 240.76,100.69 242.13,99.31 242.11,99.3 243.15,98.26 239.25,94.36 236.16,91.26 236.16,91.26 
			234.63,89.74 230.72,85.83 228.31,88.24 223.01,82.94 220.4,85.55 212.6,77.75 207.65,72.8 204.79,69.94 201.7,66.85 
			203.74,64.81 203.73,64.79 204.3,64.22 199.05,58.98 200.42,57.61 200.41,57.59 201.44,56.55 197.54,52.65 		"/>
		<polygon class="st6" points="197.96,46.05 204.95,53.05 204.04,53.99 209.28,59.24 206.84,61.71 225.54,80.41 228,77.96 
			233.3,83.26 234.85,81.71 240.28,87.14 240.28,87.14 247.28,94.13 245.74,95.7 250.99,100.94 248.55,103.41 253.33,108.19 
			257.19,108.19 263.05,108.19 263.05,109.75 263.07,109.75 263.07,111.81 270.94,111.81 270.94,112.66 270.96,112.66 
			270.96,115.73 275.6,115.73 279.9,115.73 287.31,115.73 299.03,115.73 299.03,111.81 306.98,111.81 306.98,108.19 312.84,108.19 
			315.13,108.19 315.13,128.59 311.44,128.59 300.45,128.59 300.45,132.54 296.75,132.54 296.75,132.54 296.75,136.41 
			273.32,136.41 273.32,132.97 254.22,132.1 238.61,116.49 240.92,114.19 238.53,111.8 240.22,110.11 234.82,104.72 232.42,102.31 
			228.76,98.66 228.76,98.66 226.3,96.19 218.98,88.87 217.29,90.56 214.82,88.09 212.51,90.4 196.9,74.79 199.21,72.48 
			196.83,70.1 198.52,68.41 193.12,63.01 190.71,60.6 187.06,56.95 		"/>
		
			<rect x="199.17" y="99.69" transform="matrix(0.7071 -0.7071 0.7071 0.7071 -13.0515 171.696)" class="st0" width="3.11" height="3.82"/>
		
			<rect x="133.42" y="162.89" transform="matrix(0.7071 -0.7071 0.7071 0.7071 -77.2655 144.2077)" class="st8" width="4.04" height="4.96"/>
		
			<rect x="72.64" y="166.06" transform="matrix(0.7071 -0.7071 0.7071 0.7071 -111.8641 121.0316)" class="st1" width="35.05" height="58.98"/>
		<polygon class="st9" points="127.43,199.99 95.98,162.39 90.55,153.45 79.66,164.34 93.16,177.83 91.18,179.81 105.24,193.87 
			107.22,191.9 106.31,190.99 104.34,192.97 110.69,199.32 112.66,197.34 114.19,198.87 115.8,197.25 122.99,204.43 		"/>
		<polygon class="st8" points="127.12,200.3 88.63,155.38 97.09,146.92 138.79,188.63 		"/>
		
			<rect x="95.6" y="177.93" transform="matrix(0.7071 0.7071 -0.7071 0.7071 160.1273 -22.5963)" class="st8" width="23.47" height="8.13"/>
		
			<rect x="96.66" y="181.86" transform="matrix(0.7071 0.7071 -0.7071 0.7071 160.6862 -19.0823)" class="st8" width="13.44" height="5.14"/>
		<polygon class="st7" points="186.06,80.44 174.81,69.19 178.62,65.38 180.35,63.65 181.16,62.84 186.69,68.38 185.88,69.19 
			216.53,99.83 217.34,99.02 222.87,104.55 222.87,104.55 228.4,110.08 227.59,110.89 258.23,141.53 259.04,140.72 264.58,146.26 
			263.76,147.07 262.04,148.79 258.23,152.6 247.43,141.81 243.53,145.71 239.65,141.83 238.02,143.47 226.02,131.47 227.65,129.83 
			223.87,126.05 227.77,122.15 216.52,110.9 216.52,110.9 205.72,100.1 201.82,104 197.95,100.13 196.31,101.76 184.31,89.76 
			185.95,88.13 182.16,84.34 		"/>
		<polygon class="st7" points="106.4,163.56 93.58,150.42 104.22,140.19 109.76,145.61 112.3,143.06 148.33,179.09 145.33,182.09 
			151.01,187.77 154.01,184.77 190.04,220.8 179.83,231 175.54,235.29 172.36,238.47 168.67,234.77 172.06,231.38 167.91,227.23 
			171.99,223.15 167.82,218.98 164.82,221.98 161.08,218.24 155.21,224.11 147.81,216.71 150.55,213.97 144.97,208.39 148.1,205.27 
			135.13,192.29 130.66,196.76 126.96,193.06 130.35,189.67 126.21,185.52 130.28,181.45 126.11,177.28 123.11,180.28 
			119.37,176.54 113.5,182.4 106.11,175.01 108.85,172.27 103.27,166.69 		"/>
		
			<rect x="212.58" y="87.35" transform="matrix(0.7071 -0.7071 0.7071 0.7071 0.9205 176.9232)" class="st5" width="2.89" height="0"/>
		<polygon class="st8" points="179.61,64.4 184.28,59.73 194.96,70.42 192.99,72.39 193,72.4 195.55,74.95 194.19,76.31 
			196.79,78.9 194.05,81.64 194.07,81.66 204.24,91.83 206.98,89.09 209.59,91.7 210.95,90.35 213.5,92.9 215.52,90.89 
			226.03,101.39 225.98,101.44 236.67,112.13 234.7,114.1 234.71,114.11 237.26,116.65 235.9,118.01 238.49,120.6 235.75,123.34 
			235.77,123.36 245.95,133.54 248.69,130.8 251.3,133.41 252.65,132.05 255.21,134.61 257.23,132.59 267.73,143.1 263.02,147.81 
			249.98,134.73 247.23,137.47 246.35,136.6 244.62,134.86 243.75,134 241.66,136.08 234.37,128.79 233.21,127.63 235.29,125.54 
			234.44,124.69 233,123.24 231.83,122.08 234.58,119.33 208.27,93.02 205.52,95.77 204.65,94.89 202.91,93.16 202.05,92.29 
			199.96,94.38 192.67,87.09 191.5,85.92 193.59,83.83 192.74,82.98 191.29,81.54 190.13,80.37 192.87,77.63 		"/>
		<polygon class="st7" points="155.83,95.21 146.59,89.96 146.64,86.79 146.65,84.73 154.72,87.47 167.94,99.58 197.89,129.53 
			197.89,129.53 209.65,141.28 239.6,171.23 235.84,174.99 232.32,171.47 229.53,174.26 222.25,166.98 218.92,170.32 215.42,166.82 
			213.65,168.59 213.28,168.21 212.83,168.66 200.83,156.66 201.28,156.21 200.27,155.21 202.04,153.44 199.26,150.66 
			202.59,147.32 194.86,139.59 197.65,136.8 194.14,133.28 194.14,133.28 190.62,129.77 187.83,132.56 180.55,125.28 177.21,128.62 
			173.34,124.74 171.12,126.95 159.12,114.95 161.34,112.74 157.55,108.96 160.89,105.62 153.16,97.89 		"/>
		<polygon class="st10" points="162.67,94.97 155.86,88.15 159.9,84.11 163.15,80.85 173.06,70.95 182.95,80.84 180.22,83.57 
			182.87,86.22 180.83,88.26 183.32,90.75 181.41,92.67 193.41,104.67 195.32,102.75 197.82,105.25 199.86,103.2 202.51,105.85 
			205.23,103.13 214.76,112.65 214.76,112.65 224.66,122.55 221.93,125.27 224.58,127.92 222.53,129.97 225.03,132.46 
			223.11,134.37 235.11,146.37 237.03,144.46 239.52,146.95 241.57,144.91 244.21,147.56 246.94,144.83 256.47,154.36 
			246.57,164.26 243.31,167.52 239.27,171.56 232.41,164.7 230.99,166.12 225.67,160.8 224.24,162.23 221.75,159.74 219.26,162.22 
			207.26,150.22 209.75,147.74 207.25,145.25 208.68,143.82 202.96,138.09 204.38,136.67 197.56,129.86 197.56,129.86 190.7,123 
			189.28,124.42 183.96,119.1 182.54,120.53 180.04,118.03 177.56,120.52 165.56,108.52 168.04,106.03 165.55,103.54 166.98,102.11 
			161.25,96.39 		"/>
		<polygon class="st0" points="105.74,138.27 113.2,130.81 125.42,151.4 130.92,157.79 143.71,160.56 147.59,156.68 159.16,168.26 
			150.72,176.71 167.12,193.11 169.75,190.48 174.19,194.93 176.13,192.98 185.41,202.26 189.24,198.43 195.4,204.59 190.55,209.44 
			195.97,214.85 189.44,221.39 175.29,207.24 171.84,210.7 167.87,206.73 163.65,210.95 148.85,196.15 153.07,191.93 144.28,183.14 
			147.73,179.68 133.59,165.54 130.13,168.99 126.17,165.03 121.95,169.24 107.14,154.44 111.83,149.3 		"/>
		<polygon class="st8" points="177.73,79.87 172.63,71.38 174.82,69.19 186.61,80.98 184.46,83.14 185.57,84.24 184.88,84.92 
			187.02,87.06 184.31,89.76 196.31,101.76 199.64,98.44 201.81,100.6 201.86,100.54 203.57,102.25 205.73,100.1 228.32,122.68 
			226.17,124.84 227.27,125.95 226.59,126.63 228.73,128.76 226.02,131.47 237.51,142.96 241.27,139.37 256.71,154.12 
			254.35,156.48 247.41,149.55 245.8,151.17 240.55,145.92 238.51,147.97 236.01,145.47 234.51,146.98 222.51,134.98 224.01,133.47 
			221.52,130.98 223.57,128.93 217.82,123.19 219.44,121.57 205.71,107.84 204.09,109.46 198.85,104.22 196.8,106.26 194.31,103.77 
			192.81,105.27 180.81,93.27 182.31,91.77 179.82,89.27 181.86,87.23 176.11,81.48 		"/>
		
			<rect x="136.22" y="176.67" transform="matrix(0.7071 -0.7071 0.7071 0.7071 -86.19 150.2262)" class="st8" width="4.04" height="4.96"/>
		<polygon class="st8" points="105.46,148.96 102.4,141.61 93.46,150.55 98.66,155.76 		"/>
		<polyline class="st0" points="256.71,154.12 244.07,142.4 242.72,143.76 240.22,141.26 237.84,143.64 225.84,131.64 
			228.22,129.26 225.73,126.77 226.89,125.61 221.14,119.87 222.83,118.22 209.08,104.47 207.41,106.14 202.17,100.9 201.01,102.05 
			198.52,99.56 196.14,101.94 184.14,89.94 186.52,87.56 184.02,85.07 185.18,83.91 179.44,78.16 181.12,76.52 174.32,69.72 
			174.82,69.19 175.76,68.25 177.36,66.65 182.89,72.18 181.29,73.78 187.55,80.05 186.33,81.27 187.89,82.83 186.9,83.82 
			189.53,86.44 187.3,88.67 197.38,98.75 199.6,96.52 202.75,99.66 203.73,98.67 205.44,100.38 206.66,99.16 211.93,104.43 
			213.53,102.82 224.6,113.88 222.99,115.49 229.25,121.75 228.03,122.97 229.59,124.53 228.61,125.52 231.23,128.15 229.01,130.37 
			239.08,140.45 241.31,138.22 244.45,141.37 245.44,140.38 247.15,142.09 248.37,140.87 253.64,146.13 259.25,151.58 		"/>
		<polygon class="st8" points="120.94,123.07 121.97,122.04 124.28,119.73 125.02,118.99 133.26,110.75 174.97,152.45 
			168.26,159.16 175.66,166.57 178.78,163.45 183.14,167.81 186.24,164.71 204.41,182.89 201.32,185.98 205.68,190.34 
			202.55,193.46 209.22,200.13 215.93,193.42 257.64,235.12 252.5,247.01 250.5,247.01 246.07,246.7 239.64,240.27 242.22,237.68 
			229.72,225.17 226.38,228.51 215.38,217.51 212.33,220.55 200.56,208.79 203.61,205.74 204.36,204.99 198.67,199.3 201.26,196.71 
			188.75,184.21 185.41,187.54 174.41,176.54 171.36,179.59 159.6,167.82 163.39,164.02 156.96,157.59 159.55,155.01 147.05,142.5 
			143.71,145.84 132.7,134.83 129.66,137.88 117.89,126.12 		"/>
		
			<rect x="36.79" y="201.32" transform="matrix(0.7071 0.7071 -0.7071 0.7071 174.5739 17.3986)" class="st2" width="58.98" height="36.22"/>
		<polygon class="st7" points="129.67,114.34 130.61,113.4 132.76,111.24 145.8,98.21 187.51,139.91 187.51,139.91 228.47,180.88 
			228.18,181.17 232.11,185.09 229.99,187.2 232.89,190.1 230.92,192.06 233.84,194.99 231.58,197.25 235.88,201.54 234.63,202.78 
			248.01,216.16 249.26,214.92 252.55,218.21 252.55,217.49 253.4,217.49 255.71,217.49 256.34,217.49 257.14,217.49 257.83,217.49 
			257.83,218.97 257.83,221.32 260.87,221.32 260.87,225.21 260.87,231.89 260.87,232.31 260.87,232.94 268.46,232.94 
			268.46,236.84 280.13,236.84 280.13,233.05 287.86,233.05 287.86,236.84 291.73,236.84 291.73,240.79 293.07,240.79 
			293.07,240.77 299.61,240.77 299.61,236.92 303.36,236.92 303.36,232.31 303.36,225.28 307.31,225.28 307.31,221.42 
			311.14,221.42 311.14,217.55 315.13,217.55 315.13,217.49 315.99,217.49 319.73,217.49 320.41,217.49 320.41,221.32 
			323.46,221.32 323.46,225.21 323.46,232.31 323.46,232.94 331.05,232.94 331.05,236.84 342.72,236.84 342.72,233.05 
			350.45,233.05 350.45,236.84 354.32,236.84 354.32,240.79 355.66,240.79 355.66,240.77 362.19,240.77 362.19,236.92 
			365.95,236.92 365.95,232.31 365.95,225.28 369.9,225.28 369.9,221.42 373.72,221.42 373.72,217.55 377.72,217.55 377.72,233.05 
			373.62,233.05 373.62,237.06 369.89,237.06 369.89,240.8 365.89,240.8 365.89,244.73 358.24,244.73 358.24,248.52 335.04,248.52 
			335.04,244.73 335.04,244.71 327.25,244.71 327.25,240.79 323.46,240.79 323.46,236.97 319.53,236.97 319.53,232.97 
			315.13,232.97 315.13,233.05 311.03,233.05 311,237.06 307.3,237.06 307.27,237.06 307.3,240.79 303.3,240.79 303.3,240.8 
			303.3,244.73 295.65,244.73 295.65,248.52 272.45,248.52 272.45,244.73 264.64,244.71 264.64,240.79 260.87,240.79 260.87,236.97 
			256.92,236.97 256.92,235.85 250.93,241.84 243.52,234.43 246.64,231.31 242.28,226.95 245.38,223.86 227.2,205.68 224.11,208.77 
			219.75,204.41 216.63,207.54 209.96,200.87 209.96,200.87 202.55,193.46 205.68,190.34 201.32,185.98 204.41,182.89 
			186.24,164.71 183.14,167.81 178.78,163.45 175.66,166.57 168.26,159.16 168.26,159.17 160.85,151.76 163.97,148.64 
			159.61,144.28 162.71,141.18 144.53,123.01 141.44,126.1 137.08,121.74 133.96,124.87 126.55,117.46 		"/>
		<g>
			
				<rect x="78.23" y="192.36" transform="matrix(0.7071 -0.7071 0.7071 0.7071 -117.8817 114.5671)" class="st3" width="2.26" height="14.45"/>
			
				<rect x="87.07" y="202.21" transform="matrix(0.7071 -0.7071 0.7071 0.7071 -119.2877 122.4723)" class="st3" width="2.26" height="6.04"/>
			
				<rect x="72.58" y="187.72" transform="matrix(0.7071 -0.7071 0.7071 0.7071 -113.2861 107.9831)" class="st3" width="2.26" height="6.04"/>
			
				<rect x="70.97" y="184.43" transform="matrix(0.7071 -0.7071 0.7071 0.7071 -110.3633 105.4381)" class="st3" width="2.26" height="3.02"/>
			
				<rect x="91.87" y="205.33" transform="matrix(0.7071 -0.7071 0.7071 0.7071 -119.0206 126.3385)" class="st3" width="2.26" height="3.02"/>
		</g>
		
			<rect x="49.29" y="205.5" transform="matrix(0.7071 0.7071 -0.7071 0.7071 169.3964 4.8989)" class="st1" width="58.98" height="2.86"/>
		
			<rect x="55.94" y="201.2" transform="matrix(0.7071 0.7071 -0.7071 0.7071 164.7997 8.8802)" class="st1" width="31.47" height="4.34"/>
		
			<rect x="60.62" y="202.75" transform="matrix(0.7071 0.7071 -0.7071 0.7071 165.4539 10.4081)" class="st1" width="19.09" height="4.34"/>
		
			<rect x="56.16" y="186.41" transform="matrix(0.7071 0.7071 -0.7071 0.7071 150.3166 14.2658)" class="st2" width="3.55" height="4.34"/>
		
			<rect x="84.84" y="221.11" transform="matrix(0.7071 0.7071 -0.7071 0.7071 185.1572 -0.1656)" class="st2" width="15.87" height="4.63"/>
		
			<rect x="174.31" y="141.28" transform="matrix(0.7071 0.7071 -0.7071 0.7071 152.4786 -82.7261)" class="st8" width="3.57" height="2.84"/>
		
			<rect x="132.44" y="112.99" transform="matrix(0.7071 0.7071 -0.7071 0.7071 120.133 -61.3566)" class="st8" width="3.38" height="2.68"/>
		
			<rect x="174.16" y="68.79" transform="matrix(0.7071 0.7071 -0.7071 0.7071 101.0953 -103.7999)" class="st8" width="3.38" height="2.68"/>
		
			<rect x="137.39" y="105.15" transform="matrix(0.7071 0.7071 -0.7071 0.7071 116.392 -67.099)" class="st0" width="3.6" height="3.6"/>
		
			<rect x="179.14" y="65.54" transform="matrix(0.7071 0.7071 -0.7071 0.7071 101.8199 -111.1599)" class="st7" width="11.9" height="3.58"/>
		<polygon class="st0" points="149.43,102.42 145.51,98.5 152.09,91.92 157,96.15 154.21,98.94 160.87,105.6 157.58,108.88 
			177.25,128.55 180.54,125.27 186.77,131.5 189.56,128.71 194.13,133.28 194.14,133.28 198.71,137.86 195.92,140.65 202.57,147.3 
			199.29,150.59 218.96,170.26 222.24,166.97 228.48,173.21 231.27,170.41 235.84,174.99 228.92,181.91 225.42,178.41 
			223.31,180.52 219.95,177.16 217.98,179.13 215.06,176.21 212.8,178.46 208.29,173.95 207.05,175.19 193.67,161.82 194.91,160.57 
			190.62,156.28 192.88,154.02 189.95,151.1 191.92,149.13 189.03,146.24 191.14,144.12 187.22,140.2 187.22,140.2 183.72,136.7 
			181.6,138.81 178.24,135.46 176.28,137.42 173.36,134.5 171.1,136.76 166.58,132.25 165.34,133.49 151.96,120.11 153.2,118.87 
			148.91,114.57 151.17,112.32 148.25,109.39 150.22,107.43 147.32,104.53 		"/>
		
			<rect x="157.06" y="117.14" transform="matrix(0.7071 0.7071 -0.7071 0.7071 132.8683 -82.9163)" class="st7" width="18.92" height="3.58"/>
		
			<rect x="219.73" y="93.51" transform="matrix(0.7071 -0.7071 0.7071 0.7071 -9.4116 187.9577)" class="st7" width="4.89" height="23.65"/>
		
			<rect x="164.59" y="89.53" transform="matrix(0.7071 -0.7071 0.7071 0.7071 -15.8391 143.9421)" class="st0" width="2.48" height="3.13"/>
		
			<rect x="183.78" y="112.24" transform="matrix(0.7071 -0.7071 0.7071 0.7071 -26.2796 164.165)" class="st0" width="2.48" height="3.13"/>
		
			<rect x="203.32" y="112.98" transform="matrix(0.7071 -0.7071 0.7071 0.7071 -21.0824 178.1965)" class="st0" width="2.48" height="3.13"/>
	</g>
	<polygon class="st13" points="186.34,57.27 186.34,0 214.58,0 214.58,57.27 200.79,46.79 	"/>
	<polygon class="st6" points="190.09,57.27 190.09,0 185.86,0 185.86,16.88 179.53,16.88 179.53,43.68 185.86,43.68 185.86,57.27 	
		"/>
	<polygon class="st9" points="188.54,44.14 185.83,44.14 185.83,42.95 184.54,42.95 184.54,40.52 181.84,40.52 181.84,39.3 
		180.51,39.3 180.51,24.83 181.84,24.83 181.84,23.61 184.54,23.61 184.54,17.6 185.87,17.6 185.87,16.41 188.54,16.41 188.54,0 
		183.8,0 183.8,13.61 181.13,13.61 181.13,15.25 179.8,15.25 179.8,20.7 175.78,20.7 175.78,40.52 177.1,40.52 177.1,43.29 
		179.8,43.29 179.8,44.14 179.79,44.14 179.79,57.29 188.54,57.29 	"/>
	<polygon class="st8" points="184.54,44.14 180.51,44.14 180.51,40.52 176.33,40.52 176.33,40.02 176.33,23.63 179.23,23.63 
		179.23,21.04 181.76,21.04 181.76,16.25 184.54,16.25 184.54,0 181.76,0 175.79,0 173.41,0 173.41,13.59 170.49,13.59 
		170.49,17.74 168.21,17.74 168.21,40.02 170.49,40.02 170.49,45.12 175.79,45.12 175.79,57.29 184.54,57.29 	"/>
	<polygon class="st0" points="178.01,44.1 173.8,44.1 173.8,42.85 172.43,42.85 172.43,40.63 171.02,40.63 171.02,38.14 
		169.62,38.14 169.62,21.34 171.03,21.34 171.03,20.02 173.6,20.02 173.6,15.22 174.99,15.22 174.99,14.01 178.01,14.01 178.01,0 
		168.92,0 168.92,11.63 165.65,11.63 165.65,20.02 166,20.02 166,38.14 165.65,38.14 165.65,46.54 167.06,46.54 167.06,49.03 
		171.56,49.03 171.56,57.27 178.01,57.27 	"/>
	<polygon class="st7" points="173.8,57.27 173.8,46.54 169.75,46.54 169.75,40.63 166.95,40.63 166.95,16.35 169.75,16.35 
		169.75,12.62 173.8,12.62 173.8,0 169.75,0 165.69,0 159.05,0 159.05,8.64 156.26,8.64 156.26,42.25 159.05,42.25 159.05,51.36 
		165.69,51.36 165.69,57.27 	"/>
	<polygon class="st10" points="158.87,57.24 166.7,57.37 166.95,45.47 164.25,45.47 164.25,42.92 161.58,42.92 161.58,39.3 
		158.87,39.3 158.87,14.12 161.58,14.12 161.58,11.66 164.25,11.66 164.25,9.19 166.95,9.19 166.95,0 149.1,0 149.1,0 139.68,0 
		139.68,57.27 158.87,57.27 	"/>
	<polygon class="st0" points="140.17,57.22 140.17,44.44 141.28,44.44 141.28,40.85 145.32,40.85 145.32,16.11 141.28,16.11 
		141.28,12.78 140.17,12.78 140.17,0 132.67,0 132.67,57.24 140.17,57.24 	"/>
	<polygon class="st8" points="133.13,45.36 135.84,45.36 135.84,42.85 139.91,42.85 139.91,39.3 141.3,39.3 141.3,36.83 
		142.63,36.83 142.63,34.42 144.01,34.42 144.01,22.44 142.63,22.44 142.63,20.02 141.3,20.02 141.3,17.66 139.91,17.66 
		139.91,14.1 135.84,14.1 135.84,10.37 133.13,10.37 133.13,0 129.41,0 129.41,57.24 133.13,55.89 	"/>
	<g>
		<rect x="144.01" y="39.42" class="st10" width="9.31" height="12.68"/>
		<rect x="143.87" y="10.49" class="st10" width="4.3" height="7.25"/>
	</g>
	<polygon class="st0" points="130.48,45.14 132.21,45.14 132.21,43.12 134.4,43.12 134.4,40.48 136.39,40.48 136.39,38.12 
		139,38.12 139,18.82 136.39,18.82 136.39,16.52 134.4,16.52 134.4,13.8 132.21,13.8 132.21,11.76 130.48,11.76 130.48,0 123.71,0 
		123.71,11.76 123.71,45.14 123.71,57.29 130.48,57.29 	"/>
	<polygon class="st7" points="125.11,42.96 127.63,42.96 127.63,14.01 125.11,14.01 125.11,0 112.91,0 112.91,57.29 125.11,55.95 	
		"/>
	<path class="st1" d="M48.34,53.19V39.17h-4.13v-2.64H39.9V19.68h4.31V8.51h4.13V4.04h4.13V0H8.36v6.22H4.18v11.1H0l0,22.22h4.18
		v11.29h4.18l1.03,6.41h43.09v-4.05H48.34z M24.12,43.21v-3.09h-3.23v-6.18h-3.23V19.18h3.23v-6.18h3.23V9.92h3.23v3.09h-3.23v6.18
		h-3.23v14.76h3.23v6.18h3.23v3.09H24.12z"/>
	<polygon class="st9" points="194.36,71.05 194.35,71.04 183.66,60.35 184.56,57.05 187.73,56.28 199.19,67.74 197.21,69.72 
		199.59,72.1 196.89,74.8 212.51,90.41 213.16,89.76 215.2,87.71 217.67,90.18 219.65,88.2 240.89,109.45 238.91,111.42 
		241.29,113.81 238.6,116.5 252.55,130.23 269.74,130.23 269.74,132.54 273.32,132.54 273.32,136.41 285.03,136.41 296.75,136.41 
		296.75,136.41 296.75,132.54 300.45,132.54 300.45,128.59 332.33,128.59 332.33,132.54 335.91,132.54 335.91,136.41 359.33,136.41 
		359.33,136.41 359.33,132.54 363.04,132.54 363.04,128.59 374.03,128.59 377.72,128.59 377.72,136.41 361.96,136.41 361.96,140.22 
		358.12,140.22 358.12,142.78 354.2,142.78 354.2,147.96 338.93,147.96 338.93,142.78 338.9,142.78 335.01,142.78 335.01,140.22 
		331.19,140.22 331.17,136.85 299.37,136.77 299.37,140.22 295.53,140.22 295.53,142.78 291.61,142.78 291.61,147.96 276.34,147.96 
		276.34,142.78 276.32,142.78 272.42,142.78 272.42,140.22 268.6,140.22 268.6,136.49 268.59,136.49 254.22,136.55 248.6,130.88 
		245.33,134.15 235.14,123.96 237.88,121.22 235.28,118.63 236.64,117.27 234.09,114.72 236.06,112.75 236.05,112.74 214.9,91.51 
		212.89,93.52 210.33,90.96 208.97,92.32 206.36,89.71 203.62,92.45 193.45,82.27 196.19,79.53 196.17,79.52 193.58,76.92 
		194.93,75.57 192.38,73.02 	"/>
	<polygon class="st8" points="112.91,42.85 116.85,42.85 116.85,35.59 120.91,35.59 120.91,21.26 116.85,21.26 116.85,17.71 
		112.91,17.71 112.91,0 104.24,0 104.24,57.24 112.91,56.01 	"/>
	<rect x="17.67" y="19.18" class="st3" width="3.23" height="14.76"/>
	<rect x="20.89" y="33.95" class="st3" width="3.23" height="6.18"/>
	<rect x="20.89" y="13.01" class="st3" width="3.23" height="6.18"/>
	<polygon class="st9" points="104.88,46.61 108.85,46.61 108.85,35.61 112.91,35.61 112.91,21.33 108.85,21.33 108.85,17.57 
		104.88,17.57 104.88,0 97.4,0 97.4,57.29 104.88,57.29 	"/>
	<rect x="24.12" y="40.12" class="st3" width="3.23" height="3.09"/>
	
		<rect x="70.49" y="25.8" transform="matrix(-1.836970e-16 1 -1 -1.836970e-16 127.7789 -70.4844)" class="st8" width="57.29" height="5.69"/>
	<polygon class="st0" points="96.75,46.67 100.76,46.67 100.76,41.63 104.88,41.63 104.88,18.82 100.76,18.82 100.76,14.12 
		96.75,14.12 96.75,0 91.25,0 91.25,14.12 91.25,46.67 91.25,57.29 96.83,57.29 	"/>
	<polygon class="st7" points="92.7,57.29 92.7,40.41 98.24,40.41 98.24,16.61 92.7,16.61 92.7,0 80.53,0 80.53,16.61 78.93,16.61 
		78.93,40.41 80.53,40.41 80.53,57.29 	"/>
	<polygon class="st8" points="88.64,43.07 84.71,43.07 84.71,35.73 81.54,35.73 81.54,21.34 84.71,21.34 84.71,14.23 88.64,14.23 
		88.64,0 67.18,0 67.18,14.23 68.2,14.23 68.2,20.68 65.03,20.68 65.03,36.65 68.2,36.65 68.2,43.07 67.18,43.07 67.18,57.29 
		88.64,57.29 	"/>
	<polygon class="st9" points="76.47,50.24 72.35,50.24 72.35,46.58 68.54,46.58 68.54,10.3 72.35,10.3 72.35,6.81 76.51,6.81 
		76.51,0 72.35,0 69.68,0 68.54,0 65.74,0 57.63,0 57.63,8.03 56.3,8.03 56.3,12.81 53.62,12.81 53.62,19.34 49.52,19.34 
		49.52,37.35 53.62,37.35 53.62,43.89 56.3,43.89 56.3,50.76 60.08,50.76 60.08,57.48 76.47,57.48 	"/>
	
		<rect x="95.54" y="16.42" transform="matrix(-3.465733e-13 1 -1 -3.465733e-13 114.7291 -78.9699)" class="st0" width="2.63" height="2.92"/>
	
		<rect x="95.46" y="37.65" transform="matrix(3.462059e-13 1 -1 3.462059e-13 135.8859 -57.6696)" class="st0" width="2.63" height="2.92"/>
	
		<rect x="138.38" y="27.54" transform="matrix(6.287697e-14 1 -1 6.287697e-14 174.2739 -116.9793)" class="st0" width="14.48" height="2.21"/>
	<polygon class="st6" points="189.33,57.29 189.33,42.93 191.4,42.93 196.41,57.29 	"/>
	
		<rect x="180.2" y="29.99" transform="matrix(4.777794e-14 1 -1 4.777794e-14 220.6441 -158.552)" class="st13" width="18.8" height="2.12"/>
	<polygon class="st4" points="57.87,50.71 57.87,43.46 53.74,43.46 53.74,36.78 50.95,36.78 50.95,19.89 53.74,19.89 53.74,13.45 
		57.87,13.45 57.87,6.16 60.66,6.16 60.66,0 52.48,0 52.48,3.18 48.34,3.18 48.34,8.46 44.21,8.46 44.21,19.63 39.9,19.63 39.9,37 
		44.21,37 44.21,48.33 48.34,48.33 48.34,54.07 52.48,54.07 52.48,58.21 60.66,58.21 60.66,50.71 	"/>
	
		<rect x="89.23" y="153.34" transform="matrix(0.7071 -0.7071 0.7071 0.7071 -83.4545 110.161)" class="st9" width="4.04" height="4.96"/>
	<polygon class="st0" points="114.23,134.06 112.83,131.13 115.09,128.66 117.16,131.32 	"/>
	<polygon class="st0" points="112.58,128.66 113.97,131.58 111.72,134.06 109.65,131.4 	"/>
	<polygon class="st7" points="104.67,115.71 100.65,118.02 98.72,111.57 102.58,110.42 	"/>
	
		<rect x="115.91" y="104.87" transform="matrix(0.8838 -0.4678 0.4678 0.8838 -36.6634 69.1171)" class="st8" width="9.84" height="7.02"/>
	<rect x="127.71" y="102.04" transform="matrix(0.866 -0.5 0.5 0.866 -35.7963 80.2443)" class="st7" width="8.26" height="9.77"/>
	
		<rect x="105.44" y="99.3" transform="matrix(0.9753 -0.2209 0.2209 0.9753 -20.4229 26.3912)" class="st9" width="4.67" height="10.4"/>
	
		<rect x="109.4" y="108.34" transform="matrix(0.8144 -0.5803 0.5803 0.8144 -45.3595 85.2676)" class="st9" width="2.45" height="10.4"/>
	
		<rect x="108.17" y="101.1" transform="matrix(0.9575 -0.2883 0.2883 0.9575 -26.0033 36.0528)" class="st9" width="2.45" height="10.4"/>
	<polygon class="st8" points="140.92,106.15 139.29,104.52 141.21,102.74 142.72,104.29 	"/>
	<polygon class="st7" points="177.71,79.85 176.09,81.46 170.37,73.59 172.61,71.36 	"/>
	
		<rect x="175.4" y="64.16" transform="matrix(0.7071 0.7071 -0.7071 0.7071 98.1861 -106.0349)" class="st0" width="3.38" height="2.68"/>
	
		<rect x="174.68" y="62.1" transform="matrix(0.7071 0.7071 -0.7071 0.7071 96.5207 -106.1321)" class="st0" width="3.38" height="2.68"/>
	
		<rect x="174.13" y="59.96" transform="matrix(0.7071 0.7071 -0.7071 0.7071 94.8443 -106.3719)" class="st0" width="3.38" height="2.68"/>
	
		<rect x="173.93" y="57.77" transform="matrix(0.7071 0.7071 -0.7071 0.7071 93.4838 -106.9511)" class="st0" width="3.83" height="3.19"/>
	
		<rect x="174.41" y="55.78" transform="matrix(0.7071 0.7071 -0.7071 0.7071 91.9468 -107.6749)" class="st0" width="3.07" height="2.75"/>
	
		<rect x="175.05" y="56.57" transform="matrix(-0.5304 0.8477 -0.8477 -0.5304 318.3102 -60.1858)" class="st0" width="1.55" height="3"/>
	<polygon class="st8" points="183.64,60.38 182.13,61.83 179.83,59.75 178.95,56.93 184.54,57.29 	"/>
	<polygon class="st4" points="80.81,167.58 78.68,165.45 82.7,161.43 88.4,167.12 87.04,168.48 92.08,173.52 90.61,174.99 
		95.07,179.45 93.12,181.4 106.91,195.19 108.29,193.81 112.26,197.78 114.3,195.74 117.87,199.3 119.24,197.92 124.44,203.11 
		124.42,203.12 130.01,208.71 128.65,210.06 133.69,215.1 131.65,217.15 136.11,221.6 134.73,222.98 148.52,236.78 149.9,235.4 
		153.87,239.37 155.91,237.32 159.47,240.88 160.85,239.51 166.04,244.7 166.02,244.72 170.97,249.67 169.62,251.03 174.66,256.07 
		172.62,258.11 177.07,262.57 175.69,263.95 189.49,277.74 190.87,276.37 194.83,280.33 196.88,278.29 200.44,281.85 201.82,280.47 
		207.01,285.66 204.53,288.15 206.55,289.75 204.53,292.3 206.96,293.95 205.52,296.07 211.67,300.26 209.53,303.4 214.98,307.1 
		213.54,309.22 227.99,319.06 229.43,316.94 234.9,320.65 237.04,317.51 243.16,321.67 244.6,319.56 250.94,323.87 246.71,330.09 
		244.58,328.64 242.44,331.79 236.22,327.56 234.08,330.7 224.51,324.19 222.28,327.47 207.59,317.48 209.82,314.2 200.39,307.78 
		202.53,304.64 196.24,300.36 198.38,297.21 195.77,295.45 197.73,292.57 197.15,292.12 198.98,289.81 194.08,284.92 192.04,286.96 
		184.2,279.12 182.07,281.25 170.05,269.23 172.18,267.1 164.45,259.37 166.5,257.33 161.34,252.18 163.39,250.13 161.26,248 
		160.26,247 158.21,249.04 153.12,243.95 151.07,245.99 143.23,238.16 141.1,240.29 129.08,228.26 131.21,226.13 123.48,218.41 
		125.53,216.36 120.38,211.21 122.42,209.17 120.4,207.15 120.39,207.16 118.65,205.42 116.6,207.46 111.51,202.36 109.46,204.41 
		101.63,196.57 99.49,198.7 87.47,186.68 89.6,184.55 81.88,176.82 83.92,174.78 78.77,169.63 	"/>
	<rect x="251.16" y="295.12" class="st8" width="4.96" height="4.04"/>
	
		<rect x="249.3" y="273.01" transform="matrix(0.5624 -0.8268 0.8268 0.5624 -117.6821 328.9342)" class="st7" width="5.29" height="5.29"/>
	<rect x="249.49" y="244.08" class="st8" width="7.36" height="7.36"/>
	<rect x="245.89" y="244.08" class="st8" width="4.56" height="4.56"/>
	<rect x="252.5" y="157.93" class="st10" width="4.2" height="2.98"/>
	<rect x="252.5" y="141.49" class="st7" width="2.88" height="2.53"/>
	<rect x="252.5" y="190.58" class="st10" width="4.2" height="5.06"/>
	
		<rect x="177.16" y="296.49" transform="matrix(0.7071 0.7071 -0.7071 0.7071 268.9614 -42.5255)" class="st1" width="17.32" height="13.82"/>
	
		<rect x="172.82" y="308.33" transform="matrix(0.7603 0.6496 -0.6496 0.7603 245.4068 -44.0294)" class="st1" width="19.09" height="4.34"/>
	
		<rect x="192.18" y="47.36" transform="matrix(0.6347 0.7727 -0.7727 0.6347 109.4986 -132.1708)" class="st6" width="4.76" height="4.76"/>
	<polygon class="st0" points="105.97,123.51 102.45,116.84 104.67,115.42 108.52,122.3 	"/>
	<polygon class="st13" points="206.49,0.01 209.02,31.12 255.2,86.39 377.72,101.17 377.72,0 	"/>
	<rect x="24.12" y="9.92" class="st3" width="3.23" height="3.09"/>
</g>
<rect x="178.13" y="154.62" transform="matrix(0.7071 0.7071 -0.7071 0.7071 163.0342 -81.5198)" class="st8" width="3.57" height="2.84"/>
<rect x="213.46" y="183.77" transform="matrix(0.7071 0.7071 -0.7071 0.7071 193.9909 -97.9654)" class="st8" width="3.57" height="2.84"/>
<rect x="217.29" y="197.11" transform="matrix(0.7071 0.7071 -0.7071 0.7071 204.5465 -96.7591)" class="st8" width="3.57" height="2.84"/>
<rect x="154.31" y="165.51" transform="matrix(0.7071 -0.7071 0.7071 0.7071 -72.9977 159.7443)" class="st7" width="4.04" height="4.96"/>
<rect x="176.92" y="216.63" transform="matrix(0.7071 -0.7071 0.7071 0.7071 -102.5238 190.7085)" class="st8" width="4.04" height="4.96"/>
<rect x="139.79" y="189.81" transform="matrix(0.7071 -0.7071 0.7071 0.7071 -94.4347 156.5952)" class="st8" width="4.04" height="4.96"/>
</svg>
