<?xml version="1.0" encoding="utf-8"?>
<!-- Generator: Adobe Illustrator 24.2.0, SVG Export Plug-In . SVG Version: 6.00 Build 0)  -->
<svg version="1.1" id="Layer_1" xmlns="http://www.w3.org/2000/svg" xmlns:xlink="http://www.w3.org/1999/xlink" x="0px" y="0px"
	 viewBox="0 0 377.35 311.2" style="enable-background:new 0 0 377.35 311.2;" xml:space="preserve">
<style type="text/css">
	.Drop_x0020_Shadow{fill:none;}
	.Round_x0020_Corners_x0020_2_x0020_pt{fill:#FFFFFF;stroke:#000000;stroke-miterlimit:10;}
	.Live_x0020_Reflect_x0020_X{fill:none;}
	.Bevel_x0020_Soft{fill:url(#SVGID_1_);}
	.Dusk{fill:#FFFFFF;}
	.Foliage_GS{fill:#FFDD00;}
	.Pompadour_GS{fill-rule:evenodd;clip-rule:evenodd;fill:#44ADE2;}
	.st0{fill:#8D6A3F;}
	.st1{fill:#2F3E83;}
	.st2{fill:#3967B1;}
	.st3{fill:#699ED4;}
	.st4{fill:#A7D1F0;}
	.st5{fill:none;}
	.st6{fill:#386A42;}
	.st7{fill:#6D522E;}
	.st8{fill:#4F3928;}
	.st9{fill:#31261E;}
	.st10{fill:#AF9D66;}
	.st11{fill:#666666;}
	.st12{fill:#333333;}
	.st13{fill:#41B149;}
</style>
<linearGradient id="SVGID_1_" gradientUnits="userSpaceOnUse" x1="2852.7646" y1="-803.6162" x2="2853.4717" y2="-802.9091">
	<stop  offset="0" style="stop-color:#DEDFE3"/>
	<stop  offset="0.1738" style="stop-color:#D8D9DD"/>
	<stop  offset="0.352" style="stop-color:#C9CACD"/>
	<stop  offset="0.5323" style="stop-color:#B4B5B8"/>
	<stop  offset="0.7139" style="stop-color:#989A9C"/>
	<stop  offset="0.8949" style="stop-color:#797C7E"/>
	<stop  offset="1" style="stop-color:#656B6C"/>
</linearGradient>
<rect x="-0.07" y="0" transform="matrix(-1 -4.490021e-11 4.490021e-11 -1 377.4278 311.2028)" class="st0" width="377.57" height="311.2"/>
<rect x="-0.07" y="0" transform="matrix(-1 -4.490021e-11 4.490021e-11 -1 377.4279 255.0419)" class="st2" width="377.57" height="255.04"/>
<rect x="200.25" y="248.35" transform="matrix(-1 -4.487711e-11 4.487711e-11 -1 445.8072 515.8112)" class="st10" width="45.32" height="19.11"/>
<g>
	
		<rect x="-0.07" y="31.74" transform="matrix(-1 -4.489088e-11 4.489088e-11 -1 62.1579 85.77)" class="st1" width="62.3" height="22.28"/>
	<g>
		<path class="st13" d="M-0.07,311.2l0.15-138.47l45.28,1.84l6.3-2.41l9.21-1.04l7.87,1.6l5.51,1.25l19.99,1.76l13.33,4.04
			l13.87,10.83l29.52,33.35l19.15,15.57c0,0,11.05,13.21,11.44,13.99c0.39,0.77,6,9.71,6,9.71l1.56,7.1c0,0,1.28,20.79,1.25,21.47
			c-0.03,0.68-1.1,4.06-1.1,4.06l-1.99,7.45l-1.02,7.9L-0.07,311.2z"/>
		<polygon class="st6" points="35.6,162.53 35.83,152.47 43.51,152.65 43.46,154.84 50.95,155.01 50.87,158.48 77.31,159.07 
			77.42,155.61 84.83,155.77 84.9,153.58 94.79,153.81 99.68,159.99 108.01,173.04 117.17,182.2 118.84,180.53 121.23,182.91 
			123.5,180.63 139.11,196.25 136.84,198.52 139.31,200.99 137.63,202.66 147.35,212.38 147.35,212.38 158.87,223.89 160.54,222.22 
			162.92,224.6 165.2,222.33 180.81,237.94 178.53,240.21 181,242.68 179.33,244.35 188.86,253.88 184.72,258.49 187.46,261.99 
			183.28,265.26 180.92,262.25 177.5,265.65 172.07,260.22 173.61,258.67 168.31,253.36 170.76,250.91 152.06,232.21 149.6,234.65 
			144.35,229.4 142.79,230.94 135.8,223.95 135.8,223.96 130.37,218.52 131.92,216.97 126.61,211.67 129.07,209.22 110.37,190.52 
			107.9,192.96 97.41,183.98 98.94,180.66 88.98,177.93 87.95,181.38 81.24,180.67 81,182.85 71.16,181.9 71.45,179.05 67.3,179.05 
			67.3,175.13 57.5,174.91 48.66,174.91 48.66,179.7 40.96,179.7 40.96,183.79 17.92,183.79 17.92,179.7 10.11,179.7 10.11,174.91 
			-0.07,174.91 -0.07,162.53 		"/>
		<polygon class="st1" points="321.68,218.56 328.08,234.72 334.33,234.72 335.75,241.01 342.58,241.01 344.57,247.15 
			354.21,247.15 356.09,257.51 356.09,258.07 313.17,257.64 308.98,254.59 301.75,227.36 		"/>
		<polygon class="st4" points="308.36,267.01 306.39,260.04 310.37,258.91 308.55,252.49 311.23,251.73 306.64,235.47 
			303.96,236.23 302.21,230.03 298.23,231.15 296.25,224.14 293.57,224.9 291.88,218.91 299.76,216.69 300.64,219.81 304.62,218.68 
			306.05,223.76 310.03,222.64 313.06,233.38 317.21,232.21 321.93,248.94 317.78,250.11 320.86,261.01 316.88,262.13 
			318.44,267.65 314.46,268.77 315.33,271.85 307.46,274.08 305.68,267.77 		"/>
		<polygon class="st9" points="292.9,271.4 296.82,270.11 295.68,266.64 299.3,265.45 287.97,230.98 284.35,232.17 283.26,228.86 
			279.31,230.15 277.18,223.69 281.14,222.39 283.68,221.55 284.76,221.2 287.41,220.32 295.12,217.79 297.62,225.42 298.89,225 
			300.38,229.54 302.93,228.71 304.97,234.91 308.87,233.63 314.49,250.74 310.59,252.02 312.63,258.24 310.08,259.08 
			312.23,265.61 308.63,266.79 310.68,273.02 295.11,278.13 		"/>
		<path class="st8" d="M274.21,243.47l6.54,10.41l-6.18,0.98l-2.35-3.04c0,0-3.93-0.38-4-0.42c-0.07-0.04-1.59-4.76-1.65-4.71
			c-0.07,0.04,3.57-3.21,3.57-3.21H274.21z"/>
		<g>
			<polygon class="st7" points="262.84,230.88 265.99,229.28 264.34,226.04 263.68,226.37 250.43,200.2 253.79,198.5 249.44,189.9 
				255.68,186.74 261.29,197.83 264.72,196.1 274.17,214.77 270.75,216.51 273.28,221.51 270.47,222.93 279.51,240.79 
				275.62,242.76 270.2,245.42 			"/>
			
				<rect x="213.29" y="252.38" transform="matrix(0.8922 -0.4516 0.4516 0.8922 -91.7153 124.3359)" class="st0" width="2.63" height="3.82"/>
			
				<rect x="268.89" y="221.94" transform="matrix(0.8922 -0.4516 0.4516 0.8922 -72.2285 146.2236)" class="st8" width="2.6" height="4.96"/>
			
				<rect x="281.9" y="168.07" transform="matrix(0.8922 -0.4516 0.4516 0.8922 -56.9507 156.5309)" class="st1" width="35.05" height="58.98"/>
			<polygon class="st9" points="269.62,179.69 269.62,179.69 273.55,177.69 275.16,180.88 276.29,180.46 283.23,194.18 
				284.51,193.53 292.91,210.14 293.49,211.28 296.97,218.15 295.36,218.96 296.34,220.89 295.02,221.55 299.61,230.61 
				296.26,232.31 296.26,232.31 286.77,237.11 260.13,184.49 			"/>
			<polygon class="st7" points="186.61,222.23 188.45,221.3 192.51,219.25 199.7,233.44 203.86,231.34 206.27,236.11 208.01,235.23 
				215.68,250.37 213.94,251.25 216.41,256.14 212.26,258.25 219.15,271.87 215.09,273.93 213.25,274.86 212.39,275.29 
				208.86,268.32 209.72,267.88 190.15,229.21 189.28,229.65 185.75,222.67 			"/>
			
				<rect x="199.56" y="267.46" transform="matrix(0.8922 -0.4516 0.4516 0.8922 -99.1289 119.617)" class="st5" width="2.89" height="0"/>
			<polygon class="st6" points="190.04,279.3 187.39,279.3 187.5,272.05 188.96,272.21 177.02,246.46 173.91,248 170.56,241.39 
				168.6,242.36 164.13,233.53 178.72,226.14 186.08,240.67 188.19,239.6 189.71,242.61 192.58,241.16 202.55,260.85 199.68,262.31 
				201.26,265.42 199.15,266.49 205.4,278.83 190.77,286.15 			"/>
			<polygon class="st8" points="219.65,223.62 212.14,208.78 215.19,207.24 217.43,211.68 219.7,210.53 224.59,220.11 227.3,218.74 
				229.77,223.69 231.56,222.78 239.23,237.92 237.43,238.83 239.91,243.72 237.2,245.09 241.85,254.28 239.58,255.42 
				241.83,259.86 238.77,261.41 			"/>
			<polygon class="st10" points="239.35,261.64 237.81,258.6 237.81,262.42 			"/>
			<polygon class="st10" points="194.39,218.3 200.7,230.78 203.61,229.31 205.3,232.65 204.75,233.1 208.76,239.34 213.32,250.27 
				213.95,253.65 235.3,253.64 234.97,252.99 236.48,252.22 233.09,245.51 234.61,244.74 233.01,241.59 235.66,240.26 228,225.11 
				225.35,226.45 223.76,223.31 222.24,224.08 218.58,216.85 217.07,217.62 212.71,209.02 208.41,211.2 204.94,212.96 			"/>
			<polygon class="st8" points="262.46,249.42 249.59,223.99 252.27,222.63 243.07,204.45 245.08,203.44 242.52,198.39 
				245.01,197.13 243,193.16 250.45,189.39 260.93,210.09 258.8,211.17 261.64,216.78 260.06,217.58 265.99,229.28 262.88,230.86 
				266.81,238.63 270.75,236.64 274.21,243.47 270.27,245.46 270.27,245.46 			"/>
			
				<rect x="278.65" y="230.14" transform="matrix(0.8922 -0.4516 0.4516 0.8922 -74.8831 151.514)" class="st8" width="2.6" height="4.96"/>
			
				<rect x="262.16" y="187.08" transform="matrix(0.8922 -0.4516 0.4516 0.8922 -57.2134 139.426)" class="st8" width="2.6" height="4.96"/>
			<polygon class="st2" points="332.39,147.82 359.03,200.45 326.72,216.8 326.66,216.68 326.54,216.74 319.37,202.58 
				319.49,202.52 300.08,164.18 			"/>
			<polygon class="st0" points="212.91,266.26 214.62,265.4 211.25,258.75 212.56,258.1 211.46,255.94 212.52,255.41 210.51,251.44 
				212.88,250.24 206.12,236.89 204.07,238.73 202.4,235.41 201.34,235.95 200.35,233.98 199.04,234.64 195.04,226.73 193.34,227.6 
				189.8,220.62 191.51,219.75 192.51,219.25 193.07,219 197.41,227.57 199.17,226.65 202.84,233.9 204.07,233.28 205.67,236.42 
				208.2,235.14 215.87,250.28 213.33,251.56 214.92,254.71 213.69,255.33 217.04,261.95 215.26,262.85 219.69,271.6 219.15,271.87 
				218.15,272.38 216.44,273.24 			"/>
			<polygon class="st9" points="230.75,199.36 237.45,195.97 238.05,195.66 239.93,194.72 240.76,194.29 243.24,193.04 
				250.75,207.88 248.28,209.14 255.31,223.02 252.6,224.4 260.58,240.17 262.68,239.11 272.38,253.95 258.87,257.8 			"/>
			<polygon class="st8" points="220.57,204.51 247.21,257.13 257.92,251.71 257.92,251.71 260.29,251.71 260.13,253.88 
				264.59,253.88 262.85,249.22 258.11,239.87 255.58,241.16 252.8,235.66 250.28,236.93 238.67,214 241.19,212.72 238.4,207.22 
				240.94,205.94 236.21,196.6 233.67,197.88 232.91,198.26 231.16,199.15 			"/>
			<polygon class="st8" points="257.89,251.71 257.92,251.71 259.55,250.89 260.31,250.5 			"/>
			<g>
				
					<rect x="307.32" y="184.92" transform="matrix(0.8922 -0.4516 0.4516 0.8922 -53.5304 160.0207)" class="st3" width="2.26" height="14.45"/>
				
					<rect x="309.93" y="199.28" transform="matrix(0.8922 -0.4516 0.4516 0.8922 -57.837 162.297)" class="st3" width="2.26" height="6.04"/>
				
					<rect x="300.68" y="181" transform="matrix(0.8922 -0.4516 0.4516 0.8922 -50.5778 156.1464)" class="st3" width="2.26" height="6.04"/>
				
					<rect x="296.62" y="179.49" transform="matrix(0.8922 -0.4516 0.4516 0.8922 -49.6487 153.9866)" class="st3" width="2.26" height="3.02"/>
				
					<rect x="309.97" y="205.86" transform="matrix(0.8922 -0.4516 0.4516 0.8922 -60.1201 162.8587)" class="st3" width="2.26" height="3.02"/>
			</g>
			
				<rect x="284.29" y="188.86" transform="matrix(0.4516 0.8922 -0.8922 0.4516 341.8471 -175.608)" class="st1" width="58.98" height="2.86"/>
			
				<rect x="299.94" y="186.31" transform="matrix(0.4516 0.8922 -0.8922 0.4516 341.2686 -178.2908)" class="st1" width="31.47" height="4.34"/>
			
				<rect x="308.08" y="185.35" transform="matrix(0.4516 0.8922 -0.8922 0.4516 341.4828 -180.5548)" class="st1" width="19.09" height="4.34"/>
			
				<rect x="301.07" y="162.6" transform="matrix(0.4516 0.8922 -0.8922 0.4516 313.0742 -179.8436)" class="st2" width="3.55" height="4.34"/>
			<polygon class="st4" points="294.28,224.93 292,220.43 294.58,219.13 292.05,214.12 293.78,213.24 284.97,195.83 283.23,196.71 
				280.39,191.09 277.81,192.4 274.59,186.03 272.88,186.9 269.24,179.72 274.32,177.15 275.68,179.84 278.26,178.53 281.55,185.03 
				284.13,183.72 289.06,193.47 291.75,192.11 299.43,207.28 296.74,208.64 301.75,218.53 299.17,219.84 300.79,222.98 
				298.21,224.28 300.96,229.77 295.85,232.36 292.54,225.81 			"/>
			
				<rect x="253.08" y="245.76" transform="matrix(0.4516 0.8922 -0.8922 0.4516 360.0902 -91.9726)" class="st8" width="3.57" height="2.39"/>
			
				<rect x="237.97" y="197.78" transform="matrix(0.4516 0.8922 -0.8922 0.4516 308.8898 -104.7433)" class="st8" width="3.38" height="2.27"/>
			
				<rect x="183.23" y="225.9" transform="matrix(0.4516 0.8922 -0.8922 0.4516 306.8834 -43.9316)" class="st7" width="11.9" height="3.58"/>
			<polygon class="st7" points="238.9,254.09 241.17,252.94 237.19,245.08 239.86,243.73 227.29,218.91 224.63,220.26 
				220.38,211.86 218.11,213.01 215.19,207.24 220.81,204.39 223.31,209.35 225.03,208.48 226.88,212.13 228.47,211.32 
				230.34,215.01 232.17,214.08 234.92,219.49 235.93,218.98 244.47,235.86 243.46,236.38 246.34,242.07 244.51,243 246.38,246.69 
				244.78,247.49 246.92,251.73 244.37,253.88 247.44,257.02 241.83,259.86 			"/>
			
				<rect x="204.15" y="268.39" transform="matrix(0.4516 0.8922 -0.8922 0.4516 355.9764 -39.3862)" class="st7" width="11.76" height="3.02"/>
			
				<rect x="223.76" y="260.85" transform="matrix(0.8922 -0.4516 0.4516 0.8922 -94.2845 129.824)" class="st0" width="2.1" height="3.13"/>
		</g>
		<g>
			
				<rect x="124.72" y="88.82" transform="matrix(0.163 -0.9866 0.9866 0.163 15.3956 200.7528)" class="st8" width="2.6" height="4.96"/>
			
				<rect x="104.11" y="22.36" transform="matrix(0.163 -0.9866 0.9866 0.163 50.6489 163.4132)" class="st1" width="35.05" height="58.98"/>
			
				<rect x="88.34" y="70.07" transform="matrix(0.9866 0.163 -0.163 0.9866 13.8655 -18.2011)" class="st9" width="58.98" height="10.63"/>
			<polygon class="st9" points="109.34,62.91 109.57,61.5 127.93,64.54 129.19,64.75 136.79,66 136.5,67.78 138.63,68.13 
				138.39,69.58 148.41,71.23 147.75,75.23 132.75,72.75 132.46,74.54 109.3,70.71 109.6,68.92 99.57,67.27 89.55,65.61 90.51,59.8 
							"/>
			<polygon class="st8" points="94.38,85.69 94.82,83 86.9,81.69 88.41,72.52 106.52,75.52 106.98,72.71 114.76,73.99 114.9,73.19 
				125.22,74.9 124.62,78.51 129.84,79.37 129.39,82.06 135.21,83.02 135.82,79.36 141.6,80.32 142.11,77.27 147.27,78.13 
				146.16,84.83 144.65,94 			"/>
			
				<rect x="118.41" y="172.55" transform="matrix(0.163 -0.9866 0.9866 0.163 -69.9311 262.671)" class="st5" width="2.89" height="0"/>
			<polygon class="st8" points="118.02,166.92 114.45,166.33 114.71,164.74 111.07,164.13 111.6,160.91 97.41,158.56 97.38,158.56 
				96.85,161.78 93.23,161.19 92.96,162.78 89.41,162.2 89.4,162.19 89.01,164.52 74.1,162.05 75.01,156.55 93.48,159.63 
				94.02,156.4 95.65,156.66 97.66,157 98.85,157.19 99.26,154.73 100.88,155 111.06,156.68 110.65,159.14 111.86,159.34 
				114.28,159.74 115.5,159.95 114.97,163.18 133.2,166.17 132.28,171.72 117.62,169.3 			"/>
			<polygon class="st9" points="95.5,131.61 79.1,128.89 79.65,125.52 84.56,126.33 84.98,123.82 95.77,125.61 96.26,122.61 
				101.54,123.48 101.87,121.5 118.61,124.26 118.29,126.25 123.69,127.14 123.2,130.14 133.35,131.82 132.94,134.33 137.85,135.14 
				137.29,138.51 			"/>
			<polygon class="st9" points="117.97,173.48 118.35,171.15 114.91,170.58 115.31,168.17 115.43,167.4 93.65,163.8 93.13,166.98 
				89.8,166.43 89.42,168.76 73.43,166.12 74.22,161.33 89.13,163.79 89.14,163.79 89.53,161.47 93.08,162.06 93.35,160.46 
				96.97,161.06 96.99,161.06 97.53,157.83 111.72,160.18 111.19,163.41 114.83,164.01 114.57,165.61 118.14,166.2 117.74,168.57 
				132.4,170.99 131.62,175.74 			"/>
			<path class="st10" d="M134.47,158.45l1.93-11.67l0.63-3.84l0.79-4.76l-9.57-1.58l0.28-1.67l-7.42-1.23l0.28-1.68l-3.48-0.57
				l0.48-2.93l-16.74-2.77l-0.48,2.93l-3.48-0.57l-0.28,1.68l-7.99-1.32l-0.28,1.67l-9.51-1.57l-0.79,4.76l-0.63,3.84l-0.48,11.67
				l12.36,2.28l0.53-3.21l3.7,0.61l0.4-2.41l3.48,0.57l0.37-2.25l16.74,2.77l-0.75,2.1l1.52,2.07l3.81,5.19l0.81,0.81L134.47,158.45
				z"/>
			<polygon class="st7" points="126.89,101.06 127.46,97.57 123.87,96.98 123.75,97.72 94.81,92.93 95.42,89.22 85.91,87.65 
				87.05,80.74 99.32,82.77 99.94,78.98 120.6,82.39 119.97,86.18 125.5,87.1 124.99,90.2 144.73,93.46 144.02,97.77 143.61,100.24 
				143.04,103.73 			"/>
			<polygon class="st8" points="141.62,112.31 113.5,107.67 113.99,104.7 93.89,101.38 94.25,99.16 88.67,98.24 89.12,95.49 
				84.74,94.76 86.1,86.53 109,90.31 108.61,92.67 114.81,93.69 114.52,95.44 127.46,97.57 126.89,101.01 135.49,102.43 
				136.21,98.08 143.76,99.33 143.05,103.68 143.05,103.68 			"/>
			
				<rect x="137.11" y="85.8" transform="matrix(0.163 -0.9866 0.9866 0.163 28.7397 210.4457)" class="st8" width="2.6" height="4.96"/>
			
				<rect x="92.63" y="73.65" transform="matrix(0.163 -0.9866 0.9866 0.163 3.5019 156.394)" class="st8" width="2.6" height="4.96"/>
			<polygon class="st2" points="101,-4.14 159.19,5.47 153.29,41.21 153.15,41.19 153.13,41.31 137.48,38.73 137.5,38.6 95.1,31.59 
							"/>
			<polygon class="st9" points="82.5,108.3 83.72,100.9 83.83,100.24 84.18,98.16 84.33,97.24 84.78,94.5 101.2,97.21 100.74,99.95 
				116.1,102.49 115.6,105.49 133.05,108.37 133.44,106.04 142.41,107.53 142.03,109.85 141.92,110.52 140.69,117.92 			"/>
			<polygon class="st8" points="80.64,119.57 82.57,107.86 82.89,105.92 83.03,105.08 83.5,102.28 93.83,103.98 93.37,106.79 
				99.45,107.79 98.99,110.57 124.35,114.76 124.81,111.98 130.89,112.99 131.35,110.18 141.69,111.89 141.23,114.7 141.09,115.54 
				140.77,117.47 138.83,129.18 			"/>
			<g>
				
					<rect x="123.77" y="33.53" transform="matrix(0.4876 -0.8731 0.8731 0.4876 29.2908 129.4117)" class="st3" width="2.26" height="12.44"/>
				
					<rect x="130.37" y="43.42" transform="matrix(0.4876 -0.8731 0.8731 0.4876 27.1993 138.3901)" class="st3" width="2.26" height="5.21"/>
				
					<rect x="114.96" y="34.82" transform="matrix(0.4876 -0.8731 0.8731 0.4876 26.8168 120.531)" class="st3" width="2.26" height="5.21"/>
				
					<rect x="110.46" y="36.18" transform="matrix(0.4876 -0.8731 0.8731 0.4876 24.4493 116.6287)" class="st3" width="2.26" height="2.6"/>
				
					<rect x="132.68" y="48.59" transform="matrix(0.4876 -0.8731 0.8731 0.4876 25.0011 142.3901)" class="st3" width="2.26" height="2.6"/>
			</g>
			
				<rect x="108.12" y="31.2" transform="matrix(0.9866 0.163 -0.163 0.9866 7.16 -19.7408)" class="st1" width="31.47" height="5.11"/>
			
				<rect x="114.75" y="29.07" transform="matrix(0.9866 0.163 -0.163 0.9866 6.7555 -19.8465)" class="st1" width="19.09" height="4.34"/>
			
				<rect x="95.43" y="27.54" transform="matrix(0.9866 0.163 -0.163 0.9866 6.1444 -15.4501)" class="st2" width="3.55" height="4.34"/>
			<polygon class="st4" points="140.82,72.2 135.85,71.37 136.32,68.52 130.78,67.61 130.76,66.49 111.85,62.51 111.53,64.43 
				105.32,63.4 104.85,66.25 97.81,65.09 97.5,66.98 89.56,65.67 90.48,60.05 93.46,60.55 93.93,57.69 101.11,58.88 101.59,56.03 
				112.37,57.81 112.86,54.84 129.64,57.61 129.14,60.58 133.52,62.59 139.61,65.24 146.72,66.42 146.25,69.27 148.68,69.67 
				147.75,75.29 140.5,74.12 			"/>
			
				<rect x="133.36" y="115.79" transform="matrix(0.9866 0.163 -0.163 0.9866 20.8801 -20.4669)" class="st8" width="3.57" height="2.39"/>
			
				<rect x="85.71" y="99.73" transform="matrix(0.9866 0.163 -0.163 0.9866 17.6129 -12.8998)" class="st8" width="3.38" height="2.27"/>
			<polygon class="st7" points="86.94,157.79 75.01,156.55 74.62,159.38 86.36,161.32 			"/>
			<polygon class="st7" points="131.47,134.08 131.88,131.57 123.18,130.14 123.67,127.19 96.23,122.65 95.74,125.6 86.45,124.07 
				86.04,126.58 79.65,125.52 80.68,119.31 86.16,120.21 86.47,118.31 90.51,118.98 90.8,117.21 94.88,117.89 95.21,115.86 
				101.2,116.85 101.39,115.73 120.05,118.82 119.87,119.93 126.17,120.97 125.83,123 129.91,123.68 129.62,125.44 134.3,126.22 
				133.99,128.12 138.87,128.92 137.85,135.14 			"/>
			
				<rect x="121.37" y="165.02" transform="matrix(0.9866 0.163 -0.163 0.9866 28.8515 -18.5168)" class="st7" width="11.76" height="3.02"/>
			
				<rect x="93.59" y="129.63" transform="matrix(0.163 -0.9866 0.9866 0.163 -50.0753 203.3687)" class="st0" width="2.48" height="3.13"/>
			
				<rect x="116.49" y="135.4" transform="matrix(0.163 -0.9866 0.9866 0.163 -36.7561 230.5958)" class="st0" width="2.1" height="3.13"/>
			
				<rect x="128.8" y="148.81" transform="matrix(0.163 -0.9866 0.9866 0.163 -39.6755 253.9713)" class="st0" width="2.1" height="3.13"/>
			
				<rect x="122.3" y="36.75" transform="matrix(-0.9866 -0.163 0.163 -0.9866 253.5084 95.7941)" class="st1" width="16.77" height="1.49"/>
			
				<rect x="120.28" y="34.62" transform="matrix(-0.9866 -0.163 0.163 -0.9866 236.9086 90.1818)" class="st1" width="3.74" height="1.49"/>
			
				<rect x="117.39" y="33.85" transform="matrix(-0.9866 -0.163 0.163 -0.9866 231.2867 88.1673)" class="st1" width="3.74" height="1.49"/>
			
				<rect x="116.39" y="33.98" transform="matrix(-0.9866 -0.163 0.163 -0.9866 229.2704 88.2669)" class="st1" width="3.74" height="1.49"/>
			
				<rect x="116.66" y="33.98" transform="matrix(-0.9866 -0.163 0.163 -0.9866 229.8151 88.3116)" class="st1" width="3.74" height="1.49"/>
			
				<rect x="114.06" y="33.73" transform="matrix(-0.9866 -0.163 0.163 -0.9866 224.695 87.3935)" class="st1" width="3.74" height="1.49"/>
			
				<rect x="110.69" y="33.45" transform="matrix(-0.9866 -0.163 0.163 -0.9866 218.0462 86.2851)" class="st1" width="3.74" height="1.49"/>
			
				<rect x="107.92" y="33.12" transform="matrix(-0.9866 -0.163 0.163 -0.9866 212.5878 85.1805)" class="st1" width="3.74" height="1.49"/>
		</g>
		<g>
			
				<rect x="124.53" y="160.58" transform="matrix(0.4797 -0.8774 0.8774 0.4797 -77.1026 194.958)" class="st0" width="2.63" height="3.82"/>
			
				<rect x="153.45" y="103.91" transform="matrix(0.4797 -0.8774 0.8774 0.4797 -12.8358 191.1345)" class="st8" width="2.6" height="4.96"/>
			
				<rect x="146.12" y="38.22" transform="matrix(0.4797 -0.8774 0.8774 0.4797 25.731 178.8116)" class="st1" width="35.05" height="58.98"/>
			
				<rect x="122.79" y="83.34" transform="matrix(0.8774 0.4797 -0.4797 0.8774 61.1961 -62.1825)" class="st9" width="58.98" height="10.63"/>
			<polygon class="st9" points="148.38,74.08 149.06,72.83 165.39,81.76 166.51,82.37 173.27,86.07 172.41,87.64 174.3,88.68 
				173.6,89.97 182.51,94.84 180.57,98.39 167.23,91.1 166.36,92.69 145.77,81.43 146.64,79.84 137.73,74.97 128.81,70.1 
				131.64,64.93 			"/>
			<polygon class="st8" points="126.74,90.64 128.05,88.25 121,84.39 125.45,76.25 141.55,85.05 142.92,82.55 149.84,86.33 
				150.23,85.62 159.41,90.64 157.65,93.85 162.29,96.39 160.99,98.78 166.16,101.61 167.94,98.36 173.09,101.17 174.57,98.46 
				179.16,100.97 175.9,106.93 171.44,115.08 			"/>
			
				<rect x="120.65" y="181.04" transform="matrix(0.4797 -0.8774 0.8774 0.4797 -95.3297 201.3227)" class="st5" width="2.89" height="0"/>
			<polygon class="st8" points="122.22,175.13 119.05,173.39 119.82,171.97 116.58,170.2 118.15,167.33 105.53,160.42 105.5,160.41 
				103.94,163.28 100.72,161.52 99.94,162.94 96.78,161.22 96.77,161.21 95.64,163.28 82.37,156.02 85.05,151.13 101.47,160.14 
				103.05,157.26 104.5,158.05 106.29,159.03 107.34,159.61 108.54,157.42 109.99,158.22 119.03,163.16 117.84,165.35 
				118.91,165.94 121.07,167.11 122.15,167.71 120.58,170.59 136.8,179.43 134.1,184.36 121.07,177.24 			"/>
			<polygon class="st8" points="112.63,134.35 98.04,126.38 99.68,123.38 104.05,125.76 105.27,123.53 114.86,128.78 116.32,126.11 
				121.02,128.68 121.98,126.91 136.87,135.06 135.91,136.82 140.71,139.45 139.26,142.12 148.29,147.05 147.07,149.28 
				151.44,151.67 149.8,154.67 			"/>
			<path class="st10" d="M140.55,172.57l5.67-10.38l1.87-3.41l2.31-4.23l-8.51-4.65l0.81-1.49l-6.6-3.61l0.82-1.5l-3.09-1.69
				l1.42-2.6l-14.89-8.14l-1.42,2.6l-3.09-1.69l-0.82,1.5l-7.1-3.88l-0.81,1.49l-8.46-4.62l-2.31,4.23l-1.87,3.41l-4.31,10.85
				l10.91,6.23l1.56-2.86l3.29,1.8l1.17-2.14l3.09,1.69l1.1-2.01l14.89,8.14l-1.1,2.01l3.09,1.69l-1.17,2.14l3.29,1.8l-1.56,2.86
				L140.55,172.57z"/>
			<polygon class="st7" points="152.34,115.88 154.04,112.79 150.85,111.04 150.49,111.69 124.75,97.62 126.56,94.32 118.1,89.69 
				121.46,83.56 132.36,89.52 134.21,86.15 152.57,96.19 150.73,99.56 155.65,102.25 154.14,105.01 171.7,114.61 169.61,118.44 
				168.4,120.64 166.71,123.74 			"/>
			<polygon class="st8" points="162.53,131.38 137.53,117.7 138.97,115.07 121.09,105.29 122.17,103.32 117.2,100.6 118.54,98.15 
				114.64,96.02 118.64,88.7 139.01,99.83 137.86,101.93 143.37,104.94 142.53,106.49 154.04,112.79 152.37,115.84 160.01,120.02 
				162.13,116.15 168.85,119.83 166.73,123.7 166.73,123.7 			"/>
			
				<rect x="166.14" y="105.15" transform="matrix(0.4797 -0.8774 0.8774 0.4797 -7.3239 202.9121)" class="st8" width="2.6" height="4.96"/>
			
				<rect x="128.17" y="78.99" transform="matrix(0.4797 -0.8774 0.8774 0.4797 -4.1269 155.9882)" class="st8" width="2.6" height="4.96"/>
			<polygon class="st2" points="162.66,8.04 214.41,36.33 197.03,68.11 196.91,68.05 196.85,68.16 182.93,60.55 182.99,60.43 
				145.28,39.82 			"/>
			<polygon class="st9" points="108.05,108.07 111.65,101.48 111.98,100.89 112.99,99.05 113.44,98.22 114.77,95.79 129.37,103.77 
				128.04,106.21 141.69,113.67 140.23,116.34 155.75,124.82 156.88,122.75 164.86,127.12 163.73,129.18 163.41,129.78 
				159.81,136.36 			"/>
			<polygon class="st8" points="102.58,118.08 108.27,107.67 109.21,105.95 109.62,105.2 110.99,102.7 120.18,107.73 118.81,110.22 
				124.22,113.18 122.87,115.65 145.42,127.98 146.78,125.51 152.18,128.47 153.55,125.97 162.74,131 161.37,133.49 160.96,134.24 
				160.02,135.96 154.33,146.38 			"/>
			<g>
				
					<rect x="166.88" y="50.91" transform="matrix(0.4797 -0.8774 0.8774 0.4797 36.4043 177.6616)" class="st3" width="2.26" height="14.45"/>
				
					<rect x="174.79" y="62.01" transform="matrix(0.4797 -0.8774 0.8774 0.4797 34.4696 188.1866)" class="st3" width="2.26" height="6.04"/>
				
					<rect x="156.81" y="52.18" transform="matrix(0.4797 -0.8774 0.8774 0.4797 33.7403 167.2971)" class="st3" width="2.26" height="6.04"/>
				
					<rect x="151.75" y="53.49" transform="matrix(0.4797 -0.8774 0.8774 0.4797 31.2795 162.7557)" class="st3" width="2.26" height="3.02"/>
				
					<rect x="177.68" y="67.67" transform="matrix(0.4797 -0.8774 0.8774 0.4797 32.3316 192.8885)" class="st3" width="2.26" height="3.02"/>
			</g>
			
				<rect x="141.87" y="52.16" transform="matrix(0.8774 0.4797 -0.4797 0.8774 46.7115 -75.6377)" class="st1" width="58.98" height="2.86"/>
			
				<rect x="156.16" y="48.85" transform="matrix(0.8774 0.4797 -0.4797 0.8774 45.5463 -76.2087)" class="st1" width="31.47" height="4.34"/>
			
				<rect x="163.42" y="46.96" transform="matrix(0.8774 0.4797 -0.4797 0.8774 44.7687 -76.9512)" class="st1" width="19.09" height="4.34"/>
			
				<rect x="146.12" y="36.57" transform="matrix(0.8774 0.4797 -0.4797 0.8774 36.7129 -66.1985)" class="st2" width="3.55" height="4.34"/>
			
				<rect x="153.09" y="132.45" transform="matrix(0.8774 0.4797 -0.4797 0.8774 83.0972 -57.9155)" class="st8" width="3.57" height="2.39"/>
			<polygon class="st7" points="95.9,156.24 85.05,151.13 83.75,153.67 94.19,159.38 			"/>
			<polygon class="st7" points="145.76,148.57 146.98,146.34 139.24,142.11 140.68,139.49 116.27,126.14 114.84,128.76 
				106.58,124.25 105.36,126.48 99.68,123.38 102.71,117.85 107.57,120.51 108.5,118.82 112.09,120.79 112.95,119.22 114.44,121.2 
				116.56,118.39 122.89,122.31 123.43,121.31 140.03,130.39 139.49,131.38 145.09,134.45 144.1,136.25 147.73,138.23 146.87,139.8 
				151.04,142.08 150.11,143.77 154.46,146.15 151.44,151.67 			"/>
			
				<rect x="125.18" y="176.29" transform="matrix(0.8774 0.4797 -0.4797 0.8774 101.3605 -41.0782)" class="st7" width="11.76" height="3.02"/>
			
				<rect x="110.89" y="132.18" transform="matrix(0.4797 -0.8774 0.8774 0.4797 -59.0128 167.9722)" class="st0" width="2.48" height="3.13"/>
			
				<rect x="130.61" y="145.12" transform="matrix(0.4797 -0.8774 0.8774 0.4797 -60.2048 191.84)" class="st0" width="2.1" height="3.13"/>
			
				<rect x="137.81" y="161.85" transform="matrix(0.4797 -0.8774 0.8774 0.4797 -71.1337 206.8574)" class="st0" width="2.1" height="3.13"/>
		</g>
		<g>
			<g>
				
					<rect x="188.9" y="226.04" transform="matrix(0.7071 -0.7071 0.7071 0.7071 -105.4717 201.2674)" class="st0" width="2.63" height="3.82"/>
				
					<rect x="232.43" y="179.76" transform="matrix(0.7071 -0.7071 0.7071 0.7071 -60.4041 218.653)" class="st8" width="2.6" height="4.96"/>
				
					<rect x="235.62" y="118.13" transform="matrix(0.7071 -0.7071 0.7071 0.7071 -30.2387 222.2392)" class="st1" width="35.05" height="58.98"/>
				<polygon class="st9" points="219.25,139.92 219.25,139.92 222.37,136.8 224.89,139.32 225.83,138.57 236.71,149.45 
					237.72,148.44 250.87,161.6 251.78,162.5 257.22,167.94 255.95,169.22 257.48,170.74 256.44,171.78 263.62,178.96 
					253.44,189.14 211.74,147.43 				"/>
				
					<rect x="179.96" y="244.7" transform="matrix(0.7071 -0.7071 0.7071 0.7071 -119.8964 199.9417)" class="st5" width="2.89" height="0"/>
				<polygon class="st8" points="183.19,239.05 180.63,236.5 181.78,235.35 179.16,232.74 181.48,230.43 171.3,220.25 
					171.29,220.23 168.97,222.55 166.38,219.95 165.23,221.1 162.69,218.55 162.68,218.54 161.01,220.21 150.32,209.52 
					154.26,205.57 167.49,218.84 169.81,216.52 170.98,217.69 172.42,219.13 173.27,219.98 175.04,218.22 176.2,219.39 
					183.49,226.67 181.73,228.44 182.6,229.31 184.33,231.04 185.21,231.92 182.89,234.24 195.97,247.28 191.99,251.26 
					181.49,240.75 				"/>
				<polygon class="st8" points="185.45,197.23 173.7,185.47 176.11,183.06 179.63,186.57 181.43,184.78 189.16,192.51 
					191.31,190.36 195.09,194.14 196.52,192.72 208.52,204.72 207.1,206.15 210.97,210.02 208.82,212.17 216.1,219.45 214.3,221.24 
					217.82,224.76 215.4,227.18 				"/>
				
					<rect x="244.26" y="184.52" transform="matrix(0.7071 -0.7071 0.7071 0.7071 -60.3053 228.409)" class="st8" width="2.6" height="4.96"/>
				
					<rect x="215.18" y="148.74" transform="matrix(0.7071 -0.7071 0.7071 0.7071 -43.5227 197.3667)" class="st8" width="2.6" height="4.96"/>
				<polygon class="st2" points="268.98,90.08 310.69,131.79 285.08,157.4 284.98,157.3 284.89,157.39 273.67,146.17 273.76,146.08 
					243.37,115.69 				"/>
				<g>
					
						<rect x="258.9" y="132.44" transform="matrix(0.7071 -0.7071 0.7071 0.7071 -22.5937 224.7749)" class="st3" width="2.26" height="14.45"/>
					
						<rect x="264.55" y="145.48" transform="matrix(0.7071 -0.7071 0.7071 0.7071 -27.1893 231.3589)" class="st3" width="2.26" height="6.04"/>
					
						<rect x="250.06" y="130.99" transform="matrix(0.7071 -0.7071 0.7071 0.7071 -21.1877 216.8697)" class="st3" width="2.26" height="6.04"/>
					
						<rect x="245.26" y="130.89" transform="matrix(0.7071 -0.7071 0.7071 0.7071 -21.4548 213.0035)" class="st3" width="2.26" height="3.02"/>
					
						<rect x="266.16" y="151.79" transform="matrix(0.7071 -0.7071 0.7071 0.7071 -30.112 233.9039)" class="st3" width="2.26" height="3.02"/>
				</g>
				
					<rect x="235.04" y="134.81" transform="matrix(0.7071 0.7071 -0.7071 0.7071 173.8145 -147.1461)" class="st1" width="58.98" height="2.86"/>
				
					<rect x="250.03" y="131.76" transform="matrix(0.7071 0.7071 -0.7071 0.7071 172.5415 -148.6962)" class="st1" width="31.47" height="4.34"/>
				
					<rect x="257.77" y="130.24" transform="matrix(0.7071 0.7071 -0.7071 0.7071 171.9238 -150.2392)" class="st1" width="19.09" height="4.34"/>
				
					<rect x="244.4" y="113.22" transform="matrix(0.7071 0.7071 -0.7071 0.7071 153.6996 -140.2782)" class="st2" width="3.55" height="4.34"/>
				
					<rect x="224.41" y="207.24" transform="matrix(0.7071 0.7071 -0.7071 0.7071 213.6348 -98.8939)" class="st8" width="3.57" height="2.39"/>
				
					<rect x="195.08" y="166.39" transform="matrix(0.7071 0.7071 -0.7071 0.7071 176.0912 -90.0736)" class="st8" width="3.38" height="2.27"/>
				
					<rect x="183.9" y="194.94" transform="matrix(0.7071 -0.7071 0.7071 0.7071 -84.7245 188.4714)" class="st0" width="2.48" height="3.13"/>
				
					<rect x="199.2" y="212.85" transform="matrix(0.7071 -0.7071 0.7071 0.7071 -92.9646 204.3962)" class="st0" width="2.1" height="3.13"/>
			</g>
			<g>
				
					<rect x="147.2" y="184.35" transform="matrix(0.7071 -0.7071 0.7071 0.7071 -88.2038 159.5715)" class="st0" width="2.63" height="3.82"/>
				
					<rect x="190.74" y="138.07" transform="matrix(0.7071 -0.7071 0.7071 0.7071 -43.1362 176.957)" class="st8" width="2.6" height="4.96"/>
				
					<rect x="193.92" y="76.44" transform="matrix(0.7071 -0.7071 0.7071 0.7071 -12.9708 180.5432)" class="st1" width="35.05" height="58.98"/>
				
					<rect x="165.16" y="117.52" transform="matrix(0.7071 0.7071 -0.7071 0.7071 143.8701 -101.6618)" class="st9" width="58.98" height="10.63"/>
				<polygon class="st9" points="195.01,107.75 196.02,106.75 209.18,119.9 210.08,120.81 215.53,126.25 214.25,127.52 
					215.78,129.05 214.74,130.09 221.92,137.27 219.06,140.13 208.32,129.39 207.04,130.67 190.44,114.07 191.72,112.79 
					184.54,105.61 177.36,98.43 181.52,94.26 				"/>
				<polygon class="st7" points="111.25,165.19 116.78,170.72 117.47,170.04 145.38,197.95 146.14,197.19 154.45,205.5 
					154.83,205.11 163.25,213.53 162.11,214.67 187.03,239.6 185.51,241.11 193.82,249.43 194.66,248.59 195.34,247.91 
					196.8,246.45 200.02,243.23 189.22,232.43 192.52,229.14 188.64,225.27 190.02,223.89 178.02,211.89 176.64,213.26 
					172.86,209.48 169.56,212.77 158.31,201.53 147.52,190.74 150.82,187.45 146.94,183.57 148.32,182.19 136.32,170.19 
					134.94,171.57 131.16,167.79 127.86,171.08 116.61,159.83 113.4,163.05 111.94,164.51 				"/>
				<polygon class="st8" points="165.83,109.95 172.4,103.38 185.38,116.36 187.39,114.34 192.97,119.92 193.54,119.35 
					200.94,126.74 198.35,129.33 202.09,133.07 200.16,135 204.33,139.17 206.95,136.55 211.1,140.7 213.29,138.51 216.98,142.21 
					214.11,145.08 227.07,158.05 229.09,156.03 234.67,161.61 235.24,161.04 242.63,168.44 240.05,171.02 243.79,174.76 
					241.86,176.69 246.03,180.86 248.65,178.24 252.8,182.39 254.98,180.2 258.68,183.9 253.87,188.71 247.31,195.28 211.28,159.25 
					213.21,157.32 207.54,151.65 205.61,153.58 169.58,117.56 171.51,115.63 				"/>
				
					<rect x="138.26" y="203.01" transform="matrix(0.7071 -0.7071 0.7071 0.7071 -102.6285 158.2458)" class="st5" width="2.89" height="0"/>
				<polygon class="st8" points="143.76,155.54 132,143.78 134.42,141.36 137.94,144.88 139.73,143.08 147.46,150.82 149.61,148.67 
					153.4,152.45 154.82,151.03 166.82,163.03 165.4,164.45 169.27,168.33 167.12,170.48 174.4,177.75 172.61,179.55 176.12,183.07 
					173.71,185.49 				"/>
				<polygon class="st10" points="126.46,149.99 129.21,147.24 132.62,143.83 139.44,150.65 140.64,149.45 146.36,155.17 
					147.57,153.96 150.06,156.46 152.16,154.36 164.16,166.36 162.06,168.46 164.55,170.95 163.35,172.16 168.67,177.48 
					167.47,178.68 174.32,185.52 174.32,185.52 181.14,192.34 182.34,191.14 188.06,196.86 189.27,195.66 191.76,198.15 
					193.86,196.05 205.86,208.05 203.76,210.15 206.25,212.64 205.05,213.85 210.36,219.17 209.16,220.37 216.02,227.23 
					212.61,230.64 209.86,233.39 201.5,241.75 191.97,232.22 194.27,229.92 191.62,227.27 193.35,225.55 190.86,223.05 
					192.47,221.44 180.47,209.44 178.86,211.05 176.36,208.56 174.64,210.29 171.99,207.64 169.69,209.94 159.81,200.06 
					159.8,200.06 150.27,190.53 152.58,188.23 149.93,185.58 151.65,183.85 149.16,181.36 150.78,179.74 138.78,167.74 
					137.16,169.36 134.67,166.87 132.94,168.59 130.29,165.94 127.99,168.25 119.27,159.2 				"/>
				<polygon class="st7" points="161.56,114.22 166.51,109.27 175.3,118.06 178.01,115.35 192.82,130.15 190.1,132.86 
					194.07,136.83 191.84,139.05 205.98,153.19 208.21,150.96 217,159.75 219.71,157.04 234.51,171.84 231.8,174.56 235.76,178.52 
					233.54,180.74 247.69,194.89 244.61,197.98 242.83,199.75 240.33,202.25 228.76,190.67 231.25,188.18 228.68,185.61 
					228.15,186.13 207.41,165.39 210.08,162.73 203.27,155.92 202.91,156.29 201.13,158.06 198.64,160.56 187.06,148.98 
					189.56,146.49 186.98,143.91 186.46,144.44 165.72,123.7 168.38,121.04 				"/>
				<polygon class="st8" points="159.61,122.46 156.46,119.32 162.37,113.42 178.78,129.83 177.09,131.51 181.53,135.96 
					180.28,137.21 189.56,146.49 187.09,148.95 193.25,155.11 196.37,151.99 201.78,157.39 204.06,155.11 220.47,171.52 
					218.78,173.21 223.23,177.65 221.98,178.9 231.25,188.18 228.79,190.64 234.95,196.8 238.07,193.68 243.49,199.1 240.36,202.22 
					240.36,202.22 234.18,208.41 214.03,188.25 216.15,186.13 201.74,171.72 203.33,170.13 199.33,166.13 201.3,164.15 
					198.17,161.02 192.48,166.71 172.33,146.56 174.46,144.44 160.05,130.03 161.64,128.44 157.63,124.44 				"/>
				
					<rect x="202.56" y="142.83" transform="matrix(0.7071 -0.7071 0.7071 0.7071 -43.0374 186.7131)" class="st8" width="2.6" height="4.96"/>
				
					<rect x="173.48" y="107.05" transform="matrix(0.7071 -0.7071 0.7071 0.7071 -26.2548 155.6707)" class="st8" width="2.6" height="4.96"/>
				<polygon class="st2" points="227.28,48.39 268.99,90.1 243.38,115.71 243.28,115.61 243.19,115.7 231.97,104.48 232.06,104.39 
					201.67,74 				"/>
				<polygon class="st9" points="146.76,129.02 152.06,123.72 152.54,123.24 154.02,121.76 154.69,121.09 156.65,119.13 
					168.42,130.9 166.45,132.86 177.46,143.86 175.31,146.01 187.81,158.52 189.48,156.85 195.9,163.27 196.39,162.79 
					198.35,160.82 210.11,172.59 208.15,174.55 219.16,185.56 217.01,187.7 229.51,200.21 231.18,198.54 237.61,204.97 
					235.94,206.64 235.47,207.12 230.16,212.42 188.47,170.73 188.46,170.73 				"/>
				<polygon class="st8" points="138.68,137.1 147.08,128.7 148.46,127.32 149.07,126.71 151.08,124.7 158.48,132.11 156.47,134.12 
					160.83,138.48 158.84,140.47 177.02,158.65 179.01,156.65 183.37,161.01 185.38,159 192.77,166.4 192.77,166.4 200.18,173.8 
					198.17,175.81 202.53,180.17 200.54,182.16 218.71,200.34 220.71,198.35 225.06,202.71 227.07,200.7 234.48,208.1 
					232.47,210.11 231.87,210.72 230.48,212.1 222.09,220.5 180.39,178.8 180.39,178.8 				"/>
				<g>
					
						<rect x="217.21" y="90.75" transform="matrix(0.7071 -0.7071 0.7071 0.7071 -5.3258 183.079)" class="st3" width="2.26" height="14.45"/>
					
						<rect x="222.86" y="103.79" transform="matrix(0.7071 -0.7071 0.7071 0.7071 -9.9215 189.663)" class="st3" width="2.26" height="6.04"/>
					
						<rect x="208.37" y="89.3" transform="matrix(0.7071 -0.7071 0.7071 0.7071 -3.9198 175.1738)" class="st3" width="2.26" height="6.04"/>
					
						<rect x="203.57" y="89.2" transform="matrix(0.7071 -0.7071 0.7071 0.7071 -4.1869 171.3076)" class="st3" width="2.26" height="3.02"/>
					
						<rect x="224.47" y="110.1" transform="matrix(0.7071 -0.7071 0.7071 0.7071 -12.8441 192.208)" class="st3" width="2.26" height="3.02"/>
				</g>
				
					<rect x="193.34" y="93.12" transform="matrix(0.7071 0.7071 -0.7071 0.7071 132.1208 -129.8729)" class="st1" width="58.98" height="2.86"/>
				
					<rect x="208.33" y="90.06" transform="matrix(0.7071 0.7071 -0.7071 0.7071 130.8478 -131.423)" class="st1" width="31.47" height="4.34"/>
				
					<rect x="216.07" y="88.55" transform="matrix(0.7071 0.7071 -0.7071 0.7071 130.23 -132.966)" class="st1" width="19.09" height="4.34"/>
				
					<rect x="202.71" y="71.53" transform="matrix(0.7071 0.7071 -0.7071 0.7071 112.0059 -123.0049)" class="st2" width="3.55" height="4.34"/>
				<polygon class="st4" points="131.49,64.73 134.28,66.37 135.56,64.07 141.95,67.56 143.34,65.03 152.92,70.27 154.37,67.62 
					169.29,75.78 167.84,78.43 177.57,83.74 176.18,86.28 182.5,89.74 181.12,92.27 183.28,93.45 182.39,95.09 183.57,96.27 
					185.52,94.54 190.67,99.69 192.72,97.64 200.44,105.37 202.57,103.24 214.6,115.26 212.47,117.39 220.3,125.23 218.26,127.27 
					223.35,132.37 221.31,134.42 223.05,136.16 223.05,136.16 225.06,138.17 227.11,136.13 232.26,141.28 234.3,139.23 
					242.03,146.96 244.16,144.83 256.18,156.85 254.05,158.98 261.89,166.82 259.84,168.86 264.94,173.96 262.9,176.01 
					264.71,177.87 260.67,181.92 255.4,176.6 256.78,175.22 253.22,171.66 255.26,169.62 251.29,165.65 252.67,164.27 
					238.87,150.48 237.5,151.85 233.04,147.4 231,149.44 225.96,144.4 224.6,145.75 219.02,140.17 213.82,135.01 215.19,133.63 
					211.63,130.07 213.68,128.03 209.71,124.06 211.09,122.68 197.29,108.89 195.91,110.26 191.46,105.81 189.41,107.85 
					184.37,102.81 183.02,104.16 177.24,98.39 178.36,97.26 174.09,94.95 175.03,93.24 170.61,90.83 171.99,88.29 167.07,85.6 
					168.01,83.89 150.89,74.53 149.95,76.24 144.42,73.22 143.04,75.75 136.78,72.33 135.86,74.01 128.8,70.15 				"/>
				
					<rect x="182.71" y="165.54" transform="matrix(0.7071 0.7071 -0.7071 0.7071 171.9411 -81.6207)" class="st8" width="3.57" height="2.39"/>
				
					<rect x="152.37" y="125.71" transform="matrix(0.7071 0.7071 -0.7071 0.7071 134.8178 -71.7856)" class="st8" width="3.38" height="2.27"/>
				<polygon class="st7" points="138.87,136.91 142.79,140.83 144.15,139.47 147.05,142.37 148.31,141.1 151.24,144.02 
					152.69,142.57 156.98,146.86 157.78,146.06 171.16,159.44 170.36,160.24 174.88,164.75 173.42,166.21 176.34,169.13 
					175.08,170.4 178.44,173.75 177.08,175.11 180.57,178.6 180.57,178.6 184.49,182.52 185.85,181.16 188.75,184.06 190.01,182.79 
					192.93,185.71 194.39,184.26 198.68,188.55 199.48,187.75 212.86,201.13 212.06,201.93 216.57,206.45 215.12,207.9 
					218.04,210.82 216.78,212.09 220.13,215.45 218.77,216.81 222.28,220.31 217.82,224.76 213.25,220.19 215.05,218.39 
					208.81,212.16 210.92,210.04 191.26,190.37 189.14,192.49 182.49,185.83 180.69,187.63 176.13,183.07 176.12,183.07 
					171.55,178.5 173.35,176.7 167.11,170.46 169.23,168.35 149.56,148.68 147.44,150.8 140.79,144.14 138.99,145.94 134.42,141.36 
									"/>
				<polygon class="st7" points="152.31,207.64 152.3,207.65 160.72,216.06 163.25,213.53 154.83,205.11 154.45,205.5 
					146.14,197.19 144,199.33 				"/>
				
					<rect x="142.2" y="153.25" transform="matrix(0.7071 -0.7071 0.7071 0.7071 -67.4566 146.7755)" class="st0" width="2.48" height="3.13"/>
				
					<rect x="157.5" y="171.16" transform="matrix(0.7071 -0.7071 0.7071 0.7071 -75.6967 162.7003)" class="st0" width="2.1" height="3.13"/>
				
					<rect x="159.7" y="189.23" transform="matrix(0.7071 -0.7071 0.7071 0.7071 -87.8309 169.553)" class="st0" width="2.1" height="3.13"/>
			</g>
		</g>
		<g>
			<polygon class="st9" points="-0.07,157.65 58.11,157.65 58.11,163.65 51.78,163.65 51.78,168.23 44.79,168.23 44.79,172.16 
				14.07,172.16 14.07,168.23 7.14,168.23 7.14,163.65 -0.07,163.65 			"/>
			<polygon class="st8" points="-0.07,149.01 58.11,149.01 58.11,157.65 52.5,157.65 52.5,161.48 44.72,161.48 44.72,165.37 
				13.98,165.37 13.98,161.48 6.2,161.48 6.2,157.65 -0.07,157.65 			"/>
			<polygon class="st7" points="-0.07,142.3 58.11,142.3 58.11,149.01 52.68,149.01 52.68,152.84 43.94,152.84 43.94,157.65 
				14.91,157.65 14.91,152.84 6.27,152.84 6.27,149.01 -0.07,149.01 			"/>
			<polygon class="st0" points="-0.07,137.34 58.11,137.34 58.11,142.3 48.83,142.3 48.83,146.07 40.96,146.07 40.96,150.02 
				17.92,150.02 17.92,146.07 9.99,146.07 9.99,142.3 -0.07,142.3 			"/>
			<polygon class="st8" points="58.11,78.1 58.11,97.48 58.11,98.87 58.11,102.64 58.11,103.91 58.11,105.26 58.11,106.48 
				55.82,106.48 55.82,102.64 51.66,102.64 51.66,98.87 7.32,98.87 7.32,102.64 2.22,102.64 2.22,106.48 -0.07,106.48 -0.07,78.1 
							"/>
			<polygon class="st8" points="20.79,101.74 20.79,97.87 38.17,97.87 38.17,101.74 45.8,101.74 45.8,106.48 13.03,106.48 
				13.03,101.74 			"/>
			<polygon class="st7" points="-0.07,130.59 58.11,130.59 58.11,137.34 44.86,137.34 44.86,141.28 39.05,141.28 39.05,145.21 
				19.79,145.21 19.79,141.28 13.95,141.28 13.95,137.34 -0.07,137.34 			"/>
			<path class="st1" d="M54.06,40.48h4.05V8.36H51.7V4.18H40.41V0L18.19,0v4.18H7.09v4.18h-7.16v32.12h4.99v-4.13h4.47v-4.13h11.17
				V27.9H37.4v4.31h2.64v4.13h14.02V40.48z M44.08,28.34H41v-3.23h-6.18v-3.23H20.06v3.23h-6.18v3.23h-3.09v-3.23h3.09v-3.23h6.18
				v-3.23h14.76v3.23H41v3.23h3.09V28.34z"/>
			<rect x="20.06" y="18.62" class="st3" width="14.76" height="3.23"/>
			<rect x="34.82" y="21.81" class="st3" width="6.18" height="3.23"/>
			<rect x="13.88" y="21.81" class="st3" width="6.18" height="3.23"/>
			<rect x="41" y="25.03" class="st3" width="3.09" height="3.23"/>
			<rect x="10.79" y="25.03" class="st3" width="3.09" height="3.23"/>
			
				<rect x="20.79" y="89.11" transform="matrix(-1 -4.490731e-11 4.490731e-11 -1 58.9537 182.9647)" class="st0" width="17.38" height="4.75"/>
			<polygon class="st9" points="2.22,106.48 2.22,102.64 7.32,102.64 7.32,101.75 7.32,97.74 18.35,97.74 18.35,95.58 20.79,95.58 
				20.79,93.86 38.17,93.86 38.17,95.58 40.6,95.58 40.6,97.74 51.66,97.74 51.66,101.75 51.66,102.64 55.82,102.64 55.82,106.48 
				58.11,106.48 58.11,110.25 53.67,110.25 53.67,108.37 51.83,108.37 51.83,106.48 45.8,106.48 45.8,101.75 38.17,101.75 
				38.17,97.87 20.79,97.87 20.79,101.75 13.03,101.75 13.03,106.48 6.21,106.48 6.21,108.37 4.37,108.37 4.37,110.25 -0.07,110.25 
				-0.07,106.48 			"/>
			
				<rect x="5.79" y="121.77" transform="matrix(-1 -4.486379e-11 4.486379e-11 -1 16.5222 247.6647)" class="st0" width="4.95" height="4.13"/>
			
				<rect x="48.09" y="121.77" transform="matrix(-1 -4.486379e-11 4.486379e-11 -1 101.129 247.6647)" class="st0" width="4.95" height="4.13"/>
			<g>
				
					<rect x="33.4" y="126.01" transform="matrix(-1 -4.502855e-11 4.502855e-11 -1 71.0864 256.308)" class="st0" width="4.28" height="4.28"/>
				
					<rect x="21.07" y="126.01" transform="matrix(-1 -4.502855e-11 4.502855e-11 -1 46.4279 256.308)" class="st0" width="4.28" height="4.28"/>
				
					<rect x="25.72" y="121.44" transform="matrix(-1 -4.477542e-11 4.477542e-11 -1 59.1263 247.1533)" class="st0" width="7.68" height="4.28"/>
			</g>
		</g>
		<g>
			<path class="st1" d="M108.96,32.93l0.88-21.68H98.56V7.06H76.34v4.18h-11.1v4.18h-7.16v37.29h4.99v-4.13h4.47v-4.13H78.7v-4.31
				h17.89 M102.23,28.86h-3.09v-3.23h-6.18v-3.23H78.2v3.23h-6.18v3.23h-3.09v-3.23h3.09v-3.23h6.18v-3.23h14.76v3.23h6.18v3.23
				h3.09V28.86z"/>
			<polygon class="st8" points="112.75,149.32 113.42,153.22 114.47,161.98 112.59,163.91 125.8,177.15 128.11,174.83 
				129.28,175.99 130.73,177.44 131.58,178.29 133.34,176.53 134.51,177.69 141.8,184.98 140.03,186.75 140.9,187.61 142.64,189.35 
				143.51,190.23 141.19,192.54 154.27,205.59 150.3,209.57 139.79,199.06 141.49,197.36 138.93,194.8 140.08,193.66 137.47,191.05 
				139.78,188.73 129.61,178.56 129.59,178.54 127.27,180.85 124.68,178.26 123.54,179.41 120.99,176.86 120.98,176.85 
				119.31,178.51 108.63,167.82 109.15,167.3 102.84,165.37 72.09,165.37 72.09,161.48 64.32,161.48 64.32,157.65 58.05,157.65 
				58.05,149.01 			"/>
			<polygon class="st7" points="58.05,142.3 116.23,142.3 116.23,149.01 110.8,149.01 110.8,152.84 102.05,152.84 102.05,157.65 
				73.03,157.65 73.03,152.84 64.39,152.84 64.39,149.01 58.05,149.01 			"/>
			<polygon class="st0" points="58.05,137.34 116.23,137.34 116.23,142.3 106.95,142.3 106.95,146.07 99.07,146.07 99.07,150.02 
				76.04,150.02 76.04,146.07 68.11,146.07 68.11,142.3 58.05,142.3 			"/>
			<polygon class="st8" points="116.23,78.1 116.23,97.48 116.23,98.87 116.23,102.64 116.23,103.91 116.23,105.26 116.23,106.48 
				113.94,106.48 113.94,102.64 109.78,102.64 109.78,98.87 65.44,98.87 65.44,102.64 60.34,102.64 60.34,106.48 58.05,106.48 
				58.05,78.1 			"/>
			<rect x="68.94" y="25.63" class="st3" width="3.09" height="3.23"/>
			<rect x="99.14" y="25.63" class="st3" width="3.09" height="3.23"/>
			<rect x="78.2" y="19.18" class="st3" width="14.76" height="3.23"/>
			<rect x="72.02" y="22.41" class="st3" width="6.18" height="3.23"/>
			<rect x="92.96" y="22.41" class="st3" width="6.18" height="3.23"/>
			<polygon class="st8" points="78.91,101.74 78.91,97.87 96.28,97.87 96.28,101.74 103.91,101.74 103.91,106.48 71.15,106.48 
				71.15,101.74 			"/>
			<polygon class="st7" points="58.05,130.59 116.23,130.59 116.23,137.34 102.98,137.34 102.98,141.28 97.17,141.28 97.17,145.21 
				77.9,145.21 77.9,141.28 72.07,141.28 72.07,137.34 58.05,137.34 			"/>
			<polygon class="st4" points="4.06,52.71 4.06,48.58 9.33,48.58 9.33,44.44 20.5,44.44 20.5,40.13 37.88,40.13 37.88,44.44 
				49.2,44.44 49.2,48.58 54.94,48.58 54.94,52.71 58.05,52.71 58.11,52.71 62.17,52.71 62.17,48.58 67.45,48.58 67.45,44.44 
				78.62,44.44 78.62,40.13 95.99,40.13 95.99,44.44 107.32,44.44 107.32,48.58 113.06,48.58 113.06,52.71 117.23,52.71 
				117.23,60.89 109.7,60.89 109.7,58.11 102.45,58.11 102.45,53.97 95.77,53.97 95.77,51.19 78.88,51.19 78.88,53.97 72.44,53.97 
				72.44,58.11 65.15,58.11 65.15,60.89 58.11,60.89 58.05,60.89 51.58,60.89 51.58,58.11 44.33,58.11 44.33,53.97 37.66,53.97 
				37.66,51.19 20.76,51.19 20.76,53.97 14.32,53.97 14.32,58.11 7.03,58.11 7.03,60.89 -0.07,60.89 -0.07,52.71 			"/>
			<polygon class="st9" points="8.9,57.87 8.9,56.54 13.68,56.54 13.68,53.85 20.21,53.85 20.21,49.75 38.22,49.75 38.22,53.85 
				44.76,53.85 44.76,56.54 51.64,56.54 51.64,60.32 58.05,60.32 58.05,57.87 67.02,57.87 67.02,56.54 71.8,56.54 71.8,53.85 
				78.33,53.85 78.33,49.75 96.34,49.75 96.34,53.85 102.88,53.85 102.88,56.54 109.75,56.54 109.75,60.32 116.23,60.32 
				116.23,93.86 116.23,97.74 111.7,97.74 111.7,93.86 103.2,93.86 103.2,86.05 99.24,86.05 99.24,82.24 75.86,82.24 75.86,86.05 
				71.01,86.05 71.01,93.86 63.36,93.86 63.36,97.74 59.11,97.74 58.05,97.74 53.58,97.74 53.58,93.86 45.08,93.86 45.08,86.05 
				41.12,86.05 41.12,82.24 17.74,82.24 17.74,86.05 12.89,86.05 12.89,93.86 5.25,93.86 5.25,97.74 -0.07,97.74 -0.07,57.87 			"/>
			
				<rect x="78.91" y="89.11" transform="matrix(-1 -4.490731e-11 4.490731e-11 -1 175.189 182.9647)" class="st0" width="17.38" height="4.75"/>
		</g>
		<g>
			<rect x="350.15" y="263.8" class="st3" width="3.23" height="3.09"/>
			<g>
				<polygon class="st6" points="187.4,273.38 187.4,268.3 186.1,268.3 186.1,253.88 187.4,253.88 188.17,253.88 191.64,253.88 
					191.64,270.82 197.97,270.82 197.97,297.61 191.64,297.61 191.64,311.2 187.4,311.2 187.4,311.2 186.1,311.2 186.1,296.87 
					187.4,296.87 187.4,294.38 188.96,294.38 188.96,275.58 				"/>
				<rect x="200.4" y="294.42" class="st5" width="0.77" height="0.03"/>
				<polygon class="st7" points="207.75,270.23 207.75,266.5 203.7,266.5 203.7,253.88 208.58,253.88 218.45,253.88 218.45,262.52 
					221.24,262.52 221.24,296.13 218.45,296.13 218.45,305.24 211.81,305.24 211.81,311.2 205.94,311.2 203.7,311.2 203.7,300.42 
					207.75,300.42 207.75,294.51 210.55,294.51 210.55,270.23 				"/>
				<polygon class="st10" points="218.63,267.82 218.63,293.11 215.91,293.11 215.91,296.74 213.25,296.74 213.25,299.3 
					210.54,299.3 210.54,311.2 237.81,311.2 237.81,258.6 235.3,253.64 213.95,253.65 210.54,253.65 210.54,262.88 213.25,262.88 
					213.25,265.36 215.91,265.36 215.91,267.82 				"/>
				<polygon class="st10" points="235.3,253.64 237.81,258.6 237.81,253.64 				"/>
				<polygon class="st0" points="230.77,275.34 230.77,289.82 232.18,289.82 232.18,294.84 236.22,294.84 236.22,298.43 
					237.33,298.43 237.33,311.2 244.83,311.2 244.83,253.99 237.47,253.64 237.33,266.77 236.22,266.77 236.22,270.09 
					232.18,270.09 232.18,275.34 				"/>
				<polygon class="st8" points="244.37,299.24 241.66,299.24 241.66,296.73 237.59,296.73 237.59,293.19 236.2,293.19 
					236.2,290.71 234.87,290.71 234.87,288.31 233.49,288.31 233.49,276.32 234.87,276.32 234.87,273.9 236.2,273.9 236.2,271.54 
					237.59,271.54 237.59,267.98 241.66,267.98 241.66,264.25 244.37,264.25 244.37,253.88 248.09,249.42 248.09,311.2 
					244.37,311.2 				"/>
				<g>
					<rect x="224.18" y="293.36" class="st10" width="9.31" height="12.68"/>
					<rect x="229.33" y="264.43" class="st10" width="4.3" height="7.25"/>
				</g>
				<polygon class="st7" points="249.87,267.88 249.87,296.84 252.39,296.84 252.39,311.2 264.59,311.2 264.59,253.88 
					260.31,253.88 260.29,251.71 257.89,251.71 257.94,247.96 255.53,247.96 255.53,251.71 253.64,251.71 253.64,253.88 
					252.39,253.88 252.39,267.88 				"/>
				<polygon class="st2" points="350.98,304.71 355.16,304.71 355.16,293.42 359.34,293.42 359.34,271.26 355.16,271.26 
					355.16,260.15 350.98,260.15 350.98,253.88 377.5,253.88 377.5,311.2 350.98,311.2 				"/>
				<path class="st1" d="M325.02,307.07v4.14h44.12v-6.5h4.18v-11.29h4.18V271.2h-4.18v-11.1h-4.18v-6.22h-44.12v4.04h4.13v4.47
					h4.13v11.17h4.31v16.85h-4.31v2.64h-4.13v14.02H325.02z M350.15,297.09v-3.09h3.23v-6.18h3.23v-14.76h-3.23v-6.18h-3.23v-3.09
					h3.23v3.09h3.23v6.18h3.23v14.76h-3.23v6.18h-3.23v3.09H350.15z"/>
				<rect x="356.61" y="273.07" class="st3" width="3.23" height="14.82"/>
				<rect x="353.38" y="287.83" class="st3" width="3.23" height="6.23"/>
				<rect x="353.38" y="266.89" class="st3" width="3.27" height="6.23"/>
				<rect x="350.15" y="294.01" class="st3" width="3.23" height="3.14"/>
				<g>
					<polygon class="st8" points="260.65,275.22 260.65,271.68 264.59,271.68 264.59,253.88 272.62,253.88 272.62,271.48 
						268.64,271.48 268.64,275.24 264.59,275.24 264.59,289.52 268.64,289.52 268.64,300.52 272.62,300.52 272.62,311.2 
						264.59,311.2 264.59,296.81 260.65,296.81 260.65,289.56 256.59,289.56 256.59,275.22 					"/>
					<rect x="280.1" y="300.55" class="st8" width="0.65" height="10.66"/>
					<polygon class="st8" points="280.1,268 280.1,253.91 275.56,253.91 275.56,253.88 280.75,253.88 280.75,268 					"/>
					<polygon class="st8" points="280.1,268 276.74,268 276.74,272.7 275.56,272.7 275.56,253.91 280.1,253.91 					"/>
					<polygon class="st8" points="275.56,295.51 276.74,295.51 276.74,300.55 280.1,300.55 280.1,311.2 275.56,311.2 					"/>
					<polygon class="st8" points="258.45,194.34 256.02,195.57 279.03,241.03 279.51,240.78 288.86,253.94 288.86,268.11 
						292.79,268.11 292.79,275.22 295.96,275.22 295.96,289.61 292.79,289.61 292.79,296.95 288.86,296.95 288.86,311.2 
						310.32,311.2 310.32,296.95 309.3,296.95 309.3,290.52 312.47,290.52 312.47,274.55 309.3,274.55 309.3,268.11 310.32,268.11 
						310.32,253.88 300.99,253.88 304.39,253.08 298.4,234.24 294.09,235.64 293.38,233.76 291.02,229.1 288.26,230.49 
						285.61,225.26 282.3,226.93 279.64,221.67 282.08,220.44 279.69,215.72 282.95,214.07 278.23,204.73 277.5,205.1 
						273.94,198.06 271.4,199.35 263.08,182.92 254.83,187.17 					"/>
					<polygon class="st8" points="288.86,253.88 288.86,253.91 296.97,253.91 299.68,253.89 299.81,254.29 301.36,253.88 					"/>
				</g>
				<polygon class="st9" points="301.03,304.12 305.15,304.12 305.15,300.46 308.96,300.46 308.96,264.18 305.15,264.18 
					305.15,260.69 300.99,260.69 300.99,253.88 305.15,253.88 307.82,253.88 308.96,253.88 311.76,253.88 319.87,253.88 
					319.87,261.91 321.2,261.91 321.2,266.69 323.88,266.69 323.88,273.22 327.98,273.22 327.98,291.23 323.88,291.23 
					323.88,297.77 321.2,297.77 321.2,304.65 317.42,304.65 317.42,311.2 301.03,311.2 				"/>
				<polygon class="st4" points="319.63,304.65 319.63,297.4 323.76,297.4 323.76,290.72 326.55,290.72 326.55,273.83 
					323.76,273.83 323.76,267.39 319.63,267.39 319.63,260.1 316.84,260.1 316.84,253.77 325.02,253.88 325.02,257.12 
					329.16,257.12 329.16,262.4 333.29,262.4 333.29,273.56 337.6,273.56 337.6,290.94 333.29,290.94 333.29,302.27 329.16,302.27 
					329.16,308 325.02,308 325.02,311.2 316.84,311.2 316.84,304.65 				"/>
			</g>
		</g>
		<line class="st8" x1="288.86" y1="253.88" x2="288.86" y2="253.91"/>
		<polygon class="st7" points="112.84,148.34 114.47,161.98 112.6,163.91 121.55,171.84 119.02,174.37 110.6,165.96 108.63,148.02 
					"/>
		
			<rect x="130.6" y="139.85" transform="matrix(0.6554 -0.7553 0.7553 0.6554 -60.9411 150.2017)" class="st8" width="7.07" height="4.08"/>
		
			<rect x="131.31" y="136.21" transform="matrix(0.5332 -0.846 0.846 0.5332 -54.968 176.8788)" class="st8" width="2.98" height="4.08"/>
		<g>
			<polygon class="st10" points="-0.07,113.82 -0.07,130.59 17.92,130.59 17.92,133.61 22.69,133.61 22.69,139.29 36.11,139.29 
				36.11,133.61 40.96,133.61 40.96,130.59 76.04,130.59 76.04,133.61 80.81,133.61 80.81,139.29 94.23,139.29 94.23,133.61 
				99.07,133.61 99.07,130.59 116.23,130.59 116.23,113.83 116.22,113.83 116.22,113.82 106.4,113.82 106.4,111.58 103.91,111.58 
				103.91,109.01 71.15,109.01 71.15,111.58 68.66,111.58 68.66,113.82 48.28,113.82 48.28,111.58 45.8,111.58 45.8,109.01 
				13.03,109.01 13.03,111.58 10.54,111.58 10.54,113.82 			"/>
			<rect x="13.03" y="108.98" class="st10" width="32.77" height="0.03"/>
			<polygon class="st0" points="-0.07,110.24 -0.07,113.82 10.54,113.82 10.54,111.58 13.03,111.58 13.03,109.01 45.8,109.01 
				45.8,111.58 48.28,111.58 48.28,113.82 68.66,113.82 68.66,111.58 71.15,111.58 71.15,108.98 103.91,108.98 103.91,111.58 
				106.4,111.58 106.4,113.82 116.23,113.82 116.23,113.83 117.27,113.84 117.28,112.74 116.23,112.73 116.23,110.24 111.79,110.24 
				111.79,108.36 109.94,108.36 109.94,106.48 64.33,106.48 64.33,108.36 62.49,108.36 62.49,110.24 53.67,110.24 53.67,108.36 
				51.83,108.36 51.83,106.48 6.21,106.48 6.21,108.36 4.37,108.36 4.37,110.24 			"/>
			<rect x="116.22" y="113.82" class="st0" width="0.01" height="0.01"/>
			<rect x="71.15" y="108.99" class="st0" width="32.77" height="0.03"/>
		</g>
		<polygon class="st9" points="116.34,97.57 116.33,99.52 114.46,99.51 114.46,97.55 		"/>
		<polygon class="st9" points="60.3,106.45 60.3,102.61 65.4,102.61 65.4,101.72 65.4,97.7 76.43,97.7 76.43,95.55 78.87,95.55 
			78.87,93.83 96.25,93.83 96.25,95.55 98.68,95.55 98.68,97.7 109.74,97.7 109.74,101.72 109.74,102.61 113.9,102.61 113.9,106.45 
			116.19,106.45 116.26,111.59 114.87,111.6 114.86,110.22 111.75,110.22 111.75,108.37 109.91,108.37 109.91,106.48 103.88,106.48 
			103.88,101.72 96.25,101.72 96.25,97.84 78.87,97.84 78.87,101.72 71.11,101.72 71.11,106.45 64.29,106.45 64.29,108.33 
			62.45,108.33 62.45,110.22 58.01,110.22 58.01,106.45 		"/>
		<g>
			<polygon class="st0" points="116.35,113.76 116.35,113.83 118.74,113.85 118.71,117.39 117.28,117.37 117.25,120.45 
				116.22,120.44 116.23,116.95 112.63,116.92 112.61,113.73 			"/>
			<polygon class="st0" points="116.22,121.45 116.22,121.45 116.22,121.04 			"/>
		</g>
		<polygon class="st7" points="119.51,121.79 119.48,124.7 116.96,124.68 116.96,121.77 		"/>
		<polygon class="st7" points="119.51,121.79 119.48,124.7 116.96,124.68 116.96,121.77 		"/>
		<polygon class="st10" points="119.7,132.91 118.27,135 116.76,133.97 118.09,131.99 		"/>
		
			<rect x="113.39" y="125.92" transform="matrix(8.151235e-03 -1 1 8.151235e-03 -11.0679 242.946)" class="st10" width="7.08" height="2.27"/>
		
			<rect x="113.33" y="137.3" transform="matrix(8.150318e-03 -1 1 8.150318e-03 -24.4361 253.1178)" class="st10" width="4.1" height="3.15"/>
		
			<rect x="114.96" y="134.98" transform="matrix(8.150141e-03 -1 1 8.150141e-03 -20.7596 251.5218)" class="st10" width="2.91" height="2.48"/>
		
			<rect x="113.31" y="146.02" transform="matrix(8.149319e-03 -1 1 8.149319e-03 -34.0079 261.4061)" class="st10" width="2.91" height="3.65"/>
		
			<rect x="125.37" y="146.4" transform="matrix(0.6554 -0.7553 0.7553 0.6554 -67.0926 148.2292)" class="st10" width="7.07" height="2.48"/>
		
			<rect x="111.8" y="71.85" transform="matrix(-0.9068 -0.4216 0.4216 -0.9068 198.9284 195.9912)" class="st9" width="18.67" height="8.3"/>
		
			<rect x="110.46" y="76.01" transform="matrix(-0.9068 -0.4216 0.4216 -0.9068 188.8124 202.0685)" class="st9" width="12.57" height="8.3"/>
		
			<rect x="105.78" y="83.16" transform="matrix(-0.9677 -0.2523 0.2523 -0.9677 198.4077 200.7001)" class="st9" width="12.57" height="8.94"/>
		<polygon class="st10" points="119.52,123.51 119.49,127.7 114.76,127.67 114.74,123.47 		"/>
		<polygon class="st10" points="117.29,122.06 117.26,126.25 112.47,126.21 112.45,122.02 		"/>
		<polygon class="st10" points="119.29,126.66 118.82,127.5 116.62,126.28 117.07,125.42 		"/>
		<polygon class="st10" points="93.08,132.17 98.55,132.24 98.36,130.01 116.85,130.24 116.82,132.47 116.44,132.47 116.37,138.56 
			106.77,138.44 106.75,135.09 93.22,134.92 		"/>
		
			<rect x="113.45" y="87.6" transform="matrix(-0.866 -0.5 0.5 -0.866 171.5916 226.5995)" class="st8" width="5.42" height="5.42"/>
		
			<rect x="112.15" y="83.95" transform="matrix(-0.9297 -0.3683 0.3683 -0.9297 189.8784 208.6872)" class="st9" width="5.42" height="4.55"/>
		
			<rect x="115.94" y="86.3" transform="matrix(-0.9068 -0.4216 0.4216 -0.9068 190.6049 219.018)" class="st8" width="7.16" height="4.28"/>
		
			<rect x="108" y="88.97" transform="matrix(-0.9297 -0.3683 0.3683 -0.9297 180.5665 214.0237)" class="st8" width="5.42" height="1.62"/>
		<polygon class="st9" points="171.52,100.32 174.43,102.47 176.55,99.25 173.53,97.27 		"/>
		<polygon class="st1" points="201.67,74 196.22,68.38 183.28,92.57 		"/>
		<polygon class="st8" points="164.24,108.65 166.8,111.2 169.37,108.34 166.68,105.93 		"/>
		<polygon class="st8" points="154.99,117.85 157.55,119.13 160.11,116.26 156.88,114.75 		"/>
		<polygon class="st9" points="150.08,122.7 152.64,123.99 155.2,121.12 151.97,119.6 		"/>
		<polygon class="st7" points="159.97,114.18 162.85,116.27 165.33,114.47 162.81,111.93 		"/>
		<polygon class="st7" points="110.62,145.21 116.23,144.7 116.23,147.74 114.24,147.74 114.46,149.18 119.89,156.56 119.88,156.56 
			126.68,163.36 128.05,161.99 133.8,167.74 135.52,166.01 138.02,168.5 139.28,167.24 151.28,179.24 150.02,180.5 152.51,183 
			150.78,184.72 156.03,189.97 154.66,191.33 161.58,198.26 161.59,198.25 168.38,205.05 169.75,203.68 175.49,209.43 177.22,207.7 
			179.71,210.2 180.98,208.93 192.98,220.93 191.71,222.2 194.21,224.69 192.48,226.42 197.72,231.66 196.36,233.03 203.55,240.22 
			200.01,243.24 189.22,232.44 191.03,230.62 189.32,228.91 189.37,228.86 187.21,226.7 190.02,223.89 178.02,211.89 175.73,214.17 
			173.6,212.04 173.03,212.61 171.92,211.51 170.1,213.33 158.32,201.55 158.31,201.55 147.52,190.75 149.34,188.93 147.63,187.22 
			147.68,187.17 145.51,185.01 148.32,182.2 136.32,170.2 134.04,172.48 131.9,170.35 131.33,170.92 130.22,169.82 128.4,171.64 
			117.05,159.42 117.06,159.41 112.93,149.29 112.94,147.74 111.59,147.74 		"/>
		
			<rect x="114.32" y="144.59" transform="matrix(8.150135e-03 -1 1 8.150135e-03 -30.8699 261.6306)" class="st10" width="4.27" height="3.58"/>
		<polygon class="st8" points="193.82,249.43 199.49,253.88 202.69,253.88 202.69,267.53 207.01,267.53 207.01,271.68 
			209.29,271.68 209.29,293.96 207.01,293.96 207.01,299.05 201.7,299.05 201.7,311.2 192.96,311.2 192.96,311.2 192.96,298.07 
			196.99,298.07 196.99,294.45 200.4,294.45 201.17,294.45 201.17,294.42 201.17,293.96 201.17,277.57 198.27,277.57 198.27,274.97 
			195.73,274.97 195.73,270.19 192.96,270.19 192.96,253.88 192.51,250.74 		"/>
		<polygon class="st7" points="197.87,245.38 199.49,253.88 193.82,249.43 		"/>
		<g>
			<polygon class="st0" points="112.93,149.29 117.06,159.43 114.47,161.98 			"/>
			<polygon class="st0" points="125.25,164.8 130.99,170.54 131.97,169.57 134.46,172.06 136.47,170.05 148.47,182.05 
				146.46,184.06 148.95,186.55 147.98,187.53 153.22,192.77 151.81,194.18 158.75,201.11 158.58,201.28 158.76,201.12 
				165.56,207.91 166.94,206.49 172.69,212.23 173.67,211.26 176.16,213.75 178.17,211.74 190.17,223.74 188.16,225.75 
				190.65,228.24 189.68,229.22 194.92,234.46 193.51,235.87 200.45,242.81 203.7,253.88 203.7,266.5 207.75,266.5 207.75,270.23 
				210.55,270.23 210.55,294.51 207.75,294.51 207.75,300.42 203.7,300.42 203.7,311.2 199.49,311.2 199.49,298.04 203.7,298.04 
				203.7,296.78 205.07,296.78 205.07,294.57 206.48,294.57 206.48,292.08 207.87,292.08 207.87,275.28 206.47,275.28 
				206.47,273.96 203.9,273.96 203.9,269.16 202.5,269.16 202.5,267.94 199.49,267.94 199.49,253.88 197.87,245.38 192.34,239.85 
				193.69,238.5 188.43,233.23 189.46,232.2 187.75,230.49 188.58,229.66 185.44,226.51 187.32,224.63 177.24,214.56 175.36,216.44 
				172.74,213.81 171.9,214.65 170.34,213.09 169.31,214.12 163.05,207.85 161.69,209.21 156.17,203.69 156.17,203.69 
				150.64,198.16 151.99,196.81 146.73,191.54 147.76,190.51 146.05,188.8 146.88,187.96 143.74,184.82 145.62,182.94 
				135.55,172.87 133.67,174.75 131.04,172.12 130.21,172.95 128.64,171.39 127.61,172.42 121.35,166.16 120,167.52 114.47,161.98 
				117.06,159.43 123.86,166.22 			"/>
		</g>
		<polygon class="st9" points="72.09,161.48 72.09,165.37 107.16,165.32 119.84,177.99 119.84,178 121.51,176.34 124.06,178.88 
			125.2,177.74 127.8,180.33 127.81,180.35 130.13,178.04 140.3,188.21 137.99,190.53 140.6,193.14 139.46,194.28 142.01,196.84 
			140.31,198.54 161.53,219.68 161.54,219.69 163.21,218.03 165.75,220.58 166.9,219.43 169.49,222.03 169.51,222.04 171.82,219.73 
			182,229.9 179.68,232.22 182.3,234.83 181.15,235.98 183.71,238.53 182.01,240.23 192.95,250.9 192.96,270.19 195.73,270.19 
			195.73,274.97 198.27,274.97 198.27,277.57 201.17,277.57 201.17,293.96 201.17,294.42 200.4,294.42 200.4,294.45 196.99,294.45 
			196.99,298.07 192.96,298.07 192.96,311.2 188.96,311.2 188.96,298.05 191.67,298.05 191.67,296.86 192.96,296.86 192.96,294.42 
			195.66,294.42 195.66,293.21 196.99,293.21 196.99,278.74 195.66,278.74 195.66,277.52 192.96,277.52 192.96,271.51 
			191.63,271.51 191.63,270.32 188.96,270.32 188.86,253.88 179.33,244.35 181,242.68 178.53,240.21 180.26,238.49 180.81,237.94 
			165.2,222.33 162.92,224.6 160.54,222.22 158.87,223.89 137.63,202.66 139.31,200.99 136.84,198.52 138.56,196.79 139.11,196.25 
			123.5,180.63 121.23,182.91 118.84,180.53 117.17,182.2 104.85,171.13 72.19,171.13 72.19,168.23 65.25,168.23 65.25,163.65 
			58.05,163.65 58.11,157.65 64.32,157.65 64.32,161.48 		"/>
		<polygon class="st7" points="199.3,237.86 202.89,241.45 206.2,237.05 204.83,234.27 		"/>
		<polygon class="st8" points="241.17,252.94 241.17,255.48 237.45,255.48 237.45,253.05 		"/>
		<polygon class="st8" points="239.62,252.51 239.62,255.04 236.99,255.04 236.99,252.62 		"/>
		<polygon class="st8" points="238.77,252.51 238.77,255.04 236.13,255.04 236.13,252.62 		"/>
		<polygon class="st7" points="211.63,253.65 211.58,256.18 204.02,256.18 203.7,253.72 		"/>
		
			<rect x="210.31" y="253.56" transform="matrix(-1 -4.496105e-11 4.496105e-11 -1 421.795 507.3723)" class="st7" width="1.17" height="0.25"/>
		
			<rect x="211.3" y="250.83" transform="matrix(-0.888 0.4599 -0.4599 -0.888 517.7341 379.2104)" class="st0" width="2.76" height="3.65"/>
		
			<rect x="203.09" y="234.04" transform="matrix(-0.8348 0.5505 -0.5505 -0.8348 504.7731 319.4453)" class="st10" width="2.76" height="2.81"/>
		
			<rect x="209.16" y="232.1" transform="matrix(-0.8348 0.5505 -0.5505 -0.8348 514.853 312.5385)" class="st10" width="2.76" height="2.81"/>
		
			<rect x="237.45" y="255.48" transform="matrix(-1 -4.496193e-11 4.496193e-11 -1 476.7605 513.5491)" class="st8" width="1.86" height="2.6"/>
		
			<rect x="212.51" y="219.44" transform="matrix(-0.7071 0.7071 -0.7071 -0.7071 525.8234 228.6987)" class="st10" width="6.07" height="7.62"/>
		<polygon class="st8" points="219.93,223.37 221.87,221.18 216.33,216.2 214.54,217.98 		"/>
		<polygon class="st7" points="221.76,221.09 225.62,218.27 220.44,213.77 218.09,216.12 		"/>
		
			<rect x="245.82" y="189.39" transform="matrix(-0.834 0.5518 -0.5518 -0.834 564.2109 215.2798)" class="st7" width="7.8" height="6.26"/>
		
			<rect x="251.81" y="193.41" transform="matrix(-0.834 0.5518 -0.5518 -0.834 574.6359 220.1821)" class="st7" width="4.76" height="6.26"/>
		<polygon class="st8" points="258.68,183.9 263.08,182.92 256.07,187.12 254.82,185.72 		"/>
		<polygon class="st9" points="260.67,181.92 263.36,182.92 263.64,183.28 261.8,185.54 258.68,183.9 		"/>
		<path class="st9" d="M264.18,183.35c-0.09,0.01-1.64,0-1.64,0v0.79h2.18L264.18,183.35z"/>
		
			<rect x="223.36" y="214.46" transform="matrix(-0.6624 -0.7492 0.7492 -0.6624 212.634 528.2189)" class="st7" width="3.97" height="3.47"/>
		
			<rect x="232.36" y="208.68" transform="matrix(-0.6624 -0.7492 0.7492 -0.6624 234.4446 525.3261)" class="st9" width="6.47" height="2.32"/>
		
			<rect x="237.87" y="200.31" transform="matrix(-0.6624 -0.7492 0.7492 -0.6624 247.4676 514.4557)" class="st9" width="3.57" height="2.32"/>
		<polygon class="st9" points="261.84,184.61 263.34,185.69 265.06,185.1 263.1,183.07 		"/>
		<polygon class="st4" points="271.49,178.95 268.98,176.43 264.71,177.87 260.67,181.92 263.36,182.92 269.41,180.04 
			271.49,180.02 		"/>
		<polygon class="st1" points="281.26,175.7 274.48,177.4 271.3,178.75 268.98,176.43 264.71,177.87 263.86,176.61 278.39,156.79 
			294.45,168.75 		"/>
		<polygon class="st0" points="241.11,272.7 241.11,270.41 243.1,270.41 243.1,267.68 245.29,267.68 245.29,265.65 247.02,265.65 
			247.02,253.88 248.77,253.88 248.77,251.71 253.12,251.71 253.12,249.42 255.53,249.42 255.61,255.98 252.39,255.95 
			252.39,267.89 249.87,267.89 249.87,296.84 252.39,296.84 252.39,311.2 247.02,311.2 247.02,299.02 245.29,299.02 245.29,297 
			243.1,297 243.1,294.37 241.11,294.37 241.11,292 238.5,292 238.5,272.7 		"/>
		<path class="st0" d="M273.26,272.7h2.29h1.19V268h3.36h0.65v-14.12l-6.65-10.58l3.03-1.31c0,0,7.19,11.46,7.67,11.92v16.61h-2.69
			v2.61h-2.85v18.6h2.92v2.59h2.62v16.88h-3.55h-0.5v-10.66h-0.65h-3.36v-5.04h-1.19h-2.29h-0.64V272.7H273.26z"/>
		<polygon class="st7" points="281.25,273.13 281.25,270.52 284.8,270.52 284.8,253.94 276.57,242.06 279.51,240.79 288.86,253.94 
			288.85,268.11 292.79,268.11 292.79,275.22 295.96,275.22 295.96,289.61 292.79,289.61 292.79,296.95 288.85,296.95 288.85,311.2 
			296.97,311.2 296.97,311.2 284.8,311.23 284.8,311.2 284.8,294.32 281.25,294.32 280.1,294.32 280.1,291.73 279.26,291.73 
			279.26,273.13 280.1,273.13 		"/>
		
			<rect x="300.57" y="227.92" transform="matrix(-0.9179 0.3967 -0.3967 -0.9179 670.5198 320.8939)" class="st4" width="3.01" height="3.74"/>
		
			<rect x="306.32" y="221.87" transform="matrix(-0.9179 0.3967 -0.3967 -0.9179 682.2482 311.5346)" class="st1" width="5.17" height="8.9"/>
		
			<rect x="329.04" y="231.89" transform="matrix(-0.9179 0.3967 -0.3967 -0.9179 736.9222 334.0607)" class="st1" width="9.74" height="22.7"/>
		
			<rect x="314.14" y="208.76" transform="matrix(-0.9179 0.3967 -0.3967 -0.9179 697.5721 287.9761)" class="st1" width="9.74" height="14.73"/>
		
			<rect x="185.75" y="263.66" transform="matrix(-1 -4.464707e-11 4.464707e-11 -1 373.6594 540.2388)" class="st6" width="2.16" height="12.92"/>
		<polyline class="st6" points="102.76,181.5 103.42,177.5 97.96,176.6 		"/>
		
			<rect x="106.19" y="8.04" transform="matrix(-1 -4.485091e-11 4.485091e-11 -1 222.4687 28.8356)" class="st2" width="10.1" height="12.76"/>
	</g>
	
		<rect x="14.51" y="27.04" transform="matrix(-1 -4.490021e-11 4.490021e-11 -1 52.4199 60.4169)" class="st1" width="23.4" height="6.33"/>
	
		<rect x="107.47" y="23.28" transform="matrix(-1 -4.488777e-11 4.488777e-11 -1 226.8525 56.5216)" class="st1" width="11.91" height="9.97"/>
	
		<rect x="104.75" y="16.87" transform="matrix(-1 -4.487978e-11 4.487978e-11 -1 218.179 43.7011)" class="st1" width="8.67" height="9.97"/>
</g>
<rect x="196.15" y="204.92" transform="matrix(0.7071 -0.7071 0.7071 0.7071 -88.2473 199.914)" class="st0" width="2.1" height="3.13"/>
<rect x="198.35" y="222.99" transform="matrix(0.7071 -0.7071 0.7071 0.7071 -100.3814 206.7667)" class="st0" width="2.1" height="3.13"/>
<rect x="5.79" y="121.77" transform="matrix(-1 -4.486379e-11 4.486379e-11 -1 16.5222 247.6647)" class="st0" width="4.95" height="4.13"/>
<rect x="48.09" y="121.77" transform="matrix(-1 -4.486379e-11 4.486379e-11 -1 101.129 247.6647)" class="st0" width="4.95" height="4.13"/>
<g>
	
		<rect x="33.4" y="126.01" transform="matrix(-1 -4.502855e-11 4.502855e-11 -1 71.0864 256.308)" class="st0" width="4.28" height="4.28"/>
	
		<rect x="21.07" y="126.01" transform="matrix(-1 -4.502855e-11 4.502855e-11 -1 46.4279 256.308)" class="st0" width="4.28" height="4.28"/>
	
		<rect x="25.72" y="121.44" transform="matrix(-1 -4.477542e-11 4.477542e-11 -1 59.1263 247.1533)" class="st0" width="7.68" height="4.28"/>
</g>
<rect x="63.91" y="121.77" transform="matrix(-1 -4.486379e-11 4.486379e-11 -1 132.7575 247.6647)" class="st0" width="4.95" height="4.13"/>
<rect x="106.21" y="121.77" transform="matrix(-1 -4.523150e-11 4.523150e-11 -1 217.3643 247.6647)" class="st0" width="4.95" height="4.13"/>
<g>
	
		<rect x="91.52" y="126.01" transform="matrix(-1 -4.502855e-11 4.502855e-11 -1 187.3217 256.308)" class="st0" width="4.28" height="4.28"/>
	
		<rect x="79.19" y="126.01" transform="matrix(-1 -4.460400e-11 4.460400e-11 -1 162.6632 256.308)" class="st0" width="4.28" height="4.28"/>
	
		<rect x="83.84" y="121.44" transform="matrix(-1 -4.501212e-11 4.501212e-11 -1 175.3616 247.1533)" class="st0" width="7.68" height="4.28"/>
</g>
<polygon class="st8" points="257.89,251.71 257.92,251.71 259.55,250.89 260.31,250.5 "/>
<rect x="329.6" y="250.56" transform="matrix(-1 -4.489399e-11 4.489399e-11 -1 691.3222 509.5421)" class="st1" width="32.13" height="8.41"/>
<polygon class="st9" points="268.64,275.24 268.64,271.62 267.47,271.62 267.47,253.23 270.6,253.23 270.6,253.19 271.47,253.19 
	269.3,249.22 273.17,248.35 275.09,251.55 275.55,253.91 275.56,253.91 275.56,272.7 273.26,272.7 272.62,272.7 272.62,295.51 
	273.26,295.51 275.56,295.51 275.56,311.2 280.1,311.2 280.1,311.2 272.62,311.23 272.62,311.2 272.62,300.52 268.64,300.52 
	268.64,289.52 264.59,289.52 264.59,275.24 "/>
</svg>
