<?xml version="1.0" encoding="utf-8"?>
<!-- Generator: Adobe Illustrator 26.0.3, SVG Export Plug-In . SVG Version: 6.00 Build 0)  -->
<svg version="1.1" id="Layer_1" xmlns="http://www.w3.org/2000/svg" xmlns:xlink="http://www.w3.org/1999/xlink" x="0px" y="0px"
	 viewBox="0 0 240 38" style="enable-background:new 0 0 240 38;" xml:space="preserve">
<style type="text/css">
	.st0{fill:#316B84;}
</style>
<g>
	<g>
		<path class="st0" d="M59.72,27.96L53.03,4.21L42.25,4.04l1.42,4.37l1.41-0.26l-7.9,24.22h8.44l-0.56-2.27l-0.81-3.27l8.9-5.7
			l1.78,11.24h7.97v-4.73L59.72,27.96z M45.62,20.21l3.13-10.84h1.5l2.02,7.44L45.62,20.21z"/>
		<path class="st0" d="M78.67,27.96V20.4l-4.11-2.5l3.29-3.78l-0.47-7.46l-2.82-2.45H56.65v5.27l3.81-1.11l2.31,13.36l-2.79,0.73
			L61,26.34l5.06-0.52l0.36-6.15l4.32,0.13l3.16,3.62v8.94l12.89,1.49v-5.34L78.67,27.96z M73.27,13.33l-2.18,1.45h-4.64l-0.42-6.57
			h5.68l1.55,1.37V13.33z"/>
		<polygon class="st0" points="84.65,4.21 93.01,4.21 95.75,6.46 96.26,10.9 92.23,12.43 91.77,9.74 88.97,8.28 85.86,9.82 
			83.88,15.02 85.51,20.94 88.49,22.38 91.99,20.59 91.99,18.59 96.26,16.96 95.85,22.85 91.81,26.87 84.17,26.55 80.79,23.58 
			78.87,14.87 80.79,6.94 		"/>
		<polygon class="st0" points="97.62,4.21 103.33,4.21 102.96,21.08 108.7,20.14 108.34,6.42 113.85,3.28 113.9,19.9 115.75,19.71 
			115.27,25.86 113.88,25.86 114.27,32.36 108.7,32.36 108.7,26.39 102.96,26.39 102.96,32.36 91.77,33.85 92.2,28.85 97.88,27.96 
					"/>
		<polygon class="st0" points="147.43,28.86 147.43,32.36 162.85,32.36 162.48,25.36 159.5,26 158.89,27.68 154.1,27.24 
			154.1,21.51 160.81,20.85 160.81,16.48 153.86,16.54 153.86,9.18 158.62,8.43 159.22,9.77 161.85,10.06 162.59,4 147.43,4 
			147.43,6.54 148.68,7.46 148.68,28.4 		"/>
		<polygon class="st0" points="163.89,9.24 163.89,4 172.31,4 170.35,26.87 179.55,24.74 179.55,32.36 164.51,32.34 164.65,28.71 
			165.73,27.84 165.73,9.59 		"/>
		<path class="st0" d="M193.69,32.36l-0.63-2.51l-2.84-1.89l-4.29-20.14L185.9,4h-11.27l-0.03,3.2l1.87-0.34l-2.79,14.07l-1.37,0.57
			v2.85l6.29-1.33l0.4-2.7l4.65-0.89l1.69,12.93H193.69z M179.39,15.11l1.65-6.52l0.89,0.25l0.92,5.45L179.39,15.11z"/>
		<polygon class="st0" points="208.47,21.68 210.62,21.12 210.04,18.15 200.51,17.46 198.87,21.13 203.56,21.9 203.32,23.91 
			200.58,25.19 196.44,23.77 194.48,17.19 196.2,10.02 200.08,8.52 203.31,9.62 202.85,11.75 207.79,13.6 208.83,9.69 204.71,4.21 
			195.57,4.21 191.24,7.36 189.29,16.87 192.06,27.54 199.03,30.53 203.2,29.3 203.09,32.36 209.01,32.36 209.4,29.95 207.38,28.99 
					"/>
		<path class="st0" d="M230.45,6.26L226.39,4l-8.59-0.01l-4.07,2.86l-2.58,8.9l1.52,11.82l5.61,4.73l7.65,0.01l5.72-4.59l2.47-12.46
			L230.45,6.26z M228.23,21.75l-3.95,5.45l-2.16,0.43l-4.6-3.46L216,15.72l2.4-7.02l5.14-0.48l2.97,1.79l1.74,5.83L228.23,21.75z"/>
		<path class="st0" d="M116.13,27.48l-0.24,4.88l12.26,0.09l-0.83-5.01l-2.86-0.48l0.14-17.62l2.45-0.42l-0.14-4.85l-10.92,0.36
			l0.1,4.6l3.2,0.63l-0.42,17.67L116.13,27.48z"/>
		<path class="st0" d="M141.34,4.21l-12.88-0.39v4.26l1.95,0.62v25.15l-1.8,1.41l-0.02,2.63h8.23L136,27.96h6.09l4.57-4.46V7.27
			L141.34,4.21z M141.38,20.51l-2.54,1.89l-3.23,0.16L135.4,9.32h3.88l2.1,1.68V20.51z"/>
	</g>
	<g>
		<path class="st0" d="M14.14,11.28c0,0.35-0.02,0.71-0.07,1.05c0.38,0.07,0.76,0.11,1.16,0.11s0.79-0.04,1.16-0.11
			c-0.05-0.34-0.07-0.7-0.07-1.05c0-3.23,1.94-6.02,4.72-7.25C20.17,1.68,17.9,0,15.24,0S10.3,1.68,9.42,4.03
			C12.2,5.26,14.14,8.04,14.14,11.28z"/>
		<path class="st0" d="M18.04,11.28c0,0.16,0.01,0.32,0.02,0.48c0.02,0.3,0.06,0.6,0.13,0.88c0.06,0.28,0.15,0.56,0.25,0.83
			c0.11,0.3,0.24,0.58,0.39,0.85c1.42-1.33,3.33-2.15,5.42-2.15s4.01,0.82,5.42,2.15c0.51-0.9,0.79-1.94,0.79-3.04
			c0-3.42-2.79-6.22-6.22-6.22c-0.4,0-0.79,0.04-1.16,0.11c-0.28,0.06-0.56,0.13-0.83,0.22c-0.28,0.09-0.56,0.21-0.83,0.35
			C19.42,6.77,18.04,8.87,18.04,11.28z"/>
		<path class="st0" d="M6.22,12.16c2.1,0,4.01,0.82,5.42,2.15c0.15-0.27,0.28-0.55,0.39-0.85c0.1-0.27,0.19-0.54,0.25-0.83
			c0.06-0.28,0.11-0.58,0.13-0.88c0.02-0.15,0.02-0.32,0.02-0.48c0-2.41-1.38-4.51-3.39-5.54C8.77,5.6,8.5,5.49,8.21,5.39
			c-0.27-0.1-0.55-0.17-0.83-0.22C7,5.1,6.61,5.06,6.22,5.06C2.79,5.06,0,7.85,0,11.28c0,1.1,0.28,2.14,0.79,3.04
			C2.21,12.98,4.12,12.16,6.22,12.16z"/>
		<path class="st0" d="M29.21,16.33c-0.18-0.23-0.36-0.44-0.57-0.65c-1.12-1.12-2.67-1.81-4.38-1.81c-1.71,0-3.25,0.69-4.38,1.81
			c-0.2,0.2-0.39,0.42-0.56,0.64c-0.18,0.23-0.34,0.47-0.47,0.72c-0.2,0.34-0.36,0.71-0.48,1.09c2.83,1.21,4.81,4.02,4.81,7.28
			c0,0.26-0.01,0.52-0.04,0.78c0.37,0.07,0.75,0.1,1.13,0.1c3.43,0,6.22-2.79,6.22-6.22c0-1.11-0.29-2.14-0.8-3.04
			C29.54,16.8,29.38,16.56,29.21,16.33z"/>
		<path class="st0" d="M12.12,18.14c-0.13-0.38-0.28-0.75-0.48-1.09c-0.14-0.26-0.3-0.5-0.47-0.72c-0.17-0.23-0.36-0.44-0.56-0.64
			c-1.12-1.12-2.67-1.81-4.38-1.81s-3.26,0.69-4.38,1.81c-0.21,0.2-0.39,0.42-0.56,0.64c-0.18,0.23-0.34,0.47-0.47,0.72
			C0.29,17.94,0,18.98,0,20.08c0,3.43,2.79,6.22,6.22,6.22c0.39,0,0.76-0.03,1.13-0.1c-0.03-0.26-0.04-0.52-0.04-0.78
			C7.31,22.15,9.29,19.34,12.12,18.14z"/>
		<path class="st0" d="M18.04,19.87c-0.27-0.14-0.55-0.26-0.84-0.35c-0.27-0.09-0.55-0.17-0.84-0.22c-0.37-0.07-0.75-0.1-1.13-0.1
			s-0.76,0.03-1.13,0.1c-0.28,0.05-0.57,0.13-0.84,0.22c-0.29,0.1-0.57,0.22-0.84,0.35C10.4,20.9,9.02,23,9.02,25.42
			c0,0.07,0,0.14,0.01,0.21c0.01,0.31,0.04,0.61,0.1,0.9c0.05,0.28,0.12,0.57,0.21,0.84c0.82,2.48,3.16,4.27,5.9,4.27
			s5.08-1.79,5.9-4.27c0.09-0.27,0.17-0.55,0.21-0.84c0.06-0.3,0.09-0.6,0.1-0.91c0.01-0.07,0.01-0.14,0.01-0.21
			C21.45,23,20.07,20.9,18.04,19.87z"/>
	</g>
</g>
</svg>
