<?xml version="1.0" encoding="utf-8"?><svg version="1.1" id="Layer_1" xmlns="http://www.w3.org/2000/svg" x="0" y="0" viewBox="0 0 240 38" style="enable-background:new 0 0 240 38" xml:space="preserve"><style>.st0{fill:#316b84}</style><path class="st0" d="M59.72 27.96 53.03 4.21l-10.78-.17 1.42 4.37 1.41-.26-7.9 24.22h8.44l-.56-2.27-.81-3.27 8.9-5.7 1.78 11.24h7.97v-4.73l-3.18.32zm-14.1-7.75 3.13-10.84h1.5l2.02 7.44-6.65 3.4z"/><path class="st0" d="M78.67 27.96V20.4l-4.11-2.5 3.29-3.78-.47-7.46-2.82-2.45H56.65v5.27l3.81-1.11 2.31 13.36-2.79.73L61 26.34l5.06-.52.36-6.15 4.32.13 3.16 3.62v8.94l12.89 1.49v-5.34l-8.12-.55zm-5.4-14.63-2.18 1.45h-4.64l-.42-6.57h5.68l1.55 1.37v3.75z"/><path class="st0" d="M84.65 4.21h8.36l2.74 2.25.51 4.44-4.03 1.53-.46-2.69-2.8-1.46-3.11 1.54-1.98 5.2 1.63 5.92 2.98 1.44 3.5-1.79v-2l4.27-1.63-.41 5.89-4.04 4.02-7.64-.32-3.38-2.97-1.92-8.71 1.92-7.93z"/><path class="st0" d="M97.62 4.21h5.71l-.37 16.87 5.74-.94-.36-13.72 5.51-3.14.05 16.62 1.85-.19-.48 6.15h-1.39l.39 6.5h-5.57v-5.97h-5.74v5.97l-11.19 1.49.43-5 5.68-.89zm49.81 24.65v3.5h15.42l-.37-7-2.98.64-.61 1.68-4.79-.44v-5.73l6.71-.66v-4.37l-6.95.06V9.18l4.76-.75.6 1.34 2.63.29.74-6.06h-15.16v2.54l1.25.92V28.4zm16.46-19.62V4h8.42l-1.96 22.87 9.2-2.13v7.62l-15.04-.02.14-3.63 1.08-.87V9.59z"/><path class="st0" d="m193.69 32.36-.63-2.51-2.84-1.89-4.29-20.14L185.9 4h-11.27l-.03 3.2 1.87-.34-2.79 14.07-1.37.57v2.85l6.29-1.33.4-2.7 4.65-.89 1.69 12.93h8.35zm-14.3-17.25 1.65-6.52.89.25.92 5.45-3.46.82z"/><path class="st0" d="m208.47 21.68 2.15-.56-.58-2.97-9.53-.69-1.64 3.67 4.69.77-.24 2.01-2.74 1.28-4.14-1.42-1.96-6.58 1.72-7.17 3.88-1.5 3.23 1.1-.46 2.13 4.94 1.85 1.04-3.91-4.12-5.48h-9.14l-4.33 3.15-1.95 9.51 2.77 10.67 6.97 2.99 4.17-1.23-.11 3.06h5.92l.39-2.41-2.02-.96zm21.98-15.42L226.39 4l-8.59-.01-4.07 2.86-2.58 8.9 1.52 11.82 5.61 4.73 7.65.01 5.72-4.59 2.47-12.46-3.67-9zm-2.22 15.49-3.95 5.45-2.16.43-4.6-3.46-1.52-8.45 2.4-7.02 5.14-.48 2.97 1.79 1.74 5.83-.02 5.91zm-112.1 5.73-.24 4.88 12.26.09-.83-5.01-2.86-.48.14-17.62 2.45-.42-.14-4.85-10.92.36.1 4.6 3.2.63-.42 17.67-2.74.15zm25.21-23.27-12.88-.39v4.26l1.95.62v25.15l-1.8 1.41-.02 2.63h8.23l-.82-9.93h6.09l4.57-4.46V7.27l-5.32-3.06zm.04 16.3-2.54 1.89-3.23.16-.21-13.24h3.88l2.1 1.68v9.51zM14.14 11.28c0 .35-.02.71-.07 1.05.38.07.76.11 1.16.11s.79-.04 1.16-.11a7.933 7.933 0 0 1 4.65-8.3C20.17 1.68 17.9 0 15.24 0S10.3 1.68 9.42 4.03a7.922 7.922 0 0 1 4.72 7.25z"/><path class="st0" d="M18.04 11.28c0 .16.01.32.02.48.02.3.06.6.13.88.06.28.15.56.25.83.11.3.24.58.39.85 1.42-1.33 3.33-2.15 5.42-2.15s4.01.82 5.42 2.15c.51-.9.79-1.94.79-3.04 0-3.42-2.79-6.22-6.22-6.22-.4 0-.79.04-1.16.11-.28.06-.56.13-.83.22-.28.09-.56.21-.83.35a6.24 6.24 0 0 0-3.38 5.54zm-11.82.88c2.1 0 4.01.82 5.42 2.15.15-.27.28-.55.39-.85.1-.27.19-.54.25-.83.06-.28.11-.58.13-.88.02-.15.02-.32.02-.48a6.23 6.23 0 0 0-3.39-5.54c-.27-.13-.54-.24-.83-.34-.27-.1-.55-.17-.83-.22a6.42 6.42 0 0 0-1.16-.11 6.227 6.227 0 0 0-5.43 9.26 7.885 7.885 0 0 1 5.43-2.16z"/><path class="st0" d="M29.21 16.33c-.18-.23-.36-.44-.57-.65a6.174 6.174 0 0 0-4.38-1.81 6.192 6.192 0 0 0-4.94 2.45c-.18.23-.34.47-.47.72-.2.34-.36.71-.48 1.09a7.923 7.923 0 0 1 4.77 8.06c.37.07.75.1 1.13.1 3.43 0 6.22-2.79 6.22-6.22 0-1.11-.29-2.14-.8-3.04-.15-.23-.31-.47-.48-.7zm-17.09 1.81c-.13-.38-.28-.75-.48-1.09-.14-.26-.3-.5-.47-.72-.17-.23-.36-.44-.56-.64-1.12-1.12-2.67-1.81-4.38-1.81s-3.26.69-4.38 1.81c-.21.2-.39.42-.56.64-.18.23-.34.47-.47.72-.53.89-.82 1.93-.82 3.03 0 3.43 2.79 6.22 6.22 6.22.39 0 .76-.03 1.13-.1a7.902 7.902 0 0 1 4.77-8.06z"/><path class="st0" d="M18.04 19.87c-.27-.14-.55-.26-.84-.35-.27-.09-.55-.17-.84-.22-.37-.07-.75-.1-1.13-.1s-.76.03-1.13.1c-.28.05-.57.13-.84.22-.29.1-.57.22-.84.35a6.225 6.225 0 0 0-3.4 5.55c0 .07 0 .14.01.21.01.31.04.61.1.9.05.28.12.57.21.84.82 2.48 3.16 4.27 5.9 4.27s5.08-1.79 5.9-4.27c.09-.27.17-.55.21-.84.06-.3.09-.6.1-.91.01-.07.01-.14.01-.21a6.24 6.24 0 0 0-3.42-5.54z"/></svg>